%TF.GenerationSoftware,KiCad,Pcbnew,6.99.0-unknown-5a2f351f28~146~ubuntu20.04.1*%
%TF.CreationDate,2022-01-27T10:55:03+08:00*%
%TF.ProjectId,M5Pi,4d355069-2e6b-4696-9361-645f70636258,1.0*%
%TF.SameCoordinates,Original*%
%TF.FileFunction,Paste,Top*%
%TF.FilePolarity,Positive*%
%FSLAX46Y46*%
G04 Gerber Fmt 4.6, Leading zero omitted, Abs format (unit mm)*
G04 Created by KiCad (PCBNEW 6.99.0-unknown-5a2f351f28~146~ubuntu20.04.1) date 2022-01-27 10:55:03*
%MOMM*%
%LPD*%
G01*
G04 APERTURE LIST*
G04 Aperture macros list*
%AMRoundRect*
0 Rectangle with rounded corners*
0 $1 Rounding radius*
0 $2 $3 $4 $5 $6 $7 $8 $9 X,Y pos of 4 corners*
0 Add a 4 corners polygon primitive as box body*
4,1,4,$2,$3,$4,$5,$6,$7,$8,$9,$2,$3,0*
0 Add four circle primitives for the rounded corners*
1,1,$1+$1,$2,$3*
1,1,$1+$1,$4,$5*
1,1,$1+$1,$6,$7*
1,1,$1+$1,$8,$9*
0 Add four rect primitives between the rounded corners*
20,1,$1+$1,$2,$3,$4,$5,0*
20,1,$1+$1,$4,$5,$6,$7,0*
20,1,$1+$1,$6,$7,$8,$9,0*
20,1,$1+$1,$8,$9,$2,$3,0*%
G04 Aperture macros list end*
%ADD10RoundRect,0.155000X0.212500X0.155000X-0.212500X0.155000X-0.212500X-0.155000X0.212500X-0.155000X0*%
%ADD11RoundRect,0.155000X-0.155000X0.212500X-0.155000X-0.212500X0.155000X-0.212500X0.155000X0.212500X0*%
%ADD12RoundRect,0.160000X-0.197500X-0.160000X0.197500X-0.160000X0.197500X0.160000X-0.197500X0.160000X0*%
%ADD13RoundRect,0.160000X-0.160000X0.197500X-0.160000X-0.197500X0.160000X-0.197500X0.160000X0.197500X0*%
%ADD14RoundRect,0.160000X0.160000X-0.197500X0.160000X0.197500X-0.160000X0.197500X-0.160000X-0.197500X0*%
%ADD15RoundRect,0.155000X-0.212500X-0.155000X0.212500X-0.155000X0.212500X0.155000X-0.212500X0.155000X0*%
%ADD16RoundRect,0.250000X0.850000X-0.375000X0.850000X0.375000X-0.850000X0.375000X-0.850000X-0.375000X0*%
%ADD17R,1.200000X1.400000*%
%ADD18R,1.200000X2.200000*%
%ADD19R,1.600000X1.400000*%
%ADD20R,0.700000X1.600000*%
%ADD21RoundRect,0.135000X-0.135000X-0.185000X0.135000X-0.185000X0.135000X0.185000X-0.135000X0.185000X0*%
%ADD22R,1.400000X0.300000*%
%ADD23RoundRect,0.155000X0.155000X-0.212500X0.155000X0.212500X-0.155000X0.212500X-0.155000X-0.212500X0*%
%ADD24RoundRect,0.225000X-0.225000X-0.250000X0.225000X-0.250000X0.225000X0.250000X-0.225000X0.250000X0*%
%ADD25RoundRect,0.150000X0.150000X-0.512500X0.150000X0.512500X-0.150000X0.512500X-0.150000X-0.512500X0*%
%ADD26RoundRect,0.150000X-0.150000X0.512500X-0.150000X-0.512500X0.150000X-0.512500X0.150000X0.512500X0*%
%ADD27RoundRect,0.160000X0.197500X0.160000X-0.197500X0.160000X-0.197500X-0.160000X0.197500X-0.160000X0*%
%ADD28RoundRect,0.160000X0.222500X0.160000X-0.222500X0.160000X-0.222500X-0.160000X0.222500X-0.160000X0*%
%ADD29RoundRect,0.225000X0.250000X-0.225000X0.250000X0.225000X-0.250000X0.225000X-0.250000X-0.225000X0*%
%ADD30RoundRect,0.135000X0.185000X-0.135000X0.185000X0.135000X-0.185000X0.135000X-0.185000X-0.135000X0*%
%ADD31R,1.100000X3.700000*%
%ADD32RoundRect,0.150000X0.350000X0.150000X-0.350000X0.150000X-0.350000X-0.150000X0.350000X-0.150000X0*%
%ADD33RoundRect,0.600000X-0.600000X1.050000X-0.600000X-1.050000X0.600000X-1.050000X0.600000X1.050000X0*%
%ADD34RoundRect,0.225000X-0.250000X0.225000X-0.250000X-0.225000X0.250000X-0.225000X0.250000X0.225000X0*%
%ADD35R,0.875000X1.100000*%
%ADD36RoundRect,0.075000X-0.350000X-0.075000X0.350000X-0.075000X0.350000X0.075000X-0.350000X0.075000X0*%
%ADD37RoundRect,0.075000X0.075000X-0.350000X0.075000X0.350000X-0.075000X0.350000X-0.075000X-0.350000X0*%
%ADD38RoundRect,0.225000X0.225000X0.250000X-0.225000X0.250000X-0.225000X-0.250000X0.225000X-0.250000X0*%
%ADD39RoundRect,0.150000X0.512500X0.150000X-0.512500X0.150000X-0.512500X-0.150000X0.512500X-0.150000X0*%
%ADD40RoundRect,0.237500X-0.287500X-0.237500X0.287500X-0.237500X0.287500X0.237500X-0.287500X0.237500X0*%
%ADD41R,1.150000X0.300000*%
%ADD42R,1.400000X1.200000*%
%ADD43RoundRect,0.150000X-0.587500X-0.150000X0.587500X-0.150000X0.587500X0.150000X-0.587500X0.150000X0*%
%ADD44RoundRect,0.232500X-0.232500X0.232500X-0.232500X-0.232500X0.232500X-0.232500X0.232500X0.232500X0*%
%ADD45RoundRect,0.062500X-0.062500X0.375000X-0.062500X-0.375000X0.062500X-0.375000X0.062500X0.375000X0*%
%ADD46RoundRect,0.062500X-0.375000X0.062500X-0.375000X-0.062500X0.375000X-0.062500X0.375000X0.062500X0*%
%ADD47RoundRect,0.250000X-0.425000X0.450000X-0.425000X-0.450000X0.425000X-0.450000X0.425000X0.450000X0*%
%ADD48RoundRect,0.135000X0.135000X0.185000X-0.135000X0.185000X-0.135000X-0.185000X0.135000X-0.185000X0*%
%ADD49RoundRect,0.147500X0.147500X0.172500X-0.147500X0.172500X-0.147500X-0.172500X0.147500X-0.172500X0*%
%ADD50O,0.200000X0.800000*%
%ADD51O,0.800000X0.200000*%
%ADD52R,3.420000X3.420000*%
%ADD53RoundRect,0.135000X-0.185000X0.135000X-0.185000X-0.135000X0.185000X-0.135000X0.185000X0.135000X0*%
%ADD54R,1.520000X1.680000*%
%ADD55RoundRect,0.150000X-0.150000X0.675000X-0.150000X-0.675000X0.150000X-0.675000X0.150000X0.675000X0*%
%ADD56R,1.498600X1.798320*%
%ADD57RoundRect,0.250000X0.375000X0.850000X-0.375000X0.850000X-0.375000X-0.850000X0.375000X-0.850000X0*%
%ADD58RoundRect,0.147500X0.172500X-0.147500X0.172500X0.147500X-0.172500X0.147500X-0.172500X-0.147500X0*%
%ADD59R,1.100000X0.875000*%
%ADD60RoundRect,0.250000X-0.850000X0.375000X-0.850000X-0.375000X0.850000X-0.375000X0.850000X0.375000X0*%
G04 APERTURE END LIST*
D10*
%TO.C,C5*%
X143800853Y-72401564D03*
X142665853Y-72401564D03*
%TD*%
D11*
%TO.C,C26*%
X126813353Y-97384064D03*
X126813353Y-98519064D03*
%TD*%
D10*
%TO.C,C21*%
X123123353Y-87621564D03*
X121988353Y-87621564D03*
%TD*%
D11*
%TO.C,C53*%
X126263353Y-101934064D03*
X126263353Y-103069064D03*
%TD*%
D12*
%TO.C,R19*%
X133065853Y-113601564D03*
X134260853Y-113601564D03*
%TD*%
D13*
%TO.C,R11*%
X142178353Y-96646564D03*
X142178353Y-97841564D03*
%TD*%
D11*
%TO.C,C14*%
X134013353Y-80134064D03*
X134013353Y-81269064D03*
%TD*%
D14*
%TO.C,R13*%
X140128353Y-97841564D03*
X140128353Y-96646564D03*
%TD*%
D11*
%TO.C,C47*%
X127123353Y-73616564D03*
X127123353Y-74751564D03*
%TD*%
D15*
%TO.C,C44*%
X121988353Y-86601564D03*
X123123353Y-86601564D03*
%TD*%
D16*
%TO.C,L1*%
X150813353Y-70096564D03*
X150813353Y-67946564D03*
%TD*%
D10*
%TO.C,C40*%
X140680853Y-84651564D03*
X139545853Y-84651564D03*
%TD*%
D14*
%TO.C,R6*%
X122513353Y-92219064D03*
X122513353Y-91024064D03*
%TD*%
D17*
%TO.C,J1*%
X134513352Y-100771563D03*
D18*
X134513352Y-110371563D03*
D19*
X149113352Y-100771563D03*
D18*
X150013352Y-110371563D03*
D20*
X144513352Y-100271563D03*
X143413352Y-100271563D03*
X142313352Y-100271563D03*
X141213352Y-100271563D03*
X140113352Y-100271563D03*
X139013352Y-100271563D03*
X137913352Y-100271563D03*
X136813352Y-100271563D03*
X135713352Y-100271563D03*
%TD*%
D21*
%TO.C,R25*%
X145195853Y-86551564D03*
X146215853Y-86551564D03*
%TD*%
D14*
%TO.C,R34*%
X128163353Y-77096564D03*
X128163353Y-75901564D03*
%TD*%
D22*
%TO.C,U1*%
X151373352Y-96891563D03*
X151373352Y-96391563D03*
X151373352Y-95891563D03*
X151373352Y-95391563D03*
X151373352Y-94891563D03*
X146973352Y-94891563D03*
X146973352Y-95391563D03*
X146973352Y-95891563D03*
X146973352Y-96391563D03*
X146973352Y-96891563D03*
%TD*%
D23*
%TO.C,C20*%
X128538353Y-81269064D03*
X128538353Y-80134064D03*
%TD*%
D10*
%TO.C,C12*%
X141330853Y-93301564D03*
X140195853Y-93301564D03*
%TD*%
D24*
%TO.C,C33*%
X149963353Y-66246564D03*
X151513353Y-66246564D03*
%TD*%
D13*
%TO.C,R32*%
X151000000Y-104402500D03*
X151000000Y-105597500D03*
%TD*%
D25*
%TO.C,U6*%
X146733353Y-70239064D03*
X147683353Y-70239064D03*
X148633353Y-70239064D03*
X148633353Y-67964064D03*
X146733353Y-67964064D03*
%TD*%
D12*
%TO.C,R10*%
X121958353Y-89691564D03*
X123153353Y-89691564D03*
%TD*%
D23*
%TO.C,C7*%
X132533353Y-77136564D03*
X132533353Y-76001564D03*
%TD*%
D26*
%TO.C,U7*%
X152363353Y-74376564D03*
X151413353Y-74376564D03*
X150463353Y-74376564D03*
X150463353Y-76651564D03*
X152363353Y-76651564D03*
%TD*%
D15*
%TO.C,C50*%
X156795853Y-72201564D03*
X157930853Y-72201564D03*
%TD*%
%TO.C,C22*%
X140195853Y-92201564D03*
X141330853Y-92201564D03*
%TD*%
D13*
%TO.C,Ri1*%
X119813353Y-73586564D03*
X119813353Y-74781564D03*
%TD*%
D27*
%TO.C,R30*%
X140710853Y-83601564D03*
X139515853Y-83601564D03*
%TD*%
D23*
%TO.C,Ci1*%
X119813353Y-77066564D03*
X119813353Y-75931564D03*
%TD*%
D14*
%TO.C,R16*%
X138113353Y-97841564D03*
X138113353Y-96646564D03*
%TD*%
D13*
%TO.C,R15*%
X144253353Y-96646564D03*
X144253353Y-97841564D03*
%TD*%
D28*
%TO.C,TBD1*%
X138758353Y-71151564D03*
X137613353Y-71151564D03*
%TD*%
D29*
%TO.C,C42*%
X148350853Y-90476564D03*
X148350853Y-88926564D03*
%TD*%
D13*
%TO.C,R8*%
X122033353Y-99936564D03*
X122033353Y-101131564D03*
%TD*%
%TO.C,R4*%
X151613353Y-87956564D03*
X151613353Y-89151564D03*
%TD*%
D14*
%TO.C,R7*%
X121463353Y-92249064D03*
X121463353Y-91054064D03*
%TD*%
D13*
%TO.C,R35*%
X128153353Y-73586564D03*
X128153353Y-74781564D03*
%TD*%
D30*
%TO.C,R24*%
X153693353Y-75159064D03*
X153693353Y-74139064D03*
%TD*%
D10*
%TO.C,C1*%
X144280853Y-95601564D03*
X143145853Y-95601564D03*
%TD*%
D12*
%TO.C,R9*%
X121958353Y-88651564D03*
X123153353Y-88651564D03*
%TD*%
D27*
%TO.C,R36*%
X155660853Y-72201564D03*
X154465853Y-72201564D03*
%TD*%
D11*
%TO.C,C3*%
X138813353Y-68984064D03*
X138813353Y-70119064D03*
%TD*%
D13*
%TO.C,R3*%
X151613353Y-90254064D03*
X151613353Y-91449064D03*
%TD*%
D31*
%TO.C,L4*%
X132463352Y-106701563D03*
X129463352Y-106701563D03*
%TD*%
D32*
%TO.C,U10*%
X124763353Y-108606564D03*
X124763353Y-107336564D03*
X124763353Y-106066564D03*
X124763353Y-104796564D03*
X119763353Y-104796564D03*
X119763353Y-106066564D03*
X119763353Y-107336564D03*
X119763353Y-108606564D03*
D33*
X122263353Y-106601564D03*
%TD*%
D12*
%TO.C,R5*%
X142635853Y-71361564D03*
X143830853Y-71361564D03*
%TD*%
D27*
%TO.C,R18*%
X128508353Y-112061564D03*
X127313353Y-112061564D03*
%TD*%
D34*
%TO.C,C37*%
X143985853Y-83526564D03*
X143985853Y-85076564D03*
%TD*%
D14*
%TO.C,R37*%
X151000000Y-103297500D03*
X151000000Y-102102500D03*
%TD*%
D35*
%TO.C,SW2*%
X158076352Y-73941563D03*
X158076352Y-79441563D03*
X156451352Y-73941563D03*
X156451352Y-79441563D03*
%TD*%
D36*
%TO.C,U4*%
X120583353Y-94891564D03*
X120583353Y-95391564D03*
X120583353Y-95891564D03*
X120583353Y-96391564D03*
X120583353Y-96891564D03*
X120583353Y-97391564D03*
D37*
X121283353Y-98091564D03*
X121783353Y-98091564D03*
X122283353Y-98091564D03*
X122783353Y-98091564D03*
X123283353Y-98091564D03*
X123783353Y-98091564D03*
D36*
X124483353Y-97391564D03*
X124483353Y-96891564D03*
X124483353Y-96391564D03*
X124483353Y-95891564D03*
X124483353Y-95391564D03*
X124483353Y-94891564D03*
D37*
X123783353Y-94191564D03*
X123283353Y-94191564D03*
X122783353Y-94191564D03*
X122283353Y-94191564D03*
X121783353Y-94191564D03*
X121283353Y-94191564D03*
%TD*%
D15*
%TO.C,C8*%
X142665853Y-70321564D03*
X143800853Y-70321564D03*
%TD*%
D38*
%TO.C,C38*%
X149163353Y-78359064D03*
X147613353Y-78359064D03*
%TD*%
D15*
%TO.C,C49*%
X121675853Y-80541564D03*
X122810853Y-80541564D03*
%TD*%
D39*
%TO.C,U8*%
X147963353Y-85251564D03*
X147963353Y-84301564D03*
X147963353Y-83351564D03*
X145688353Y-83351564D03*
X145688353Y-85251564D03*
%TD*%
D12*
%TO.C,R17*%
X127313353Y-109991564D03*
X128508353Y-109991564D03*
%TD*%
D40*
%TO.C,D1*%
X127088353Y-113601564D03*
X128838353Y-113601564D03*
%TD*%
D24*
%TO.C,C36*%
X150638353Y-78359064D03*
X152188353Y-78359064D03*
%TD*%
D23*
%TO.C,C11*%
X133388353Y-98519064D03*
X133388353Y-97384064D03*
%TD*%
D38*
%TO.C,C32*%
X148458353Y-66251564D03*
X146908353Y-66251564D03*
%TD*%
D13*
%TO.C,R12*%
X143203353Y-96646564D03*
X143203353Y-97841564D03*
%TD*%
D23*
%TO.C,C18*%
X123558353Y-92189064D03*
X123558353Y-91054064D03*
%TD*%
D15*
%TO.C,C28*%
X127343353Y-111031564D03*
X128478353Y-111031564D03*
%TD*%
D41*
%TO.C,UART1*%
X153993352Y-93051563D03*
X153993352Y-92251563D03*
X153993352Y-90951563D03*
X153993352Y-89951563D03*
X153993352Y-89451563D03*
X153993352Y-88451563D03*
X153993352Y-87151563D03*
X153993352Y-86351563D03*
X153993352Y-86651563D03*
X153993352Y-87451563D03*
X153993352Y-87951563D03*
X153993352Y-88951563D03*
X153993352Y-90451563D03*
X153993352Y-91451563D03*
X153993352Y-91951563D03*
X153993352Y-92751563D03*
%TD*%
D10*
%TO.C,C13*%
X140700853Y-90121564D03*
X139565853Y-90121564D03*
%TD*%
D42*
%TO.C,Y2*%
X128463352Y-98801563D03*
X130663352Y-98801563D03*
X130663352Y-97101563D03*
X128463352Y-97101563D03*
%TD*%
D10*
%TO.C,C41*%
X140680853Y-86751564D03*
X139545853Y-86751564D03*
%TD*%
D29*
%TO.C,C39*%
X143970853Y-82041564D03*
X143970853Y-80491564D03*
%TD*%
D43*
%TO.C,U9*%
X144325853Y-88751564D03*
X144325853Y-90651564D03*
X146200853Y-89701564D03*
%TD*%
D27*
%TO.C,R29*%
X139288353Y-80181564D03*
X138093353Y-80181564D03*
%TD*%
D10*
%TO.C,C51*%
X120898353Y-103401564D03*
X119763353Y-103401564D03*
%TD*%
D11*
%TO.C,C17*%
X124083353Y-99966564D03*
X124083353Y-101101564D03*
%TD*%
D27*
%TO.C,R31*%
X140710853Y-85701564D03*
X139515853Y-85701564D03*
%TD*%
D44*
%TO.C,U2*%
X138663353Y-74551564D03*
X137513353Y-74551564D03*
X136363353Y-74551564D03*
X138663353Y-75701564D03*
X137513353Y-75701564D03*
X136363353Y-75701564D03*
X138663353Y-76851564D03*
X137513353Y-76851564D03*
X136363353Y-76851564D03*
D45*
X139263353Y-73264064D03*
X138763353Y-73264064D03*
X138263353Y-73264064D03*
X137763353Y-73264064D03*
X137263353Y-73264064D03*
X136763353Y-73264064D03*
X136263353Y-73264064D03*
X135763353Y-73264064D03*
D46*
X135075853Y-73951564D03*
X135075853Y-74451564D03*
X135075853Y-74951564D03*
X135075853Y-75451564D03*
X135075853Y-75951564D03*
X135075853Y-76451564D03*
X135075853Y-76951564D03*
X135075853Y-77451564D03*
D45*
X135763353Y-78139064D03*
X136263353Y-78139064D03*
X136763353Y-78139064D03*
X137263353Y-78139064D03*
X137763353Y-78139064D03*
X138263353Y-78139064D03*
X138763353Y-78139064D03*
X139263353Y-78139064D03*
D46*
X139950853Y-77451564D03*
X139950853Y-76951564D03*
X139950853Y-76451564D03*
X139950853Y-75951564D03*
X139950853Y-75451564D03*
X139950853Y-74951564D03*
X139950853Y-74451564D03*
X139950853Y-73951564D03*
%TD*%
D47*
%TO.C,C56*%
X127113353Y-105551564D03*
X127113353Y-108251564D03*
%TD*%
D15*
%TO.C,C48*%
X123983353Y-80541564D03*
X125118353Y-80541564D03*
%TD*%
D48*
%TO.C,R2*%
X123373353Y-103401564D03*
X122353353Y-103401564D03*
%TD*%
D49*
%TO.C,D2*%
X123348353Y-102401564D03*
X122378353Y-102401564D03*
%TD*%
D50*
%TO.C,U3*%
X135793352Y-83451563D03*
X135393352Y-83451563D03*
X134993352Y-83451563D03*
X134593352Y-83451563D03*
X134193352Y-83451563D03*
X133793352Y-83451563D03*
X133393352Y-83451563D03*
X132993352Y-83451563D03*
X132593352Y-83451563D03*
X132193352Y-83451563D03*
X131793352Y-83451563D03*
X131393352Y-83451563D03*
X130993352Y-83451563D03*
X130593352Y-83451563D03*
X130193352Y-83451563D03*
X129793352Y-83451563D03*
X129393352Y-83451563D03*
X128993352Y-83451563D03*
X128593352Y-83451563D03*
X128193352Y-83451563D03*
X127793352Y-83451563D03*
X127393352Y-83451563D03*
D51*
X126693352Y-84151563D03*
X126693352Y-84551563D03*
X126693352Y-84951563D03*
X126693352Y-85351563D03*
X126693352Y-85751563D03*
X126693352Y-86151563D03*
X126693352Y-86551563D03*
X126693352Y-86951563D03*
X126693352Y-87351563D03*
X126693352Y-87751563D03*
X126693352Y-88151563D03*
X126693352Y-88551563D03*
X126693352Y-88951563D03*
X126693352Y-89351563D03*
X126693352Y-89751563D03*
X126693352Y-90151563D03*
X126693352Y-90551563D03*
X126693352Y-90951563D03*
X126693352Y-91351563D03*
X126693352Y-91751563D03*
X126693352Y-92151563D03*
X126693352Y-92551563D03*
D50*
X127393352Y-93251563D03*
X127793352Y-93251563D03*
X128193352Y-93251563D03*
X128593352Y-93251563D03*
X128993352Y-93251563D03*
X129393352Y-93251563D03*
X129793352Y-93251563D03*
X130193352Y-93251563D03*
X130593352Y-93251563D03*
X130993352Y-93251563D03*
X131393352Y-93251563D03*
X131793352Y-93251563D03*
X132193352Y-93251563D03*
X132593352Y-93251563D03*
X132993352Y-93251563D03*
X133393352Y-93251563D03*
X133793352Y-93251563D03*
X134193352Y-93251563D03*
X134593352Y-93251563D03*
X134993352Y-93251563D03*
X135393352Y-93251563D03*
X135793352Y-93251563D03*
D51*
X136493352Y-92551563D03*
X136493352Y-92151563D03*
X136493352Y-91751563D03*
X136493352Y-91351563D03*
X136493352Y-90951563D03*
X136493352Y-90551563D03*
X136493352Y-90151563D03*
X136493352Y-89751563D03*
X136493352Y-89351563D03*
X136493352Y-88951563D03*
X136493352Y-88551563D03*
X136493352Y-88151563D03*
X136493352Y-87751563D03*
X136493352Y-87351563D03*
X136493352Y-86951563D03*
X136493352Y-86551563D03*
X136493352Y-86151563D03*
X136493352Y-85751563D03*
X136493352Y-85351563D03*
X136493352Y-84951563D03*
X136493352Y-84551563D03*
X136493352Y-84151563D03*
D52*
X131593352Y-88351563D03*
%TD*%
D23*
%TO.C,C6*%
X132533353Y-74859064D03*
X132533353Y-73724064D03*
%TD*%
D24*
%TO.C,C43*%
X144488353Y-92451564D03*
X146038353Y-92451564D03*
%TD*%
D30*
%TO.C,R23*%
X153693353Y-77119064D03*
X153693353Y-76099064D03*
%TD*%
D24*
%TO.C,C31*%
X146888353Y-72001564D03*
X148438353Y-72001564D03*
%TD*%
D11*
%TO.C,C16*%
X120993353Y-99966564D03*
X120993353Y-101101564D03*
%TD*%
D10*
%TO.C,C45*%
X123123353Y-85581564D03*
X121988353Y-85581564D03*
%TD*%
D14*
%TO.C,R14*%
X139129353Y-97841564D03*
X139129353Y-96646564D03*
%TD*%
D53*
%TO.C,R21*%
X145403353Y-67476564D03*
X145403353Y-68496564D03*
%TD*%
D54*
%TO.C,D4*%
X128613352Y-102501563D03*
X132513352Y-102501563D03*
%TD*%
D23*
%TO.C,C27*%
X141153353Y-97811564D03*
X141153353Y-96676564D03*
%TD*%
D21*
%TO.C,R1*%
X119853353Y-102401564D03*
X120873353Y-102401564D03*
%TD*%
D10*
%TO.C,C23*%
X123123353Y-83531564D03*
X121988353Y-83531564D03*
%TD*%
D15*
%TO.C,C4*%
X142670853Y-78001564D03*
X143805853Y-78001564D03*
%TD*%
D43*
%TO.C,Q1*%
X130425853Y-110051564D03*
X130425853Y-111951564D03*
X132300853Y-111001564D03*
%TD*%
D12*
%TO.C,R28*%
X135768353Y-80181564D03*
X136963353Y-80181564D03*
%TD*%
D27*
%TO.C,R27*%
X136508353Y-71151564D03*
X135313353Y-71151564D03*
%TD*%
D55*
%TO.C,U5*%
X125383353Y-72781564D03*
X124113353Y-72781564D03*
X122843353Y-72781564D03*
X121573353Y-72781564D03*
X121573353Y-78031564D03*
X122843353Y-78031564D03*
X124113353Y-78031564D03*
X125383353Y-78031564D03*
%TD*%
D21*
%TO.C,R26*%
X147195853Y-86561564D03*
X148215853Y-86561564D03*
%TD*%
D15*
%TO.C,C57*%
X137645853Y-67951564D03*
X138780853Y-67951564D03*
%TD*%
D11*
%TO.C,C10*%
X129663353Y-80134064D03*
X129663353Y-81269064D03*
%TD*%
%TO.C,C9*%
X133013353Y-80134064D03*
X133013353Y-81269064D03*
%TD*%
D56*
%TO.C,AE1*%
X138733812Y-66174366D03*
X129737132Y-66174366D03*
X134735472Y-66174366D03*
%TD*%
D57*
%TO.C,L3*%
X147820853Y-81141564D03*
X145670853Y-81141564D03*
%TD*%
D58*
%TO.C,D3*%
X125063353Y-103386564D03*
X125063353Y-102416564D03*
%TD*%
D23*
%TO.C,C46*%
X127123353Y-77066564D03*
X127123353Y-75931564D03*
%TD*%
D15*
%TO.C,C2*%
X148605853Y-93291564D03*
X149740853Y-93291564D03*
%TD*%
D53*
%TO.C,R22*%
X145403353Y-69436564D03*
X145403353Y-70456564D03*
%TD*%
D29*
%TO.C,C35*%
X149713353Y-85076564D03*
X149713353Y-83526564D03*
%TD*%
D11*
%TO.C,C19*%
X123063353Y-99966564D03*
X123063353Y-101101564D03*
%TD*%
%TO.C,C15*%
X140133353Y-87884064D03*
X140133353Y-89019064D03*
%TD*%
D59*
%TO.C,SW1*%
X125388352Y-113114563D03*
X119888352Y-113114563D03*
X125388352Y-111489563D03*
X119888352Y-111489563D03*
%TD*%
D38*
%TO.C,C34*%
X152188353Y-72614064D03*
X150638353Y-72614064D03*
%TD*%
D23*
%TO.C,C25*%
X132338353Y-98519064D03*
X132338353Y-97384064D03*
%TD*%
D10*
%TO.C,C24*%
X123123353Y-84561564D03*
X121988353Y-84561564D03*
%TD*%
D17*
%TO.C,Y1*%
X142363352Y-74101563D03*
X142363352Y-76301563D03*
X144063352Y-76301563D03*
X144063352Y-74101563D03*
%TD*%
D60*
%TO.C,L2*%
X148263353Y-74509064D03*
X148263353Y-76659064D03*
%TD*%
M02*
