%TF.GenerationSoftware,KiCad,Pcbnew,6.99.0-unknown-5a2f351f28~146~ubuntu20.04.1*%
%TF.CreationDate,2022-01-27T10:55:03+08:00*%
%TF.ProjectId,M5Pi,4d355069-2e6b-4696-9361-645f70636258,1.0*%
%TF.SameCoordinates,Original*%
%TF.FileFunction,Soldermask,Bot*%
%TF.FilePolarity,Negative*%
%FSLAX46Y46*%
G04 Gerber Fmt 4.6, Leading zero omitted, Abs format (unit mm)*
G04 Created by KiCad (PCBNEW 6.99.0-unknown-5a2f351f28~146~ubuntu20.04.1) date 2022-01-27 10:55:03*
%MOMM*%
%LPD*%
G01*
G04 APERTURE LIST*
G04 Aperture macros list*
%AMRoundRect*
0 Rectangle with rounded corners*
0 $1 Rounding radius*
0 $2 $3 $4 $5 $6 $7 $8 $9 X,Y pos of 4 corners*
0 Add a 4 corners polygon primitive as box body*
4,1,4,$2,$3,$4,$5,$6,$7,$8,$9,$2,$3,0*
0 Add four circle primitives for the rounded corners*
1,1,$1+$1,$2,$3*
1,1,$1+$1,$4,$5*
1,1,$1+$1,$6,$7*
1,1,$1+$1,$8,$9*
0 Add four rect primitives between the rounded corners*
20,1,$1+$1,$2,$3,$4,$5,0*
20,1,$1+$1,$4,$5,$6,$7,0*
20,1,$1+$1,$6,$7,$8,$9,0*
20,1,$1+$1,$8,$9,$2,$3,0*%
G04 Aperture macros list end*
%ADD10C,0.200000*%
%ADD11C,1.000000*%
%ADD12R,1.000000X1.000000*%
%ADD13O,1.000000X1.000000*%
%ADD14R,1.700000X1.700000*%
%ADD15O,1.700000X1.700000*%
%ADD16C,0.650000*%
%ADD17O,2.100000X1.000000*%
%ADD18O,1.600000X1.000000*%
%ADD19R,1.350000X1.350000*%
%ADD20O,1.350000X1.350000*%
%ADD21RoundRect,0.160000X-0.160000X0.197500X-0.160000X-0.197500X0.160000X-0.197500X0.160000X0.197500X0*%
%ADD22RoundRect,0.155000X-0.212500X-0.155000X0.212500X-0.155000X0.212500X0.155000X-0.212500X0.155000X0*%
%ADD23RoundRect,0.160000X0.160000X-0.197500X0.160000X0.197500X-0.160000X0.197500X-0.160000X-0.197500X0*%
%ADD24RoundRect,0.300000X0.300000X0.300000X-0.300000X0.300000X-0.300000X-0.300000X0.300000X-0.300000X0*%
%ADD25R,0.300000X1.100000*%
%ADD26R,2.300000X3.100000*%
%ADD27RoundRect,0.155000X0.155000X-0.212500X0.155000X0.212500X-0.155000X0.212500X-0.155000X-0.212500X0*%
%ADD28RoundRect,0.300000X-0.300000X0.300000X-0.300000X-0.300000X0.300000X-0.300000X0.300000X0.300000X0*%
%ADD29RoundRect,0.155000X-0.155000X0.212500X-0.155000X-0.212500X0.155000X-0.212500X0.155000X0.212500X0*%
%ADD30RoundRect,0.250000X0.375000X0.625000X-0.375000X0.625000X-0.375000X-0.625000X0.375000X-0.625000X0*%
%ADD31R,0.900000X1.200000*%
G04 APERTURE END LIST*
D10*
X118063353Y-67501564D02*
X121163353Y-67501564D01*
X121163353Y-67501564D02*
X121163353Y-70001564D01*
X121163353Y-70001564D02*
X118063353Y-70001564D01*
X118063353Y-70001564D02*
X118063353Y-67501564D01*
G36*
X118063353Y-67501564D02*
G01*
X121163353Y-67501564D01*
X121163353Y-70001564D01*
X118063353Y-70001564D01*
X118063353Y-67501564D01*
G37*
D11*
%TO.C,J11*%
X153463353Y-106801564D03*
X153463353Y-104801564D03*
X153463353Y-102801564D03*
X153463353Y-100801564D03*
%TD*%
D12*
%TO.C,J12*%
X153773352Y-82401563D03*
D13*
X155043352Y-82401563D03*
X156313352Y-82401563D03*
X157583352Y-82401563D03*
%TD*%
D12*
%TO.C,J3*%
X154763352Y-96976563D03*
D13*
X156033352Y-96976563D03*
%TD*%
D14*
%TO.C,J2*%
X114313352Y-71901563D03*
D15*
X116853352Y-71901563D03*
X114313352Y-74441563D03*
X116853352Y-74441563D03*
X114313352Y-76981563D03*
X116853352Y-76981563D03*
X114313352Y-79521563D03*
X116853352Y-79521563D03*
X114313352Y-82061563D03*
X116853352Y-82061563D03*
X114313352Y-84601563D03*
X116853352Y-84601563D03*
X114313352Y-87141563D03*
X116853352Y-87141563D03*
X114313352Y-89681563D03*
X116853352Y-89681563D03*
X114313352Y-92221563D03*
X116853352Y-92221563D03*
X114313352Y-94761563D03*
X116853352Y-94761563D03*
X114313352Y-97301563D03*
X116853352Y-97301563D03*
X114313352Y-99841563D03*
X116853352Y-99841563D03*
X114313352Y-102381563D03*
X116853352Y-102381563D03*
X114313352Y-104921563D03*
X116853352Y-104921563D03*
X114313352Y-107461563D03*
X116853352Y-107461563D03*
%TD*%
D16*
%TO.C,UART1*%
X155058353Y-92591564D03*
X155058353Y-86811564D03*
D17*
X154558352Y-94021563D03*
D18*
X158738352Y-94021563D03*
D17*
X154558352Y-85381563D03*
D18*
X158738352Y-85381563D03*
%TD*%
D19*
%TO.C,J6*%
X122463352Y-69901563D03*
D20*
X124463352Y-69901563D03*
%TD*%
D21*
%TO.C,R41*%
X135053353Y-106226564D03*
X135053353Y-107421564D03*
%TD*%
D22*
%TO.C,C54*%
X121695853Y-105101564D03*
X122830853Y-105101564D03*
%TD*%
D23*
%TO.C,R20*%
X136093353Y-107421564D03*
X136093353Y-106226564D03*
%TD*%
D24*
%TO.C,TP1*%
X126363353Y-102501564D03*
%TD*%
D25*
%TO.C,J5*%
X136043352Y-92401563D03*
X135543352Y-92401563D03*
X135043352Y-92401563D03*
X134543352Y-92401563D03*
X134043352Y-92401563D03*
X133543352Y-92401563D03*
X133043352Y-92401563D03*
X132543352Y-92401563D03*
D26*
X130873352Y-90701563D03*
X137713352Y-90701563D03*
%TD*%
D24*
%TO.C,TP2*%
X147663353Y-67951564D03*
%TD*%
D21*
%TO.C,R39*%
X134013353Y-106206564D03*
X134013353Y-107401564D03*
%TD*%
D25*
%TO.C,J4*%
X132413352Y-102339063D03*
X132913352Y-102339063D03*
X133413352Y-102339063D03*
X133913352Y-102339063D03*
X134413352Y-102339063D03*
X134913352Y-102339063D03*
X135413352Y-102339063D03*
X135913352Y-102339063D03*
X136413352Y-102339063D03*
X136913352Y-102339063D03*
D26*
X130743352Y-100639063D03*
X138583352Y-100639063D03*
%TD*%
D24*
%TO.C,TP4*%
X145613353Y-84301564D03*
%TD*%
D27*
%TO.C,C29*%
X137143353Y-107391564D03*
X137143353Y-106256564D03*
%TD*%
D24*
%TO.C,TP3*%
X148263353Y-75601564D03*
%TD*%
D22*
%TO.C,C55*%
X121695853Y-107101564D03*
X122830853Y-107101564D03*
%TD*%
D21*
%TO.C,R33*%
X131943353Y-106206564D03*
X131943353Y-107401564D03*
%TD*%
D28*
%TO.C,TP5*%
X144313353Y-89701564D03*
%TD*%
D29*
%TO.C,C30*%
X128093353Y-92359064D03*
X128093353Y-93494064D03*
%TD*%
D30*
%TO.C,F1*%
X156763353Y-89701564D03*
X153963353Y-89701564D03*
%TD*%
D31*
%TO.C,D5*%
X123049999Y-102899999D03*
X119749999Y-102899999D03*
%TD*%
D22*
%TO.C,C52*%
X121695853Y-106101564D03*
X122830853Y-106101564D03*
%TD*%
D21*
%TO.C,R40*%
X132963353Y-106206564D03*
X132963353Y-107401564D03*
%TD*%
M02*
