%TF.GenerationSoftware,KiCad,Pcbnew,6.99.0-unknown-5a2f351f28~146~ubuntu20.04.1*%
%TF.CreationDate,2022-01-27T10:55:03+08:00*%
%TF.ProjectId,M5Pi,4d355069-2e6b-4696-9361-645f70636258,1.0*%
%TF.SameCoordinates,Original*%
%TF.FileFunction,Legend,Top*%
%TF.FilePolarity,Positive*%
%FSLAX46Y46*%
G04 Gerber Fmt 4.6, Leading zero omitted, Abs format (unit mm)*
G04 Created by KiCad (PCBNEW 6.99.0-unknown-5a2f351f28~146~ubuntu20.04.1) date 2022-01-27 10:55:03*
%MOMM*%
%LPD*%
G01*
G04 APERTURE LIST*
%ADD10C,0.150000*%
%ADD11C,0.120000*%
%ADD12C,0.100000*%
%ADD13C,0.203200*%
G04 APERTURE END LIST*
D10*
X147463353Y-87851564D02*
X143113353Y-87851564D01*
X146913353Y-91601564D02*
X149263353Y-91601564D01*
X150613353Y-86126564D02*
X150613353Y-82626564D01*
X146713353Y-73351564D02*
X146713353Y-79251564D01*
X121363353Y-68151564D02*
X126363353Y-68151564D01*
X125063353Y-101801564D02*
X118563353Y-101801564D01*
X145863353Y-72851564D02*
X149363353Y-72851564D01*
X149263353Y-91601564D02*
X149263353Y-91351564D01*
X126413353Y-81251564D02*
X120613353Y-81251564D01*
X120613353Y-77851564D02*
X119113353Y-77851564D01*
X153113353Y-77751564D02*
X154363353Y-77751564D01*
X146013353Y-65351564D02*
X146013353Y-66851564D01*
X152413353Y-65351564D02*
X146013353Y-65351564D01*
X119113353Y-72401564D02*
X120563353Y-72401564D01*
X133463353Y-100601564D02*
X125263353Y-100601564D01*
X144763353Y-71051564D02*
X145863353Y-71051564D01*
X154363353Y-77751564D02*
X154363353Y-73551564D01*
X133463353Y-109001564D02*
X133463353Y-100601564D01*
X149763353Y-71751564D02*
X149763353Y-73351564D01*
X128963353Y-72851564D02*
X128963353Y-77801564D01*
X149363353Y-72851564D02*
X149363353Y-71351564D01*
X128963353Y-77801564D02*
X126413353Y-77801564D01*
X150613353Y-82626564D02*
X149013353Y-82626564D01*
X126363353Y-109301564D02*
X129263353Y-109301564D01*
X147463353Y-87851564D02*
X149263353Y-87851564D01*
X144613353Y-87226564D02*
X148813353Y-87226564D01*
X149763353Y-73351564D02*
X146713353Y-73351564D01*
X129263353Y-109301564D02*
X129263353Y-109001564D01*
X143113353Y-79576564D02*
X143113353Y-85976564D01*
X118563353Y-109801564D02*
X121663353Y-109801564D01*
X120613353Y-81251564D02*
X120613353Y-77851564D01*
X143113353Y-87851564D02*
X143113353Y-91601564D01*
X148813353Y-87226564D02*
X148813353Y-86126564D01*
X146913353Y-93401564D02*
X146913353Y-91601564D01*
X153263353Y-73551564D02*
X153263353Y-71751564D01*
X149363353Y-71351564D02*
X149363353Y-71251564D01*
X143113353Y-85976564D02*
X144613353Y-85976564D01*
X125063353Y-100601564D02*
X125063353Y-101801564D01*
X126363353Y-72851564D02*
X128963353Y-72851564D01*
X126363353Y-68151564D02*
X126363353Y-72851564D01*
X143113353Y-91601564D02*
X143613353Y-91601564D01*
X126413353Y-77801564D02*
X126413353Y-81251564D01*
X148813353Y-86126564D02*
X150613353Y-86126564D01*
X146013353Y-66851564D02*
X144763353Y-66851564D01*
X149363353Y-71251564D02*
X152413353Y-71251564D01*
X126363353Y-109401564D02*
X126363353Y-109301564D01*
X126363353Y-109801564D02*
X126363353Y-109401564D01*
X144763353Y-66851564D02*
X144763353Y-71051564D01*
X143613353Y-93401564D02*
X146913353Y-93401564D01*
X146713353Y-79251564D02*
X153113353Y-79251564D01*
X149263353Y-91351564D02*
X149263353Y-88101564D01*
X120563353Y-72401564D02*
X120563353Y-70301564D01*
X154363353Y-73551564D02*
X153263353Y-73551564D01*
X119113353Y-77851564D02*
X119113353Y-72401564D01*
X153263353Y-71751564D02*
X149763353Y-71751564D01*
X149013353Y-82626564D02*
X149013353Y-79576564D01*
X143613353Y-91601564D02*
X143613353Y-93401564D01*
X149263353Y-87851564D02*
X149263353Y-88101564D01*
X153113353Y-79251564D02*
X153113353Y-77751564D01*
X121663353Y-109801564D02*
X126363353Y-109801564D01*
X152413353Y-71251564D02*
X152413353Y-65351564D01*
X129263353Y-109001564D02*
X133463353Y-109001564D01*
X145863353Y-71051564D02*
X145863353Y-72851564D01*
X144613353Y-85976564D02*
X144613353Y-87226564D01*
X149013353Y-79576564D02*
X143113353Y-79576564D01*
X125263353Y-100601564D02*
X125063353Y-100601564D01*
X118563353Y-101801564D02*
X118563353Y-109801564D01*
X137120498Y-107344421D02*
X137120498Y-108201564D01*
X137120498Y-108201564D02*
X137063355Y-108372992D01*
X137063355Y-108372992D02*
X136949069Y-108487278D01*
X136949069Y-108487278D02*
X136777641Y-108544421D01*
X136777641Y-108544421D02*
X136663355Y-108544421D01*
X138263354Y-108544421D02*
X137691926Y-108544421D01*
X137691926Y-108544421D02*
X137691926Y-107344421D01*
X139349068Y-108430135D02*
X139291925Y-108487278D01*
X139291925Y-108487278D02*
X139120497Y-108544421D01*
X139120497Y-108544421D02*
X139006211Y-108544421D01*
X139006211Y-108544421D02*
X138834782Y-108487278D01*
X138834782Y-108487278D02*
X138720497Y-108372992D01*
X138720497Y-108372992D02*
X138663354Y-108258706D01*
X138663354Y-108258706D02*
X138606211Y-108030135D01*
X138606211Y-108030135D02*
X138606211Y-107858706D01*
X138606211Y-107858706D02*
X138663354Y-107630135D01*
X138663354Y-107630135D02*
X138720497Y-107515849D01*
X138720497Y-107515849D02*
X138834782Y-107401564D01*
X138834782Y-107401564D02*
X139006211Y-107344421D01*
X139006211Y-107344421D02*
X139120497Y-107344421D01*
X139120497Y-107344421D02*
X139291925Y-107401564D01*
X139291925Y-107401564D02*
X139349068Y-107458706D01*
X140206211Y-107344421D02*
X140206211Y-108201564D01*
X140206211Y-108201564D02*
X140149068Y-108372992D01*
X140149068Y-108372992D02*
X140034782Y-108487278D01*
X140034782Y-108487278D02*
X139863354Y-108544421D01*
X139863354Y-108544421D02*
X139749068Y-108544421D01*
X141349067Y-108544421D02*
X140777639Y-108544421D01*
X140777639Y-108544421D02*
X140777639Y-107344421D01*
X142434781Y-108430135D02*
X142377638Y-108487278D01*
X142377638Y-108487278D02*
X142206210Y-108544421D01*
X142206210Y-108544421D02*
X142091924Y-108544421D01*
X142091924Y-108544421D02*
X141920495Y-108487278D01*
X141920495Y-108487278D02*
X141806210Y-108372992D01*
X141806210Y-108372992D02*
X141749067Y-108258706D01*
X141749067Y-108258706D02*
X141691924Y-108030135D01*
X141691924Y-108030135D02*
X141691924Y-107858706D01*
X141691924Y-107858706D02*
X141749067Y-107630135D01*
X141749067Y-107630135D02*
X141806210Y-107515849D01*
X141806210Y-107515849D02*
X141920495Y-107401564D01*
X141920495Y-107401564D02*
X142091924Y-107344421D01*
X142091924Y-107344421D02*
X142206210Y-107344421D01*
X142206210Y-107344421D02*
X142377638Y-107401564D01*
X142377638Y-107401564D02*
X142434781Y-107458706D01*
X143291924Y-107344421D02*
X143291924Y-108201564D01*
X143291924Y-108201564D02*
X143234781Y-108372992D01*
X143234781Y-108372992D02*
X143120495Y-108487278D01*
X143120495Y-108487278D02*
X142949067Y-108544421D01*
X142949067Y-108544421D02*
X142834781Y-108544421D01*
X144434780Y-108544421D02*
X143863352Y-108544421D01*
X143863352Y-108544421D02*
X143863352Y-107344421D01*
X145520494Y-108430135D02*
X145463351Y-108487278D01*
X145463351Y-108487278D02*
X145291923Y-108544421D01*
X145291923Y-108544421D02*
X145177637Y-108544421D01*
X145177637Y-108544421D02*
X145006208Y-108487278D01*
X145006208Y-108487278D02*
X144891923Y-108372992D01*
X144891923Y-108372992D02*
X144834780Y-108258706D01*
X144834780Y-108258706D02*
X144777637Y-108030135D01*
X144777637Y-108030135D02*
X144777637Y-107858706D01*
X144777637Y-107858706D02*
X144834780Y-107630135D01*
X144834780Y-107630135D02*
X144891923Y-107515849D01*
X144891923Y-107515849D02*
X145006208Y-107401564D01*
X145006208Y-107401564D02*
X145177637Y-107344421D01*
X145177637Y-107344421D02*
X145291923Y-107344421D01*
X145291923Y-107344421D02*
X145463351Y-107401564D01*
X145463351Y-107401564D02*
X145520494Y-107458706D01*
X146377637Y-107344421D02*
X146377637Y-108201564D01*
X146377637Y-108201564D02*
X146320494Y-108372992D01*
X146320494Y-108372992D02*
X146206208Y-108487278D01*
X146206208Y-108487278D02*
X146034780Y-108544421D01*
X146034780Y-108544421D02*
X145920494Y-108544421D01*
X147520493Y-108544421D02*
X146949065Y-108544421D01*
X146949065Y-108544421D02*
X146949065Y-107344421D01*
X148606207Y-108430135D02*
X148549064Y-108487278D01*
X148549064Y-108487278D02*
X148377636Y-108544421D01*
X148377636Y-108544421D02*
X148263350Y-108544421D01*
X148263350Y-108544421D02*
X148091921Y-108487278D01*
X148091921Y-108487278D02*
X147977636Y-108372992D01*
X147977636Y-108372992D02*
X147920493Y-108258706D01*
X147920493Y-108258706D02*
X147863350Y-108030135D01*
X147863350Y-108030135D02*
X147863350Y-107858706D01*
X147863350Y-107858706D02*
X147920493Y-107630135D01*
X147920493Y-107630135D02*
X147977636Y-107515849D01*
X147977636Y-107515849D02*
X148091921Y-107401564D01*
X148091921Y-107401564D02*
X148263350Y-107344421D01*
X148263350Y-107344421D02*
X148377636Y-107344421D01*
X148377636Y-107344421D02*
X148549064Y-107401564D01*
X148549064Y-107401564D02*
X148606207Y-107458706D01*
X149453830Y-82103944D02*
X149453830Y-81103944D01*
X149453830Y-81103944D02*
X149758592Y-81103944D01*
X149758592Y-81103944D02*
X149834782Y-81151564D01*
X149834782Y-81151564D02*
X149872877Y-81199183D01*
X149872877Y-81199183D02*
X149910973Y-81294421D01*
X149910973Y-81294421D02*
X149910973Y-81437278D01*
X149910973Y-81437278D02*
X149872877Y-81532516D01*
X149872877Y-81532516D02*
X149834782Y-81580135D01*
X149834782Y-81580135D02*
X149758592Y-81627754D01*
X149758592Y-81627754D02*
X149453830Y-81627754D01*
X150253830Y-82103944D02*
X150253830Y-81103944D01*
X150253830Y-81103944D02*
X150520496Y-81818230D01*
X150520496Y-81818230D02*
X150787163Y-81103944D01*
X150787163Y-81103944D02*
X150787163Y-82103944D01*
X151587162Y-81151564D02*
X151510972Y-81103944D01*
X151510972Y-81103944D02*
X151396686Y-81103944D01*
X151396686Y-81103944D02*
X151282400Y-81151564D01*
X151282400Y-81151564D02*
X151206210Y-81246802D01*
X151206210Y-81246802D02*
X151168115Y-81342040D01*
X151168115Y-81342040D02*
X151130019Y-81532516D01*
X151130019Y-81532516D02*
X151130019Y-81675373D01*
X151130019Y-81675373D02*
X151168115Y-81865849D01*
X151168115Y-81865849D02*
X151206210Y-81961087D01*
X151206210Y-81961087D02*
X151282400Y-82056325D01*
X151282400Y-82056325D02*
X151396686Y-82103944D01*
X151396686Y-82103944D02*
X151472877Y-82103944D01*
X151472877Y-82103944D02*
X151587162Y-82056325D01*
X151587162Y-82056325D02*
X151625258Y-82008706D01*
X151625258Y-82008706D02*
X151625258Y-81675373D01*
X151625258Y-81675373D02*
X151472877Y-81675373D01*
X151853829Y-81103944D02*
X152120496Y-82103944D01*
X152120496Y-82103944D02*
X152387162Y-81103944D01*
X119334781Y-98554415D02*
X119377638Y-98597272D01*
X119377638Y-98597272D02*
X119420495Y-98725844D01*
X119420495Y-98725844D02*
X119420495Y-98811558D01*
X119420495Y-98811558D02*
X119377638Y-98940129D01*
X119377638Y-98940129D02*
X119291924Y-99025844D01*
X119291924Y-99025844D02*
X119206210Y-99068701D01*
X119206210Y-99068701D02*
X119034781Y-99111558D01*
X119034781Y-99111558D02*
X118906210Y-99111558D01*
X118906210Y-99111558D02*
X118734781Y-99068701D01*
X118734781Y-99068701D02*
X118649067Y-99025844D01*
X118649067Y-99025844D02*
X118563353Y-98940129D01*
X118563353Y-98940129D02*
X118520495Y-98811558D01*
X118520495Y-98811558D02*
X118520495Y-98725844D01*
X118520495Y-98725844D02*
X118563353Y-98597272D01*
X118563353Y-98597272D02*
X118606210Y-98554415D01*
X119420495Y-98040129D02*
X119377638Y-98125844D01*
X119377638Y-98125844D02*
X119334781Y-98168701D01*
X119334781Y-98168701D02*
X119249067Y-98211558D01*
X119249067Y-98211558D02*
X118991924Y-98211558D01*
X118991924Y-98211558D02*
X118906210Y-98168701D01*
X118906210Y-98168701D02*
X118863353Y-98125844D01*
X118863353Y-98125844D02*
X118820495Y-98040129D01*
X118820495Y-98040129D02*
X118820495Y-97911558D01*
X118820495Y-97911558D02*
X118863353Y-97825844D01*
X118863353Y-97825844D02*
X118906210Y-97782987D01*
X118906210Y-97782987D02*
X118991924Y-97740129D01*
X118991924Y-97740129D02*
X119249067Y-97740129D01*
X119249067Y-97740129D02*
X119334781Y-97782987D01*
X119334781Y-97782987D02*
X119377638Y-97825844D01*
X119377638Y-97825844D02*
X119420495Y-97911558D01*
X119420495Y-97911558D02*
X119420495Y-98040129D01*
X118820495Y-97354416D02*
X119720495Y-97354416D01*
X118863353Y-97354416D02*
X118820495Y-97268702D01*
X118820495Y-97268702D02*
X118820495Y-97097273D01*
X118820495Y-97097273D02*
X118863353Y-97011559D01*
X118863353Y-97011559D02*
X118906210Y-96968702D01*
X118906210Y-96968702D02*
X118991924Y-96925844D01*
X118991924Y-96925844D02*
X119249067Y-96925844D01*
X119249067Y-96925844D02*
X119334781Y-96968702D01*
X119334781Y-96968702D02*
X119377638Y-97011559D01*
X119377638Y-97011559D02*
X119420495Y-97097273D01*
X119420495Y-97097273D02*
X119420495Y-97268702D01*
X119420495Y-97268702D02*
X119377638Y-97354416D01*
X118820495Y-96625845D02*
X119420495Y-96411559D01*
X118820495Y-96197274D02*
X119420495Y-96411559D01*
X119420495Y-96411559D02*
X119634781Y-96497274D01*
X119634781Y-96497274D02*
X119677638Y-96540131D01*
X119677638Y-96540131D02*
X119720495Y-96625845D01*
X119420495Y-95854417D02*
X118820495Y-95854417D01*
X118991924Y-95854417D02*
X118906210Y-95811560D01*
X118906210Y-95811560D02*
X118863353Y-95768703D01*
X118863353Y-95768703D02*
X118820495Y-95682988D01*
X118820495Y-95682988D02*
X118820495Y-95597274D01*
X119420495Y-95297275D02*
X118820495Y-95297275D01*
X118520495Y-95297275D02*
X118563353Y-95340132D01*
X118563353Y-95340132D02*
X118606210Y-95297275D01*
X118606210Y-95297275D02*
X118563353Y-95254418D01*
X118563353Y-95254418D02*
X118520495Y-95297275D01*
X118520495Y-95297275D02*
X118606210Y-95297275D01*
X118820495Y-94482990D02*
X119549067Y-94482990D01*
X119549067Y-94482990D02*
X119634781Y-94525847D01*
X119634781Y-94525847D02*
X119677638Y-94568704D01*
X119677638Y-94568704D02*
X119720495Y-94654418D01*
X119720495Y-94654418D02*
X119720495Y-94782990D01*
X119720495Y-94782990D02*
X119677638Y-94868704D01*
X119377638Y-94482990D02*
X119420495Y-94568704D01*
X119420495Y-94568704D02*
X119420495Y-94740132D01*
X119420495Y-94740132D02*
X119377638Y-94825847D01*
X119377638Y-94825847D02*
X119334781Y-94868704D01*
X119334781Y-94868704D02*
X119249067Y-94911561D01*
X119249067Y-94911561D02*
X118991924Y-94911561D01*
X118991924Y-94911561D02*
X118906210Y-94868704D01*
X118906210Y-94868704D02*
X118863353Y-94825847D01*
X118863353Y-94825847D02*
X118820495Y-94740132D01*
X118820495Y-94740132D02*
X118820495Y-94568704D01*
X118820495Y-94568704D02*
X118863353Y-94482990D01*
X119420495Y-94054419D02*
X118520495Y-94054419D01*
X119420495Y-93668705D02*
X118949067Y-93668705D01*
X118949067Y-93668705D02*
X118863353Y-93711562D01*
X118863353Y-93711562D02*
X118820495Y-93797276D01*
X118820495Y-93797276D02*
X118820495Y-93925847D01*
X118820495Y-93925847D02*
X118863353Y-94011562D01*
X118863353Y-94011562D02*
X118906210Y-94054419D01*
X118820495Y-93368705D02*
X118820495Y-93025848D01*
X118520495Y-93240134D02*
X119291924Y-93240134D01*
X119291924Y-93240134D02*
X119377638Y-93197277D01*
X119377638Y-93197277D02*
X119420495Y-93111562D01*
X119420495Y-93111562D02*
X119420495Y-93025848D01*
X119763353Y-91928706D02*
X119720495Y-91971563D01*
X119720495Y-91971563D02*
X119591924Y-92057277D01*
X119591924Y-92057277D02*
X119506210Y-92100135D01*
X119506210Y-92100135D02*
X119377638Y-92142992D01*
X119377638Y-92142992D02*
X119163353Y-92185849D01*
X119163353Y-92185849D02*
X118991924Y-92185849D01*
X118991924Y-92185849D02*
X118777638Y-92142992D01*
X118777638Y-92142992D02*
X118649067Y-92100135D01*
X118649067Y-92100135D02*
X118563353Y-92057277D01*
X118563353Y-92057277D02*
X118434781Y-91971563D01*
X118434781Y-91971563D02*
X118391924Y-91928706D01*
X119334781Y-91071563D02*
X119377638Y-91114420D01*
X119377638Y-91114420D02*
X119420495Y-91242992D01*
X119420495Y-91242992D02*
X119420495Y-91328706D01*
X119420495Y-91328706D02*
X119377638Y-91457277D01*
X119377638Y-91457277D02*
X119291924Y-91542992D01*
X119291924Y-91542992D02*
X119206210Y-91585849D01*
X119206210Y-91585849D02*
X119034781Y-91628706D01*
X119034781Y-91628706D02*
X118906210Y-91628706D01*
X118906210Y-91628706D02*
X118734781Y-91585849D01*
X118734781Y-91585849D02*
X118649067Y-91542992D01*
X118649067Y-91542992D02*
X118563353Y-91457277D01*
X118563353Y-91457277D02*
X118520495Y-91328706D01*
X118520495Y-91328706D02*
X118520495Y-91242992D01*
X118520495Y-91242992D02*
X118563353Y-91114420D01*
X118563353Y-91114420D02*
X118606210Y-91071563D01*
X119763353Y-90771563D02*
X119720495Y-90728706D01*
X119720495Y-90728706D02*
X119591924Y-90642992D01*
X119591924Y-90642992D02*
X119506210Y-90600135D01*
X119506210Y-90600135D02*
X119377638Y-90557277D01*
X119377638Y-90557277D02*
X119163353Y-90514420D01*
X119163353Y-90514420D02*
X118991924Y-90514420D01*
X118991924Y-90514420D02*
X118777638Y-90557277D01*
X118777638Y-90557277D02*
X118649067Y-90600135D01*
X118649067Y-90600135D02*
X118563353Y-90642992D01*
X118563353Y-90642992D02*
X118434781Y-90728706D01*
X118434781Y-90728706D02*
X118391924Y-90771563D01*
X118606210Y-89588706D02*
X118563353Y-89545849D01*
X118563353Y-89545849D02*
X118520495Y-89460135D01*
X118520495Y-89460135D02*
X118520495Y-89245849D01*
X118520495Y-89245849D02*
X118563353Y-89160135D01*
X118563353Y-89160135D02*
X118606210Y-89117277D01*
X118606210Y-89117277D02*
X118691924Y-89074420D01*
X118691924Y-89074420D02*
X118777638Y-89074420D01*
X118777638Y-89074420D02*
X118906210Y-89117277D01*
X118906210Y-89117277D02*
X119420495Y-89631563D01*
X119420495Y-89631563D02*
X119420495Y-89074420D01*
X118520495Y-88517278D02*
X118520495Y-88431564D01*
X118520495Y-88431564D02*
X118563353Y-88345850D01*
X118563353Y-88345850D02*
X118606210Y-88302993D01*
X118606210Y-88302993D02*
X118691924Y-88260135D01*
X118691924Y-88260135D02*
X118863353Y-88217278D01*
X118863353Y-88217278D02*
X119077638Y-88217278D01*
X119077638Y-88217278D02*
X119249067Y-88260135D01*
X119249067Y-88260135D02*
X119334781Y-88302993D01*
X119334781Y-88302993D02*
X119377638Y-88345850D01*
X119377638Y-88345850D02*
X119420495Y-88431564D01*
X119420495Y-88431564D02*
X119420495Y-88517278D01*
X119420495Y-88517278D02*
X119377638Y-88602993D01*
X119377638Y-88602993D02*
X119334781Y-88645850D01*
X119334781Y-88645850D02*
X119249067Y-88688707D01*
X119249067Y-88688707D02*
X119077638Y-88731564D01*
X119077638Y-88731564D02*
X118863353Y-88731564D01*
X118863353Y-88731564D02*
X118691924Y-88688707D01*
X118691924Y-88688707D02*
X118606210Y-88645850D01*
X118606210Y-88645850D02*
X118563353Y-88602993D01*
X118563353Y-88602993D02*
X118520495Y-88517278D01*
X118606210Y-87874422D02*
X118563353Y-87831565D01*
X118563353Y-87831565D02*
X118520495Y-87745851D01*
X118520495Y-87745851D02*
X118520495Y-87531565D01*
X118520495Y-87531565D02*
X118563353Y-87445851D01*
X118563353Y-87445851D02*
X118606210Y-87402993D01*
X118606210Y-87402993D02*
X118691924Y-87360136D01*
X118691924Y-87360136D02*
X118777638Y-87360136D01*
X118777638Y-87360136D02*
X118906210Y-87402993D01*
X118906210Y-87402993D02*
X119420495Y-87917279D01*
X119420495Y-87917279D02*
X119420495Y-87360136D01*
X118606210Y-87017280D02*
X118563353Y-86974423D01*
X118563353Y-86974423D02*
X118520495Y-86888709D01*
X118520495Y-86888709D02*
X118520495Y-86674423D01*
X118520495Y-86674423D02*
X118563353Y-86588709D01*
X118563353Y-86588709D02*
X118606210Y-86545851D01*
X118606210Y-86545851D02*
X118691924Y-86502994D01*
X118691924Y-86502994D02*
X118777638Y-86502994D01*
X118777638Y-86502994D02*
X118906210Y-86545851D01*
X118906210Y-86545851D02*
X119420495Y-87060137D01*
X119420495Y-87060137D02*
X119420495Y-86502994D01*
X119420495Y-85577281D02*
X118520495Y-85577281D01*
X119163353Y-85191567D02*
X119163353Y-84762996D01*
X119420495Y-85277281D02*
X118520495Y-84977281D01*
X118520495Y-84977281D02*
X119420495Y-84677281D01*
X119420495Y-84377282D02*
X118520495Y-84377282D01*
X118520495Y-84377282D02*
X119163353Y-84077282D01*
X119163353Y-84077282D02*
X118520495Y-83777282D01*
X118520495Y-83777282D02*
X119420495Y-83777282D01*
X119420495Y-82920139D02*
X119420495Y-83348711D01*
X119420495Y-83348711D02*
X118520495Y-83348711D01*
X119420495Y-82620140D02*
X118520495Y-82620140D01*
X118520495Y-82191569D02*
X119249067Y-82191569D01*
X119249067Y-82191569D02*
X119334781Y-82148712D01*
X119334781Y-82148712D02*
X119377638Y-82105855D01*
X119377638Y-82105855D02*
X119420495Y-82020140D01*
X119420495Y-82020140D02*
X119420495Y-81848712D01*
X119420495Y-81848712D02*
X119377638Y-81762997D01*
X119377638Y-81762997D02*
X119334781Y-81720140D01*
X119334781Y-81720140D02*
X119249067Y-81677283D01*
X119249067Y-81677283D02*
X118520495Y-81677283D01*
X118949067Y-80948712D02*
X118991924Y-80820140D01*
X118991924Y-80820140D02*
X119034781Y-80777283D01*
X119034781Y-80777283D02*
X119120495Y-80734426D01*
X119120495Y-80734426D02*
X119249067Y-80734426D01*
X119249067Y-80734426D02*
X119334781Y-80777283D01*
X119334781Y-80777283D02*
X119377638Y-80820140D01*
X119377638Y-80820140D02*
X119420495Y-80905855D01*
X119420495Y-80905855D02*
X119420495Y-81248712D01*
X119420495Y-81248712D02*
X118520495Y-81248712D01*
X118520495Y-81248712D02*
X118520495Y-80948712D01*
X118520495Y-80948712D02*
X118563353Y-80862998D01*
X118563353Y-80862998D02*
X118606210Y-80820140D01*
X118606210Y-80820140D02*
X118691924Y-80777283D01*
X118691924Y-80777283D02*
X118777638Y-80777283D01*
X118777638Y-80777283D02*
X118863353Y-80820140D01*
X118863353Y-80820140D02*
X118906210Y-80862998D01*
X118906210Y-80862998D02*
X118949067Y-80948712D01*
X118949067Y-80948712D02*
X118949067Y-81248712D01*
X118520495Y-80177283D02*
X118520495Y-80005855D01*
X118520495Y-80005855D02*
X118563353Y-79920140D01*
X118563353Y-79920140D02*
X118649067Y-79834426D01*
X118649067Y-79834426D02*
X118820495Y-79791569D01*
X118820495Y-79791569D02*
X119120495Y-79791569D01*
X119120495Y-79791569D02*
X119291924Y-79834426D01*
X119291924Y-79834426D02*
X119377638Y-79920140D01*
X119377638Y-79920140D02*
X119420495Y-80005855D01*
X119420495Y-80005855D02*
X119420495Y-80177283D01*
X119420495Y-80177283D02*
X119377638Y-80262998D01*
X119377638Y-80262998D02*
X119291924Y-80348712D01*
X119291924Y-80348712D02*
X119120495Y-80391569D01*
X119120495Y-80391569D02*
X118820495Y-80391569D01*
X118820495Y-80391569D02*
X118649067Y-80348712D01*
X118649067Y-80348712D02*
X118563353Y-80262998D01*
X118563353Y-80262998D02*
X118520495Y-80177283D01*
X126163359Y-95053944D02*
X126163359Y-94053944D01*
X126549074Y-95053944D02*
X126549074Y-94530135D01*
X126549074Y-94530135D02*
X126506216Y-94434897D01*
X126506216Y-94434897D02*
X126420502Y-94387278D01*
X126420502Y-94387278D02*
X126291931Y-94387278D01*
X126291931Y-94387278D02*
X126206216Y-94434897D01*
X126206216Y-94434897D02*
X126163359Y-94482516D01*
X126849073Y-94387278D02*
X127191930Y-94387278D01*
X126977644Y-94053944D02*
X126977644Y-94911087D01*
X126977644Y-94911087D02*
X127020501Y-95006325D01*
X127020501Y-95006325D02*
X127106216Y-95053944D01*
X127106216Y-95053944D02*
X127191930Y-95053944D01*
X127363358Y-94387278D02*
X127706215Y-94387278D01*
X127491929Y-94053944D02*
X127491929Y-94911087D01*
X127491929Y-94911087D02*
X127534786Y-95006325D01*
X127534786Y-95006325D02*
X127620501Y-95053944D01*
X127620501Y-95053944D02*
X127706215Y-95053944D01*
X128006214Y-94387278D02*
X128006214Y-95387278D01*
X128006214Y-94434897D02*
X128091929Y-94387278D01*
X128091929Y-94387278D02*
X128263357Y-94387278D01*
X128263357Y-94387278D02*
X128349071Y-94434897D01*
X128349071Y-94434897D02*
X128391929Y-94482516D01*
X128391929Y-94482516D02*
X128434786Y-94577754D01*
X128434786Y-94577754D02*
X128434786Y-94863468D01*
X128434786Y-94863468D02*
X128391929Y-94958706D01*
X128391929Y-94958706D02*
X128349071Y-95006325D01*
X128349071Y-95006325D02*
X128263357Y-95053944D01*
X128263357Y-95053944D02*
X128091929Y-95053944D01*
X128091929Y-95053944D02*
X128006214Y-95006325D01*
X128777642Y-95006325D02*
X128863356Y-95053944D01*
X128863356Y-95053944D02*
X129034785Y-95053944D01*
X129034785Y-95053944D02*
X129120499Y-95006325D01*
X129120499Y-95006325D02*
X129163356Y-94911087D01*
X129163356Y-94911087D02*
X129163356Y-94863468D01*
X129163356Y-94863468D02*
X129120499Y-94768230D01*
X129120499Y-94768230D02*
X129034785Y-94720611D01*
X129034785Y-94720611D02*
X128906214Y-94720611D01*
X128906214Y-94720611D02*
X128820499Y-94672992D01*
X128820499Y-94672992D02*
X128777642Y-94577754D01*
X128777642Y-94577754D02*
X128777642Y-94530135D01*
X128777642Y-94530135D02*
X128820499Y-94434897D01*
X128820499Y-94434897D02*
X128906214Y-94387278D01*
X128906214Y-94387278D02*
X129034785Y-94387278D01*
X129034785Y-94387278D02*
X129120499Y-94434897D01*
X129549070Y-94958706D02*
X129591927Y-95006325D01*
X129591927Y-95006325D02*
X129549070Y-95053944D01*
X129549070Y-95053944D02*
X129506213Y-95006325D01*
X129506213Y-95006325D02*
X129549070Y-94958706D01*
X129549070Y-94958706D02*
X129549070Y-95053944D01*
X129549070Y-94434897D02*
X129591927Y-94482516D01*
X129591927Y-94482516D02*
X129549070Y-94530135D01*
X129549070Y-94530135D02*
X129506213Y-94482516D01*
X129506213Y-94482516D02*
X129549070Y-94434897D01*
X129549070Y-94434897D02*
X129549070Y-94530135D01*
X130620498Y-94006325D02*
X129849070Y-95292040D01*
X131563355Y-94006325D02*
X130791927Y-95292040D01*
X132249070Y-94387278D02*
X132249070Y-95196802D01*
X132249070Y-95196802D02*
X132206212Y-95292040D01*
X132206212Y-95292040D02*
X132163355Y-95339659D01*
X132163355Y-95339659D02*
X132077641Y-95387278D01*
X132077641Y-95387278D02*
X131949070Y-95387278D01*
X131949070Y-95387278D02*
X131863355Y-95339659D01*
X132249070Y-95006325D02*
X132163355Y-95053944D01*
X132163355Y-95053944D02*
X131991927Y-95053944D01*
X131991927Y-95053944D02*
X131906212Y-95006325D01*
X131906212Y-95006325D02*
X131863355Y-94958706D01*
X131863355Y-94958706D02*
X131820498Y-94863468D01*
X131820498Y-94863468D02*
X131820498Y-94577754D01*
X131820498Y-94577754D02*
X131863355Y-94482516D01*
X131863355Y-94482516D02*
X131906212Y-94434897D01*
X131906212Y-94434897D02*
X131991927Y-94387278D01*
X131991927Y-94387278D02*
X132163355Y-94387278D01*
X132163355Y-94387278D02*
X132249070Y-94434897D01*
X132677640Y-95053944D02*
X132677640Y-94387278D01*
X132677640Y-94053944D02*
X132634783Y-94101564D01*
X132634783Y-94101564D02*
X132677640Y-94149183D01*
X132677640Y-94149183D02*
X132720497Y-94101564D01*
X132720497Y-94101564D02*
X132677640Y-94053944D01*
X132677640Y-94053944D02*
X132677640Y-94149183D01*
X132977640Y-94387278D02*
X133320497Y-94387278D01*
X133106211Y-94053944D02*
X133106211Y-94911087D01*
X133106211Y-94911087D02*
X133149068Y-95006325D01*
X133149068Y-95006325D02*
X133234783Y-95053944D01*
X133234783Y-95053944D02*
X133320497Y-95053944D01*
X133620496Y-95053944D02*
X133620496Y-94053944D01*
X134006211Y-95053944D02*
X134006211Y-94530135D01*
X134006211Y-94530135D02*
X133963353Y-94434897D01*
X133963353Y-94434897D02*
X133877639Y-94387278D01*
X133877639Y-94387278D02*
X133749068Y-94387278D01*
X133749068Y-94387278D02*
X133663353Y-94434897D01*
X133663353Y-94434897D02*
X133620496Y-94482516D01*
X134820496Y-94387278D02*
X134820496Y-95053944D01*
X134434781Y-94387278D02*
X134434781Y-94911087D01*
X134434781Y-94911087D02*
X134477638Y-95006325D01*
X134477638Y-95006325D02*
X134563353Y-95053944D01*
X134563353Y-95053944D02*
X134691924Y-95053944D01*
X134691924Y-95053944D02*
X134777638Y-95006325D01*
X134777638Y-95006325D02*
X134820496Y-94958706D01*
X135249066Y-95053944D02*
X135249066Y-94053944D01*
X135249066Y-94434897D02*
X135334781Y-94387278D01*
X135334781Y-94387278D02*
X135506209Y-94387278D01*
X135506209Y-94387278D02*
X135591923Y-94434897D01*
X135591923Y-94434897D02*
X135634781Y-94482516D01*
X135634781Y-94482516D02*
X135677638Y-94577754D01*
X135677638Y-94577754D02*
X135677638Y-94863468D01*
X135677638Y-94863468D02*
X135634781Y-94958706D01*
X135634781Y-94958706D02*
X135591923Y-95006325D01*
X135591923Y-95006325D02*
X135506209Y-95053944D01*
X135506209Y-95053944D02*
X135334781Y-95053944D01*
X135334781Y-95053944D02*
X135249066Y-95006325D01*
X136063351Y-94958706D02*
X136106208Y-95006325D01*
X136106208Y-95006325D02*
X136063351Y-95053944D01*
X136063351Y-95053944D02*
X136020494Y-95006325D01*
X136020494Y-95006325D02*
X136063351Y-94958706D01*
X136063351Y-94958706D02*
X136063351Y-95053944D01*
X136877637Y-95006325D02*
X136791922Y-95053944D01*
X136791922Y-95053944D02*
X136620494Y-95053944D01*
X136620494Y-95053944D02*
X136534779Y-95006325D01*
X136534779Y-95006325D02*
X136491922Y-94958706D01*
X136491922Y-94958706D02*
X136449065Y-94863468D01*
X136449065Y-94863468D02*
X136449065Y-94577754D01*
X136449065Y-94577754D02*
X136491922Y-94482516D01*
X136491922Y-94482516D02*
X136534779Y-94434897D01*
X136534779Y-94434897D02*
X136620494Y-94387278D01*
X136620494Y-94387278D02*
X136791922Y-94387278D01*
X136791922Y-94387278D02*
X136877637Y-94434897D01*
X137391922Y-95053944D02*
X137306207Y-95006325D01*
X137306207Y-95006325D02*
X137263350Y-94958706D01*
X137263350Y-94958706D02*
X137220493Y-94863468D01*
X137220493Y-94863468D02*
X137220493Y-94577754D01*
X137220493Y-94577754D02*
X137263350Y-94482516D01*
X137263350Y-94482516D02*
X137306207Y-94434897D01*
X137306207Y-94434897D02*
X137391922Y-94387278D01*
X137391922Y-94387278D02*
X137520493Y-94387278D01*
X137520493Y-94387278D02*
X137606207Y-94434897D01*
X137606207Y-94434897D02*
X137649065Y-94482516D01*
X137649065Y-94482516D02*
X137691922Y-94577754D01*
X137691922Y-94577754D02*
X137691922Y-94863468D01*
X137691922Y-94863468D02*
X137649065Y-94958706D01*
X137649065Y-94958706D02*
X137606207Y-95006325D01*
X137606207Y-95006325D02*
X137520493Y-95053944D01*
X137520493Y-95053944D02*
X137391922Y-95053944D01*
X138077635Y-95053944D02*
X138077635Y-94387278D01*
X138077635Y-94482516D02*
X138120492Y-94434897D01*
X138120492Y-94434897D02*
X138206207Y-94387278D01*
X138206207Y-94387278D02*
X138334778Y-94387278D01*
X138334778Y-94387278D02*
X138420492Y-94434897D01*
X138420492Y-94434897D02*
X138463350Y-94530135D01*
X138463350Y-94530135D02*
X138463350Y-95053944D01*
X138463350Y-94530135D02*
X138506207Y-94434897D01*
X138506207Y-94434897D02*
X138591921Y-94387278D01*
X138591921Y-94387278D02*
X138720492Y-94387278D01*
X138720492Y-94387278D02*
X138806207Y-94434897D01*
X138806207Y-94434897D02*
X138849064Y-94530135D01*
X138849064Y-94530135D02*
X138849064Y-95053944D01*
X139920492Y-94006325D02*
X139149064Y-95292040D01*
X140220492Y-95053944D02*
X140220492Y-94387278D01*
X140220492Y-94053944D02*
X140177635Y-94101564D01*
X140177635Y-94101564D02*
X140220492Y-94149183D01*
X140220492Y-94149183D02*
X140263349Y-94101564D01*
X140263349Y-94101564D02*
X140220492Y-94053944D01*
X140220492Y-94053944D02*
X140220492Y-94149183D01*
X140649063Y-95053944D02*
X140649063Y-94387278D01*
X140649063Y-94482516D02*
X140691920Y-94434897D01*
X140691920Y-94434897D02*
X140777635Y-94387278D01*
X140777635Y-94387278D02*
X140906206Y-94387278D01*
X140906206Y-94387278D02*
X140991920Y-94434897D01*
X140991920Y-94434897D02*
X141034778Y-94530135D01*
X141034778Y-94530135D02*
X141034778Y-95053944D01*
X141034778Y-94530135D02*
X141077635Y-94434897D01*
X141077635Y-94434897D02*
X141163349Y-94387278D01*
X141163349Y-94387278D02*
X141291920Y-94387278D01*
X141291920Y-94387278D02*
X141377635Y-94434897D01*
X141377635Y-94434897D02*
X141420492Y-94530135D01*
X141420492Y-94530135D02*
X141420492Y-95053944D01*
X141977635Y-95053944D02*
X141891920Y-95006325D01*
X141891920Y-95006325D02*
X141849063Y-94911087D01*
X141849063Y-94911087D02*
X141849063Y-94053944D01*
X142320491Y-95053944D02*
X142320491Y-94387278D01*
X142320491Y-94053944D02*
X142277634Y-94101564D01*
X142277634Y-94101564D02*
X142320491Y-94149183D01*
X142320491Y-94149183D02*
X142363348Y-94101564D01*
X142363348Y-94101564D02*
X142320491Y-94053944D01*
X142320491Y-94053944D02*
X142320491Y-94149183D01*
X143134777Y-94387278D02*
X143134777Y-95053944D01*
X142749062Y-94387278D02*
X142749062Y-94911087D01*
X142749062Y-94911087D02*
X142791919Y-95006325D01*
X142791919Y-95006325D02*
X142877634Y-95053944D01*
X142877634Y-95053944D02*
X143006205Y-95053944D01*
X143006205Y-95053944D02*
X143091919Y-95006325D01*
X143091919Y-95006325D02*
X143134777Y-94958706D01*
X143563347Y-95053944D02*
X143563347Y-94053944D01*
X143563347Y-94434897D02*
X143649062Y-94387278D01*
X143649062Y-94387278D02*
X143820490Y-94387278D01*
X143820490Y-94387278D02*
X143906204Y-94434897D01*
X143906204Y-94434897D02*
X143949062Y-94482516D01*
X143949062Y-94482516D02*
X143991919Y-94577754D01*
X143991919Y-94577754D02*
X143991919Y-94863468D01*
X143991919Y-94863468D02*
X143949062Y-94958706D01*
X143949062Y-94958706D02*
X143906204Y-95006325D01*
X143906204Y-95006325D02*
X143820490Y-95053944D01*
X143820490Y-95053944D02*
X143649062Y-95053944D01*
X143649062Y-95053944D02*
X143563347Y-95006325D01*
X144506204Y-95053944D02*
X144420489Y-95006325D01*
X144420489Y-95006325D02*
X144377632Y-94958706D01*
X144377632Y-94958706D02*
X144334775Y-94863468D01*
X144334775Y-94863468D02*
X144334775Y-94577754D01*
X144334775Y-94577754D02*
X144377632Y-94482516D01*
X144377632Y-94482516D02*
X144420489Y-94434897D01*
X144420489Y-94434897D02*
X144506204Y-94387278D01*
X144506204Y-94387278D02*
X144634775Y-94387278D01*
X144634775Y-94387278D02*
X144720489Y-94434897D01*
X144720489Y-94434897D02*
X144763347Y-94482516D01*
X144763347Y-94482516D02*
X144806204Y-94577754D01*
X144806204Y-94577754D02*
X144806204Y-94863468D01*
X144806204Y-94863468D02*
X144763347Y-94958706D01*
X144763347Y-94958706D02*
X144720489Y-95006325D01*
X144720489Y-95006325D02*
X144634775Y-95053944D01*
X144634775Y-95053944D02*
X144506204Y-95053944D01*
X148282401Y-99253944D02*
X147949068Y-98777754D01*
X147710973Y-99253944D02*
X147710973Y-98253944D01*
X147710973Y-98253944D02*
X148091925Y-98253944D01*
X148091925Y-98253944D02*
X148187163Y-98301564D01*
X148187163Y-98301564D02*
X148234782Y-98349183D01*
X148234782Y-98349183D02*
X148282401Y-98444421D01*
X148282401Y-98444421D02*
X148282401Y-98587278D01*
X148282401Y-98587278D02*
X148234782Y-98682516D01*
X148234782Y-98682516D02*
X148187163Y-98730135D01*
X148187163Y-98730135D02*
X148091925Y-98777754D01*
X148091925Y-98777754D02*
X147710973Y-98777754D01*
X149139544Y-98587278D02*
X149139544Y-99253944D01*
X148901449Y-98206325D02*
X148663354Y-98920611D01*
X148663354Y-98920611D02*
X149282401Y-98920611D01*
X149663353Y-99158706D02*
X149710972Y-99206325D01*
X149710972Y-99206325D02*
X149663353Y-99253944D01*
X149663353Y-99253944D02*
X149615734Y-99206325D01*
X149615734Y-99206325D02*
X149663353Y-99158706D01*
X149663353Y-99158706D02*
X149663353Y-99253944D01*
X150330019Y-98253944D02*
X150425257Y-98253944D01*
X150425257Y-98253944D02*
X150520495Y-98301564D01*
X150520495Y-98301564D02*
X150568114Y-98349183D01*
X150568114Y-98349183D02*
X150615733Y-98444421D01*
X150615733Y-98444421D02*
X150663352Y-98634897D01*
X150663352Y-98634897D02*
X150663352Y-98872992D01*
X150663352Y-98872992D02*
X150615733Y-99063468D01*
X150615733Y-99063468D02*
X150568114Y-99158706D01*
X150568114Y-99158706D02*
X150520495Y-99206325D01*
X150520495Y-99206325D02*
X150425257Y-99253944D01*
X150425257Y-99253944D02*
X150330019Y-99253944D01*
X150330019Y-99253944D02*
X150234781Y-99206325D01*
X150234781Y-99206325D02*
X150187162Y-99158706D01*
X150187162Y-99158706D02*
X150139543Y-99063468D01*
X150139543Y-99063468D02*
X150091924Y-98872992D01*
X150091924Y-98872992D02*
X150091924Y-98634897D01*
X150091924Y-98634897D02*
X150139543Y-98444421D01*
X150139543Y-98444421D02*
X150187162Y-98349183D01*
X150187162Y-98349183D02*
X150234781Y-98301564D01*
X150234781Y-98301564D02*
X150330019Y-98253944D01*
D11*
%TO.C,JP1*%
X131963353Y-114451564D02*
X131063353Y-114451564D01*
X131863353Y-113051564D02*
X131563353Y-112751564D01*
X132163353Y-112751564D02*
X131563353Y-112751564D01*
X131863353Y-113051564D02*
X132163353Y-112751564D01*
X129763353Y-114051564D02*
X129763353Y-113651564D01*
X132363353Y-113651564D02*
X132363353Y-114051564D01*
X130163353Y-114451564D02*
X131063353Y-114451564D01*
X130163353Y-113251564D02*
X131063353Y-113251564D01*
X131963353Y-113251564D02*
X131063353Y-113251564D01*
X130163353Y-113251564D02*
G75*
G03*
X129763353Y-113651564I0J-400000D01*
G01*
X129763353Y-114051564D02*
G75*
G03*
X130163353Y-114451564I400000J0D01*
G01*
X131963353Y-114451564D02*
G75*
G03*
X132363353Y-114051564I0J400000D01*
G01*
X132363353Y-113651564D02*
G75*
G03*
X131963353Y-113251564I-400000J0D01*
G01*
%TO.C,C5*%
X143349188Y-72761564D02*
X143117518Y-72761564D01*
X143349188Y-72041564D02*
X143117518Y-72041564D01*
%TO.C,C26*%
X127173353Y-97835729D02*
X127173353Y-98067399D01*
X126453353Y-97835729D02*
X126453353Y-98067399D01*
%TO.C,C21*%
X122671688Y-87981564D02*
X122440018Y-87981564D01*
X122671688Y-87261564D02*
X122440018Y-87261564D01*
%TO.C,C53*%
X126623353Y-102385729D02*
X126623353Y-102617399D01*
X125903353Y-102385729D02*
X125903353Y-102617399D01*
%TO.C,R19*%
X133495732Y-113221564D02*
X133830974Y-113221564D01*
X133495732Y-113981564D02*
X133830974Y-113981564D01*
%TO.C,R11*%
X142558353Y-97076443D02*
X142558353Y-97411685D01*
X141798353Y-97076443D02*
X141798353Y-97411685D01*
%TO.C,C14*%
X134373353Y-80585729D02*
X134373353Y-80817399D01*
X133653353Y-80585729D02*
X133653353Y-80817399D01*
%TO.C,R13*%
X139748353Y-97411685D02*
X139748353Y-97076443D01*
X140508353Y-97411685D02*
X140508353Y-97076443D01*
%TO.C,C47*%
X127483353Y-74068229D02*
X127483353Y-74299899D01*
X126763353Y-74068229D02*
X126763353Y-74299899D01*
%TO.C,C44*%
X122440018Y-86241564D02*
X122671688Y-86241564D01*
X122440018Y-86961564D02*
X122671688Y-86961564D01*
%TO.C,L1*%
X149703353Y-69282816D02*
X149703353Y-68760312D01*
X151923353Y-69282816D02*
X151923353Y-68760312D01*
%TO.C,C40*%
X140229188Y-85011564D02*
X139997518Y-85011564D01*
X140229188Y-84291564D02*
X139997518Y-84291564D01*
%TO.C,R6*%
X122133353Y-91789185D02*
X122133353Y-91453943D01*
X122893353Y-91789185D02*
X122893353Y-91453943D01*
%TO.C,J1*%
X134913353Y-99971564D02*
X135263353Y-99971564D01*
X134913353Y-101571564D02*
X134913353Y-109171564D01*
X134913353Y-111571564D02*
X134913353Y-114471564D01*
X149613353Y-99971564D02*
X144963353Y-99971564D01*
X149613353Y-101571564D02*
X149613353Y-109171564D01*
X149613353Y-114471564D02*
X134913353Y-114471564D01*
X149613353Y-114471564D02*
X149613353Y-111571564D01*
%TO.C,J11*%
X161463353Y-98801564D02*
X161463353Y-108801564D01*
X152463353Y-98801564D02*
X161463353Y-98801564D01*
X152463353Y-98801564D02*
X152463353Y-108801564D01*
X161463353Y-108801564D02*
X152463353Y-108801564D01*
%TO.C,J12*%
X154408353Y-83731564D02*
X158278353Y-83731564D01*
X154408353Y-83731564D02*
X154408353Y-83161564D01*
X158278353Y-83731564D02*
X158278353Y-82709094D01*
X153013353Y-82401564D02*
X153013353Y-81071564D01*
X158278353Y-82094034D02*
X158278353Y-81071564D01*
X154408353Y-81641564D02*
X154408353Y-81071564D01*
X153013353Y-81071564D02*
X153773353Y-81071564D01*
X154408353Y-81071564D02*
X158278353Y-81071564D01*
%TO.C,R25*%
X145552212Y-86171564D02*
X145859494Y-86171564D01*
X145552212Y-86931564D02*
X145859494Y-86931564D01*
%TO.C,R34*%
X127783353Y-76666685D02*
X127783353Y-76331443D01*
X128543353Y-76666685D02*
X128543353Y-76331443D01*
D10*
%TO.C,U1*%
X150848353Y-97566564D02*
X150848353Y-97341564D01*
X150848353Y-97566564D02*
X147498353Y-97566564D01*
X150848353Y-97341564D02*
X152073353Y-97341564D01*
X150848353Y-94216564D02*
X150848353Y-94516564D01*
X150848353Y-94216564D02*
X147498353Y-94216564D01*
X147498353Y-97566564D02*
X147498353Y-97266564D01*
X147498353Y-94216564D02*
X147498353Y-94516564D01*
D11*
%TO.C,C20*%
X128178353Y-80817399D02*
X128178353Y-80585729D01*
X128898353Y-80817399D02*
X128898353Y-80585729D01*
%TO.C,C12*%
X140879188Y-93661564D02*
X140647518Y-93661564D01*
X140879188Y-92941564D02*
X140647518Y-92941564D01*
%TO.C,C33*%
X150597773Y-65736564D02*
X150878933Y-65736564D01*
X150597773Y-66756564D02*
X150878933Y-66756564D01*
%TO.C,R32*%
X151380000Y-104832379D02*
X151380000Y-105167621D01*
X150620000Y-104832379D02*
X150620000Y-105167621D01*
%TO.C,U6*%
X146123353Y-69101564D02*
X146123353Y-70901564D01*
X146123353Y-69101564D02*
X146123353Y-68301564D01*
X149243353Y-69101564D02*
X149243353Y-69901564D01*
X149243353Y-69101564D02*
X149243353Y-68301564D01*
%TO.C,R10*%
X122388232Y-89311564D02*
X122723474Y-89311564D01*
X122388232Y-90071564D02*
X122723474Y-90071564D01*
%TO.C,C7*%
X132173353Y-76684899D02*
X132173353Y-76453229D01*
X132893353Y-76684899D02*
X132893353Y-76453229D01*
%TO.C,U7*%
X152973353Y-75514064D02*
X152973353Y-73714064D01*
X152973353Y-75514064D02*
X152973353Y-76314064D01*
X149853353Y-75514064D02*
X149853353Y-74714064D01*
X149853353Y-75514064D02*
X149853353Y-76314064D01*
%TO.C,C50*%
X157247518Y-71841564D02*
X157479188Y-71841564D01*
X157247518Y-72561564D02*
X157479188Y-72561564D01*
%TO.C,C22*%
X140647518Y-91841564D02*
X140879188Y-91841564D01*
X140647518Y-92561564D02*
X140879188Y-92561564D01*
%TO.C,Ri1*%
X120193353Y-74016443D02*
X120193353Y-74351685D01*
X119433353Y-74016443D02*
X119433353Y-74351685D01*
%TO.C,R30*%
X140280974Y-83981564D02*
X139945732Y-83981564D01*
X140280974Y-83221564D02*
X139945732Y-83221564D01*
%TO.C,Ci1*%
X119453353Y-76614899D02*
X119453353Y-76383229D01*
X120173353Y-76614899D02*
X120173353Y-76383229D01*
%TO.C,R16*%
X137733353Y-97411685D02*
X137733353Y-97076443D01*
X138493353Y-97411685D02*
X138493353Y-97076443D01*
%TO.C,R15*%
X144633353Y-97076443D02*
X144633353Y-97411685D01*
X143873353Y-97076443D02*
X143873353Y-97411685D01*
%TO.C,TBD1*%
X138286053Y-71511564D02*
X138085653Y-71511564D01*
X138286053Y-70791564D02*
X138085653Y-70791564D01*
%TO.C,C42*%
X147840853Y-89842144D02*
X147840853Y-89560984D01*
X148860853Y-89842144D02*
X148860853Y-89560984D01*
%TO.C,R8*%
X122413353Y-100366443D02*
X122413353Y-100701685D01*
X121653353Y-100366443D02*
X121653353Y-100701685D01*
%TO.C,R4*%
X151993353Y-88386443D02*
X151993353Y-88721685D01*
X151233353Y-88386443D02*
X151233353Y-88721685D01*
%TO.C,R7*%
X121083353Y-91819185D02*
X121083353Y-91483943D01*
X121843353Y-91819185D02*
X121843353Y-91483943D01*
%TO.C,J3*%
X155398353Y-98306564D02*
X156728353Y-98306564D01*
X155398353Y-98306564D02*
X155398353Y-97736564D01*
X156728353Y-98306564D02*
X156728353Y-97284094D01*
X154003353Y-96976564D02*
X154003353Y-95646564D01*
X156728353Y-96669034D02*
X156728353Y-95646564D01*
X155398353Y-96216564D02*
X155398353Y-95646564D01*
X154003353Y-95646564D02*
X154763353Y-95646564D01*
X155398353Y-95646564D02*
X156728353Y-95646564D01*
%TO.C,R35*%
X128533353Y-74016443D02*
X128533353Y-74351685D01*
X127773353Y-74016443D02*
X127773353Y-74351685D01*
%TO.C,R24*%
X153313353Y-74802705D02*
X153313353Y-74495423D01*
X154073353Y-74802705D02*
X154073353Y-74495423D01*
%TO.C,C1*%
X143829188Y-95961564D02*
X143597518Y-95961564D01*
X143829188Y-95241564D02*
X143597518Y-95241564D01*
%TO.C,R9*%
X122388232Y-88271564D02*
X122723474Y-88271564D01*
X122388232Y-89031564D02*
X122723474Y-89031564D01*
%TO.C,R36*%
X155230974Y-72581564D02*
X154895732Y-72581564D01*
X155230974Y-71821564D02*
X154895732Y-71821564D01*
%TO.C,C3*%
X139173353Y-69435729D02*
X139173353Y-69667399D01*
X138453353Y-69435729D02*
X138453353Y-69667399D01*
%TO.C,R3*%
X151993353Y-90683943D02*
X151993353Y-91019185D01*
X151233353Y-90683943D02*
X151233353Y-91019185D01*
%TO.C,J2*%
X112983353Y-70571564D02*
X114313353Y-70571564D01*
X112983353Y-71901564D02*
X112983353Y-70571564D01*
X112983353Y-73171564D02*
X112983353Y-108791564D01*
X112983353Y-73171564D02*
X115583353Y-73171564D01*
X112983353Y-108791564D02*
X118183353Y-108791564D01*
X115583353Y-70571564D02*
X118183353Y-70571564D01*
X115583353Y-73171564D02*
X115583353Y-70571564D01*
X118183353Y-70571564D02*
X118183353Y-108791564D01*
%TO.C,L4*%
X133113353Y-108651564D02*
X133113353Y-107501564D01*
X133113353Y-108651564D02*
X128813353Y-108651564D01*
X133113353Y-104751564D02*
X133113353Y-105901564D01*
X133113353Y-104751564D02*
X128813353Y-104751564D01*
X128813353Y-108651564D02*
X128813353Y-107501564D01*
X128813353Y-104751564D02*
X128813353Y-105901564D01*
%TO.C,U10*%
X122263353Y-109261564D02*
X125163353Y-109261564D01*
X122263353Y-109261564D02*
X120213353Y-109261564D01*
X122263353Y-104141564D02*
X124313353Y-104141564D01*
X122263353Y-104141564D02*
X120163353Y-104141564D01*
%TO.C,R5*%
X143065732Y-70981564D02*
X143400974Y-70981564D01*
X143065732Y-71741564D02*
X143400974Y-71741564D01*
%TO.C,R18*%
X128078474Y-112441564D02*
X127743232Y-112441564D01*
X128078474Y-111681564D02*
X127743232Y-111681564D01*
%TO.C,C37*%
X144495853Y-84160984D02*
X144495853Y-84442144D01*
X143475853Y-84160984D02*
X143475853Y-84442144D01*
%TO.C,R37*%
X150620000Y-102867621D02*
X150620000Y-102532379D01*
X151380000Y-102867621D02*
X151380000Y-102532379D01*
%TO.C,SW2*%
X159063353Y-74341564D02*
X158613353Y-74341564D01*
X157563353Y-74341564D02*
X156963353Y-74341564D01*
X155463353Y-74341564D02*
X155913353Y-74341564D01*
X155463353Y-74341564D02*
X155463353Y-76691564D01*
X160063353Y-75391564D02*
X160063353Y-77991564D01*
X159063353Y-75391564D02*
X160063353Y-75391564D01*
X159063353Y-76691564D02*
X159063353Y-74341564D01*
X159063353Y-76691564D02*
X159063353Y-79041564D01*
X155463353Y-76691564D02*
X155463353Y-79041564D01*
X160063353Y-77991564D02*
X159063353Y-77991564D01*
X159063353Y-79041564D02*
X158663353Y-79041564D01*
X159038353Y-79041564D02*
X158588353Y-79041564D01*
X157563353Y-79041564D02*
X156963353Y-79041564D01*
X155463353Y-79041564D02*
X155913353Y-79041564D01*
D10*
%TO.C,U4*%
X120383353Y-93991564D02*
X120908353Y-93991564D01*
X120383353Y-98291564D02*
X120383353Y-97766564D01*
X120383353Y-98291564D02*
X120908353Y-98291564D01*
X124683353Y-93991564D02*
X124158353Y-93991564D01*
X124683353Y-93991564D02*
X124683353Y-94516564D01*
X124683353Y-98291564D02*
X124158353Y-98291564D01*
X124683353Y-98291564D02*
X124683353Y-97766564D01*
D11*
%TO.C,C8*%
X143117518Y-69961564D02*
X143349188Y-69961564D01*
X143117518Y-70681564D02*
X143349188Y-70681564D01*
%TO.C,C38*%
X148528933Y-78869064D02*
X148247773Y-78869064D01*
X148528933Y-77849064D02*
X148247773Y-77849064D01*
%TO.C,C49*%
X122127518Y-80181564D02*
X122359188Y-80181564D01*
X122127518Y-80901564D02*
X122359188Y-80901564D01*
%TO.C,U8*%
X146825853Y-85861564D02*
X148625853Y-85861564D01*
X146825853Y-85861564D02*
X146025853Y-85861564D01*
X146825853Y-82741564D02*
X147625853Y-82741564D01*
X146825853Y-82741564D02*
X146025853Y-82741564D01*
%TO.C,R17*%
X127743232Y-109611564D02*
X128078474Y-109611564D01*
X127743232Y-110371564D02*
X128078474Y-110371564D01*
%TO.C,D1*%
X126303353Y-112866564D02*
X126303353Y-114336564D01*
X126303353Y-114336564D02*
X128763353Y-114336564D01*
X128763353Y-112866564D02*
X126303353Y-112866564D01*
%TO.C,C36*%
X151272773Y-77849064D02*
X151553933Y-77849064D01*
X151272773Y-78869064D02*
X151553933Y-78869064D01*
%TO.C,C11*%
X133028353Y-98067399D02*
X133028353Y-97835729D01*
X133748353Y-98067399D02*
X133748353Y-97835729D01*
%TO.C,C32*%
X147823933Y-66761564D02*
X147542773Y-66761564D01*
X147823933Y-65741564D02*
X147542773Y-65741564D01*
%TO.C,R12*%
X143583353Y-97076443D02*
X143583353Y-97411685D01*
X142823353Y-97076443D02*
X142823353Y-97411685D01*
%TO.C,C18*%
X123198353Y-91737399D02*
X123198353Y-91505729D01*
X123918353Y-91737399D02*
X123918353Y-91505729D01*
%TO.C,C28*%
X127795018Y-110671564D02*
X128026688Y-110671564D01*
X127795018Y-111391564D02*
X128026688Y-111391564D01*
%TO.C,UART1*%
X155813353Y-94281564D02*
X157733353Y-94281564D01*
X161448353Y-94281564D02*
X159743353Y-94281564D01*
X157733353Y-85121564D02*
X155813353Y-85121564D01*
X159743353Y-85121564D02*
X161448353Y-85121564D01*
X161448353Y-85121564D02*
X161448353Y-94281564D01*
%TO.C,C13*%
X140249188Y-90481564D02*
X140017518Y-90481564D01*
X140249188Y-89761564D02*
X140017518Y-89761564D01*
%TO.C,Y2*%
X127563353Y-96301564D02*
X127563353Y-99601564D01*
X127563353Y-99601564D02*
X131563353Y-99601564D01*
%TO.C,C41*%
X140229188Y-87111564D02*
X139997518Y-87111564D01*
X140229188Y-86391564D02*
X139997518Y-86391564D01*
%TO.C,C39*%
X143460853Y-81407144D02*
X143460853Y-81125984D01*
X144480853Y-81407144D02*
X144480853Y-81125984D01*
%TO.C,U9*%
X145263353Y-88141564D02*
X143588353Y-88141564D01*
X145263353Y-88141564D02*
X145913353Y-88141564D01*
X145263353Y-91261564D02*
X144613353Y-91261564D01*
X145263353Y-91261564D02*
X145913353Y-91261564D01*
%TO.C,J6*%
X121403353Y-68841564D02*
X122463353Y-68841564D01*
X121403353Y-69901564D02*
X121403353Y-68841564D01*
X121403353Y-70901564D02*
X121403353Y-70961564D01*
X121403353Y-70901564D02*
X123463353Y-70901564D01*
X121403353Y-70961564D02*
X125523353Y-70961564D01*
X123463353Y-68841564D02*
X125523353Y-68841564D01*
X123463353Y-70901564D02*
X123463353Y-68841564D01*
X125523353Y-68841564D02*
X125523353Y-70961564D01*
%TO.C,R29*%
X138858474Y-80561564D02*
X138523232Y-80561564D01*
X138858474Y-79801564D02*
X138523232Y-79801564D01*
%TO.C,C51*%
X120446688Y-103761564D02*
X120215018Y-103761564D01*
X120446688Y-103041564D02*
X120215018Y-103041564D01*
%TO.C,C17*%
X124443353Y-100418229D02*
X124443353Y-100649899D01*
X123723353Y-100418229D02*
X123723353Y-100649899D01*
%TO.C,R31*%
X140280974Y-86081564D02*
X139945732Y-86081564D01*
X140280974Y-85321564D02*
X139945732Y-85321564D01*
%TO.C,U2*%
X134903353Y-73091564D02*
X135378353Y-73091564D01*
X140123353Y-73566564D02*
X140123353Y-73091564D01*
X134903353Y-73566564D02*
X134903353Y-73091564D01*
X140123353Y-77836564D02*
X140123353Y-78311564D01*
X134903353Y-77836564D02*
X134903353Y-78311564D01*
X140123353Y-78311564D02*
X139648353Y-78311564D01*
X134903353Y-78311564D02*
X135378353Y-78311564D01*
%TO.C,C56*%
X128048353Y-104591564D02*
X126178353Y-104591564D01*
X126178353Y-104591564D02*
X126178353Y-108501564D01*
X128048353Y-108501564D02*
X128048353Y-104591564D01*
%TO.C,C48*%
X124435018Y-80181564D02*
X124666688Y-80181564D01*
X124435018Y-80901564D02*
X124666688Y-80901564D01*
%TO.C,R2*%
X123016994Y-103781564D02*
X122709712Y-103781564D01*
X123016994Y-103021564D02*
X122709712Y-103021564D01*
D12*
%TO.C,D2*%
X124003353Y-102401564D02*
G75*
G03*
X124003353Y-102401564I-50000J0D01*
G01*
D11*
%TO.C,U3*%
X136193353Y-83201564D02*
X136743353Y-83201564D01*
X126443353Y-83201564D02*
X126993353Y-83201564D01*
X136743353Y-83751564D02*
X136743353Y-83201564D01*
X126443353Y-83751564D02*
X126443353Y-83201564D01*
X136743353Y-92951564D02*
X136743353Y-93501564D01*
X126443353Y-92951564D02*
X126443353Y-93501564D01*
X136743353Y-93501564D02*
X136193353Y-93501564D01*
X126443353Y-93501564D02*
X126993353Y-93501564D01*
D10*
X135893353Y-84351564D02*
G75*
G03*
X135893353Y-84351564I-300000J0D01*
G01*
D11*
%TO.C,C6*%
X132173353Y-74407399D02*
X132173353Y-74175729D01*
X132893353Y-74407399D02*
X132893353Y-74175729D01*
%TO.C,C43*%
X145122773Y-91941564D02*
X145403933Y-91941564D01*
X145122773Y-92961564D02*
X145403933Y-92961564D01*
%TO.C,R23*%
X153313353Y-76762705D02*
X153313353Y-76455423D01*
X154073353Y-76762705D02*
X154073353Y-76455423D01*
%TO.C,C31*%
X147522773Y-71491564D02*
X147803933Y-71491564D01*
X147522773Y-72511564D02*
X147803933Y-72511564D01*
%TO.C,C16*%
X121353353Y-100418229D02*
X121353353Y-100649899D01*
X120633353Y-100418229D02*
X120633353Y-100649899D01*
%TO.C,C45*%
X122671688Y-85941564D02*
X122440018Y-85941564D01*
X122671688Y-85221564D02*
X122440018Y-85221564D01*
%TO.C,R14*%
X138749353Y-97411685D02*
X138749353Y-97076443D01*
X139509353Y-97411685D02*
X139509353Y-97076443D01*
%TO.C,R21*%
X145783353Y-67832923D02*
X145783353Y-68140205D01*
X145023353Y-67832923D02*
X145023353Y-68140205D01*
%TO.C,D4*%
X127763353Y-101201564D02*
X127763353Y-103801564D01*
X127763353Y-101201564D02*
X132563353Y-101201564D01*
X127763353Y-103801564D02*
X132563353Y-103801564D01*
%TO.C,C27*%
X140793353Y-97359899D02*
X140793353Y-97128229D01*
X141513353Y-97359899D02*
X141513353Y-97128229D01*
%TO.C,R1*%
X120209712Y-102021564D02*
X120516994Y-102021564D01*
X120209712Y-102781564D02*
X120516994Y-102781564D01*
%TO.C,C23*%
X122671688Y-83891564D02*
X122440018Y-83891564D01*
X122671688Y-83171564D02*
X122440018Y-83171564D01*
%TO.C,C4*%
X143122518Y-77641564D02*
X143354188Y-77641564D01*
X143122518Y-78361564D02*
X143354188Y-78361564D01*
%TO.C,Q1*%
X131363353Y-109441564D02*
X129688353Y-109441564D01*
X131363353Y-109441564D02*
X132013353Y-109441564D01*
X131363353Y-112561564D02*
X130713353Y-112561564D01*
X131363353Y-112561564D02*
X132013353Y-112561564D01*
%TO.C,R28*%
X136198232Y-79801564D02*
X136533474Y-79801564D01*
X136198232Y-80561564D02*
X136533474Y-80561564D01*
%TO.C,R27*%
X136078474Y-71531564D02*
X135743232Y-71531564D01*
X136078474Y-70771564D02*
X135743232Y-70771564D01*
%TO.C,U5*%
X126038353Y-75406564D02*
X126038353Y-71956564D01*
X126038353Y-75406564D02*
X126038353Y-77356564D01*
X120918353Y-75406564D02*
X120918353Y-73456564D01*
X120918353Y-75406564D02*
X120918353Y-77356564D01*
%TO.C,R26*%
X147552212Y-86181564D02*
X147859494Y-86181564D01*
X147552212Y-86941564D02*
X147859494Y-86941564D01*
%TO.C,C57*%
X138097518Y-67591564D02*
X138329188Y-67591564D01*
X138097518Y-68311564D02*
X138329188Y-68311564D01*
%TO.C,C10*%
X130023353Y-80585729D02*
X130023353Y-80817399D01*
X129303353Y-80585729D02*
X129303353Y-80817399D01*
%TO.C,C9*%
X133373353Y-80585729D02*
X133373353Y-80817399D01*
X132653353Y-80585729D02*
X132653353Y-80817399D01*
D13*
%TO.C,AE1*%
X137633993Y-65074547D02*
X136234453Y-65074547D01*
X136234453Y-65074547D02*
X130836953Y-65074547D01*
X139734573Y-66971927D02*
X139734573Y-65376807D01*
X137633993Y-67274187D02*
X136234453Y-67274187D01*
X136234453Y-67274187D02*
X136234453Y-65074547D01*
X136234453Y-67274187D02*
X130836953Y-67274187D01*
D11*
%TO.C,L3*%
X147007105Y-82251564D02*
X146484601Y-82251564D01*
X147007105Y-80031564D02*
X146484601Y-80031564D01*
D12*
%TO.C,D3*%
X125113353Y-103991564D02*
G75*
G03*
X125113353Y-103991564I-50000J0D01*
G01*
D11*
%TO.C,C46*%
X126763353Y-76614899D02*
X126763353Y-76383229D01*
X127483353Y-76614899D02*
X127483353Y-76383229D01*
%TO.C,C2*%
X149057518Y-92931564D02*
X149289188Y-92931564D01*
X149057518Y-93651564D02*
X149289188Y-93651564D01*
%TO.C,R22*%
X145783353Y-69792923D02*
X145783353Y-70100205D01*
X145023353Y-69792923D02*
X145023353Y-70100205D01*
%TO.C,C35*%
X149203353Y-84442144D02*
X149203353Y-84160984D01*
X150223353Y-84442144D02*
X150223353Y-84160984D01*
%TO.C,C19*%
X123423353Y-100418229D02*
X123423353Y-100649899D01*
X122703353Y-100418229D02*
X122703353Y-100649899D01*
%TO.C,C15*%
X140493353Y-88335729D02*
X140493353Y-88567399D01*
X139773353Y-88335729D02*
X139773353Y-88567399D01*
%TO.C,SW1*%
X124988353Y-114101564D02*
X124988353Y-113651564D01*
X124988353Y-112601564D02*
X124988353Y-112001564D01*
X124988353Y-110501564D02*
X124988353Y-110951564D01*
X124988353Y-110501564D02*
X122638353Y-110501564D01*
X123938353Y-115101564D02*
X121338353Y-115101564D01*
X123938353Y-114101564D02*
X123938353Y-115101564D01*
X122638353Y-114101564D02*
X124988353Y-114101564D01*
X122638353Y-114101564D02*
X120288353Y-114101564D01*
X122638353Y-110501564D02*
X120288353Y-110501564D01*
X121338353Y-115101564D02*
X121338353Y-114101564D01*
X120288353Y-114101564D02*
X120288353Y-113701564D01*
X120288353Y-114076564D02*
X120288353Y-113626564D01*
X120288353Y-112601564D02*
X120288353Y-112001564D01*
X120288353Y-110501564D02*
X120288353Y-110951564D01*
%TO.C,C34*%
X151553933Y-73124064D02*
X151272773Y-73124064D01*
X151553933Y-72104064D02*
X151272773Y-72104064D01*
%TO.C,C25*%
X131978353Y-98067399D02*
X131978353Y-97835729D01*
X132698353Y-98067399D02*
X132698353Y-97835729D01*
%TO.C,C24*%
X122671688Y-84921564D02*
X122440018Y-84921564D01*
X122671688Y-84201564D02*
X122440018Y-84201564D01*
%TO.C,Y1*%
X144863353Y-73201564D02*
X141563353Y-73201564D01*
X141563353Y-73201564D02*
X141563353Y-77201564D01*
%TO.C,L2*%
X149373353Y-75322812D02*
X149373353Y-75845316D01*
X147153353Y-75322812D02*
X147153353Y-75845316D01*
%TD*%
M02*
