%TF.GenerationSoftware,KiCad,Pcbnew,6.99.0-unknown-5a2f351f28~146~ubuntu20.04.1*%
%TF.CreationDate,2022-01-27T10:55:03+08:00*%
%TF.ProjectId,M5Pi,4d355069-2e6b-4696-9361-645f70636258,1.0*%
%TF.SameCoordinates,Original*%
%TF.FileFunction,Profile,NP*%
%FSLAX46Y46*%
G04 Gerber Fmt 4.6, Leading zero omitted, Abs format (unit mm)*
G04 Created by KiCad (PCBNEW 6.99.0-unknown-5a2f351f28~146~ubuntu20.04.1) date 2022-01-27 10:55:03*
%MOMM*%
%LPD*%
G01*
G04 APERTURE LIST*
%TA.AperFunction,Profile*%
%ADD10C,0.200000*%
%TD*%
%TA.AperFunction,Profile*%
%ADD11C,0.100000*%
%TD*%
%TA.AperFunction,Profile*%
%ADD12C,0.120000*%
%TD*%
G04 APERTURE END LIST*
D10*
X158518229Y-77322267D02*
X158608229Y-77322267D01*
X119928230Y-67202268D02*
X123128230Y-67202268D01*
X159028231Y-81702268D02*
X159628230Y-81702268D01*
X159028231Y-77742269D02*
X159028231Y-81702268D01*
X113038147Y-70352176D02*
X113038148Y-101792350D01*
X158488230Y-76082269D02*
G75*
G03*
X159028231Y-75542269I553J539448D01*
G01*
X159628230Y-108702366D02*
X159628230Y-109702268D01*
X116928230Y-113902268D02*
X116128230Y-114702268D01*
X158488230Y-76082269D02*
G75*
G03*
X157898230Y-76672269I660J-590660D01*
G01*
D11*
X117728329Y-111682176D02*
G75*
G03*
X117728329Y-111682176I-1104669J0D01*
G01*
D10*
X119928230Y-65702268D02*
X119928230Y-67202268D01*
X159628230Y-71702268D02*
X159028231Y-71702268D01*
X121588230Y-113902268D02*
G75*
G03*
X122008229Y-113482268I51J419948D01*
G01*
X157898230Y-76702268D02*
G75*
G03*
X158518229Y-77322267I621387J1388D01*
G01*
X158628230Y-113702268D02*
X157628230Y-114702268D01*
D11*
X153728148Y-111682176D02*
G75*
G03*
X153728148Y-111682176I-1104669J0D01*
G01*
D10*
X123248230Y-113362268D02*
G75*
G03*
X122658229Y-112772268I-590662J-662D01*
G01*
X123248230Y-113362268D02*
G75*
G03*
X123788229Y-113902268I539446J-554D01*
G01*
X125938230Y-113902268D02*
X123788230Y-113902268D01*
X138178731Y-114702268D02*
X138178731Y-114702268D01*
X157628230Y-114702268D02*
X126738229Y-114702268D01*
X121588230Y-113902268D02*
X116928230Y-113902268D01*
X122008230Y-113392268D02*
X122008230Y-113482268D01*
X153229231Y-64702268D02*
X153428229Y-64902269D01*
X156628233Y-110102268D02*
G75*
G03*
X156628229Y-113302268I-2J-1600000D01*
G01*
X156628230Y-70902269D02*
X159628230Y-70902269D01*
X159628230Y-70902269D02*
X159628230Y-71702268D01*
X117828230Y-65702268D02*
X119928230Y-65702268D01*
X116128230Y-114702268D02*
X113628230Y-114702268D01*
X156628230Y-113302268D02*
X158228228Y-113302268D01*
X159028231Y-77742269D02*
G75*
G03*
X158608229Y-77322267I-419952J50D01*
G01*
X159628230Y-81702268D02*
X159628230Y-98702366D01*
X116422718Y-70352176D02*
G75*
G03*
X117828230Y-67702268I-1793607J2649026D01*
G01*
X159028231Y-71702268D02*
X159028231Y-75542268D01*
X113628230Y-114702268D02*
X112628230Y-113702268D01*
X112628230Y-113252268D02*
G75*
G03*
X113118230Y-110232268I209J1549718D01*
G01*
X112128230Y-102702268D02*
X113038148Y-101792350D01*
X125777884Y-113902268D02*
X125777884Y-113902268D01*
X153428229Y-64902269D02*
X153428229Y-67702268D01*
X158228228Y-113302268D02*
X158628230Y-113702268D01*
X126738229Y-114702268D02*
X125938230Y-113902268D01*
X123128230Y-67202268D02*
X123128230Y-64702268D01*
X153428229Y-67702268D02*
G75*
G03*
X156628230Y-70902269I3202535J2534D01*
G01*
X159628230Y-109702268D02*
X159228228Y-110102268D01*
X116422718Y-70352176D02*
X113038147Y-70352176D01*
X159628230Y-98702366D02*
X159628230Y-108702366D01*
X117828230Y-67702268D02*
X117828230Y-65702268D01*
X112128230Y-102702268D02*
X112128230Y-102702268D01*
X157898230Y-76672269D02*
X157898230Y-76702268D01*
X159228228Y-110102268D02*
X156628233Y-110102268D01*
X112628230Y-113702268D02*
X112628230Y-113252268D01*
X122628230Y-112772268D02*
G75*
G03*
X122008230Y-113392268I1391J-621391D01*
G01*
X112128230Y-109241268D02*
X112128230Y-102702268D01*
X159628230Y-98702366D02*
X159628230Y-98702366D01*
X113118230Y-110232268D02*
X112128230Y-109241268D01*
X123128230Y-64702268D02*
X153229231Y-64702268D01*
X122658229Y-112772268D02*
X122628230Y-112772268D01*
D12*
%TO.C,J1*%
X137913353Y-112271564D02*
G75*
G03*
X137913353Y-112271564I-600000J0D01*
G01*
X145913353Y-112271564D02*
G75*
G03*
X145913353Y-112271564I-600000J0D01*
G01*
%TD*%
M02*
