%TF.GenerationSoftware,KiCad,Pcbnew,5.99.0-unknown-b10f156dd0~130~ubuntu20.04.1*%
%TF.CreationDate,2021-06-23T21:39:51+08:00*%
%TF.ProjectId,M5Pi,4d355069-2e6b-4696-9361-645f70636258,3.0*%
%TF.SameCoordinates,Original*%
%TF.FileFunction,Paste,Bot*%
%TF.FilePolarity,Positive*%
%FSLAX46Y46*%
G04 Gerber Fmt 4.6, Leading zero omitted, Abs format (unit mm)*
G04 Created by KiCad (PCBNEW 5.99.0-unknown-b10f156dd0~130~ubuntu20.04.1) date 2021-06-23 21:39:51*
%MOMM*%
%LPD*%
G01*
G04 APERTURE LIST*
G04 Aperture macros list*
%AMRoundRect*
0 Rectangle with rounded corners*
0 $1 Rounding radius*
0 $2 $3 $4 $5 $6 $7 $8 $9 X,Y pos of 4 corners*
0 Add a 4 corners polygon primitive as box body*
4,1,4,$2,$3,$4,$5,$6,$7,$8,$9,$2,$3,0*
0 Add four circle primitives for the rounded corners*
1,1,$1+$1,$2,$3*
1,1,$1+$1,$4,$5*
1,1,$1+$1,$6,$7*
1,1,$1+$1,$8,$9*
0 Add four rect primitives between the rounded corners*
20,1,$1+$1,$2,$3,$4,$5,0*
20,1,$1+$1,$4,$5,$6,$7,0*
20,1,$1+$1,$6,$7,$8,$9,0*
20,1,$1+$1,$8,$9,$2,$3,0*%
G04 Aperture macros list end*
%ADD10RoundRect,0.160000X-0.160000X0.197500X-0.160000X-0.197500X0.160000X-0.197500X0.160000X0.197500X0*%
%ADD11RoundRect,0.155000X-0.212500X-0.155000X0.212500X-0.155000X0.212500X0.155000X-0.212500X0.155000X0*%
%ADD12RoundRect,0.160000X0.160000X-0.197500X0.160000X0.197500X-0.160000X0.197500X-0.160000X-0.197500X0*%
%ADD13R,0.300000X1.100000*%
%ADD14R,2.300000X3.100000*%
%ADD15RoundRect,0.155000X0.155000X-0.212500X0.155000X0.212500X-0.155000X0.212500X-0.155000X-0.212500X0*%
%ADD16RoundRect,0.155000X-0.155000X0.212500X-0.155000X-0.212500X0.155000X-0.212500X0.155000X0.212500X0*%
%ADD17RoundRect,0.250000X0.375000X0.625000X-0.375000X0.625000X-0.375000X-0.625000X0.375000X-0.625000X0*%
G04 APERTURE END LIST*
D10*
%TO.C,R41*%
X135053353Y-106226564D03*
X135053353Y-107421564D03*
%TD*%
D11*
%TO.C,C54*%
X121695853Y-105101564D03*
X122830853Y-105101564D03*
%TD*%
D12*
%TO.C,R20*%
X136093353Y-107421564D03*
X136093353Y-106226564D03*
%TD*%
D13*
%TO.C,J5*%
X136043353Y-92401564D03*
X135543353Y-92401564D03*
X135043353Y-92401564D03*
X134543353Y-92401564D03*
X134043353Y-92401564D03*
X133543353Y-92401564D03*
X133043353Y-92401564D03*
X132543353Y-92401564D03*
D14*
X130873353Y-90701564D03*
X137713353Y-90701564D03*
%TD*%
D10*
%TO.C,R39*%
X134013353Y-106206564D03*
X134013353Y-107401564D03*
%TD*%
D13*
%TO.C,J4*%
X132413353Y-102439064D03*
X132913353Y-102439064D03*
X133413353Y-102439064D03*
X133913353Y-102439064D03*
X134413353Y-102439064D03*
X134913353Y-102439064D03*
X135413353Y-102439064D03*
X135913353Y-102439064D03*
X136413353Y-102439064D03*
X136913353Y-102439064D03*
D14*
X130743353Y-100739064D03*
X138583353Y-100739064D03*
%TD*%
D15*
%TO.C,C29*%
X137143353Y-107391564D03*
X137143353Y-106256564D03*
%TD*%
D11*
%TO.C,C55*%
X121695853Y-107101564D03*
X122830853Y-107101564D03*
%TD*%
D10*
%TO.C,R33*%
X131943353Y-106206564D03*
X131943353Y-107401564D03*
%TD*%
D16*
%TO.C,C30*%
X128093353Y-92359064D03*
X128093353Y-93494064D03*
%TD*%
D17*
%TO.C,F1*%
X156763353Y-89701564D03*
X153963353Y-89701564D03*
%TD*%
D11*
%TO.C,C52*%
X121695853Y-106101564D03*
X122830853Y-106101564D03*
%TD*%
D10*
%TO.C,R40*%
X132963353Y-106206564D03*
X132963353Y-107401564D03*
%TD*%
M02*
