M48
; DRILL file {KiCad 5.99.0-unknown-b10f156dd0~130~ubuntu20.04.1} date Wed Jun 23 21:40:00 2021
; FORMAT={-:-/ absolute / inch / decimal}
; #@! TF.CreationDate,2021-06-23T21:40:00+08:00
; #@! TF.GenerationSoftware,Kicad,Pcbnew,5.99.0-unknown-b10f156dd0~130~ubuntu20.04.1
; #@! TF.FileFunction,Plated,1,4,PTH
FMAT,2
INCH
; #@! TA.AperFunction,Plated,PTH,ViaDrill
T1C0.0079
; #@! TA.AperFunction,Plated,PTH,ViaDrill
T2C0.0118
; #@! TA.AperFunction,Plated,PTH,ComponentDrill
T3C0.0236
; #@! TA.AperFunction,Plated,PTH,ComponentDrill
T4C0.0276
; #@! TA.AperFunction,Plated,PTH,ComponentDrill
T5C0.0300
; #@! TA.AperFunction,Plated,PTH,ComponentDrill
T6C0.0315
; #@! TA.AperFunction,Plated,PTH,ComponentDrill
T7C0.0394
%
G90
G05
T1
X5.0945Y-4.4193
X5.1555Y-4.0531
X5.236Y-3.7106
X5.2657Y-3.7382
X5.2697Y-3.7146
X5.3366Y-3.5787
X5.435Y-3.4961
T2
X4.5197Y-4.3425
X4.5197Y-4.378
X4.5197Y-4.4055
X4.5197Y-4.437
X4.5354Y-4.4764
X4.5709Y-4.4606
X4.6063Y-4.4606
X4.6378Y-4.4606
X4.6614Y-4.378
X4.6614Y-4.4055
X4.6614Y-4.437
X4.6836Y-4.1772
X4.7047Y-2.7874
X4.7047Y-2.815
X4.7087Y-3.9449
X4.7087Y-3.9724
X4.7151Y-4.1024
X4.7165Y-3.2992
X4.7387Y-3.0631
X4.752Y-3.6299
X4.752Y-3.6732
X4.752Y-4.252
X4.7584Y-3.5512
X4.7598Y-3.5118
X4.7598Y-4.1142
X4.7717Y-3.4213
X4.7749Y-3.6646
X4.7756Y-4.3661
X4.784Y-3.9036
X4.786Y-2.9961
X4.8056Y-3.6654
X4.8189Y-3.0118
X4.8307Y-3.6732
X4.8386Y-2.6575
X4.8386Y-2.6811
X4.8386Y-2.7047
X4.8583Y-2.8071
X4.8622Y-3.0118
X4.8661Y-2.7047
X4.8686Y-4.2717
X4.8726Y-3.9016
X4.874Y-4.3661
X4.8819Y-3.5157
X4.8883Y-3.5434
X4.8898Y-2.7047
X4.8923Y-4.0473
X4.8962Y-3.3898
X4.8962Y-3.567
X4.9009Y-3.8851
X4.9016Y-3.0118
X4.9041Y-3.2638
X4.9041Y-3.6615
X4.9119Y-4.2245
X4.9134Y-2.7047
X4.9134Y-3.4921
X4.9277Y-3.693
X4.9351Y-4.4533
X4.9364Y-3.0119
X4.937Y-2.7047
X4.9395Y-3.5827
X4.9449Y-3.7441
X4.9474Y-3.2245
X4.9513Y-3.2796
X4.9553Y-3.7048
X4.9553Y-3.7717
X4.9606Y-2.7047
X4.971Y-3.252
X4.9789Y-3.7757
X4.9828Y-3.7363
X4.9843Y-2.7047
X4.9867Y-3.7087
X4.9946Y-3.7993
X4.9961Y-3.9134
X5.0039Y-4.2087
X5.0045Y-4.1005
X5.0079Y-2.7047
X5.0241Y-3.4272
X5.0241Y-3.5099
X5.0261Y-3.5985
X5.0261Y-3.9646
X5.0301Y-3.3229
X5.0315Y-2.7047
X5.0315Y-3.815
X5.034Y-3.2245
X5.0458Y-3.0749
X5.0537Y-3.7757
X5.0537Y-3.9371
X5.0551Y-2.7047
X5.0615Y-4.2008
X5.0669Y-3.3976
X5.0694Y-3.2481
X5.0734Y-4.4686
X5.0768Y-3.9646
X5.0787Y-2.7047
X5.0812Y-3.7757
X5.093Y-4.3505
X5.097Y-3.2481
X5.1024Y-2.7047
X5.1049Y-3.3229
X5.1063Y-3.3976
X5.1102Y-3.0079
X5.1102Y-3.0354
X5.1102Y-3.063
X5.1167Y-3.2363
X5.1181Y-3.5157
X5.1181Y-4.3583
X5.1245Y-4.4449
X5.126Y-2.7047
X5.1299Y-3.5984
X5.1324Y-3.2205
X5.1417Y-4.3681
X5.1442Y-3.3229
X5.1442Y-3.7796
X5.1457Y-3.3583
X5.1457Y-3.3976
X5.1496Y-2.7047
X5.156Y-3.1064
X5.156Y-4.2363
X5.1575Y-3.5984
X5.16Y-4.4449
X5.1639Y-3.756
X5.1654Y-4.3583
X5.169Y-2.9697
X5.1693Y-3.0079
X5.1693Y-3.0354
X5.1732Y-2.7047
X5.1772Y-3.4764
X5.1772Y-3.5157
X5.1836Y-3.2442
X5.1836Y-3.7717
X5.1915Y-3.2205
X5.1915Y-3.3229
X5.1954Y-4.4174
X5.1969Y-2.7047
X5.1993Y-3.7993
X5.2165Y-3.1063
X5.2205Y-2.7047
X5.223Y-3.7796
X5.2269Y-3.2442
X5.2308Y-3.3229
X5.2308Y-4.4371
X5.2362Y-3.3701
X5.2362Y-3.3976
X5.2362Y-3.4764
X5.2427Y-3.7993
X5.2441Y-2.7047
X5.2545Y-3.1182
X5.2545Y-3.3229
X5.2663Y-3.8111
X5.2677Y-2.7047
X5.2756Y-3.5945
X5.2776Y-3.7598
X5.2781Y-3.3229
X5.2795Y-2.7244
X5.2795Y-2.748
X5.2795Y-2.7717
X5.2795Y-3.3701
X5.2795Y-3.3976
X5.2795Y-3.4764
X5.2795Y-3.8799
X5.2938Y-2.8381
X5.2953Y-4.3504
X5.2992Y-4.4252
X5.3031Y-3.8799
X5.311Y-3.2323
X5.315Y-3.1575
X5.3253Y-3.3229
X5.3268Y-3.8622
X5.3307Y-4.0728
X5.3332Y-2.8426
X5.3465Y-3.8799
X5.3465Y-4.4724
X5.3681Y-4.0
X5.3701Y-3.0276
X5.3765Y-3.126
X5.378Y-4.4724
X5.3804Y-3.7796
X5.3804Y-3.8071
X5.3864Y-3.8701
X5.3923Y-2.8426
X5.4041Y-3.1339
X5.4055Y-4.4724
X5.4094Y-3.0276
X5.4094Y-3.6614
X5.4094Y-3.689
X5.4094Y-3.7795
X5.4238Y-3.1182
X5.4331Y-2.8268
X5.4331Y-4.4724
X5.4395Y-3.752
X5.4488Y-3.0276
X5.4508Y-3.4705
X5.4553Y-3.126
X5.4592Y-3.2953
X5.4606Y-3.4055
X5.4646Y-4.4724
X5.4724Y-3.7677
X5.4783Y-3.878
X5.4828Y-3.6103
X5.4921Y-4.4724
X5.4961Y-2.7835
X5.5025Y-3.7127
X5.5025Y-3.7363
X5.5079Y-3.7677
X5.5104Y-3.1142
X5.5118Y-3.2323
X5.5177Y-3.878
X5.5195Y-3.5906
X5.5197Y-2.7126
X5.5197Y-2.7362
X5.5197Y-2.7598
X5.5197Y-2.7835
X5.5197Y-3.1693
X5.5236Y-4.4724
X5.5394Y-2.7008
X5.5394Y-3.7677
X5.5433Y-3.2323
X5.5497Y-2.9607
X5.5512Y-4.4724
X5.5551Y-3.4724
X5.5551Y-3.5157
X5.5591Y-3.1654
X5.563Y-2.7008
X5.5669Y-2.8425
X5.5709Y-3.7677
X5.5709Y-4.1831
X5.5812Y-3.4764
X5.5812Y-3.5355
X5.5827Y-3.0984
X5.5827Y-3.1299
X5.5827Y-4.4724
X5.5866Y-2.7008
X5.5984Y-3.878
X5.6063Y-4.0315
X5.6063Y-4.1339
X5.6088Y-3.4213
X5.6088Y-3.4528
X5.6102Y-2.5591
X5.6102Y-2.5827
X5.6102Y-2.6063
X5.6102Y-2.6299
X5.6102Y-2.6535
X5.6102Y-2.6772
X5.6102Y-2.7008
X5.6102Y-4.4724
X5.6324Y-3.4016
X5.6358Y-2.9587
X5.6417Y-4.4724
X5.6437Y-3.878
X5.6496Y-4.0315
X5.6496Y-4.1339
X5.6732Y-4.4724
X5.685Y-3.878
X5.685Y-4.0315
X5.685Y-4.1339
X5.6885Y-3.6014
X5.6969Y-3.689
X5.7087Y-4.4724
X5.7165Y-2.9843
X5.7165Y-4.0315
X5.7165Y-4.1339
X5.7245Y-2.6205
X5.7269Y-3.7757
X5.7269Y-3.7993
X5.7441Y-2.9213
X5.7441Y-2.9528
X5.7441Y-2.9843
X5.7441Y-4.4724
X5.752Y-3.689
X5.7559Y-3.878
X5.7559Y-3.9252
X5.7559Y-4.0315
X5.7559Y-4.1339
X5.7623Y-3.0197
X5.7717Y-4.4724
X5.7756Y-2.9213
X5.782Y-2.8741
X5.7938Y-4.3623
X5.7953Y-4.4724
X5.8189Y-4.4724
X5.8425Y-4.4724
X5.8465Y-4.0315
X5.8465Y-4.1339
X5.8583Y-3.9724
X5.8661Y-2.7205
X5.8701Y-4.4724
X5.8976Y-4.4724
X5.9094Y-3.7598
X5.9094Y-3.8031
X5.9094Y-4.3504
X5.9173Y-4.0315
X5.9252Y-4.4724
X5.9291Y-3.5118
X5.9291Y-3.5433
X5.9291Y-3.5748
X5.9291Y-3.6063
X5.9291Y-3.6378
X5.9291Y-3.6772
X5.9528Y-4.4724
X5.9764Y-4.4724
X5.9907Y-2.8229
X5.9907Y-3.3426
X6.0039Y-3.374
X6.0039Y-3.4094
X6.0039Y-3.4409
X6.0039Y-4.4724
X6.0064Y-3.7914
X6.0197Y-2.5827
X6.0197Y-2.6102
X6.0197Y-2.6378
X6.0197Y-2.6654
X6.0222Y-3.815
X6.0236Y-3.3031
X6.0591Y-4.4803
X6.0748Y-2.7756
X6.0827Y-4.3543
X6.0827Y-4.3898
X6.0827Y-4.4213
X6.0827Y-4.4488
X6.0945Y-3.9488
X6.0945Y-3.9764
X6.0945Y-4.0079
X6.0945Y-4.0433
X6.0945Y-4.0787
X6.0945Y-4.1102
X6.0945Y-4.1417
X6.0945Y-4.1732
X6.0984Y-2.7953
X6.1063Y-2.8898
X6.1063Y-3.1299
X6.1063Y-4.3228
X6.1167Y-3.4883
X6.1167Y-3.5158
X6.1167Y-3.5473
X6.1167Y-3.5749
X6.126Y-2.8071
X6.126Y-4.4803
X6.1299Y-2.9488
X6.1299Y-3.0945
X6.1339Y-3.5984
X6.1417Y-4.315
X6.1535Y-2.811
X6.1535Y-4.4803
X6.16Y-3.0197
X6.1718Y-3.5079
X6.1718Y-3.5316
X6.1718Y-3.5552
X6.1732Y-4.315
X6.185Y-2.811
X6.185Y-4.4803
X6.2126Y-2.811
X6.2126Y-4.315
X6.2165Y-4.4803
X6.2441Y-2.811
X6.2441Y-2.8661
X6.248Y-3.1929
X6.248Y-3.2205
X6.248Y-3.248
X6.248Y-3.2756
X6.248Y-3.3031
X6.248Y-3.4213
X6.248Y-3.4488
X6.248Y-3.4764
X6.248Y-3.5079
X6.248Y-3.5394
X6.248Y-3.5709
X6.248Y-3.5984
X6.248Y-3.626
X6.248Y-3.6575
X6.248Y-3.7677
X6.248Y-3.7992
X6.248Y-3.8307
X6.248Y-3.8622
X6.248Y-3.8937
X6.248Y-3.9252
X6.248Y-3.9528
X6.248Y-3.9803
X6.248Y-4.0079
X6.248Y-4.0394
X6.248Y-4.0669
X6.248Y-4.0984
X6.248Y-4.1299
X6.248Y-4.1614
X6.248Y-4.1969
X6.248Y-4.2283
X6.248Y-4.2559
X6.248Y-4.2874
X6.248Y-4.315
T4
X6.0541Y-3.2442
X6.093Y-3.818
X6.1041Y-3.2442
X6.143Y-3.818
X6.1541Y-3.2442
X6.2041Y-3.2442
T5
X6.0419Y-3.9686
X6.0419Y-4.0473
X6.0419Y-4.126
X6.0419Y-4.2048
T6
X4.8214Y-2.752
X4.9001Y-2.752
T7
X4.5005Y-2.8308
X4.5005Y-2.9308
X4.5005Y-3.0308
X4.5005Y-3.1308
X4.5005Y-3.2308
X4.5005Y-3.3308
X4.5005Y-3.4308
X4.5005Y-3.5308
X4.5005Y-3.6308
X4.5005Y-3.7308
X4.5005Y-3.8308
X4.5005Y-3.9308
X4.5005Y-4.0308
X4.5005Y-4.1308
X4.5005Y-4.2308
X4.6005Y-2.8308
X4.6005Y-2.9308
X4.6005Y-3.0308
X4.6005Y-3.1308
X4.6005Y-3.2308
X4.6005Y-3.3308
X4.6005Y-3.4308
X4.6005Y-3.5308
X4.6005Y-3.6308
X4.6005Y-3.7308
X4.6005Y-3.8308
X4.6005Y-3.9308
X4.6005Y-4.0308
X4.6005Y-4.1308
X4.6005Y-4.2308
T3
G00X6.0633Y-3.3615
M15
G01X6.1066Y-3.3615
M16
G05
G00X6.0633Y-3.7016
M15
G01X6.1066Y-3.7016
M16
G05
G00X6.2377Y-3.3615
M15
G01X6.2614Y-3.3615
M16
G05
G00X6.2377Y-3.7016
M15
G01X6.2614Y-3.7016
M16
G05
T0
M30
