%TF.GenerationSoftware,KiCad,Pcbnew,5.99.0-unknown-b10f156dd0~130~ubuntu20.04.1*%
%TF.CreationDate,2021-06-23T21:39:51+08:00*%
%TF.ProjectId,M5Pi,4d355069-2e6b-4696-9361-645f70636258,3.0*%
%TF.SameCoordinates,Original*%
%TF.FileFunction,Soldermask,Top*%
%TF.FilePolarity,Negative*%
%FSLAX46Y46*%
G04 Gerber Fmt 4.6, Leading zero omitted, Abs format (unit mm)*
G04 Created by KiCad (PCBNEW 5.99.0-unknown-b10f156dd0~130~ubuntu20.04.1) date 2021-06-23 21:39:51*
%MOMM*%
%LPD*%
G01*
G04 APERTURE LIST*
G04 Aperture macros list*
%AMRoundRect*
0 Rectangle with rounded corners*
0 $1 Rounding radius*
0 $2 $3 $4 $5 $6 $7 $8 $9 X,Y pos of 4 corners*
0 Add a 4 corners polygon primitive as box body*
4,1,4,$2,$3,$4,$5,$6,$7,$8,$9,$2,$3,0*
0 Add four circle primitives for the rounded corners*
1,1,$1+$1,$2,$3*
1,1,$1+$1,$4,$5*
1,1,$1+$1,$6,$7*
1,1,$1+$1,$8,$9*
0 Add four rect primitives between the rounded corners*
20,1,$1+$1,$2,$3,$4,$5,0*
20,1,$1+$1,$4,$5,$6,$7,0*
20,1,$1+$1,$6,$7,$8,$9,0*
20,1,$1+$1,$8,$9,$2,$3,0*%
%AMFreePoly0*
4,1,19,0.350000,-0.450000,0.000000,-0.450000,0.000000,-0.446692,-0.086710,-0.437196,-0.184286,-0.386725,-0.257150,-0.304511,-0.295533,-0.201579,-0.295232,-0.175000,-0.300000,-0.175000,-0.300000,0.175000,-0.294664,0.175000,-0.294287,0.208270,-0.253579,0.310306,-0.178867,0.390845,-0.080172,0.439089,0.000000,0.446033,0.000000,0.450000,0.350000,0.450000,0.350000,-0.450000,0.350000,-0.450000,
$1*%
G04 Aperture macros list end*
%ADD10C,0.150000*%
%ADD11C,0.200000*%
%ADD12RoundRect,0.155000X0.212500X0.155000X-0.212500X0.155000X-0.212500X-0.155000X0.212500X-0.155000X0*%
%ADD13RoundRect,0.155000X-0.155000X0.212500X-0.155000X-0.212500X0.155000X-0.212500X0.155000X0.212500X0*%
%ADD14RoundRect,0.160000X-0.197500X-0.160000X0.197500X-0.160000X0.197500X0.160000X-0.197500X0.160000X0*%
%ADD15RoundRect,0.160000X-0.160000X0.197500X-0.160000X-0.197500X0.160000X-0.197500X0.160000X0.197500X0*%
%ADD16RoundRect,0.160000X0.160000X-0.197500X0.160000X0.197500X-0.160000X0.197500X-0.160000X-0.197500X0*%
%ADD17RoundRect,0.155000X-0.212500X-0.155000X0.212500X-0.155000X0.212500X0.155000X-0.212500X0.155000X0*%
%ADD18RoundRect,0.250000X0.850000X-0.375000X0.850000X0.375000X-0.850000X0.375000X-0.850000X-0.375000X0*%
%ADD19R,1.600000X1.400000*%
%ADD20R,1.200000X2.200000*%
%ADD21R,1.200000X1.400000*%
%ADD22R,0.700000X1.600000*%
%ADD23C,1.000000*%
%ADD24R,1.000000X1.000000*%
%ADD25O,1.000000X1.000000*%
%ADD26FreePoly0,180.000000*%
%ADD27R,0.600000X0.900000*%
%ADD28FreePoly0,0.000000*%
%ADD29RoundRect,0.135000X-0.135000X-0.185000X0.135000X-0.185000X0.135000X0.185000X-0.135000X0.185000X0*%
%ADD30R,1.400000X0.300000*%
%ADD31RoundRect,0.155000X0.155000X-0.212500X0.155000X0.212500X-0.155000X0.212500X-0.155000X-0.212500X0*%
%ADD32RoundRect,0.225000X-0.225000X-0.250000X0.225000X-0.250000X0.225000X0.250000X-0.225000X0.250000X0*%
%ADD33RoundRect,0.150000X0.150000X-0.512500X0.150000X0.512500X-0.150000X0.512500X-0.150000X-0.512500X0*%
%ADD34RoundRect,0.150000X-0.150000X0.512500X-0.150000X-0.512500X0.150000X-0.512500X0.150000X0.512500X0*%
%ADD35RoundRect,0.160000X0.197500X0.160000X-0.197500X0.160000X-0.197500X-0.160000X0.197500X-0.160000X0*%
%ADD36RoundRect,0.160000X0.222500X0.160000X-0.222500X0.160000X-0.222500X-0.160000X0.222500X-0.160000X0*%
%ADD37RoundRect,0.225000X0.250000X-0.225000X0.250000X0.225000X-0.250000X0.225000X-0.250000X-0.225000X0*%
%ADD38RoundRect,0.135000X0.185000X-0.135000X0.185000X0.135000X-0.185000X0.135000X-0.185000X-0.135000X0*%
%ADD39R,1.700000X1.700000*%
%ADD40O,1.700000X1.700000*%
%ADD41R,1.100000X3.700000*%
%ADD42RoundRect,0.150000X0.350000X0.150000X-0.350000X0.150000X-0.350000X-0.150000X0.350000X-0.150000X0*%
%ADD43RoundRect,0.600000X-0.600000X1.050000X-0.600000X-1.050000X0.600000X-1.050000X0.600000X1.050000X0*%
%ADD44RoundRect,0.225000X-0.250000X0.225000X-0.250000X-0.225000X0.250000X-0.225000X0.250000X0.225000X0*%
%ADD45R,0.875000X1.100000*%
%ADD46RoundRect,0.075000X-0.350000X-0.075000X0.350000X-0.075000X0.350000X0.075000X-0.350000X0.075000X0*%
%ADD47RoundRect,0.075000X0.075000X-0.350000X0.075000X0.350000X-0.075000X0.350000X-0.075000X-0.350000X0*%
%ADD48RoundRect,0.225000X0.225000X0.250000X-0.225000X0.250000X-0.225000X-0.250000X0.225000X-0.250000X0*%
%ADD49RoundRect,0.150000X0.512500X0.150000X-0.512500X0.150000X-0.512500X-0.150000X0.512500X-0.150000X0*%
%ADD50RoundRect,0.237500X-0.287500X-0.237500X0.287500X-0.237500X0.287500X0.237500X-0.287500X0.237500X0*%
%ADD51C,0.650000*%
%ADD52R,1.150000X0.300000*%
%ADD53O,1.600000X1.000000*%
%ADD54O,2.100000X1.000000*%
%ADD55R,1.400000X1.200000*%
%ADD56RoundRect,0.150000X-0.587500X-0.150000X0.587500X-0.150000X0.587500X0.150000X-0.587500X0.150000X0*%
%ADD57R,1.350000X1.350000*%
%ADD58O,1.350000X1.350000*%
%ADD59RoundRect,0.062500X-0.062500X0.375000X-0.062500X-0.375000X0.062500X-0.375000X0.062500X0.375000X0*%
%ADD60RoundRect,0.062500X-0.375000X0.062500X-0.375000X-0.062500X0.375000X-0.062500X0.375000X0.062500X0*%
%ADD61R,3.450000X3.450000*%
%ADD62RoundRect,0.250000X-0.425000X0.450000X-0.425000X-0.450000X0.425000X-0.450000X0.425000X0.450000X0*%
%ADD63RoundRect,0.135000X0.135000X0.185000X-0.135000X0.185000X-0.135000X-0.185000X0.135000X-0.185000X0*%
%ADD64RoundRect,0.147500X0.147500X0.172500X-0.147500X0.172500X-0.147500X-0.172500X0.147500X-0.172500X0*%
%ADD65O,0.200000X0.800000*%
%ADD66O,0.800000X0.200000*%
%ADD67R,6.840000X6.840000*%
%ADD68RoundRect,0.135000X-0.185000X0.135000X-0.185000X-0.135000X0.185000X-0.135000X0.185000X0.135000X0*%
%ADD69R,1.520000X1.680000*%
%ADD70RoundRect,0.150000X-0.150000X0.675000X-0.150000X-0.675000X0.150000X-0.675000X0.150000X0.675000X0*%
%ADD71RoundRect,0.101600X-0.749300X0.899160X-0.749300X-0.899160X0.749300X-0.899160X0.749300X0.899160X0*%
%ADD72RoundRect,0.250000X0.375000X0.850000X-0.375000X0.850000X-0.375000X-0.850000X0.375000X-0.850000X0*%
%ADD73RoundRect,0.147500X0.172500X-0.147500X0.172500X0.147500X-0.172500X0.147500X-0.172500X-0.147500X0*%
%ADD74R,1.100000X0.875000*%
%ADD75RoundRect,0.250000X-0.850000X0.375000X-0.850000X-0.375000X0.850000X-0.375000X0.850000X0.375000X0*%
G04 APERTURE END LIST*
D10*
X126588353Y-69651564D02*
X133838353Y-69651564D01*
X133838353Y-69651564D02*
X133838353Y-72651564D01*
X133838353Y-72651564D02*
X126588353Y-72651564D01*
X126588353Y-72651564D02*
X126588353Y-69651564D01*
G36*
X126588353Y-69651564D02*
G01*
X133838353Y-69651564D01*
X133838353Y-72651564D01*
X126588353Y-72651564D01*
X126588353Y-69651564D01*
G37*
D11*
X118063353Y-67501564D02*
X121163353Y-67501564D01*
X121163353Y-67501564D02*
X121163353Y-70001564D01*
X121163353Y-70001564D02*
X118063353Y-70001564D01*
X118063353Y-70001564D02*
X118063353Y-67501564D01*
G36*
X118063353Y-67501564D02*
G01*
X121163353Y-67501564D01*
X121163353Y-70001564D01*
X118063353Y-70001564D01*
X118063353Y-67501564D01*
G37*
D12*
%TO.C,C5*%
X143800853Y-72401564D03*
X142665853Y-72401564D03*
%TD*%
D13*
%TO.C,C26*%
X126813353Y-97384064D03*
X126813353Y-98519064D03*
%TD*%
D12*
%TO.C,C21*%
X123123353Y-87621564D03*
X121988353Y-87621564D03*
%TD*%
D13*
%TO.C,C53*%
X126263353Y-101934064D03*
X126263353Y-103069064D03*
%TD*%
D14*
%TO.C,R19*%
X133065853Y-113601564D03*
X134260853Y-113601564D03*
%TD*%
D15*
%TO.C,R11*%
X142178353Y-96646564D03*
X142178353Y-97841564D03*
%TD*%
D13*
%TO.C,C14*%
X134013353Y-80134064D03*
X134013353Y-81269064D03*
%TD*%
D16*
%TO.C,R13*%
X140128353Y-97841564D03*
X140128353Y-96646564D03*
%TD*%
D13*
%TO.C,C47*%
X127123353Y-73616564D03*
X127123353Y-74751564D03*
%TD*%
D17*
%TO.C,C44*%
X121988353Y-86601564D03*
X123123353Y-86601564D03*
%TD*%
D18*
%TO.C,L1*%
X150813353Y-70096564D03*
X150813353Y-67946564D03*
%TD*%
D12*
%TO.C,C40*%
X140680853Y-84651564D03*
X139545853Y-84651564D03*
%TD*%
D16*
%TO.C,R6*%
X122513353Y-92219064D03*
X122513353Y-91024064D03*
%TD*%
D19*
%TO.C,J1*%
X149413353Y-100271564D03*
D20*
X150313353Y-109871564D03*
X134813353Y-109871564D03*
D21*
X134813353Y-100271564D03*
D22*
X144813353Y-99771564D03*
X143713353Y-99771564D03*
X142613353Y-99771564D03*
X141513353Y-99771564D03*
X140413353Y-99771564D03*
X139313353Y-99771564D03*
X138213353Y-99771564D03*
X137113353Y-99771564D03*
X136013353Y-99771564D03*
%TD*%
D23*
%TO.C,J11*%
X153463353Y-106801564D03*
X153463353Y-104801564D03*
X153463353Y-102801564D03*
X153463353Y-100801564D03*
%TD*%
D24*
%TO.C,J12*%
X153773353Y-82401564D03*
D25*
X155043353Y-82401564D03*
X156313353Y-82401564D03*
X157583353Y-82401564D03*
%TD*%
D26*
%TO.C,JP1*%
X131963353Y-113851564D03*
D27*
X131063353Y-113851564D03*
D28*
X130163353Y-113851564D03*
%TD*%
D29*
%TO.C,R25*%
X145195853Y-86551564D03*
X146215853Y-86551564D03*
%TD*%
D16*
%TO.C,R34*%
X128163353Y-77096564D03*
X128163353Y-75901564D03*
%TD*%
D30*
%TO.C,U1*%
X151373353Y-96891564D03*
X151373353Y-96391564D03*
X151373353Y-95891564D03*
X151373353Y-95391564D03*
X151373353Y-94891564D03*
X146973353Y-94891564D03*
X146973353Y-95391564D03*
X146973353Y-95891564D03*
X146973353Y-96391564D03*
X146973353Y-96891564D03*
%TD*%
D31*
%TO.C,C20*%
X128538353Y-81269064D03*
X128538353Y-80134064D03*
%TD*%
D12*
%TO.C,C12*%
X141330853Y-93301564D03*
X140195853Y-93301564D03*
%TD*%
D32*
%TO.C,C33*%
X149963353Y-66246564D03*
X151513353Y-66246564D03*
%TD*%
D33*
%TO.C,U6*%
X146733353Y-70239064D03*
X147683353Y-70239064D03*
X148633353Y-70239064D03*
X148633353Y-67964064D03*
X146733353Y-67964064D03*
%TD*%
D14*
%TO.C,R10*%
X121958353Y-89691564D03*
X123153353Y-89691564D03*
%TD*%
D31*
%TO.C,C7*%
X132533353Y-77136564D03*
X132533353Y-76001564D03*
%TD*%
D34*
%TO.C,U7*%
X152363353Y-74376564D03*
X151413353Y-74376564D03*
X150463353Y-74376564D03*
X150463353Y-76651564D03*
X152363353Y-76651564D03*
%TD*%
D17*
%TO.C,C50*%
X156795853Y-72201564D03*
X157930853Y-72201564D03*
%TD*%
%TO.C,C22*%
X140195853Y-92201564D03*
X141330853Y-92201564D03*
%TD*%
D15*
%TO.C,Ri1*%
X119813353Y-73586564D03*
X119813353Y-74781564D03*
%TD*%
D35*
%TO.C,R30*%
X140710853Y-83601564D03*
X139515853Y-83601564D03*
%TD*%
D31*
%TO.C,Ci1*%
X119813353Y-77066564D03*
X119813353Y-75931564D03*
%TD*%
D16*
%TO.C,R16*%
X138113353Y-97841564D03*
X138113353Y-96646564D03*
%TD*%
D15*
%TO.C,R15*%
X144253353Y-96646564D03*
X144253353Y-97841564D03*
%TD*%
D36*
%TO.C,TBD1*%
X138758353Y-71151564D03*
X137613353Y-71151564D03*
%TD*%
D37*
%TO.C,C42*%
X148350853Y-90476564D03*
X148350853Y-88926564D03*
%TD*%
D15*
%TO.C,R8*%
X122033353Y-99936564D03*
X122033353Y-101131564D03*
%TD*%
%TO.C,R4*%
X151613353Y-87956564D03*
X151613353Y-89151564D03*
%TD*%
D16*
%TO.C,R7*%
X121463353Y-92249064D03*
X121463353Y-91054064D03*
%TD*%
D24*
%TO.C,J3*%
X154763353Y-96976564D03*
D25*
X156033353Y-96976564D03*
%TD*%
D15*
%TO.C,R35*%
X128153353Y-73586564D03*
X128153353Y-74781564D03*
%TD*%
D38*
%TO.C,R24*%
X153693353Y-75159064D03*
X153693353Y-74139064D03*
%TD*%
D12*
%TO.C,C1*%
X144280853Y-95601564D03*
X143145853Y-95601564D03*
%TD*%
D14*
%TO.C,R9*%
X121958353Y-88651564D03*
X123153353Y-88651564D03*
%TD*%
D35*
%TO.C,R36*%
X155660853Y-72201564D03*
X154465853Y-72201564D03*
%TD*%
D13*
%TO.C,C3*%
X138813353Y-68984064D03*
X138813353Y-70119064D03*
%TD*%
D15*
%TO.C,R3*%
X151613353Y-90254064D03*
X151613353Y-91449064D03*
%TD*%
D39*
%TO.C,J2*%
X114313353Y-71901564D03*
D40*
X116853353Y-71901564D03*
X114313353Y-74441564D03*
X116853353Y-74441564D03*
X114313353Y-76981564D03*
X116853353Y-76981564D03*
X114313353Y-79521564D03*
X116853353Y-79521564D03*
X114313353Y-82061564D03*
X116853353Y-82061564D03*
X114313353Y-84601564D03*
X116853353Y-84601564D03*
X114313353Y-87141564D03*
X116853353Y-87141564D03*
X114313353Y-89681564D03*
X116853353Y-89681564D03*
X114313353Y-92221564D03*
X116853353Y-92221564D03*
X114313353Y-94761564D03*
X116853353Y-94761564D03*
X114313353Y-97301564D03*
X116853353Y-97301564D03*
X114313353Y-99841564D03*
X116853353Y-99841564D03*
X114313353Y-102381564D03*
X116853353Y-102381564D03*
X114313353Y-104921564D03*
X116853353Y-104921564D03*
X114313353Y-107461564D03*
X116853353Y-107461564D03*
%TD*%
D41*
%TO.C,L4*%
X132463353Y-106701564D03*
X129463353Y-106701564D03*
%TD*%
D42*
%TO.C,U10*%
X124763353Y-108606564D03*
X124763353Y-107336564D03*
X124763353Y-106066564D03*
X124763353Y-104796564D03*
X119763353Y-104796564D03*
X119763353Y-106066564D03*
X119763353Y-107336564D03*
X119763353Y-108606564D03*
D43*
X122263353Y-106601564D03*
%TD*%
D14*
%TO.C,R5*%
X142635853Y-71361564D03*
X143830853Y-71361564D03*
%TD*%
D35*
%TO.C,R18*%
X128508353Y-112061564D03*
X127313353Y-112061564D03*
%TD*%
D44*
%TO.C,C37*%
X143985853Y-83526564D03*
X143985853Y-85076564D03*
%TD*%
D45*
%TO.C,SW2*%
X158076353Y-73941564D03*
X158076353Y-79441564D03*
X156451353Y-73941564D03*
X156451353Y-79441564D03*
%TD*%
D46*
%TO.C,U4*%
X120583353Y-94891564D03*
X120583353Y-95391564D03*
X120583353Y-95891564D03*
X120583353Y-96391564D03*
X120583353Y-96891564D03*
X120583353Y-97391564D03*
D47*
X121283353Y-98091564D03*
X121783353Y-98091564D03*
X122283353Y-98091564D03*
X122783353Y-98091564D03*
X123283353Y-98091564D03*
X123783353Y-98091564D03*
D46*
X124483353Y-97391564D03*
X124483353Y-96891564D03*
X124483353Y-96391564D03*
X124483353Y-95891564D03*
X124483353Y-95391564D03*
X124483353Y-94891564D03*
D47*
X123783353Y-94191564D03*
X123283353Y-94191564D03*
X122783353Y-94191564D03*
X122283353Y-94191564D03*
X121783353Y-94191564D03*
X121283353Y-94191564D03*
%TD*%
D17*
%TO.C,C8*%
X142665853Y-70321564D03*
X143800853Y-70321564D03*
%TD*%
D48*
%TO.C,C38*%
X149163353Y-78359064D03*
X147613353Y-78359064D03*
%TD*%
D17*
%TO.C,C49*%
X121675853Y-80541564D03*
X122810853Y-80541564D03*
%TD*%
D49*
%TO.C,U8*%
X147963353Y-85251564D03*
X147963353Y-84301564D03*
X147963353Y-83351564D03*
X145688353Y-83351564D03*
X145688353Y-85251564D03*
%TD*%
D14*
%TO.C,R17*%
X127313353Y-109991564D03*
X128508353Y-109991564D03*
%TD*%
D50*
%TO.C,D1*%
X127088353Y-113601564D03*
X128838353Y-113601564D03*
%TD*%
D32*
%TO.C,C36*%
X150638353Y-78359064D03*
X152188353Y-78359064D03*
%TD*%
D31*
%TO.C,C11*%
X133388353Y-98519064D03*
X133388353Y-97384064D03*
%TD*%
D48*
%TO.C,C32*%
X148458353Y-66251564D03*
X146908353Y-66251564D03*
%TD*%
D15*
%TO.C,R12*%
X143203353Y-96646564D03*
X143203353Y-97841564D03*
%TD*%
D31*
%TO.C,C18*%
X123558353Y-92189064D03*
X123558353Y-91054064D03*
%TD*%
D17*
%TO.C,C28*%
X127343353Y-111031564D03*
X128478353Y-111031564D03*
%TD*%
D51*
%TO.C,UART1*%
X155058353Y-92591564D03*
X155058353Y-86811564D03*
D52*
X153993353Y-93051564D03*
X153993353Y-92251564D03*
X153993353Y-90951564D03*
X153993353Y-89951564D03*
X153993353Y-89451564D03*
X153993353Y-88451564D03*
X153993353Y-87151564D03*
X153993353Y-86351564D03*
X153993353Y-86651564D03*
X153993353Y-87451564D03*
X153993353Y-87951564D03*
X153993353Y-88951564D03*
X153993353Y-90451564D03*
X153993353Y-91451564D03*
X153993353Y-91951564D03*
X153993353Y-92751564D03*
D53*
X158738353Y-94021564D03*
X158738353Y-85381564D03*
D54*
X154558353Y-94021564D03*
X154558353Y-85381564D03*
%TD*%
D12*
%TO.C,C13*%
X140700853Y-90121564D03*
X139565853Y-90121564D03*
%TD*%
D55*
%TO.C,Y2*%
X128463353Y-98801564D03*
X130663353Y-98801564D03*
X130663353Y-97101564D03*
X128463353Y-97101564D03*
%TD*%
D12*
%TO.C,C41*%
X140680853Y-86751564D03*
X139545853Y-86751564D03*
%TD*%
D37*
%TO.C,C39*%
X143970853Y-82041564D03*
X143970853Y-80491564D03*
%TD*%
D56*
%TO.C,U9*%
X144325853Y-88751564D03*
X144325853Y-90651564D03*
X146200853Y-89701564D03*
%TD*%
D57*
%TO.C,J6*%
X122463353Y-69901564D03*
D58*
X124463353Y-69901564D03*
%TD*%
D35*
%TO.C,R29*%
X139288353Y-80181564D03*
X138093353Y-80181564D03*
%TD*%
D12*
%TO.C,C51*%
X120898353Y-103401564D03*
X119763353Y-103401564D03*
%TD*%
D13*
%TO.C,C17*%
X124083353Y-99966564D03*
X124083353Y-101101564D03*
%TD*%
D35*
%TO.C,R31*%
X140710853Y-85701564D03*
X139515853Y-85701564D03*
%TD*%
D59*
%TO.C,U2*%
X139263353Y-73264064D03*
X138763353Y-73264064D03*
X138263353Y-73264064D03*
X137763353Y-73264064D03*
X137263353Y-73264064D03*
X136763353Y-73264064D03*
X136263353Y-73264064D03*
X135763353Y-73264064D03*
D60*
X135075853Y-73951564D03*
X135075853Y-74451564D03*
X135075853Y-74951564D03*
X135075853Y-75451564D03*
X135075853Y-75951564D03*
X135075853Y-76451564D03*
X135075853Y-76951564D03*
X135075853Y-77451564D03*
D59*
X135763353Y-78139064D03*
X136263353Y-78139064D03*
X136763353Y-78139064D03*
X137263353Y-78139064D03*
X137763353Y-78139064D03*
X138263353Y-78139064D03*
X138763353Y-78139064D03*
X139263353Y-78139064D03*
D60*
X139950853Y-77451564D03*
X139950853Y-76951564D03*
X139950853Y-76451564D03*
X139950853Y-75951564D03*
X139950853Y-75451564D03*
X139950853Y-74951564D03*
X139950853Y-74451564D03*
X139950853Y-73951564D03*
D61*
X137513353Y-75701564D03*
%TD*%
D62*
%TO.C,C56*%
X127113353Y-105551564D03*
X127113353Y-108251564D03*
%TD*%
D17*
%TO.C,C48*%
X123983353Y-80541564D03*
X125118353Y-80541564D03*
%TD*%
D63*
%TO.C,R2*%
X123373353Y-103401564D03*
X122353353Y-103401564D03*
%TD*%
D64*
%TO.C,D2*%
X123348353Y-102401564D03*
X122378353Y-102401564D03*
%TD*%
D65*
%TO.C,U3*%
X135793353Y-83451564D03*
X135393353Y-83451564D03*
X134993353Y-83451564D03*
X134593353Y-83451564D03*
X134193353Y-83451564D03*
X133793353Y-83451564D03*
X133393353Y-83451564D03*
X132993353Y-83451564D03*
X132593353Y-83451564D03*
X132193353Y-83451564D03*
X131793353Y-83451564D03*
X131393353Y-83451564D03*
X130993353Y-83451564D03*
X130593353Y-83451564D03*
X130193353Y-83451564D03*
X129793353Y-83451564D03*
X129393353Y-83451564D03*
X128993353Y-83451564D03*
X128593353Y-83451564D03*
X128193353Y-83451564D03*
X127793353Y-83451564D03*
X127393353Y-83451564D03*
D66*
X126693353Y-84151564D03*
X126693353Y-84551564D03*
X126693353Y-84951564D03*
X126693353Y-85351564D03*
X126693353Y-85751564D03*
X126693353Y-86151564D03*
X126693353Y-86551564D03*
X126693353Y-86951564D03*
X126693353Y-87351564D03*
X126693353Y-87751564D03*
X126693353Y-88151564D03*
X126693353Y-88551564D03*
X126693353Y-88951564D03*
X126693353Y-89351564D03*
X126693353Y-89751564D03*
X126693353Y-90151564D03*
X126693353Y-90551564D03*
X126693353Y-90951564D03*
X126693353Y-91351564D03*
X126693353Y-91751564D03*
X126693353Y-92151564D03*
X126693353Y-92551564D03*
D65*
X127393353Y-93251564D03*
X127793353Y-93251564D03*
X128193353Y-93251564D03*
X128593353Y-93251564D03*
X128993353Y-93251564D03*
X129393353Y-93251564D03*
X129793353Y-93251564D03*
X130193353Y-93251564D03*
X130593353Y-93251564D03*
X130993353Y-93251564D03*
X131393353Y-93251564D03*
X131793353Y-93251564D03*
X132193353Y-93251564D03*
X132593353Y-93251564D03*
X132993353Y-93251564D03*
X133393353Y-93251564D03*
X133793353Y-93251564D03*
X134193353Y-93251564D03*
X134593353Y-93251564D03*
X134993353Y-93251564D03*
X135393353Y-93251564D03*
X135793353Y-93251564D03*
D66*
X136493353Y-92551564D03*
X136493353Y-92151564D03*
X136493353Y-91751564D03*
X136493353Y-91351564D03*
X136493353Y-90951564D03*
X136493353Y-90551564D03*
X136493353Y-90151564D03*
X136493353Y-89751564D03*
X136493353Y-89351564D03*
X136493353Y-88951564D03*
X136493353Y-88551564D03*
X136493353Y-88151564D03*
X136493353Y-87751564D03*
X136493353Y-87351564D03*
X136493353Y-86951564D03*
X136493353Y-86551564D03*
X136493353Y-86151564D03*
X136493353Y-85751564D03*
X136493353Y-85351564D03*
X136493353Y-84951564D03*
X136493353Y-84551564D03*
X136493353Y-84151564D03*
D67*
X131593353Y-88351564D03*
%TD*%
D31*
%TO.C,C6*%
X132533353Y-74859064D03*
X132533353Y-73724064D03*
%TD*%
D32*
%TO.C,C43*%
X144488353Y-92451564D03*
X146038353Y-92451564D03*
%TD*%
D38*
%TO.C,R23*%
X153693353Y-77119064D03*
X153693353Y-76099064D03*
%TD*%
D32*
%TO.C,C31*%
X146888353Y-72001564D03*
X148438353Y-72001564D03*
%TD*%
D13*
%TO.C,C16*%
X120993353Y-99966564D03*
X120993353Y-101101564D03*
%TD*%
D12*
%TO.C,C45*%
X123123353Y-85581564D03*
X121988353Y-85581564D03*
%TD*%
D16*
%TO.C,R14*%
X139129353Y-97841564D03*
X139129353Y-96646564D03*
%TD*%
D68*
%TO.C,R21*%
X145403353Y-67476564D03*
X145403353Y-68496564D03*
%TD*%
D69*
%TO.C,D4*%
X128613353Y-102501564D03*
X132513353Y-102501564D03*
%TD*%
D31*
%TO.C,C27*%
X141153353Y-97811564D03*
X141153353Y-96676564D03*
%TD*%
D29*
%TO.C,R1*%
X119853353Y-102401564D03*
X120873353Y-102401564D03*
%TD*%
D12*
%TO.C,C23*%
X123123353Y-83531564D03*
X121988353Y-83531564D03*
%TD*%
D17*
%TO.C,C4*%
X142670853Y-78001564D03*
X143805853Y-78001564D03*
%TD*%
D56*
%TO.C,Q1*%
X130425853Y-110051564D03*
X130425853Y-111951564D03*
X132300853Y-111001564D03*
%TD*%
D14*
%TO.C,R28*%
X135768353Y-80181564D03*
X136963353Y-80181564D03*
%TD*%
D35*
%TO.C,R27*%
X136508353Y-71151564D03*
X135313353Y-71151564D03*
%TD*%
D70*
%TO.C,U5*%
X125383353Y-72781564D03*
X124113353Y-72781564D03*
X122843353Y-72781564D03*
X121573353Y-72781564D03*
X121573353Y-78031564D03*
X122843353Y-78031564D03*
X124113353Y-78031564D03*
X125383353Y-78031564D03*
%TD*%
D29*
%TO.C,R26*%
X147195853Y-86561564D03*
X148215853Y-86561564D03*
%TD*%
D17*
%TO.C,C57*%
X137645853Y-67951564D03*
X138780853Y-67951564D03*
%TD*%
D13*
%TO.C,C10*%
X129663353Y-80134064D03*
X129663353Y-81269064D03*
%TD*%
%TO.C,C9*%
X133013353Y-80134064D03*
X133013353Y-81269064D03*
%TD*%
D71*
%TO.C,AE1*%
X138733813Y-66174367D03*
X129737133Y-66174367D03*
X134735473Y-66174367D03*
%TD*%
D72*
%TO.C,L3*%
X147820853Y-81141564D03*
X145670853Y-81141564D03*
%TD*%
D73*
%TO.C,D3*%
X125063353Y-103386564D03*
X125063353Y-102416564D03*
%TD*%
D31*
%TO.C,C46*%
X127123353Y-77066564D03*
X127123353Y-75931564D03*
%TD*%
D17*
%TO.C,C2*%
X148605853Y-93291564D03*
X149740853Y-93291564D03*
%TD*%
D68*
%TO.C,R22*%
X145403353Y-69436564D03*
X145403353Y-70456564D03*
%TD*%
D37*
%TO.C,C35*%
X149713353Y-85076564D03*
X149713353Y-83526564D03*
%TD*%
D13*
%TO.C,C19*%
X123063353Y-99966564D03*
X123063353Y-101101564D03*
%TD*%
%TO.C,C15*%
X140133353Y-87884064D03*
X140133353Y-89019064D03*
%TD*%
D74*
%TO.C,SW1*%
X125388353Y-112914564D03*
X119888353Y-112914564D03*
X119888353Y-111289564D03*
X125388353Y-111289564D03*
%TD*%
D48*
%TO.C,C34*%
X152188353Y-72614064D03*
X150638353Y-72614064D03*
%TD*%
D31*
%TO.C,C25*%
X132338353Y-98519064D03*
X132338353Y-97384064D03*
%TD*%
D12*
%TO.C,C24*%
X123123353Y-84561564D03*
X121988353Y-84561564D03*
%TD*%
D21*
%TO.C,Y1*%
X142363353Y-74101564D03*
X142363353Y-76301564D03*
X144063353Y-76301564D03*
X144063353Y-74101564D03*
%TD*%
D75*
%TO.C,L2*%
X148263353Y-74509064D03*
X148263353Y-76659064D03*
%TD*%
M02*
