%TF.GenerationSoftware,KiCad,Pcbnew,5.99.0-unknown-b10f156dd0~130~ubuntu20.04.1*%
%TF.CreationDate,2021-06-23T21:39:51+08:00*%
%TF.ProjectId,M5Pi,4d355069-2e6b-4696-9361-645f70636258,3.0*%
%TF.SameCoordinates,Original*%
%TF.FileFunction,Legend,Top*%
%TF.FilePolarity,Positive*%
%FSLAX46Y46*%
G04 Gerber Fmt 4.6, Leading zero omitted, Abs format (unit mm)*
G04 Created by KiCad (PCBNEW 5.99.0-unknown-b10f156dd0~130~ubuntu20.04.1) date 2021-06-23 21:39:51*
%MOMM*%
%LPD*%
G01*
G04 APERTURE LIST*
%ADD10C,0.150000*%
%ADD11C,0.120000*%
%ADD12C,0.100000*%
%ADD13C,0.203200*%
G04 APERTURE END LIST*
D10*
X147463353Y-87851564D02*
X143113353Y-87851564D01*
X146913353Y-91601564D02*
X149263353Y-91601564D01*
X150613353Y-86126564D02*
X150613353Y-82626564D01*
X146713353Y-73351564D02*
X146713353Y-79251564D01*
X121363353Y-68151564D02*
X126363353Y-68151564D01*
X125063353Y-101801564D02*
X118563353Y-101801564D01*
X145863353Y-72851564D02*
X149363353Y-72851564D01*
X149263353Y-91601564D02*
X149263353Y-91351564D01*
X126413353Y-81251564D02*
X120613353Y-81251564D01*
X120613353Y-77851564D02*
X119113353Y-77851564D01*
X153113353Y-77751564D02*
X154363353Y-77751564D01*
X146013353Y-65351564D02*
X146013353Y-66851564D01*
X152413353Y-65351564D02*
X146013353Y-65351564D01*
X119113353Y-72401564D02*
X120563353Y-72401564D01*
X133463353Y-100601564D02*
X125263353Y-100601564D01*
X144763353Y-71051564D02*
X145863353Y-71051564D01*
X154363353Y-77751564D02*
X154363353Y-73551564D01*
X133463353Y-109001564D02*
X133463353Y-100601564D01*
X149763353Y-71751564D02*
X149763353Y-73351564D01*
X128963353Y-72851564D02*
X128963353Y-77801564D01*
X149363353Y-72851564D02*
X149363353Y-71351564D01*
X128963353Y-77801564D02*
X126413353Y-77801564D01*
X150613353Y-82626564D02*
X149013353Y-82626564D01*
X126363353Y-109301564D02*
X129263353Y-109301564D01*
X147463353Y-87851564D02*
X149263353Y-87851564D01*
X144613353Y-87226564D02*
X148813353Y-87226564D01*
X149763353Y-73351564D02*
X146713353Y-73351564D01*
X129263353Y-109301564D02*
X129263353Y-109001564D01*
X143113353Y-79576564D02*
X143113353Y-85976564D01*
X118563353Y-109801564D02*
X121663353Y-109801564D01*
X120613353Y-81251564D02*
X120613353Y-77851564D01*
X143113353Y-87851564D02*
X143113353Y-91601564D01*
X148813353Y-87226564D02*
X148813353Y-86126564D01*
X146913353Y-93401564D02*
X146913353Y-91601564D01*
X153263353Y-73551564D02*
X153263353Y-71751564D01*
X149363353Y-71351564D02*
X149363353Y-71251564D01*
X143113353Y-85976564D02*
X144613353Y-85976564D01*
X125063353Y-100601564D02*
X125063353Y-101801564D01*
X126363353Y-72851564D02*
X128963353Y-72851564D01*
X126363353Y-68151564D02*
X126363353Y-72851564D01*
X143113353Y-91601564D02*
X143613353Y-91601564D01*
X126413353Y-77801564D02*
X126413353Y-81251564D01*
X148813353Y-86126564D02*
X150613353Y-86126564D01*
X146013353Y-66851564D02*
X144763353Y-66851564D01*
X149363353Y-71251564D02*
X152413353Y-71251564D01*
X126363353Y-109401564D02*
X126363353Y-109301564D01*
X126363353Y-109801564D02*
X126363353Y-109401564D01*
X144763353Y-66851564D02*
X144763353Y-71051564D01*
X143613353Y-93401564D02*
X146913353Y-93401564D01*
X146713353Y-79251564D02*
X153113353Y-79251564D01*
X149263353Y-91351564D02*
X149263353Y-88101564D01*
X120563353Y-72401564D02*
X120563353Y-70301564D01*
X154363353Y-73551564D02*
X153263353Y-73551564D01*
X119113353Y-77851564D02*
X119113353Y-72401564D01*
X153263353Y-71751564D02*
X149763353Y-71751564D01*
X149013353Y-82626564D02*
X149013353Y-79576564D01*
X143613353Y-91601564D02*
X143613353Y-93401564D01*
X149263353Y-87851564D02*
X149263353Y-88101564D01*
X153113353Y-79251564D02*
X153113353Y-77751564D01*
X121663353Y-109801564D02*
X126363353Y-109801564D01*
X152413353Y-71251564D02*
X152413353Y-65351564D01*
X129263353Y-109001564D02*
X133463353Y-109001564D01*
X145863353Y-71051564D02*
X145863353Y-72851564D01*
X144613353Y-85976564D02*
X144613353Y-87226564D01*
X149013353Y-79576564D02*
X143113353Y-79576564D01*
X125263353Y-100601564D02*
X125063353Y-100601564D01*
X118563353Y-101801564D02*
X118563353Y-109801564D01*
X149453829Y-82103944D02*
X149453829Y-81103944D01*
X149758591Y-81103944D01*
X149834781Y-81151564D01*
X149872876Y-81199183D01*
X149910972Y-81294421D01*
X149910972Y-81437278D01*
X149872876Y-81532516D01*
X149834781Y-81580135D01*
X149758591Y-81627754D01*
X149453829Y-81627754D01*
X150253829Y-82103944D02*
X150253829Y-81103944D01*
X150520495Y-81818230D01*
X150787162Y-81103944D01*
X150787162Y-82103944D01*
X151587162Y-81151564D02*
X151510972Y-81103944D01*
X151396686Y-81103944D01*
X151282400Y-81151564D01*
X151206210Y-81246802D01*
X151168114Y-81342040D01*
X151130019Y-81532516D01*
X151130019Y-81675373D01*
X151168114Y-81865849D01*
X151206210Y-81961087D01*
X151282400Y-82056325D01*
X151396686Y-82103944D01*
X151472876Y-82103944D01*
X151587162Y-82056325D01*
X151625257Y-82008706D01*
X151625257Y-81675373D01*
X151472876Y-81675373D01*
X151853829Y-81103944D02*
X152120495Y-82103944D01*
X152387162Y-81103944D01*
X119334781Y-98772992D02*
X119377638Y-98815849D01*
X119420495Y-98944421D01*
X119420495Y-99030135D01*
X119377638Y-99158706D01*
X119291924Y-99244421D01*
X119206210Y-99287278D01*
X119034781Y-99330135D01*
X118906210Y-99330135D01*
X118734781Y-99287278D01*
X118649067Y-99244421D01*
X118563353Y-99158706D01*
X118520495Y-99030135D01*
X118520495Y-98944421D01*
X118563353Y-98815849D01*
X118606210Y-98772992D01*
X119420495Y-98258706D02*
X119377638Y-98344421D01*
X119334781Y-98387278D01*
X119249067Y-98430135D01*
X118991924Y-98430135D01*
X118906210Y-98387278D01*
X118863353Y-98344421D01*
X118820495Y-98258706D01*
X118820495Y-98130135D01*
X118863353Y-98044421D01*
X118906210Y-98001564D01*
X118991924Y-97958706D01*
X119249067Y-97958706D01*
X119334781Y-98001564D01*
X119377638Y-98044421D01*
X119420495Y-98130135D01*
X119420495Y-98258706D01*
X118820495Y-97572992D02*
X119720495Y-97572992D01*
X118863353Y-97572992D02*
X118820495Y-97487278D01*
X118820495Y-97315849D01*
X118863353Y-97230135D01*
X118906210Y-97187278D01*
X118991924Y-97144421D01*
X119249067Y-97144421D01*
X119334781Y-97187278D01*
X119377638Y-97230135D01*
X119420495Y-97315849D01*
X119420495Y-97487278D01*
X119377638Y-97572992D01*
X118820495Y-96844421D02*
X119420495Y-96630135D01*
X118820495Y-96415849D02*
X119420495Y-96630135D01*
X119634781Y-96715849D01*
X119677638Y-96758706D01*
X119720495Y-96844421D01*
X119420495Y-96072992D02*
X118820495Y-96072992D01*
X118991924Y-96072992D02*
X118906210Y-96030135D01*
X118863353Y-95987278D01*
X118820495Y-95901564D01*
X118820495Y-95815849D01*
X119420495Y-95515849D02*
X118820495Y-95515849D01*
X118520495Y-95515849D02*
X118563353Y-95558706D01*
X118606210Y-95515849D01*
X118563353Y-95472992D01*
X118520495Y-95515849D01*
X118606210Y-95515849D01*
X118820495Y-94701564D02*
X119549067Y-94701564D01*
X119634781Y-94744421D01*
X119677638Y-94787278D01*
X119720495Y-94872992D01*
X119720495Y-95001564D01*
X119677638Y-95087278D01*
X119377638Y-94701564D02*
X119420495Y-94787278D01*
X119420495Y-94958706D01*
X119377638Y-95044421D01*
X119334781Y-95087278D01*
X119249067Y-95130135D01*
X118991924Y-95130135D01*
X118906210Y-95087278D01*
X118863353Y-95044421D01*
X118820495Y-94958706D01*
X118820495Y-94787278D01*
X118863353Y-94701564D01*
X119420495Y-94272992D02*
X118520495Y-94272992D01*
X119420495Y-93887278D02*
X118949067Y-93887278D01*
X118863353Y-93930135D01*
X118820495Y-94015849D01*
X118820495Y-94144421D01*
X118863353Y-94230135D01*
X118906210Y-94272992D01*
X118820495Y-93587278D02*
X118820495Y-93244421D01*
X118520495Y-93458706D02*
X119291924Y-93458706D01*
X119377638Y-93415849D01*
X119420495Y-93330135D01*
X119420495Y-93244421D01*
X119763353Y-92001564D02*
X119720495Y-92044421D01*
X119591924Y-92130135D01*
X119506210Y-92172992D01*
X119377638Y-92215849D01*
X119163353Y-92258706D01*
X118991924Y-92258706D01*
X118777638Y-92215849D01*
X118649067Y-92172992D01*
X118563353Y-92130135D01*
X118434781Y-92044421D01*
X118391924Y-92001564D01*
X119334781Y-91144421D02*
X119377638Y-91187278D01*
X119420495Y-91315849D01*
X119420495Y-91401564D01*
X119377638Y-91530135D01*
X119291924Y-91615849D01*
X119206210Y-91658706D01*
X119034781Y-91701564D01*
X118906210Y-91701564D01*
X118734781Y-91658706D01*
X118649067Y-91615849D01*
X118563353Y-91530135D01*
X118520495Y-91401564D01*
X118520495Y-91315849D01*
X118563353Y-91187278D01*
X118606210Y-91144421D01*
X119763353Y-90844421D02*
X119720495Y-90801564D01*
X119591924Y-90715849D01*
X119506210Y-90672992D01*
X119377638Y-90630135D01*
X119163353Y-90587278D01*
X118991924Y-90587278D01*
X118777638Y-90630135D01*
X118649067Y-90672992D01*
X118563353Y-90715849D01*
X118434781Y-90801564D01*
X118391924Y-90844421D01*
X118606210Y-89515849D02*
X118563353Y-89472992D01*
X118520495Y-89387278D01*
X118520495Y-89172992D01*
X118563353Y-89087278D01*
X118606210Y-89044421D01*
X118691924Y-89001564D01*
X118777638Y-89001564D01*
X118906210Y-89044421D01*
X119420495Y-89558706D01*
X119420495Y-89001564D01*
X118520495Y-88444421D02*
X118520495Y-88358706D01*
X118563353Y-88272992D01*
X118606210Y-88230135D01*
X118691924Y-88187278D01*
X118863353Y-88144421D01*
X119077638Y-88144421D01*
X119249067Y-88187278D01*
X119334781Y-88230135D01*
X119377638Y-88272992D01*
X119420495Y-88358706D01*
X119420495Y-88444421D01*
X119377638Y-88530135D01*
X119334781Y-88572992D01*
X119249067Y-88615849D01*
X119077638Y-88658706D01*
X118863353Y-88658706D01*
X118691924Y-88615849D01*
X118606210Y-88572992D01*
X118563353Y-88530135D01*
X118520495Y-88444421D01*
X118606210Y-87801564D02*
X118563353Y-87758706D01*
X118520495Y-87672992D01*
X118520495Y-87458706D01*
X118563353Y-87372992D01*
X118606210Y-87330135D01*
X118691924Y-87287278D01*
X118777638Y-87287278D01*
X118906210Y-87330135D01*
X119420495Y-87844421D01*
X119420495Y-87287278D01*
X119420495Y-86430135D02*
X119420495Y-86944421D01*
X119420495Y-86687278D02*
X118520495Y-86687278D01*
X118649067Y-86772992D01*
X118734781Y-86858706D01*
X118777638Y-86944421D01*
X119420495Y-85358706D02*
X118520495Y-85358706D01*
X119163353Y-84972992D02*
X119163353Y-84544421D01*
X119420495Y-85058706D02*
X118520495Y-84758706D01*
X119420495Y-84458706D01*
X119420495Y-84158706D02*
X118520495Y-84158706D01*
X119163353Y-83858706D01*
X118520495Y-83558706D01*
X119420495Y-83558706D01*
X119420495Y-82701564D02*
X119420495Y-83130135D01*
X118520495Y-83130135D01*
X119420495Y-82401564D02*
X118520495Y-82401564D01*
X118520495Y-81972992D02*
X119249067Y-81972992D01*
X119334781Y-81930135D01*
X119377638Y-81887278D01*
X119420495Y-81801564D01*
X119420495Y-81630135D01*
X119377638Y-81544421D01*
X119334781Y-81501564D01*
X119249067Y-81458706D01*
X118520495Y-81458706D01*
X118949067Y-80730135D02*
X118991924Y-80601564D01*
X119034781Y-80558706D01*
X119120495Y-80515849D01*
X119249067Y-80515849D01*
X119334781Y-80558706D01*
X119377638Y-80601564D01*
X119420495Y-80687278D01*
X119420495Y-81030135D01*
X118520495Y-81030135D01*
X118520495Y-80730135D01*
X118563353Y-80644421D01*
X118606210Y-80601564D01*
X118691924Y-80558706D01*
X118777638Y-80558706D01*
X118863353Y-80601564D01*
X118906210Y-80644421D01*
X118949067Y-80730135D01*
X118949067Y-81030135D01*
X118520495Y-79958706D02*
X118520495Y-79787278D01*
X118563353Y-79701564D01*
X118649067Y-79615849D01*
X118820495Y-79572992D01*
X119120495Y-79572992D01*
X119291924Y-79615849D01*
X119377638Y-79701564D01*
X119420495Y-79787278D01*
X119420495Y-79958706D01*
X119377638Y-80044421D01*
X119291924Y-80130135D01*
X119120495Y-80172992D01*
X118820495Y-80172992D01*
X118649067Y-80130135D01*
X118563353Y-80044421D01*
X118520495Y-79958706D01*
X126163353Y-95053944D02*
X126163353Y-94053944D01*
X126549067Y-95053944D02*
X126549067Y-94530135D01*
X126506210Y-94434897D01*
X126420495Y-94387278D01*
X126291924Y-94387278D01*
X126206210Y-94434897D01*
X126163353Y-94482516D01*
X126849067Y-94387278D02*
X127191924Y-94387278D01*
X126977638Y-94053944D02*
X126977638Y-94911087D01*
X127020495Y-95006325D01*
X127106210Y-95053944D01*
X127191924Y-95053944D01*
X127363353Y-94387278D02*
X127706210Y-94387278D01*
X127491924Y-94053944D02*
X127491924Y-94911087D01*
X127534781Y-95006325D01*
X127620495Y-95053944D01*
X127706210Y-95053944D01*
X128006210Y-94387278D02*
X128006210Y-95387278D01*
X128006210Y-94434897D02*
X128091924Y-94387278D01*
X128263353Y-94387278D01*
X128349067Y-94434897D01*
X128391924Y-94482516D01*
X128434781Y-94577754D01*
X128434781Y-94863468D01*
X128391924Y-94958706D01*
X128349067Y-95006325D01*
X128263353Y-95053944D01*
X128091924Y-95053944D01*
X128006210Y-95006325D01*
X128777638Y-95006325D02*
X128863353Y-95053944D01*
X129034781Y-95053944D01*
X129120495Y-95006325D01*
X129163353Y-94911087D01*
X129163353Y-94863468D01*
X129120495Y-94768230D01*
X129034781Y-94720611D01*
X128906210Y-94720611D01*
X128820495Y-94672992D01*
X128777638Y-94577754D01*
X128777638Y-94530135D01*
X128820495Y-94434897D01*
X128906210Y-94387278D01*
X129034781Y-94387278D01*
X129120495Y-94434897D01*
X129549067Y-94958706D02*
X129591924Y-95006325D01*
X129549067Y-95053944D01*
X129506210Y-95006325D01*
X129549067Y-94958706D01*
X129549067Y-95053944D01*
X129549067Y-94434897D02*
X129591924Y-94482516D01*
X129549067Y-94530135D01*
X129506210Y-94482516D01*
X129549067Y-94434897D01*
X129549067Y-94530135D01*
X130620495Y-94006325D02*
X129849067Y-95292040D01*
X131563353Y-94006325D02*
X130791924Y-95292040D01*
X132249067Y-94387278D02*
X132249067Y-95196802D01*
X132206210Y-95292040D01*
X132163353Y-95339659D01*
X132077638Y-95387278D01*
X131949067Y-95387278D01*
X131863353Y-95339659D01*
X132249067Y-95006325D02*
X132163353Y-95053944D01*
X131991924Y-95053944D01*
X131906210Y-95006325D01*
X131863353Y-94958706D01*
X131820495Y-94863468D01*
X131820495Y-94577754D01*
X131863353Y-94482516D01*
X131906210Y-94434897D01*
X131991924Y-94387278D01*
X132163353Y-94387278D01*
X132249067Y-94434897D01*
X132677638Y-95053944D02*
X132677638Y-94387278D01*
X132677638Y-94053944D02*
X132634781Y-94101564D01*
X132677638Y-94149183D01*
X132720495Y-94101564D01*
X132677638Y-94053944D01*
X132677638Y-94149183D01*
X132977638Y-94387278D02*
X133320495Y-94387278D01*
X133106210Y-94053944D02*
X133106210Y-94911087D01*
X133149067Y-95006325D01*
X133234781Y-95053944D01*
X133320495Y-95053944D01*
X133620495Y-95053944D02*
X133620495Y-94053944D01*
X134006210Y-95053944D02*
X134006210Y-94530135D01*
X133963353Y-94434897D01*
X133877638Y-94387278D01*
X133749067Y-94387278D01*
X133663353Y-94434897D01*
X133620495Y-94482516D01*
X134820495Y-94387278D02*
X134820495Y-95053944D01*
X134434781Y-94387278D02*
X134434781Y-94911087D01*
X134477638Y-95006325D01*
X134563353Y-95053944D01*
X134691924Y-95053944D01*
X134777638Y-95006325D01*
X134820495Y-94958706D01*
X135249067Y-95053944D02*
X135249067Y-94053944D01*
X135249067Y-94434897D02*
X135334781Y-94387278D01*
X135506210Y-94387278D01*
X135591924Y-94434897D01*
X135634781Y-94482516D01*
X135677638Y-94577754D01*
X135677638Y-94863468D01*
X135634781Y-94958706D01*
X135591924Y-95006325D01*
X135506210Y-95053944D01*
X135334781Y-95053944D01*
X135249067Y-95006325D01*
X136063353Y-94958706D02*
X136106210Y-95006325D01*
X136063353Y-95053944D01*
X136020495Y-95006325D01*
X136063353Y-94958706D01*
X136063353Y-95053944D01*
X136877638Y-95006325D02*
X136791924Y-95053944D01*
X136620495Y-95053944D01*
X136534781Y-95006325D01*
X136491924Y-94958706D01*
X136449067Y-94863468D01*
X136449067Y-94577754D01*
X136491924Y-94482516D01*
X136534781Y-94434897D01*
X136620495Y-94387278D01*
X136791924Y-94387278D01*
X136877638Y-94434897D01*
X137391924Y-95053944D02*
X137306210Y-95006325D01*
X137263353Y-94958706D01*
X137220495Y-94863468D01*
X137220495Y-94577754D01*
X137263353Y-94482516D01*
X137306210Y-94434897D01*
X137391924Y-94387278D01*
X137520495Y-94387278D01*
X137606210Y-94434897D01*
X137649067Y-94482516D01*
X137691924Y-94577754D01*
X137691924Y-94863468D01*
X137649067Y-94958706D01*
X137606210Y-95006325D01*
X137520495Y-95053944D01*
X137391924Y-95053944D01*
X138077638Y-95053944D02*
X138077638Y-94387278D01*
X138077638Y-94482516D02*
X138120495Y-94434897D01*
X138206210Y-94387278D01*
X138334781Y-94387278D01*
X138420495Y-94434897D01*
X138463353Y-94530135D01*
X138463353Y-95053944D01*
X138463353Y-94530135D02*
X138506210Y-94434897D01*
X138591924Y-94387278D01*
X138720495Y-94387278D01*
X138806210Y-94434897D01*
X138849067Y-94530135D01*
X138849067Y-95053944D01*
X139920495Y-94006325D02*
X139149067Y-95292040D01*
X140220495Y-95053944D02*
X140220495Y-94387278D01*
X140220495Y-94053944D02*
X140177638Y-94101564D01*
X140220495Y-94149183D01*
X140263353Y-94101564D01*
X140220495Y-94053944D01*
X140220495Y-94149183D01*
X140649067Y-95053944D02*
X140649067Y-94387278D01*
X140649067Y-94482516D02*
X140691924Y-94434897D01*
X140777638Y-94387278D01*
X140906210Y-94387278D01*
X140991924Y-94434897D01*
X141034781Y-94530135D01*
X141034781Y-95053944D01*
X141034781Y-94530135D02*
X141077638Y-94434897D01*
X141163353Y-94387278D01*
X141291924Y-94387278D01*
X141377638Y-94434897D01*
X141420495Y-94530135D01*
X141420495Y-95053944D01*
X141977638Y-95053944D02*
X141891924Y-95006325D01*
X141849067Y-94911087D01*
X141849067Y-94053944D01*
X142320495Y-95053944D02*
X142320495Y-94387278D01*
X142320495Y-94053944D02*
X142277638Y-94101564D01*
X142320495Y-94149183D01*
X142363353Y-94101564D01*
X142320495Y-94053944D01*
X142320495Y-94149183D01*
X143134781Y-94387278D02*
X143134781Y-95053944D01*
X142749067Y-94387278D02*
X142749067Y-94911087D01*
X142791924Y-95006325D01*
X142877638Y-95053944D01*
X143006210Y-95053944D01*
X143091924Y-95006325D01*
X143134781Y-94958706D01*
X143563353Y-95053944D02*
X143563353Y-94053944D01*
X143563353Y-94434897D02*
X143649067Y-94387278D01*
X143820495Y-94387278D01*
X143906210Y-94434897D01*
X143949067Y-94482516D01*
X143991924Y-94577754D01*
X143991924Y-94863468D01*
X143949067Y-94958706D01*
X143906210Y-95006325D01*
X143820495Y-95053944D01*
X143649067Y-95053944D01*
X143563353Y-95006325D01*
X144506210Y-95053944D02*
X144420495Y-95006325D01*
X144377638Y-94958706D01*
X144334781Y-94863468D01*
X144334781Y-94577754D01*
X144377638Y-94482516D01*
X144420495Y-94434897D01*
X144506210Y-94387278D01*
X144634781Y-94387278D01*
X144720495Y-94434897D01*
X144763353Y-94482516D01*
X144806210Y-94577754D01*
X144806210Y-94863468D01*
X144763353Y-94958706D01*
X144720495Y-95006325D01*
X144634781Y-95053944D01*
X144506210Y-95053944D01*
X148282400Y-98952380D02*
X147949067Y-98476190D01*
X147710972Y-98952380D02*
X147710972Y-97952380D01*
X148091924Y-97952380D01*
X148187162Y-98000000D01*
X148234781Y-98047619D01*
X148282400Y-98142857D01*
X148282400Y-98285714D01*
X148234781Y-98380952D01*
X148187162Y-98428571D01*
X148091924Y-98476190D01*
X147710972Y-98476190D01*
X148615733Y-97952380D02*
X149234781Y-97952380D01*
X148901448Y-98333333D01*
X149044305Y-98333333D01*
X149139543Y-98380952D01*
X149187162Y-98428571D01*
X149234781Y-98523809D01*
X149234781Y-98761904D01*
X149187162Y-98857142D01*
X149139543Y-98904761D01*
X149044305Y-98952380D01*
X148758591Y-98952380D01*
X148663353Y-98904761D01*
X148615733Y-98857142D01*
X149663353Y-98857142D02*
X149710972Y-98904761D01*
X149663353Y-98952380D01*
X149615733Y-98904761D01*
X149663353Y-98857142D01*
X149663353Y-98952380D01*
X150330019Y-97952380D02*
X150425257Y-97952380D01*
X150520495Y-98000000D01*
X150568114Y-98047619D01*
X150615733Y-98142857D01*
X150663353Y-98333333D01*
X150663353Y-98571428D01*
X150615733Y-98761904D01*
X150568114Y-98857142D01*
X150520495Y-98904761D01*
X150425257Y-98952380D01*
X150330019Y-98952380D01*
X150234781Y-98904761D01*
X150187162Y-98857142D01*
X150139543Y-98761904D01*
X150091924Y-98571428D01*
X150091924Y-98333333D01*
X150139543Y-98142857D01*
X150187162Y-98047619D01*
X150234781Y-98000000D01*
X150330019Y-97952380D01*
D11*
%TO.C,C5*%
X143349188Y-72761564D02*
X143117518Y-72761564D01*
X143349188Y-72041564D02*
X143117518Y-72041564D01*
%TO.C,C26*%
X127173353Y-97835729D02*
X127173353Y-98067399D01*
X126453353Y-97835729D02*
X126453353Y-98067399D01*
%TO.C,C21*%
X122671688Y-87261564D02*
X122440018Y-87261564D01*
X122671688Y-87981564D02*
X122440018Y-87981564D01*
%TO.C,C53*%
X126623353Y-102385729D02*
X126623353Y-102617399D01*
X125903353Y-102385729D02*
X125903353Y-102617399D01*
%TO.C,R19*%
X133495732Y-113221564D02*
X133830974Y-113221564D01*
X133495732Y-113981564D02*
X133830974Y-113981564D01*
%TO.C,R11*%
X141798353Y-97076443D02*
X141798353Y-97411685D01*
X142558353Y-97076443D02*
X142558353Y-97411685D01*
%TO.C,C14*%
X134373353Y-80585729D02*
X134373353Y-80817399D01*
X133653353Y-80585729D02*
X133653353Y-80817399D01*
%TO.C,R13*%
X139748353Y-97411685D02*
X139748353Y-97076443D01*
X140508353Y-97411685D02*
X140508353Y-97076443D01*
%TO.C,C47*%
X127483353Y-74068229D02*
X127483353Y-74299899D01*
X126763353Y-74068229D02*
X126763353Y-74299899D01*
%TO.C,C44*%
X122440018Y-86961564D02*
X122671688Y-86961564D01*
X122440018Y-86241564D02*
X122671688Y-86241564D01*
%TO.C,L1*%
X151923353Y-69282816D02*
X151923353Y-68760312D01*
X149703353Y-69282816D02*
X149703353Y-68760312D01*
%TO.C,C40*%
X140229188Y-84291564D02*
X139997518Y-84291564D01*
X140229188Y-85011564D02*
X139997518Y-85011564D01*
%TO.C,R6*%
X122893353Y-91789185D02*
X122893353Y-91453943D01*
X122133353Y-91789185D02*
X122133353Y-91453943D01*
%TO.C,J1*%
X135213353Y-99471564D02*
X135563353Y-99471564D01*
X149913353Y-113971564D02*
X135213353Y-113971564D01*
X149913353Y-101071564D02*
X149913353Y-108671564D01*
X135213353Y-111071564D02*
X135213353Y-113971564D01*
X149913353Y-113971564D02*
X149913353Y-111071564D01*
X135213353Y-101071564D02*
X135213353Y-108671564D01*
X149913353Y-99471564D02*
X145263353Y-99471564D01*
%TO.C,J11*%
X152463353Y-98801564D02*
X161463353Y-98801564D01*
X161463353Y-98801564D02*
X161463353Y-108801564D01*
X152463353Y-98801564D02*
X152463353Y-108801564D01*
X161463353Y-108801564D02*
X152463353Y-108801564D01*
%TO.C,J12*%
X153013353Y-82401564D02*
X153013353Y-81071564D01*
X154408353Y-81641564D02*
X154408353Y-81071564D01*
X154408353Y-81071564D02*
X158278353Y-81071564D01*
X154408353Y-83731564D02*
X158278353Y-83731564D01*
X154408353Y-83731564D02*
X154408353Y-83161564D01*
X158278353Y-82094034D02*
X158278353Y-81071564D01*
X158278353Y-83731564D02*
X158278353Y-82709094D01*
X153013353Y-81071564D02*
X153773353Y-81071564D01*
%TO.C,JP1*%
X130163353Y-113251564D02*
X131063353Y-113251564D01*
X131863353Y-113051564D02*
X132163353Y-112751564D01*
X131963353Y-114451564D02*
X131063353Y-114451564D01*
X129763353Y-114051564D02*
X129763353Y-113651564D01*
X130163353Y-114451564D02*
X131063353Y-114451564D01*
X131963353Y-113251564D02*
X131063353Y-113251564D01*
X132163353Y-112751564D02*
X131563353Y-112751564D01*
X131863353Y-113051564D02*
X131563353Y-112751564D01*
X132363353Y-113651564D02*
X132363353Y-114051564D01*
X131963353Y-114451564D02*
G75*
G03*
X132363353Y-114051564I0J400000D01*
G01*
X130163353Y-113251564D02*
G75*
G03*
X129763353Y-113651564I0J-400000D01*
G01*
X131963353Y-113251564D02*
G75*
G02*
X132363353Y-113651564I0J-400000D01*
G01*
X130163353Y-114451564D02*
G75*
G02*
X129763353Y-114051564I0J400000D01*
G01*
%TO.C,R25*%
X145552212Y-86171564D02*
X145859494Y-86171564D01*
X145552212Y-86931564D02*
X145859494Y-86931564D01*
%TO.C,R34*%
X127783353Y-76666685D02*
X127783353Y-76331443D01*
X128543353Y-76666685D02*
X128543353Y-76331443D01*
D10*
%TO.C,U1*%
X150848353Y-97341564D02*
X152073353Y-97341564D01*
X147498353Y-97566564D02*
X147498353Y-97266564D01*
X147498353Y-94216564D02*
X147498353Y-94516564D01*
X150848353Y-94216564D02*
X147498353Y-94216564D01*
X150848353Y-97566564D02*
X150848353Y-97341564D01*
X150848353Y-97566564D02*
X147498353Y-97566564D01*
X150848353Y-94216564D02*
X150848353Y-94516564D01*
D11*
%TO.C,C20*%
X128178353Y-80817399D02*
X128178353Y-80585729D01*
X128898353Y-80817399D02*
X128898353Y-80585729D01*
%TO.C,C12*%
X140879188Y-93661564D02*
X140647518Y-93661564D01*
X140879188Y-92941564D02*
X140647518Y-92941564D01*
%TO.C,C33*%
X150597773Y-66756564D02*
X150878933Y-66756564D01*
X150597773Y-65736564D02*
X150878933Y-65736564D01*
%TO.C,U6*%
X149243353Y-69101564D02*
X149243353Y-68301564D01*
X146123353Y-69101564D02*
X146123353Y-70901564D01*
X146123353Y-69101564D02*
X146123353Y-68301564D01*
X149243353Y-69101564D02*
X149243353Y-69901564D01*
%TO.C,R10*%
X122388232Y-89311564D02*
X122723474Y-89311564D01*
X122388232Y-90071564D02*
X122723474Y-90071564D01*
%TO.C,C7*%
X132893353Y-76684899D02*
X132893353Y-76453229D01*
X132173353Y-76684899D02*
X132173353Y-76453229D01*
%TO.C,U7*%
X149853353Y-75514064D02*
X149853353Y-74714064D01*
X152973353Y-75514064D02*
X152973353Y-76314064D01*
X152973353Y-75514064D02*
X152973353Y-73714064D01*
X149853353Y-75514064D02*
X149853353Y-76314064D01*
%TO.C,C50*%
X157247518Y-72561564D02*
X157479188Y-72561564D01*
X157247518Y-71841564D02*
X157479188Y-71841564D01*
%TO.C,C22*%
X140647518Y-92561564D02*
X140879188Y-92561564D01*
X140647518Y-91841564D02*
X140879188Y-91841564D01*
%TO.C,Ri1*%
X119433353Y-74016443D02*
X119433353Y-74351685D01*
X120193353Y-74016443D02*
X120193353Y-74351685D01*
%TO.C,R30*%
X140280974Y-83221564D02*
X139945732Y-83221564D01*
X140280974Y-83981564D02*
X139945732Y-83981564D01*
%TO.C,Ci1*%
X120173353Y-76614899D02*
X120173353Y-76383229D01*
X119453353Y-76614899D02*
X119453353Y-76383229D01*
%TO.C,R16*%
X138493353Y-97411685D02*
X138493353Y-97076443D01*
X137733353Y-97411685D02*
X137733353Y-97076443D01*
%TO.C,R15*%
X144633353Y-97076443D02*
X144633353Y-97411685D01*
X143873353Y-97076443D02*
X143873353Y-97411685D01*
%TO.C,TBD1*%
X138286053Y-70791564D02*
X138085653Y-70791564D01*
X138286053Y-71511564D02*
X138085653Y-71511564D01*
%TO.C,C42*%
X147840853Y-89842144D02*
X147840853Y-89560984D01*
X148860853Y-89842144D02*
X148860853Y-89560984D01*
%TO.C,R8*%
X122413353Y-100366443D02*
X122413353Y-100701685D01*
X121653353Y-100366443D02*
X121653353Y-100701685D01*
%TO.C,R4*%
X151993353Y-88386443D02*
X151993353Y-88721685D01*
X151233353Y-88386443D02*
X151233353Y-88721685D01*
%TO.C,R7*%
X121843353Y-91819185D02*
X121843353Y-91483943D01*
X121083353Y-91819185D02*
X121083353Y-91483943D01*
%TO.C,J3*%
X155398353Y-95646564D02*
X156728353Y-95646564D01*
X156728353Y-98306564D02*
X156728353Y-97284094D01*
X154003353Y-96976564D02*
X154003353Y-95646564D01*
X155398353Y-98306564D02*
X156728353Y-98306564D01*
X154003353Y-95646564D02*
X154763353Y-95646564D01*
X156728353Y-96669034D02*
X156728353Y-95646564D01*
X155398353Y-96216564D02*
X155398353Y-95646564D01*
X155398353Y-98306564D02*
X155398353Y-97736564D01*
%TO.C,R35*%
X128533353Y-74016443D02*
X128533353Y-74351685D01*
X127773353Y-74016443D02*
X127773353Y-74351685D01*
%TO.C,R24*%
X154073353Y-74802705D02*
X154073353Y-74495423D01*
X153313353Y-74802705D02*
X153313353Y-74495423D01*
%TO.C,C1*%
X143829188Y-95961564D02*
X143597518Y-95961564D01*
X143829188Y-95241564D02*
X143597518Y-95241564D01*
%TO.C,R9*%
X122388232Y-88271564D02*
X122723474Y-88271564D01*
X122388232Y-89031564D02*
X122723474Y-89031564D01*
%TO.C,R36*%
X155230974Y-72581564D02*
X154895732Y-72581564D01*
X155230974Y-71821564D02*
X154895732Y-71821564D01*
%TO.C,C3*%
X139173353Y-69435729D02*
X139173353Y-69667399D01*
X138453353Y-69435729D02*
X138453353Y-69667399D01*
%TO.C,R3*%
X151993353Y-90683943D02*
X151993353Y-91019185D01*
X151233353Y-90683943D02*
X151233353Y-91019185D01*
%TO.C,J2*%
X112983353Y-71901564D02*
X112983353Y-70571564D01*
X112983353Y-73171564D02*
X112983353Y-108791564D01*
X112983353Y-108791564D02*
X118183353Y-108791564D01*
X112983353Y-73171564D02*
X115583353Y-73171564D01*
X115583353Y-73171564D02*
X115583353Y-70571564D01*
X115583353Y-70571564D02*
X118183353Y-70571564D01*
X118183353Y-70571564D02*
X118183353Y-108791564D01*
X112983353Y-70571564D02*
X114313353Y-70571564D01*
%TO.C,L4*%
X128813353Y-104751564D02*
X128813353Y-105901564D01*
X128813353Y-108651564D02*
X128813353Y-107501564D01*
X133113353Y-108651564D02*
X128813353Y-108651564D01*
X133113353Y-108651564D02*
X133113353Y-107501564D01*
X133113353Y-104751564D02*
X133113353Y-105901564D01*
X133113353Y-104751564D02*
X128813353Y-104751564D01*
%TO.C,U10*%
X122263353Y-109261564D02*
X125163353Y-109261564D01*
X122263353Y-104141564D02*
X124313353Y-104141564D01*
X122263353Y-109261564D02*
X120213353Y-109261564D01*
X122263353Y-104141564D02*
X120163353Y-104141564D01*
%TO.C,R5*%
X143065732Y-70981564D02*
X143400974Y-70981564D01*
X143065732Y-71741564D02*
X143400974Y-71741564D01*
%TO.C,R18*%
X128078474Y-112441564D02*
X127743232Y-112441564D01*
X128078474Y-111681564D02*
X127743232Y-111681564D01*
%TO.C,C37*%
X144495853Y-84160984D02*
X144495853Y-84442144D01*
X143475853Y-84160984D02*
X143475853Y-84442144D01*
%TO.C,SW2*%
X155463353Y-74341564D02*
X155463353Y-76691564D01*
X159063353Y-74341564D02*
X158613353Y-74341564D01*
X157563353Y-79041564D02*
X156963353Y-79041564D01*
X155463353Y-74341564D02*
X155913353Y-74341564D01*
X159063353Y-76691564D02*
X159063353Y-79041564D01*
X160063353Y-75391564D02*
X160063353Y-77991564D01*
X155463353Y-76691564D02*
X155463353Y-79041564D01*
X157563353Y-74341564D02*
X156963353Y-74341564D01*
X160063353Y-77991564D02*
X159063353Y-77991564D01*
X159063353Y-76691564D02*
X159063353Y-74341564D01*
X155463353Y-79041564D02*
X155913353Y-79041564D01*
X159038353Y-79041564D02*
X158588353Y-79041564D01*
X159063353Y-79041564D02*
X158663353Y-79041564D01*
X159063353Y-75391564D02*
X160063353Y-75391564D01*
D10*
%TO.C,U4*%
X120383353Y-98291564D02*
X120383353Y-97766564D01*
X124683353Y-98291564D02*
X124683353Y-97766564D01*
X124683353Y-98291564D02*
X124158353Y-98291564D01*
X120383353Y-93991564D02*
X120908353Y-93991564D01*
X124683353Y-93991564D02*
X124158353Y-93991564D01*
X120383353Y-98291564D02*
X120908353Y-98291564D01*
X124683353Y-93991564D02*
X124683353Y-94516564D01*
D11*
%TO.C,C8*%
X143117518Y-70681564D02*
X143349188Y-70681564D01*
X143117518Y-69961564D02*
X143349188Y-69961564D01*
%TO.C,C38*%
X148528933Y-77849064D02*
X148247773Y-77849064D01*
X148528933Y-78869064D02*
X148247773Y-78869064D01*
%TO.C,C49*%
X122127518Y-80181564D02*
X122359188Y-80181564D01*
X122127518Y-80901564D02*
X122359188Y-80901564D01*
%TO.C,U8*%
X146825853Y-82741564D02*
X147625853Y-82741564D01*
X146825853Y-85861564D02*
X148625853Y-85861564D01*
X146825853Y-82741564D02*
X146025853Y-82741564D01*
X146825853Y-85861564D02*
X146025853Y-85861564D01*
%TO.C,R17*%
X127743232Y-109611564D02*
X128078474Y-109611564D01*
X127743232Y-110371564D02*
X128078474Y-110371564D01*
%TO.C,D1*%
X126303353Y-112866564D02*
X126303353Y-114336564D01*
X128763353Y-112866564D02*
X126303353Y-112866564D01*
X126303353Y-114336564D02*
X128763353Y-114336564D01*
%TO.C,C36*%
X151272773Y-78869064D02*
X151553933Y-78869064D01*
X151272773Y-77849064D02*
X151553933Y-77849064D01*
%TO.C,C11*%
X133028353Y-98067399D02*
X133028353Y-97835729D01*
X133748353Y-98067399D02*
X133748353Y-97835729D01*
%TO.C,C32*%
X147823933Y-65741564D02*
X147542773Y-65741564D01*
X147823933Y-66761564D02*
X147542773Y-66761564D01*
%TO.C,R12*%
X142823353Y-97076443D02*
X142823353Y-97411685D01*
X143583353Y-97076443D02*
X143583353Y-97411685D01*
%TO.C,C18*%
X123918353Y-91737399D02*
X123918353Y-91505729D01*
X123198353Y-91737399D02*
X123198353Y-91505729D01*
%TO.C,C28*%
X127795018Y-111391564D02*
X128026688Y-111391564D01*
X127795018Y-110671564D02*
X128026688Y-110671564D01*
%TO.C,UART1*%
X161448353Y-85121564D02*
X161448353Y-94281564D01*
X157733353Y-85121564D02*
X155813353Y-85121564D01*
X159743353Y-85121564D02*
X161448353Y-85121564D01*
X155813353Y-94281564D02*
X157733353Y-94281564D01*
X161448353Y-94281564D02*
X159743353Y-94281564D01*
%TO.C,C13*%
X140249188Y-90481564D02*
X140017518Y-90481564D01*
X140249188Y-89761564D02*
X140017518Y-89761564D01*
%TO.C,Y2*%
X127563353Y-99601564D02*
X131563353Y-99601564D01*
X127563353Y-96301564D02*
X127563353Y-99601564D01*
%TO.C,C41*%
X140229188Y-87111564D02*
X139997518Y-87111564D01*
X140229188Y-86391564D02*
X139997518Y-86391564D01*
%TO.C,C39*%
X144480853Y-81407144D02*
X144480853Y-81125984D01*
X143460853Y-81407144D02*
X143460853Y-81125984D01*
%TO.C,U9*%
X145263353Y-91261564D02*
X144613353Y-91261564D01*
X145263353Y-88141564D02*
X143588353Y-88141564D01*
X145263353Y-91261564D02*
X145913353Y-91261564D01*
X145263353Y-88141564D02*
X145913353Y-88141564D01*
%TO.C,J6*%
X121403353Y-70901564D02*
X123463353Y-70901564D01*
X123463353Y-68841564D02*
X125523353Y-68841564D01*
X125523353Y-68841564D02*
X125523353Y-70961564D01*
X121403353Y-70961564D02*
X125523353Y-70961564D01*
X121403353Y-70901564D02*
X121403353Y-70961564D01*
X121403353Y-69901564D02*
X121403353Y-68841564D01*
X123463353Y-70901564D02*
X123463353Y-68841564D01*
X121403353Y-68841564D02*
X122463353Y-68841564D01*
%TO.C,R29*%
X138858474Y-80561564D02*
X138523232Y-80561564D01*
X138858474Y-79801564D02*
X138523232Y-79801564D01*
%TO.C,C51*%
X120446688Y-103761564D02*
X120215018Y-103761564D01*
X120446688Y-103041564D02*
X120215018Y-103041564D01*
%TO.C,C17*%
X123723353Y-100418229D02*
X123723353Y-100649899D01*
X124443353Y-100418229D02*
X124443353Y-100649899D01*
%TO.C,R31*%
X140280974Y-86081564D02*
X139945732Y-86081564D01*
X140280974Y-85321564D02*
X139945732Y-85321564D01*
%TO.C,U2*%
X140123353Y-73566564D02*
X140123353Y-73091564D01*
X134903353Y-73566564D02*
X134903353Y-73091564D01*
X134903353Y-73091564D02*
X135378353Y-73091564D01*
X134903353Y-78311564D02*
X135378353Y-78311564D01*
X140123353Y-78311564D02*
X139648353Y-78311564D01*
X134903353Y-77836564D02*
X134903353Y-78311564D01*
X140123353Y-77836564D02*
X140123353Y-78311564D01*
%TO.C,C56*%
X126178353Y-104591564D02*
X126178353Y-108501564D01*
X128048353Y-104591564D02*
X126178353Y-104591564D01*
X128048353Y-108501564D02*
X128048353Y-104591564D01*
%TO.C,C48*%
X124435018Y-80901564D02*
X124666688Y-80901564D01*
X124435018Y-80181564D02*
X124666688Y-80181564D01*
%TO.C,R2*%
X123016994Y-103781564D02*
X122709712Y-103781564D01*
X123016994Y-103021564D02*
X122709712Y-103021564D01*
D12*
%TO.C,D2*%
X124003353Y-102401564D02*
G75*
G03*
X124003353Y-102401564I-50000J0D01*
G01*
D11*
%TO.C,U3*%
X136743353Y-93501564D02*
X136193353Y-93501564D01*
X126443353Y-93501564D02*
X126993353Y-93501564D01*
X136743353Y-92951564D02*
X136743353Y-93501564D01*
X136193353Y-83201564D02*
X136743353Y-83201564D01*
X126443353Y-83751564D02*
X126443353Y-83201564D01*
X126443353Y-92951564D02*
X126443353Y-93501564D01*
X126443353Y-83201564D02*
X126993353Y-83201564D01*
X136743353Y-83751564D02*
X136743353Y-83201564D01*
D10*
X135893353Y-84351564D02*
G75*
G03*
X135893353Y-84351564I-300000J0D01*
G01*
D11*
%TO.C,C6*%
X132893353Y-74407399D02*
X132893353Y-74175729D01*
X132173353Y-74407399D02*
X132173353Y-74175729D01*
%TO.C,C43*%
X145122773Y-91941564D02*
X145403933Y-91941564D01*
X145122773Y-92961564D02*
X145403933Y-92961564D01*
%TO.C,R23*%
X153313353Y-76762705D02*
X153313353Y-76455423D01*
X154073353Y-76762705D02*
X154073353Y-76455423D01*
%TO.C,C31*%
X147522773Y-72511564D02*
X147803933Y-72511564D01*
X147522773Y-71491564D02*
X147803933Y-71491564D01*
%TO.C,C16*%
X121353353Y-100418229D02*
X121353353Y-100649899D01*
X120633353Y-100418229D02*
X120633353Y-100649899D01*
%TO.C,C45*%
X122671688Y-85221564D02*
X122440018Y-85221564D01*
X122671688Y-85941564D02*
X122440018Y-85941564D01*
%TO.C,R14*%
X138749353Y-97411685D02*
X138749353Y-97076443D01*
X139509353Y-97411685D02*
X139509353Y-97076443D01*
%TO.C,R21*%
X145783353Y-67832923D02*
X145783353Y-68140205D01*
X145023353Y-67832923D02*
X145023353Y-68140205D01*
%TO.C,D4*%
X127763353Y-101201564D02*
X127763353Y-103801564D01*
X127763353Y-101201564D02*
X132563353Y-101201564D01*
X127763353Y-103801564D02*
X132563353Y-103801564D01*
%TO.C,C27*%
X141513353Y-97359899D02*
X141513353Y-97128229D01*
X140793353Y-97359899D02*
X140793353Y-97128229D01*
%TO.C,R1*%
X120209712Y-102781564D02*
X120516994Y-102781564D01*
X120209712Y-102021564D02*
X120516994Y-102021564D01*
%TO.C,C23*%
X122671688Y-83891564D02*
X122440018Y-83891564D01*
X122671688Y-83171564D02*
X122440018Y-83171564D01*
%TO.C,C4*%
X143122518Y-77641564D02*
X143354188Y-77641564D01*
X143122518Y-78361564D02*
X143354188Y-78361564D01*
%TO.C,Q1*%
X131363353Y-112561564D02*
X130713353Y-112561564D01*
X131363353Y-109441564D02*
X132013353Y-109441564D01*
X131363353Y-112561564D02*
X132013353Y-112561564D01*
X131363353Y-109441564D02*
X129688353Y-109441564D01*
%TO.C,R28*%
X136198232Y-79801564D02*
X136533474Y-79801564D01*
X136198232Y-80561564D02*
X136533474Y-80561564D01*
%TO.C,R27*%
X136078474Y-71531564D02*
X135743232Y-71531564D01*
X136078474Y-70771564D02*
X135743232Y-70771564D01*
%TO.C,U5*%
X120918353Y-75406564D02*
X120918353Y-73456564D01*
X120918353Y-75406564D02*
X120918353Y-77356564D01*
X126038353Y-75406564D02*
X126038353Y-77356564D01*
X126038353Y-75406564D02*
X126038353Y-71956564D01*
%TO.C,R26*%
X147552212Y-86941564D02*
X147859494Y-86941564D01*
X147552212Y-86181564D02*
X147859494Y-86181564D01*
%TO.C,C57*%
X138097518Y-67591564D02*
X138329188Y-67591564D01*
X138097518Y-68311564D02*
X138329188Y-68311564D01*
%TO.C,C10*%
X130023353Y-80585729D02*
X130023353Y-80817399D01*
X129303353Y-80585729D02*
X129303353Y-80817399D01*
%TO.C,C9*%
X132653353Y-80585729D02*
X132653353Y-80817399D01*
X133373353Y-80585729D02*
X133373353Y-80817399D01*
D13*
%TO.C,AE1*%
X136234453Y-67274187D02*
X130836953Y-67274187D01*
X137633993Y-65074547D02*
X136234453Y-65074547D01*
X137633993Y-67274187D02*
X136234453Y-67274187D01*
X136234453Y-67274187D02*
X136234453Y-65074547D01*
X139734573Y-66971927D02*
X139734573Y-65376807D01*
X136234453Y-65074547D02*
X130836953Y-65074547D01*
D11*
%TO.C,L3*%
X147007105Y-82251564D02*
X146484601Y-82251564D01*
X147007105Y-80031564D02*
X146484601Y-80031564D01*
D12*
%TO.C,D3*%
X125113353Y-103991564D02*
G75*
G03*
X125113353Y-103991564I-50000J0D01*
G01*
D11*
%TO.C,C46*%
X127483353Y-76614899D02*
X127483353Y-76383229D01*
X126763353Y-76614899D02*
X126763353Y-76383229D01*
%TO.C,C2*%
X149057518Y-93651564D02*
X149289188Y-93651564D01*
X149057518Y-92931564D02*
X149289188Y-92931564D01*
%TO.C,R22*%
X145023353Y-69792923D02*
X145023353Y-70100205D01*
X145783353Y-69792923D02*
X145783353Y-70100205D01*
%TO.C,C35*%
X149203353Y-84442144D02*
X149203353Y-84160984D01*
X150223353Y-84442144D02*
X150223353Y-84160984D01*
%TO.C,C19*%
X123423353Y-100418229D02*
X123423353Y-100649899D01*
X122703353Y-100418229D02*
X122703353Y-100649899D01*
%TO.C,C15*%
X139773353Y-88335729D02*
X139773353Y-88567399D01*
X140493353Y-88335729D02*
X140493353Y-88567399D01*
%TO.C,SW1*%
X123938353Y-114901564D02*
X121338353Y-114901564D01*
X124988353Y-110301564D02*
X124988353Y-110751564D01*
X120288353Y-110301564D02*
X120288353Y-110751564D01*
X120288353Y-113901564D02*
X120288353Y-113501564D01*
X124988353Y-112401564D02*
X124988353Y-111801564D01*
X122638353Y-113901564D02*
X120288353Y-113901564D01*
X122638353Y-110301564D02*
X120288353Y-110301564D01*
X122638353Y-113901564D02*
X124988353Y-113901564D01*
X124988353Y-110301564D02*
X122638353Y-110301564D01*
X120288353Y-113876564D02*
X120288353Y-113426564D01*
X123938353Y-113901564D02*
X123938353Y-114901564D01*
X120288353Y-112401564D02*
X120288353Y-111801564D01*
X124988353Y-113901564D02*
X124988353Y-113451564D01*
X121338353Y-114901564D02*
X121338353Y-113901564D01*
%TO.C,C34*%
X151553933Y-72104064D02*
X151272773Y-72104064D01*
X151553933Y-73124064D02*
X151272773Y-73124064D01*
%TO.C,C25*%
X131978353Y-98067399D02*
X131978353Y-97835729D01*
X132698353Y-98067399D02*
X132698353Y-97835729D01*
%TO.C,C24*%
X122671688Y-84201564D02*
X122440018Y-84201564D01*
X122671688Y-84921564D02*
X122440018Y-84921564D01*
%TO.C,Y1*%
X144863353Y-73201564D02*
X141563353Y-73201564D01*
X141563353Y-73201564D02*
X141563353Y-77201564D01*
%TO.C,L2*%
X149373353Y-75322812D02*
X149373353Y-75845316D01*
X147153353Y-75322812D02*
X147153353Y-75845316D01*
%TD*%
M02*
