%TF.GenerationSoftware,KiCad,Pcbnew,5.99.0-unknown-b10f156dd0~130~ubuntu20.04.1*%
%TF.CreationDate,2021-06-23T21:39:51+08:00*%
%TF.ProjectId,M5Pi,4d355069-2e6b-4696-9361-645f70636258,3.0*%
%TF.SameCoordinates,Original*%
%TF.FileFunction,Legend,Bot*%
%TF.FilePolarity,Positive*%
%FSLAX46Y46*%
G04 Gerber Fmt 4.6, Leading zero omitted, Abs format (unit mm)*
G04 Created by KiCad (PCBNEW 5.99.0-unknown-b10f156dd0~130~ubuntu20.04.1) date 2021-06-23 21:39:51*
%MOMM*%
%LPD*%
G01*
G04 APERTURE LIST*
%ADD10C,0.150000*%
%ADD11C,0.120000*%
G04 APERTURE END LIST*
D10*
X145921428Y-85911904D02*
X146264285Y-85911904D01*
X146092857Y-85911904D02*
X146092857Y-85111904D01*
X146150000Y-85226190D01*
X146207142Y-85302380D01*
X146264285Y-85340476D01*
X145750000Y-85111904D02*
X145550000Y-85911904D01*
X145350000Y-85111904D01*
X144835714Y-85911904D02*
X145178571Y-85911904D01*
X145007142Y-85911904D02*
X145007142Y-85111904D01*
X145064285Y-85226190D01*
X145121428Y-85302380D01*
X145178571Y-85340476D01*
X126414285Y-103561904D02*
X126700000Y-103561904D01*
X126728571Y-103942857D01*
X126700000Y-103904761D01*
X126642857Y-103866666D01*
X126500000Y-103866666D01*
X126442857Y-103904761D01*
X126414285Y-103942857D01*
X126385714Y-104019047D01*
X126385714Y-104209523D01*
X126414285Y-104285714D01*
X126442857Y-104323809D01*
X126500000Y-104361904D01*
X126642857Y-104361904D01*
X126700000Y-104323809D01*
X126728571Y-104285714D01*
X126214285Y-103561904D02*
X126014285Y-104361904D01*
X125814285Y-103561904D01*
X144707142Y-90461904D02*
X144335714Y-90461904D01*
X144535714Y-90766666D01*
X144450000Y-90766666D01*
X144392857Y-90804761D01*
X144364285Y-90842857D01*
X144335714Y-90919047D01*
X144335714Y-91109523D01*
X144364285Y-91185714D01*
X144392857Y-91223809D01*
X144450000Y-91261904D01*
X144621428Y-91261904D01*
X144678571Y-91223809D01*
X144707142Y-91185714D01*
X144164285Y-90461904D02*
X143964285Y-91261904D01*
X143764285Y-90461904D01*
X148342857Y-68711904D02*
X147971428Y-68711904D01*
X148171428Y-69016666D01*
X148085714Y-69016666D01*
X148028571Y-69054761D01*
X148000000Y-69092857D01*
X147971428Y-69169047D01*
X147971428Y-69359523D01*
X148000000Y-69435714D01*
X148028571Y-69473809D01*
X148085714Y-69511904D01*
X148257142Y-69511904D01*
X148314285Y-69473809D01*
X148342857Y-69435714D01*
X147800000Y-68711904D02*
X147600000Y-69511904D01*
X147400000Y-68711904D01*
X147257142Y-68711904D02*
X146885714Y-68711904D01*
X147085714Y-69016666D01*
X147000000Y-69016666D01*
X146942857Y-69054761D01*
X146914285Y-69092857D01*
X146885714Y-69169047D01*
X146885714Y-69359523D01*
X146914285Y-69435714D01*
X146942857Y-69473809D01*
X147000000Y-69511904D01*
X147171428Y-69511904D01*
X147228571Y-69473809D01*
X147257142Y-69435714D01*
X144392976Y-73647142D02*
X144440595Y-73694761D01*
X144583452Y-73742380D01*
X144678690Y-73742380D01*
X144821547Y-73694761D01*
X144916785Y-73599523D01*
X144964404Y-73504285D01*
X145012023Y-73313809D01*
X145012023Y-73170952D01*
X144964404Y-72980476D01*
X144916785Y-72885238D01*
X144821547Y-72790000D01*
X144678690Y-72742380D01*
X144583452Y-72742380D01*
X144440595Y-72790000D01*
X144392976Y-72837619D01*
X143821547Y-73742380D02*
X143916785Y-73694761D01*
X143964404Y-73647142D01*
X144012023Y-73551904D01*
X144012023Y-73266190D01*
X143964404Y-73170952D01*
X143916785Y-73123333D01*
X143821547Y-73075714D01*
X143678690Y-73075714D01*
X143583452Y-73123333D01*
X143535833Y-73170952D01*
X143488214Y-73266190D01*
X143488214Y-73551904D01*
X143535833Y-73647142D01*
X143583452Y-73694761D01*
X143678690Y-73742380D01*
X143821547Y-73742380D01*
X143059642Y-73075714D02*
X143059642Y-74075714D01*
X143059642Y-73123333D02*
X142964404Y-73075714D01*
X142773928Y-73075714D01*
X142678690Y-73123333D01*
X142631071Y-73170952D01*
X142583452Y-73266190D01*
X142583452Y-73551904D01*
X142631071Y-73647142D01*
X142678690Y-73694761D01*
X142773928Y-73742380D01*
X142964404Y-73742380D01*
X143059642Y-73694761D01*
X142250119Y-73075714D02*
X142012023Y-73742380D01*
X141773928Y-73075714D02*
X142012023Y-73742380D01*
X142107261Y-73980476D01*
X142154880Y-74028095D01*
X142250119Y-74075714D01*
X141392976Y-73742380D02*
X141392976Y-73075714D01*
X141392976Y-73266190D02*
X141345357Y-73170952D01*
X141297738Y-73123333D01*
X141202500Y-73075714D01*
X141107261Y-73075714D01*
X140773928Y-73742380D02*
X140773928Y-73075714D01*
X140773928Y-72742380D02*
X140821547Y-72790000D01*
X140773928Y-72837619D01*
X140726309Y-72790000D01*
X140773928Y-72742380D01*
X140773928Y-72837619D01*
X139869166Y-73075714D02*
X139869166Y-73885238D01*
X139916785Y-73980476D01*
X139964404Y-74028095D01*
X140059642Y-74075714D01*
X140202500Y-74075714D01*
X140297738Y-74028095D01*
X139869166Y-73694761D02*
X139964404Y-73742380D01*
X140154880Y-73742380D01*
X140250119Y-73694761D01*
X140297738Y-73647142D01*
X140345357Y-73551904D01*
X140345357Y-73266190D01*
X140297738Y-73170952D01*
X140250119Y-73123333D01*
X140154880Y-73075714D01*
X139964404Y-73075714D01*
X139869166Y-73123333D01*
X139392976Y-73742380D02*
X139392976Y-72742380D01*
X138964404Y-73742380D02*
X138964404Y-73218571D01*
X139012023Y-73123333D01*
X139107261Y-73075714D01*
X139250119Y-73075714D01*
X139345357Y-73123333D01*
X139392976Y-73170952D01*
X138631071Y-73075714D02*
X138250119Y-73075714D01*
X138488214Y-72742380D02*
X138488214Y-73599523D01*
X138440595Y-73694761D01*
X138345357Y-73742380D01*
X138250119Y-73742380D01*
X136869166Y-74123333D02*
X136916785Y-74075714D01*
X137012023Y-73932857D01*
X137059642Y-73837619D01*
X137107261Y-73694761D01*
X137154880Y-73456666D01*
X137154880Y-73266190D01*
X137107261Y-73028095D01*
X137059642Y-72885238D01*
X137012023Y-72790000D01*
X136916785Y-72647142D01*
X136869166Y-72599523D01*
X135916785Y-73647142D02*
X135964404Y-73694761D01*
X136107261Y-73742380D01*
X136202500Y-73742380D01*
X136345357Y-73694761D01*
X136440595Y-73599523D01*
X136488214Y-73504285D01*
X136535833Y-73313809D01*
X136535833Y-73170952D01*
X136488214Y-72980476D01*
X136440595Y-72885238D01*
X136345357Y-72790000D01*
X136202500Y-72742380D01*
X136107261Y-72742380D01*
X135964404Y-72790000D01*
X135916785Y-72837619D01*
X135583452Y-74123333D02*
X135535833Y-74075714D01*
X135440595Y-73932857D01*
X135392976Y-73837619D01*
X135345357Y-73694761D01*
X135297738Y-73456666D01*
X135297738Y-73266190D01*
X135345357Y-73028095D01*
X135392976Y-72885238D01*
X135440595Y-72790000D01*
X135535833Y-72647142D01*
X135583452Y-72599523D01*
X134107261Y-72837619D02*
X134059642Y-72790000D01*
X133964404Y-72742380D01*
X133726309Y-72742380D01*
X133631071Y-72790000D01*
X133583452Y-72837619D01*
X133535833Y-72932857D01*
X133535833Y-73028095D01*
X133583452Y-73170952D01*
X134154880Y-73742380D01*
X133535833Y-73742380D01*
X132916785Y-72742380D02*
X132821547Y-72742380D01*
X132726309Y-72790000D01*
X132678690Y-72837619D01*
X132631071Y-72932857D01*
X132583452Y-73123333D01*
X132583452Y-73361428D01*
X132631071Y-73551904D01*
X132678690Y-73647142D01*
X132726309Y-73694761D01*
X132821547Y-73742380D01*
X132916785Y-73742380D01*
X133012023Y-73694761D01*
X133059642Y-73647142D01*
X133107261Y-73551904D01*
X133154880Y-73361428D01*
X133154880Y-73123333D01*
X133107261Y-72932857D01*
X133059642Y-72837619D01*
X133012023Y-72790000D01*
X132916785Y-72742380D01*
X132202500Y-72837619D02*
X132154880Y-72790000D01*
X132059642Y-72742380D01*
X131821547Y-72742380D01*
X131726309Y-72790000D01*
X131678690Y-72837619D01*
X131631071Y-72932857D01*
X131631071Y-73028095D01*
X131678690Y-73170952D01*
X132250119Y-73742380D01*
X131631071Y-73742380D01*
X130678690Y-73742380D02*
X131250119Y-73742380D01*
X130964404Y-73742380D02*
X130964404Y-72742380D01*
X131059642Y-72885238D01*
X131154880Y-72980476D01*
X131250119Y-73028095D01*
X129488214Y-73742380D02*
X129488214Y-72742380D01*
X129059642Y-73456666D02*
X128583452Y-73456666D01*
X129154880Y-73742380D02*
X128821547Y-72742380D01*
X128488214Y-73742380D01*
X128154880Y-73742380D02*
X128154880Y-72742380D01*
X127821547Y-73456666D01*
X127488214Y-72742380D01*
X127488214Y-73742380D01*
X126535833Y-73742380D02*
X127012023Y-73742380D01*
X127012023Y-72742380D01*
X126202500Y-73742380D02*
X126202500Y-72742380D01*
X125726309Y-72742380D02*
X125726309Y-73551904D01*
X125678690Y-73647142D01*
X125631071Y-73694761D01*
X125535833Y-73742380D01*
X125345357Y-73742380D01*
X125250119Y-73694761D01*
X125202500Y-73647142D01*
X125154880Y-73551904D01*
X125154880Y-72742380D01*
X124345357Y-73218571D02*
X124202500Y-73266190D01*
X124154880Y-73313809D01*
X124107261Y-73409047D01*
X124107261Y-73551904D01*
X124154880Y-73647142D01*
X124202500Y-73694761D01*
X124297738Y-73742380D01*
X124678690Y-73742380D01*
X124678690Y-72742380D01*
X124345357Y-72742380D01*
X124250119Y-72790000D01*
X124202500Y-72837619D01*
X124154880Y-72932857D01*
X124154880Y-73028095D01*
X124202500Y-73123333D01*
X124250119Y-73170952D01*
X124345357Y-73218571D01*
X124678690Y-73218571D01*
X123488214Y-72742380D02*
X123297738Y-72742380D01*
X123202500Y-72790000D01*
X123107261Y-72885238D01*
X123059642Y-73075714D01*
X123059642Y-73409047D01*
X123107261Y-73599523D01*
X123202500Y-73694761D01*
X123297738Y-73742380D01*
X123488214Y-73742380D01*
X123583452Y-73694761D01*
X123678690Y-73599523D01*
X123726309Y-73409047D01*
X123726309Y-73075714D01*
X123678690Y-72885238D01*
X123583452Y-72790000D01*
X123488214Y-72742380D01*
X144964404Y-75352380D02*
X144964404Y-74352380D01*
X144631071Y-75066666D01*
X144297738Y-74352380D01*
X144297738Y-75352380D01*
X143345357Y-74352380D02*
X143821547Y-74352380D01*
X143869166Y-74828571D01*
X143821547Y-74780952D01*
X143726309Y-74733333D01*
X143488214Y-74733333D01*
X143392976Y-74780952D01*
X143345357Y-74828571D01*
X143297738Y-74923809D01*
X143297738Y-75161904D01*
X143345357Y-75257142D01*
X143392976Y-75304761D01*
X143488214Y-75352380D01*
X143726309Y-75352380D01*
X143821547Y-75304761D01*
X143869166Y-75257142D01*
X142869166Y-75352380D02*
X142869166Y-74352380D01*
X142488214Y-74352380D01*
X142392976Y-74400000D01*
X142345357Y-74447619D01*
X142297738Y-74542857D01*
X142297738Y-74685714D01*
X142345357Y-74780952D01*
X142392976Y-74828571D01*
X142488214Y-74876190D01*
X142869166Y-74876190D01*
X141869166Y-75352380D02*
X141869166Y-74685714D01*
X141869166Y-74352380D02*
X141916785Y-74400000D01*
X141869166Y-74447619D01*
X141821547Y-74400000D01*
X141869166Y-74352380D01*
X141869166Y-74447619D01*
X141392976Y-74971428D02*
X140631071Y-74971428D01*
X139821547Y-74828571D02*
X140154880Y-74828571D01*
X140154880Y-75352380D02*
X140154880Y-74352380D01*
X139678690Y-74352380D01*
X138773928Y-75352380D02*
X139345357Y-75352380D01*
X139059642Y-75352380D02*
X139059642Y-74352380D01*
X139154880Y-74495238D01*
X139250119Y-74590476D01*
X139345357Y-74638095D01*
X137773928Y-75257142D02*
X137821547Y-75304761D01*
X137964404Y-75352380D01*
X138059642Y-75352380D01*
X138202500Y-75304761D01*
X138297738Y-75209523D01*
X138345357Y-75114285D01*
X138392976Y-74923809D01*
X138392976Y-74780952D01*
X138345357Y-74590476D01*
X138297738Y-74495238D01*
X138202500Y-74400000D01*
X138059642Y-74352380D01*
X137964404Y-74352380D01*
X137821547Y-74400000D01*
X137773928Y-74447619D01*
X136821547Y-75352380D02*
X137392976Y-75352380D01*
X137107261Y-75352380D02*
X137107261Y-74352380D01*
X137202500Y-74495238D01*
X137297738Y-74590476D01*
X137392976Y-74638095D01*
X136202500Y-74352380D02*
X136107261Y-74352380D01*
X136012023Y-74400000D01*
X135964404Y-74447619D01*
X135916785Y-74542857D01*
X135869166Y-74733333D01*
X135869166Y-74971428D01*
X135916785Y-75161904D01*
X135964404Y-75257142D01*
X136012023Y-75304761D01*
X136107261Y-75352380D01*
X136202500Y-75352380D01*
X136297738Y-75304761D01*
X136345357Y-75257142D01*
X136392976Y-75161904D01*
X136440595Y-74971428D01*
X136440595Y-74733333D01*
X136392976Y-74542857D01*
X136345357Y-74447619D01*
X136297738Y-74400000D01*
X136202500Y-74352380D01*
X135250119Y-74352380D02*
X135154880Y-74352380D01*
X135059642Y-74400000D01*
X135012023Y-74447619D01*
X134964404Y-74542857D01*
X134916785Y-74733333D01*
X134916785Y-74971428D01*
X134964404Y-75161904D01*
X135012023Y-75257142D01*
X135059642Y-75304761D01*
X135154880Y-75352380D01*
X135250119Y-75352380D01*
X135345357Y-75304761D01*
X135392976Y-75257142D01*
X135440595Y-75161904D01*
X135488214Y-74971428D01*
X135488214Y-74733333D01*
X135440595Y-74542857D01*
X135392976Y-74447619D01*
X135345357Y-74400000D01*
X135250119Y-74352380D01*
X134535833Y-75304761D02*
X134440595Y-75352380D01*
X134250119Y-75352380D01*
X134154880Y-75304761D01*
X134107261Y-75209523D01*
X134107261Y-75161904D01*
X134154880Y-75066666D01*
X134250119Y-75019047D01*
X134392976Y-75019047D01*
X134488214Y-74971428D01*
X134535833Y-74876190D01*
X134535833Y-74828571D01*
X134488214Y-74733333D01*
X134392976Y-74685714D01*
X134250119Y-74685714D01*
X134154880Y-74733333D01*
X132964404Y-74304761D02*
X133821547Y-75590476D01*
X132678690Y-74447619D02*
X132631071Y-74400000D01*
X132535833Y-74352380D01*
X132297738Y-74352380D01*
X132202500Y-74400000D01*
X132154880Y-74447619D01*
X132107261Y-74542857D01*
X132107261Y-74638095D01*
X132154880Y-74780952D01*
X132726309Y-75352380D01*
X132107261Y-75352380D01*
X131488214Y-74352380D02*
X131392976Y-74352380D01*
X131297738Y-74400000D01*
X131250119Y-74447619D01*
X131202500Y-74542857D01*
X131154880Y-74733333D01*
X131154880Y-74971428D01*
X131202500Y-75161904D01*
X131250119Y-75257142D01*
X131297738Y-75304761D01*
X131392976Y-75352380D01*
X131488214Y-75352380D01*
X131583452Y-75304761D01*
X131631071Y-75257142D01*
X131678690Y-75161904D01*
X131726309Y-74971428D01*
X131726309Y-74733333D01*
X131678690Y-74542857D01*
X131631071Y-74447619D01*
X131583452Y-74400000D01*
X131488214Y-74352380D01*
X130535833Y-74352380D02*
X130440595Y-74352380D01*
X130345357Y-74400000D01*
X130297738Y-74447619D01*
X130250119Y-74542857D01*
X130202500Y-74733333D01*
X130202500Y-74971428D01*
X130250119Y-75161904D01*
X130297738Y-75257142D01*
X130345357Y-75304761D01*
X130440595Y-75352380D01*
X130535833Y-75352380D01*
X130631071Y-75304761D01*
X130678690Y-75257142D01*
X130726309Y-75161904D01*
X130773928Y-74971428D01*
X130773928Y-74733333D01*
X130726309Y-74542857D01*
X130678690Y-74447619D01*
X130631071Y-74400000D01*
X130535833Y-74352380D01*
X129821547Y-75304761D02*
X129726309Y-75352380D01*
X129535833Y-75352380D01*
X129440595Y-75304761D01*
X129392976Y-75209523D01*
X129392976Y-75161904D01*
X129440595Y-75066666D01*
X129535833Y-75019047D01*
X129678690Y-75019047D01*
X129773928Y-74971428D01*
X129821547Y-74876190D01*
X129821547Y-74828571D01*
X129773928Y-74733333D01*
X129678690Y-74685714D01*
X129535833Y-74685714D01*
X129440595Y-74733333D01*
X144964404Y-76962380D02*
X144964404Y-75962380D01*
X144535833Y-76962380D02*
X144535833Y-76438571D01*
X144583452Y-76343333D01*
X144678690Y-76295714D01*
X144821547Y-76295714D01*
X144916785Y-76343333D01*
X144964404Y-76390952D01*
X144202500Y-76295714D02*
X143821547Y-76295714D01*
X144059642Y-75962380D02*
X144059642Y-76819523D01*
X144012023Y-76914761D01*
X143916785Y-76962380D01*
X143821547Y-76962380D01*
X143631071Y-76295714D02*
X143250119Y-76295714D01*
X143488214Y-75962380D02*
X143488214Y-76819523D01*
X143440595Y-76914761D01*
X143345357Y-76962380D01*
X143250119Y-76962380D01*
X142916785Y-76295714D02*
X142916785Y-77295714D01*
X142916785Y-76343333D02*
X142821547Y-76295714D01*
X142631071Y-76295714D01*
X142535833Y-76343333D01*
X142488214Y-76390952D01*
X142440595Y-76486190D01*
X142440595Y-76771904D01*
X142488214Y-76867142D01*
X142535833Y-76914761D01*
X142631071Y-76962380D01*
X142821547Y-76962380D01*
X142916785Y-76914761D01*
X142059642Y-76914761D02*
X141964404Y-76962380D01*
X141773928Y-76962380D01*
X141678690Y-76914761D01*
X141631071Y-76819523D01*
X141631071Y-76771904D01*
X141678690Y-76676666D01*
X141773928Y-76629047D01*
X141916785Y-76629047D01*
X142012023Y-76581428D01*
X142059642Y-76486190D01*
X142059642Y-76438571D01*
X142012023Y-76343333D01*
X141916785Y-76295714D01*
X141773928Y-76295714D01*
X141678690Y-76343333D01*
X141202500Y-76867142D02*
X141154880Y-76914761D01*
X141202500Y-76962380D01*
X141250119Y-76914761D01*
X141202500Y-76867142D01*
X141202500Y-76962380D01*
X141202500Y-76343333D02*
X141154880Y-76390952D01*
X141202500Y-76438571D01*
X141250119Y-76390952D01*
X141202500Y-76343333D01*
X141202500Y-76438571D01*
X140012023Y-75914761D02*
X140869166Y-77200476D01*
X138964404Y-75914761D02*
X139821547Y-77200476D01*
X138202500Y-76295714D02*
X138202500Y-77105238D01*
X138250119Y-77200476D01*
X138297738Y-77248095D01*
X138392976Y-77295714D01*
X138535833Y-77295714D01*
X138631071Y-77248095D01*
X138202500Y-76914761D02*
X138297738Y-76962380D01*
X138488214Y-76962380D01*
X138583452Y-76914761D01*
X138631071Y-76867142D01*
X138678690Y-76771904D01*
X138678690Y-76486190D01*
X138631071Y-76390952D01*
X138583452Y-76343333D01*
X138488214Y-76295714D01*
X138297738Y-76295714D01*
X138202500Y-76343333D01*
X137726309Y-76962380D02*
X137726309Y-76295714D01*
X137726309Y-75962380D02*
X137773928Y-76010000D01*
X137726309Y-76057619D01*
X137678690Y-76010000D01*
X137726309Y-75962380D01*
X137726309Y-76057619D01*
X137392976Y-76295714D02*
X137012023Y-76295714D01*
X137250119Y-75962380D02*
X137250119Y-76819523D01*
X137202500Y-76914761D01*
X137107261Y-76962380D01*
X137012023Y-76962380D01*
X136678690Y-76962380D02*
X136678690Y-75962380D01*
X136250119Y-76962380D02*
X136250119Y-76438571D01*
X136297738Y-76343333D01*
X136392976Y-76295714D01*
X136535833Y-76295714D01*
X136631071Y-76343333D01*
X136678690Y-76390952D01*
X135345357Y-76295714D02*
X135345357Y-76962380D01*
X135773928Y-76295714D02*
X135773928Y-76819523D01*
X135726309Y-76914761D01*
X135631071Y-76962380D01*
X135488214Y-76962380D01*
X135392976Y-76914761D01*
X135345357Y-76867142D01*
X134869166Y-76962380D02*
X134869166Y-75962380D01*
X134869166Y-76343333D02*
X134773928Y-76295714D01*
X134583452Y-76295714D01*
X134488214Y-76343333D01*
X134440595Y-76390952D01*
X134392976Y-76486190D01*
X134392976Y-76771904D01*
X134440595Y-76867142D01*
X134488214Y-76914761D01*
X134583452Y-76962380D01*
X134773928Y-76962380D01*
X134869166Y-76914761D01*
X133964404Y-76867142D02*
X133916785Y-76914761D01*
X133964404Y-76962380D01*
X134012023Y-76914761D01*
X133964404Y-76867142D01*
X133964404Y-76962380D01*
X133059642Y-76914761D02*
X133154880Y-76962380D01*
X133345357Y-76962380D01*
X133440595Y-76914761D01*
X133488214Y-76867142D01*
X133535833Y-76771904D01*
X133535833Y-76486190D01*
X133488214Y-76390952D01*
X133440595Y-76343333D01*
X133345357Y-76295714D01*
X133154880Y-76295714D01*
X133059642Y-76343333D01*
X132488214Y-76962380D02*
X132583452Y-76914761D01*
X132631071Y-76867142D01*
X132678690Y-76771904D01*
X132678690Y-76486190D01*
X132631071Y-76390952D01*
X132583452Y-76343333D01*
X132488214Y-76295714D01*
X132345357Y-76295714D01*
X132250119Y-76343333D01*
X132202500Y-76390952D01*
X132154880Y-76486190D01*
X132154880Y-76771904D01*
X132202500Y-76867142D01*
X132250119Y-76914761D01*
X132345357Y-76962380D01*
X132488214Y-76962380D01*
X131726309Y-76962380D02*
X131726309Y-76295714D01*
X131726309Y-76390952D02*
X131678690Y-76343333D01*
X131583452Y-76295714D01*
X131440595Y-76295714D01*
X131345357Y-76343333D01*
X131297738Y-76438571D01*
X131297738Y-76962380D01*
X131297738Y-76438571D02*
X131250119Y-76343333D01*
X131154880Y-76295714D01*
X131012023Y-76295714D01*
X130916785Y-76343333D01*
X130869166Y-76438571D01*
X130869166Y-76962380D01*
X129678690Y-75914761D02*
X130535833Y-77200476D01*
X129345357Y-76962380D02*
X129345357Y-76295714D01*
X129345357Y-75962380D02*
X129392976Y-76010000D01*
X129345357Y-76057619D01*
X129297738Y-76010000D01*
X129345357Y-75962380D01*
X129345357Y-76057619D01*
X128869166Y-76962380D02*
X128869166Y-76295714D01*
X128869166Y-76390952D02*
X128821547Y-76343333D01*
X128726309Y-76295714D01*
X128583452Y-76295714D01*
X128488214Y-76343333D01*
X128440595Y-76438571D01*
X128440595Y-76962380D01*
X128440595Y-76438571D02*
X128392976Y-76343333D01*
X128297738Y-76295714D01*
X128154880Y-76295714D01*
X128059642Y-76343333D01*
X128012023Y-76438571D01*
X128012023Y-76962380D01*
X127392976Y-76962380D02*
X127488214Y-76914761D01*
X127535833Y-76819523D01*
X127535833Y-75962380D01*
X127012023Y-76962380D02*
X127012023Y-76295714D01*
X127012023Y-75962380D02*
X127059642Y-76010000D01*
X127012023Y-76057619D01*
X126964404Y-76010000D01*
X127012023Y-75962380D01*
X127012023Y-76057619D01*
X126107261Y-76295714D02*
X126107261Y-76962380D01*
X126535833Y-76295714D02*
X126535833Y-76819523D01*
X126488214Y-76914761D01*
X126392976Y-76962380D01*
X126250119Y-76962380D01*
X126154880Y-76914761D01*
X126107261Y-76867142D01*
X125631071Y-76962380D02*
X125631071Y-75962380D01*
X125631071Y-76343333D02*
X125535833Y-76295714D01*
X125345357Y-76295714D01*
X125250119Y-76343333D01*
X125202500Y-76390952D01*
X125154880Y-76486190D01*
X125154880Y-76771904D01*
X125202500Y-76867142D01*
X125250119Y-76914761D01*
X125345357Y-76962380D01*
X125535833Y-76962380D01*
X125631071Y-76914761D01*
X124583452Y-76962380D02*
X124678690Y-76914761D01*
X124726309Y-76867142D01*
X124773928Y-76771904D01*
X124773928Y-76486190D01*
X124726309Y-76390952D01*
X124678690Y-76343333D01*
X124583452Y-76295714D01*
X124440595Y-76295714D01*
X124345357Y-76343333D01*
X124297738Y-76390952D01*
X124250119Y-76486190D01*
X124250119Y-76771904D01*
X124297738Y-76867142D01*
X124345357Y-76914761D01*
X124440595Y-76962380D01*
X124583452Y-76962380D01*
X148914285Y-76538095D02*
X148885714Y-76500000D01*
X148828571Y-76461904D01*
X148685714Y-76461904D01*
X148628571Y-76500000D01*
X148600000Y-76538095D01*
X148571428Y-76614285D01*
X148571428Y-76690476D01*
X148600000Y-76804761D01*
X148942857Y-77261904D01*
X148571428Y-77261904D01*
X148400000Y-76461904D02*
X148200000Y-77261904D01*
X148000000Y-76461904D01*
X147514285Y-76461904D02*
X147800000Y-76461904D01*
X147828571Y-76842857D01*
X147800000Y-76804761D01*
X147742857Y-76766666D01*
X147600000Y-76766666D01*
X147542857Y-76804761D01*
X147514285Y-76842857D01*
X147485714Y-76919047D01*
X147485714Y-77109523D01*
X147514285Y-77185714D01*
X147542857Y-77223809D01*
X147600000Y-77261904D01*
X147742857Y-77261904D01*
X147800000Y-77223809D01*
X147828571Y-77185714D01*
D11*
%TO.C,R41*%
X134673353Y-106656443D02*
X134673353Y-106991685D01*
X135433353Y-106656443D02*
X135433353Y-106991685D01*
%TO.C,C54*%
X122147518Y-104741564D02*
X122379188Y-104741564D01*
X122147518Y-105461564D02*
X122379188Y-105461564D01*
%TO.C,R20*%
X136473353Y-106991685D02*
X136473353Y-106656443D01*
X135713353Y-106991685D02*
X135713353Y-106656443D01*
%TO.C,J5*%
X135843353Y-91551564D02*
X136043353Y-91151564D01*
X136243353Y-91551564D02*
X135843353Y-91551564D01*
X139008353Y-89011564D02*
X139118353Y-89011564D01*
X129468353Y-89011564D02*
X129468353Y-88411564D01*
X129578353Y-89011564D02*
X129468353Y-89011564D01*
X139118353Y-89011564D02*
X139118353Y-88411564D01*
X136043353Y-91151564D02*
X136243353Y-91551564D01*
%TO.C,R39*%
X133633353Y-106636443D02*
X133633353Y-106971685D01*
X134393353Y-106636443D02*
X134393353Y-106971685D01*
%TO.C,J4*%
X132413353Y-101239064D02*
X132613353Y-101639064D01*
X139988353Y-99049064D02*
X139988353Y-98449064D01*
X129448353Y-99049064D02*
X129338353Y-99049064D01*
X129338353Y-99049064D02*
X129338353Y-98449064D01*
X132613353Y-101639064D02*
X132213353Y-101639064D01*
X132213353Y-101639064D02*
X132413353Y-101239064D01*
X139878353Y-99049064D02*
X139988353Y-99049064D01*
%TO.C,C29*%
X136783353Y-106939899D02*
X136783353Y-106708229D01*
X137503353Y-106939899D02*
X137503353Y-106708229D01*
%TO.C,C55*%
X122147518Y-107461564D02*
X122379188Y-107461564D01*
X122147518Y-106741564D02*
X122379188Y-106741564D01*
%TO.C,R33*%
X131563353Y-106636443D02*
X131563353Y-106971685D01*
X132323353Y-106636443D02*
X132323353Y-106971685D01*
%TO.C,C30*%
X128453353Y-92810729D02*
X128453353Y-93042399D01*
X127733353Y-92810729D02*
X127733353Y-93042399D01*
%TO.C,F1*%
X155965417Y-88791564D02*
X154761289Y-88791564D01*
X155965417Y-90611564D02*
X154761289Y-90611564D01*
%TO.C,C52*%
X122147518Y-106461564D02*
X122379188Y-106461564D01*
X122147518Y-105741564D02*
X122379188Y-105741564D01*
%TO.C,R40*%
X132583353Y-106636443D02*
X132583353Y-106971685D01*
X133343353Y-106636443D02*
X133343353Y-106971685D01*
%TD*%
M02*
