%TF.GenerationSoftware,KiCad,Pcbnew,5.99.0-unknown-b10f156dd0~130~ubuntu20.04.1*%
%TF.CreationDate,2021-06-23T21:39:51+08:00*%
%TF.ProjectId,M5Pi,4d355069-2e6b-4696-9361-645f70636258,3.0*%
%TF.SameCoordinates,Original*%
%TF.FileFunction,Profile,NP*%
%FSLAX46Y46*%
G04 Gerber Fmt 4.6, Leading zero omitted, Abs format (unit mm)*
G04 Created by KiCad (PCBNEW 5.99.0-unknown-b10f156dd0~130~ubuntu20.04.1) date 2021-06-23 21:39:51*
%MOMM*%
%LPD*%
G01*
G04 APERTURE LIST*
%TA.AperFunction,Profile*%
%ADD10C,0.200000*%
%TD*%
%TA.AperFunction,Profile*%
%ADD11C,0.100000*%
%TD*%
%TA.AperFunction,Profile*%
%ADD12C,0.120000*%
%TD*%
G04 APERTURE END LIST*
D10*
X158518229Y-77322267D02*
X158608229Y-77322267D01*
X119928230Y-67202268D02*
X123128230Y-67202268D01*
X159028231Y-81702268D02*
X159628230Y-81702268D01*
X159028231Y-77742269D02*
X159028231Y-81702268D01*
X113038147Y-70352176D02*
X113038148Y-101792350D01*
X159028231Y-75542269D02*
G75*
G02*
X158488230Y-76082269I-539449J-551D01*
G01*
X159628230Y-108702366D02*
X159628230Y-109702268D01*
X116928230Y-113902268D02*
X116128230Y-114702268D01*
X157898230Y-76672269D02*
G75*
G02*
X158488230Y-76082269I590661J-661D01*
G01*
D11*
X117728329Y-111682176D02*
G75*
G03*
X117728329Y-111682176I-1104669J0D01*
G01*
D10*
X119928230Y-65702268D02*
X119928230Y-67202268D01*
X159628230Y-71702268D02*
X159028231Y-71702268D01*
X122008229Y-113482268D02*
G75*
G02*
X121588230Y-113902268I-419948J-52D01*
G01*
X158518229Y-77322267D02*
G75*
G02*
X157898230Y-76702268I1389J621388D01*
G01*
X158628230Y-113702268D02*
X157628230Y-114702268D01*
D11*
X153728148Y-111682176D02*
G75*
G03*
X153728148Y-111682176I-1104669J0D01*
G01*
D10*
X122658229Y-112772268D02*
G75*
G02*
X123248230Y-113362268I-660J-590661D01*
G01*
X123788229Y-113902268D02*
G75*
G02*
X123248230Y-113362268I-553J539446D01*
G01*
X125938230Y-113902268D02*
X123788230Y-113902268D01*
X138178731Y-114702268D02*
X138178731Y-114702268D01*
X157628230Y-114702268D02*
X126738229Y-114702268D01*
X121588230Y-113902268D02*
X116928230Y-113902268D01*
X122008230Y-113392268D02*
X122008230Y-113482268D01*
X153229231Y-64702268D02*
X153428229Y-64902269D01*
X156628229Y-113302268D02*
G75*
G02*
X156628233Y-110102268I2J1600000D01*
G01*
X156628230Y-70902269D02*
X159628230Y-70902269D01*
X159628230Y-70902269D02*
X159628230Y-71702268D01*
X117828230Y-65702268D02*
X119928230Y-65702268D01*
X116128230Y-114702268D02*
X113628230Y-114702268D01*
X156628230Y-113302268D02*
X158228228Y-113302268D01*
X158608229Y-77322267D02*
G75*
G02*
X159028231Y-77742269I50J-419952D01*
G01*
X159628230Y-81702268D02*
X159628230Y-98702366D01*
X117828230Y-67702268D02*
G75*
G02*
X116422718Y-70352176I-3199119J-882D01*
G01*
X159028231Y-71702268D02*
X159028231Y-75542268D01*
X113628230Y-114702268D02*
X112628230Y-113702268D01*
X113118230Y-110232268D02*
G75*
G02*
X112628230Y-113252268I-489791J-1470282D01*
G01*
X112128230Y-102702268D02*
X113038148Y-101792350D01*
X125777884Y-113902268D02*
X125777884Y-113902268D01*
X153428229Y-64902269D02*
X153428229Y-67702268D01*
X158228228Y-113302268D02*
X158628230Y-113702268D01*
X126738229Y-114702268D02*
X125938230Y-113902268D01*
X123128230Y-67202268D02*
X123128230Y-64702268D01*
X156628230Y-70902269D02*
G75*
G02*
X153428229Y-67702268I2533J3202534D01*
G01*
X159628230Y-109702268D02*
X159228228Y-110102268D01*
X116422718Y-70352176D02*
X113038147Y-70352176D01*
X159628230Y-98702366D02*
X159628230Y-108702366D01*
X117828230Y-67702268D02*
X117828230Y-65702268D01*
X112128230Y-102702268D02*
X112128230Y-102702268D01*
X157898230Y-76672269D02*
X157898230Y-76702268D01*
X159228228Y-110102268D02*
X156628233Y-110102268D01*
X112628230Y-113702268D02*
X112628230Y-113252268D01*
X122008230Y-113392268D02*
G75*
G02*
X122628230Y-112772268I621391J-1391D01*
G01*
X112128230Y-109241268D02*
X112128230Y-102702268D01*
X159628230Y-98702366D02*
X159628230Y-98702366D01*
X113118230Y-110232268D02*
X112128230Y-109241268D01*
X123128230Y-64702268D02*
X153229231Y-64702268D01*
X122658229Y-112772268D02*
X122628230Y-112772268D01*
D12*
%TO.C,J1*%
X138213353Y-111771564D02*
G75*
G03*
X138213353Y-111771564I-600000J0D01*
G01*
X146213353Y-111771564D02*
G75*
G03*
X146213353Y-111771564I-600000J0D01*
G01*
%TD*%
M02*
