%TF.GenerationSoftware,KiCad,Pcbnew,5.99.0-unknown-5f1e9bc8a7~129~ubuntu20.04.1*%
%TF.CreationDate,2021-06-14T18:11:25+08:00*%
%TF.ProjectId,M5Pi-TYPE-C,4d355069-2d54-4595-9045-2d432e6b6963,rev?*%
%TF.SameCoordinates,Original*%
%TF.FileFunction,Soldermask,Top*%
%TF.FilePolarity,Negative*%
%FSLAX46Y46*%
G04 Gerber Fmt 4.6, Leading zero omitted, Abs format (unit mm)*
G04 Created by KiCad (PCBNEW 5.99.0-unknown-5f1e9bc8a7~129~ubuntu20.04.1) date 2021-06-14 18:11:25*
%MOMM*%
%LPD*%
G01*
G04 APERTURE LIST*
G04 Aperture macros list*
%AMRoundRect*
0 Rectangle with rounded corners*
0 $1 Rounding radius*
0 $2 $3 $4 $5 $6 $7 $8 $9 X,Y pos of 4 corners*
0 Add a 4 corners polygon primitive as box body*
4,1,4,$2,$3,$4,$5,$6,$7,$8,$9,$2,$3,0*
0 Add four circle primitives for the rounded corners*
1,1,$1+$1,$2,$3*
1,1,$1+$1,$4,$5*
1,1,$1+$1,$6,$7*
1,1,$1+$1,$8,$9*
0 Add four rect primitives between the rounded corners*
20,1,$1+$1,$2,$3,$4,$5,0*
20,1,$1+$1,$4,$5,$6,$7,0*
20,1,$1+$1,$6,$7,$8,$9,0*
20,1,$1+$1,$8,$9,$2,$3,0*%
G04 Aperture macros list end*
%ADD10RoundRect,0.135000X0.135000X0.185000X-0.135000X0.185000X-0.135000X-0.185000X0.135000X-0.185000X0*%
%ADD11RoundRect,0.135000X-0.135000X-0.185000X0.135000X-0.185000X0.135000X0.185000X-0.135000X0.185000X0*%
%ADD12C,0.650000*%
%ADD13R,1.150000X0.300000*%
%ADD14O,1.600000X1.000000*%
%ADD15O,2.100000X1.000000*%
%ADD16R,1.200000X0.220000*%
%ADD17R,1.700000X0.400000*%
G04 APERTURE END LIST*
D10*
%TO.C,R4*%
X143510000Y-111000000D03*
X142490000Y-111000000D03*
%TD*%
D11*
%TO.C,R2*%
X149180000Y-113000000D03*
X150200000Y-113000000D03*
%TD*%
D12*
%TO.C,UART1*%
X143605000Y-99110000D03*
X143605000Y-104890000D03*
D13*
X144670000Y-98650000D03*
X144670000Y-99450000D03*
X144670000Y-100750000D03*
X144670000Y-101750000D03*
X144670000Y-102250000D03*
X144670000Y-103250000D03*
X144670000Y-104550000D03*
X144670000Y-105350000D03*
X144670000Y-105050000D03*
X144670000Y-104250000D03*
X144670000Y-103750000D03*
X144670000Y-102750000D03*
X144670000Y-101250000D03*
X144670000Y-100250000D03*
X144670000Y-99750000D03*
X144670000Y-98950000D03*
D14*
X139925000Y-97680000D03*
X139925000Y-106320000D03*
D15*
X144105000Y-106320000D03*
X144105000Y-97680000D03*
%TD*%
D10*
%TO.C,R8*%
X150200000Y-114000000D03*
X149180000Y-114000000D03*
%TD*%
%TO.C,R7*%
X142490000Y-114000000D03*
X143510000Y-114000000D03*
%TD*%
%TO.C,R6*%
X143510000Y-113000000D03*
X142490000Y-113000000D03*
%TD*%
%TO.C,R5*%
X150200000Y-110000000D03*
X149180000Y-110000000D03*
%TD*%
%TO.C,R3*%
X143510000Y-110000000D03*
X142490000Y-110000000D03*
%TD*%
D11*
%TO.C,R1*%
X149180000Y-111000000D03*
X150200000Y-111000000D03*
%TD*%
D12*
%TO.C,OTG1*%
X143605000Y-119110000D03*
X143605000Y-124890000D03*
D13*
X144670000Y-118650000D03*
X144670000Y-119450000D03*
X144670000Y-120750000D03*
X144670000Y-121750000D03*
X144670000Y-122250000D03*
X144670000Y-123250000D03*
X144670000Y-124550000D03*
X144670000Y-125350000D03*
X144670000Y-125050000D03*
X144670000Y-124250000D03*
X144670000Y-123750000D03*
X144670000Y-122750000D03*
X144670000Y-121250000D03*
X144670000Y-120250000D03*
X144670000Y-119750000D03*
X144670000Y-118950000D03*
D14*
X139925000Y-117680000D03*
X139925000Y-126320000D03*
D15*
X144105000Y-126320000D03*
X144105000Y-117680000D03*
%TD*%
D16*
%TO.C,M5Pi-USB1*%
X155600000Y-109250000D03*
X155600000Y-109750000D03*
X155600000Y-110250000D03*
X155600000Y-110750000D03*
X155600000Y-111250000D03*
X155600000Y-111750000D03*
X155600000Y-112250000D03*
X155600000Y-112750000D03*
X155600000Y-113250000D03*
X155600000Y-113750000D03*
X155600000Y-114250000D03*
X155600000Y-114750000D03*
D17*
X155350000Y-115325000D03*
X155350000Y-108675000D03*
%TD*%
M02*
