%TF.GenerationSoftware,KiCad,Pcbnew,5.99.0-unknown-5f1e9bc8a7~129~ubuntu20.04.1*%
%TF.CreationDate,2021-06-14T18:11:25+08:00*%
%TF.ProjectId,M5Pi-TYPE-C,4d355069-2d54-4595-9045-2d432e6b6963,rev?*%
%TF.SameCoordinates,Original*%
%TF.FileFunction,Legend,Top*%
%TF.FilePolarity,Positive*%
%FSLAX46Y46*%
G04 Gerber Fmt 4.6, Leading zero omitted, Abs format (unit mm)*
G04 Created by KiCad (PCBNEW 5.99.0-unknown-5f1e9bc8a7~129~ubuntu20.04.1) date 2021-06-14 18:11:25*
%MOMM*%
%LPD*%
G01*
G04 APERTURE LIST*
%ADD10C,0.200000*%
%ADD11C,0.150000*%
%ADD12C,0.500000*%
%ADD13C,0.120000*%
G04 APERTURE END LIST*
D10*
X145447619Y-109264285D02*
X145447619Y-109835714D01*
X144447619Y-109550000D02*
X145447619Y-109550000D01*
X144923809Y-110359523D02*
X144447619Y-110359523D01*
X145447619Y-110026190D02*
X144923809Y-110359523D01*
X145447619Y-110692857D01*
X144447619Y-111026190D02*
X145447619Y-111026190D01*
X145447619Y-111407142D01*
X145400000Y-111502380D01*
X145352380Y-111550000D01*
X145257142Y-111597619D01*
X145114285Y-111597619D01*
X145019047Y-111550000D01*
X144971428Y-111502380D01*
X144923809Y-111407142D01*
X144923809Y-111026190D01*
X144971428Y-112026190D02*
X144971428Y-112359523D01*
X144447619Y-112502380D02*
X144447619Y-112026190D01*
X145447619Y-112026190D01*
X145447619Y-112502380D01*
X144828571Y-112930952D02*
X144828571Y-113692857D01*
X144542857Y-114740476D02*
X144495238Y-114692857D01*
X144447619Y-114550000D01*
X144447619Y-114454761D01*
X144495238Y-114311904D01*
X144590476Y-114216666D01*
X144685714Y-114169047D01*
X144876190Y-114121428D01*
X145019047Y-114121428D01*
X145209523Y-114169047D01*
X145304761Y-114216666D01*
X145400000Y-114311904D01*
X145447619Y-114454761D01*
X145447619Y-114550000D01*
X145400000Y-114692857D01*
X145352380Y-114740476D01*
D11*
X146600000Y-119400000D02*
X147200000Y-118800000D01*
X146600000Y-118600000D02*
X146600000Y-119400000D01*
X147000000Y-118500000D02*
X146600000Y-119400000D01*
X146600000Y-104600000D02*
X147200000Y-105000000D01*
X146600000Y-104600000D02*
X146600000Y-105400000D01*
X147000000Y-105500000D02*
X146600000Y-104600000D01*
X147000000Y-110750000D02*
X147000000Y-105500000D01*
X147000000Y-113250000D02*
X147000000Y-118500000D01*
X147000000Y-113250000D02*
G75*
G02*
X148000000Y-112250000I1000000J0D01*
G01*
X147000000Y-110750000D02*
G75*
G03*
X148000000Y-111750000I1000000J0D01*
G01*
X151500000Y-112250000D02*
X148000000Y-112250000D01*
X151500000Y-111750000D02*
X148000000Y-111750000D01*
X154000000Y-112000000D02*
X152750000Y-112750000D01*
X154000000Y-112000000D02*
X152750000Y-111250000D01*
X151500000Y-112250000D02*
X153500000Y-112250000D01*
X151500000Y-111750000D02*
X153500000Y-111750000D01*
D12*
X138142857Y-108130952D02*
X141142857Y-108130952D01*
X139000000Y-108964285D01*
X141142857Y-109797619D01*
X138142857Y-109797619D01*
X141142857Y-112178571D02*
X141142857Y-110988095D01*
X139714285Y-110869047D01*
X139857142Y-110988095D01*
X140000000Y-111226190D01*
X140000000Y-111821428D01*
X139857142Y-112059523D01*
X139714285Y-112178571D01*
X139428571Y-112297619D01*
X138714285Y-112297619D01*
X138428571Y-112178571D01*
X138285714Y-112059523D01*
X138142857Y-111821428D01*
X138142857Y-111226190D01*
X138285714Y-110988095D01*
X138428571Y-110869047D01*
X138142857Y-113369047D02*
X141142857Y-113369047D01*
X141142857Y-114321428D01*
X141000000Y-114559523D01*
X140857142Y-114678571D01*
X140571428Y-114797619D01*
X140142857Y-114797619D01*
X139857142Y-114678571D01*
X139714285Y-114559523D01*
X139571428Y-114321428D01*
X139571428Y-113369047D01*
X138142857Y-115869047D02*
X140142857Y-115869047D01*
X141142857Y-115869047D02*
X141000000Y-115750000D01*
X140857142Y-115869047D01*
X141000000Y-115988095D01*
X141142857Y-115869047D01*
X140857142Y-115869047D01*
D11*
X146933333Y-99857142D02*
X146933333Y-100333333D01*
X146647619Y-99761904D02*
X147647619Y-100095238D01*
X146647619Y-100428571D01*
X147647619Y-101190476D02*
X147647619Y-101000000D01*
X147600000Y-100904761D01*
X147552380Y-100857142D01*
X147409523Y-100761904D01*
X147219047Y-100714285D01*
X146838095Y-100714285D01*
X146742857Y-100761904D01*
X146695238Y-100809523D01*
X146647619Y-100904761D01*
X146647619Y-101095238D01*
X146695238Y-101190476D01*
X146742857Y-101238095D01*
X146838095Y-101285714D01*
X147076190Y-101285714D01*
X147171428Y-101238095D01*
X147219047Y-101190476D01*
X147266666Y-101095238D01*
X147266666Y-100904761D01*
X147219047Y-100809523D01*
X147171428Y-100761904D01*
X147076190Y-100714285D01*
X147695238Y-102428571D02*
X146409523Y-101571428D01*
X146933333Y-102714285D02*
X146933333Y-103190476D01*
X146647619Y-102619047D02*
X147647619Y-102952380D01*
X146647619Y-103285714D01*
X147647619Y-103523809D02*
X147647619Y-104190476D01*
X146647619Y-103761904D01*
X147071428Y-120095238D02*
X147023809Y-120238095D01*
X146976190Y-120285714D01*
X146880952Y-120333333D01*
X146738095Y-120333333D01*
X146642857Y-120285714D01*
X146595238Y-120238095D01*
X146547619Y-120142857D01*
X146547619Y-119761904D01*
X147547619Y-119761904D01*
X147547619Y-120095238D01*
X147500000Y-120190476D01*
X147452380Y-120238095D01*
X147357142Y-120285714D01*
X147261904Y-120285714D01*
X147166666Y-120238095D01*
X147119047Y-120190476D01*
X147071428Y-120095238D01*
X147071428Y-119761904D01*
X147547619Y-121190476D02*
X147547619Y-121000000D01*
X147500000Y-120904761D01*
X147452380Y-120857142D01*
X147309523Y-120761904D01*
X147119047Y-120714285D01*
X146738095Y-120714285D01*
X146642857Y-120761904D01*
X146595238Y-120809523D01*
X146547619Y-120904761D01*
X146547619Y-121095238D01*
X146595238Y-121190476D01*
X146642857Y-121238095D01*
X146738095Y-121285714D01*
X146976190Y-121285714D01*
X147071428Y-121238095D01*
X147119047Y-121190476D01*
X147166666Y-121095238D01*
X147166666Y-120904761D01*
X147119047Y-120809523D01*
X147071428Y-120761904D01*
X146976190Y-120714285D01*
X147595238Y-122428571D02*
X146309523Y-121571428D01*
X147071428Y-123095238D02*
X147023809Y-123238095D01*
X146976190Y-123285714D01*
X146880952Y-123333333D01*
X146738095Y-123333333D01*
X146642857Y-123285714D01*
X146595238Y-123238095D01*
X146547619Y-123142857D01*
X146547619Y-122761904D01*
X147547619Y-122761904D01*
X147547619Y-123095238D01*
X147500000Y-123190476D01*
X147452380Y-123238095D01*
X147357142Y-123285714D01*
X147261904Y-123285714D01*
X147166666Y-123238095D01*
X147119047Y-123190476D01*
X147071428Y-123095238D01*
X147071428Y-122761904D01*
X147547619Y-123666666D02*
X147547619Y-124333333D01*
X146547619Y-123904761D01*
D13*
%TO.C,R4*%
X143153641Y-111380000D02*
X142846359Y-111380000D01*
X143153641Y-110620000D02*
X142846359Y-110620000D01*
%TO.C,R2*%
X149536359Y-112620000D02*
X149843641Y-112620000D01*
X149536359Y-113380000D02*
X149843641Y-113380000D01*
%TO.C,UART1*%
X142850000Y-97420000D02*
X140930000Y-97420000D01*
X137215000Y-97420000D02*
X138920000Y-97420000D01*
X137215000Y-106580000D02*
X137215000Y-97420000D01*
X140930000Y-106580000D02*
X142850000Y-106580000D01*
X138920000Y-106580000D02*
X137215000Y-106580000D01*
%TO.C,R8*%
X149843641Y-114380000D02*
X149536359Y-114380000D01*
X149843641Y-113620000D02*
X149536359Y-113620000D01*
%TO.C,R7*%
X143153641Y-113620000D02*
X142846359Y-113620000D01*
X143153641Y-114380000D02*
X142846359Y-114380000D01*
%TO.C,R6*%
X143153641Y-113380000D02*
X142846359Y-113380000D01*
X143153641Y-112620000D02*
X142846359Y-112620000D01*
%TO.C,R5*%
X149843641Y-110380000D02*
X149536359Y-110380000D01*
X149843641Y-109620000D02*
X149536359Y-109620000D01*
%TO.C,R3*%
X143153641Y-110380000D02*
X142846359Y-110380000D01*
X143153641Y-109620000D02*
X142846359Y-109620000D01*
%TO.C,R1*%
X149536359Y-110620000D02*
X149843641Y-110620000D01*
X149536359Y-111380000D02*
X149843641Y-111380000D01*
%TO.C,OTG1*%
X142850000Y-117420000D02*
X140930000Y-117420000D01*
X137215000Y-117420000D02*
X138920000Y-117420000D01*
X137215000Y-126580000D02*
X137215000Y-117420000D01*
X140930000Y-126580000D02*
X142850000Y-126580000D01*
X138920000Y-126580000D02*
X137215000Y-126580000D01*
%TO.C,M5Pi-USB1*%
X154300000Y-107700000D02*
X155600000Y-107700000D01*
X154300000Y-116300000D02*
X154300000Y-107700000D01*
X165700000Y-116300000D02*
X165700000Y-107700000D01*
X155600000Y-116300000D02*
X154300000Y-116300000D01*
X165700000Y-107700000D02*
X155600000Y-107700000D01*
X156350000Y-116300000D02*
X156350000Y-107700000D01*
X155600000Y-116300000D02*
X165700000Y-116300000D01*
%TD*%
M02*
