%TF.GenerationSoftware,KiCad,Pcbnew,5.99.0-unknown-5f1e9bc8a7~129~ubuntu20.04.1*%
%TF.CreationDate,2021-06-14T18:11:24+08:00*%
%TF.ProjectId,M5Pi-TYPE-C,4d355069-2d54-4595-9045-2d432e6b6963,rev?*%
%TF.SameCoordinates,Original*%
%TF.FileFunction,Copper,L2,Bot*%
%TF.FilePolarity,Positive*%
%FSLAX46Y46*%
G04 Gerber Fmt 4.6, Leading zero omitted, Abs format (unit mm)*
G04 Created by KiCad (PCBNEW 5.99.0-unknown-5f1e9bc8a7~129~ubuntu20.04.1) date 2021-06-14 18:11:24*
%MOMM*%
%LPD*%
G01*
G04 APERTURE LIST*
%TA.AperFunction,ComponentPad*%
%ADD10O,1.600000X1.000000*%
%TD*%
%TA.AperFunction,ComponentPad*%
%ADD11O,2.100000X1.000000*%
%TD*%
%TA.AperFunction,SMDPad,CuDef*%
%ADD12R,1.200000X0.220000*%
%TD*%
%TA.AperFunction,SMDPad,CuDef*%
%ADD13R,1.700000X0.400000*%
%TD*%
%TA.AperFunction,ViaPad*%
%ADD14C,0.500000*%
%TD*%
%TA.AperFunction,Conductor*%
%ADD15C,0.200000*%
%TD*%
%TA.AperFunction,Conductor*%
%ADD16C,0.250000*%
%TD*%
%TA.AperFunction,Conductor*%
%ADD17C,0.150000*%
%TD*%
G04 APERTURE END LIST*
D10*
%TO.P,UART1,S1,SHIELD*%
%TO.N,GND*%
X139925000Y-97680000D03*
X139925000Y-106320000D03*
D11*
X144105000Y-106320000D03*
X144105000Y-97680000D03*
%TD*%
D10*
%TO.P,OTG1,S1,SHIELD*%
%TO.N,GND*%
X139925000Y-117680000D03*
X139925000Y-126320000D03*
D11*
X144105000Y-126320000D03*
X144105000Y-117680000D03*
%TD*%
D12*
%TO.P,M5Pi-USB1,B1,GND*%
%TO.N,GND*%
X155600000Y-114750000D03*
%TO.P,M5Pi-USB1,B2,TX2+*%
%TO.N,N/C*%
X155600000Y-114250000D03*
%TO.P,M5Pi-USB1,B3,TX2-*%
X155600000Y-113750000D03*
%TO.P,M5Pi-USB1,B4,VBUS*%
%TO.N,/VBUS*%
X155600000Y-113250000D03*
%TO.P,M5Pi-USB1,B5,CC2*%
%TO.N,Net-(M5Pi-USB1-PadB5)*%
X155600000Y-112750000D03*
%TO.P,M5Pi-USB1,B6,D+*%
%TO.N,/OTG_USB_D+*%
X155600000Y-112250000D03*
%TO.P,M5Pi-USB1,B7,D-*%
%TO.N,/OTG_USB_D-*%
X155600000Y-111750000D03*
%TO.P,M5Pi-USB1,B8,SBU2*%
%TO.N,GND*%
X155600000Y-111250000D03*
%TO.P,M5Pi-USB1,B9,VBUS*%
%TO.N,/VBUS*%
X155600000Y-110750000D03*
%TO.P,M5Pi-USB1,B10,RX1-*%
%TO.N,N/C*%
X155600000Y-110250000D03*
%TO.P,M5Pi-USB1,B11,RX1+*%
X155600000Y-109750000D03*
%TO.P,M5Pi-USB1,B12,GND*%
%TO.N,GND*%
X155600000Y-109250000D03*
D13*
%TO.P,M5Pi-USB1,S1,SHIELD*%
X155350000Y-108675000D03*
X155350000Y-115325000D03*
%TD*%
D14*
%TO.N,GND*%
X151950000Y-110700000D03*
X151950000Y-113350000D03*
X142500000Y-99800000D03*
X142500000Y-103400000D03*
X146200000Y-125300000D03*
X143300000Y-120100000D03*
X142400000Y-123100000D03*
X153750000Y-114750000D03*
X153750000Y-109250000D03*
%TO.N,/UART_USB_D-*%
X145750000Y-111750000D03*
%TO.N,/UART_USB_D+*%
X146500000Y-111250000D03*
%TO.N,/VBUS*%
X153000000Y-110000000D03*
X153000000Y-114000000D03*
%TO.N,Net-(M5Pi-USB1-PadB5)*%
X151000000Y-113000000D03*
%TO.N,Net-(M5Pi-USB1-PadA5)*%
X151000000Y-111000000D03*
%TO.N,/UART_USB_D-*%
X143000000Y-101750000D03*
%TO.N,/UART_USB_D+*%
X146250000Y-102250000D03*
%TO.N,/OTG_USB_D+*%
X143250000Y-122250000D03*
%TO.N,/OTG_USB_D-*%
X146250000Y-121750000D03*
%TD*%
D15*
%TO.N,GND*%
X155600000Y-111250000D02*
X152500000Y-111250000D01*
X152500000Y-111250000D02*
X151950000Y-110700000D01*
D16*
%TO.N,/VBUS*%
X153000000Y-110000000D02*
X153750000Y-110750000D01*
X153750000Y-110750000D02*
X155600000Y-110750000D01*
X153000000Y-114000000D02*
X153750000Y-113250000D01*
X153750000Y-113250000D02*
X155600000Y-113250000D01*
D17*
%TO.N,Net-(M5Pi-USB1-PadB5)*%
X151000000Y-113000000D02*
X151250000Y-112750000D01*
X151250000Y-112750000D02*
X155600000Y-112750000D01*
D15*
%TO.N,GND*%
X155600000Y-114750000D02*
X153750000Y-114750000D01*
X155600000Y-109250000D02*
X153750000Y-109250000D01*
%TO.N,/UART_USB_D-*%
X145250000Y-102250000D02*
X143500000Y-102250000D01*
X145750000Y-111750000D02*
X145750000Y-102750000D01*
X145750000Y-102750000D02*
X145250000Y-102250000D01*
X143500000Y-102250000D02*
X143000000Y-101750000D01*
%TO.N,/UART_USB_D+*%
X146500000Y-111250000D02*
X146500000Y-102500000D01*
X146500000Y-102500000D02*
X146250000Y-102250000D01*
%TO.N,/OTG_USB_D+*%
X155600000Y-112250000D02*
X147750000Y-112250000D01*
X147750000Y-112250000D02*
X147000000Y-113000000D01*
X147000000Y-113000000D02*
X147000000Y-122250000D01*
X147000000Y-122250000D02*
X146500000Y-122750000D01*
X146500000Y-122750000D02*
X143750000Y-122750000D01*
X143750000Y-122750000D02*
X143250000Y-122250000D01*
%TO.N,/OTG_USB_D-*%
X155600000Y-111750000D02*
X147250000Y-111750000D01*
X147250000Y-111750000D02*
X146250000Y-112750000D01*
X146250000Y-112750000D02*
X146250000Y-121750000D01*
%TD*%
%TA.AperFunction,Conductor*%
%TO.N,GND*%
G36*
X139244529Y-96528002D02*
G01*
X139291022Y-96581658D01*
X139301126Y-96651932D01*
X139271632Y-96716512D01*
X139235561Y-96745252D01*
X139069849Y-96833362D01*
X139059640Y-96840144D01*
X138915981Y-96957310D01*
X138907277Y-96965954D01*
X138789114Y-97108788D01*
X138782254Y-97118959D01*
X138694082Y-97282031D01*
X138689332Y-97293330D01*
X138653620Y-97408693D01*
X138653414Y-97422795D01*
X138660170Y-97426000D01*
X141183052Y-97426000D01*
X141196583Y-97422027D01*
X141197703Y-97414232D01*
X141165979Y-97306443D01*
X141161380Y-97295059D01*
X141075496Y-97130778D01*
X141068782Y-97120517D01*
X140952620Y-96976041D01*
X140944042Y-96967281D01*
X140802030Y-96848119D01*
X140791916Y-96841193D01*
X140629463Y-96751885D01*
X140624627Y-96749812D01*
X140569894Y-96704592D01*
X140548297Y-96636960D01*
X140566693Y-96568388D01*
X140619241Y-96520648D01*
X140674262Y-96508000D01*
X143106408Y-96508000D01*
X143174529Y-96528002D01*
X143221022Y-96581658D01*
X143231126Y-96651932D01*
X143201632Y-96716512D01*
X143165561Y-96745252D01*
X142999849Y-96833362D01*
X142989640Y-96840144D01*
X142845981Y-96957310D01*
X142837277Y-96965954D01*
X142719114Y-97108788D01*
X142712254Y-97118959D01*
X142624082Y-97282031D01*
X142619332Y-97293330D01*
X142583620Y-97408693D01*
X142583414Y-97422795D01*
X142590170Y-97426000D01*
X145613052Y-97426000D01*
X145626583Y-97422027D01*
X145627703Y-97414232D01*
X145595979Y-97306443D01*
X145591380Y-97295059D01*
X145505496Y-97130778D01*
X145498782Y-97120517D01*
X145382620Y-96976041D01*
X145374042Y-96967281D01*
X145232030Y-96848119D01*
X145221916Y-96841193D01*
X145059463Y-96751885D01*
X145054627Y-96749812D01*
X144999894Y-96704592D01*
X144978297Y-96636960D01*
X144996693Y-96568388D01*
X145049241Y-96520648D01*
X145104262Y-96508000D01*
X146417379Y-96508000D01*
X146439027Y-96509874D01*
X146447679Y-96511383D01*
X146447680Y-96511383D01*
X146452473Y-96512219D01*
X146457332Y-96512308D01*
X146457337Y-96512308D01*
X146567689Y-96514318D01*
X146574380Y-96514618D01*
X146590883Y-96515798D01*
X146619546Y-96517848D01*
X146628453Y-96518806D01*
X146794048Y-96542615D01*
X146802876Y-96544208D01*
X146829239Y-96549942D01*
X146837945Y-96552165D01*
X146998462Y-96599297D01*
X147006996Y-96602137D01*
X147032236Y-96611551D01*
X147040547Y-96614994D01*
X147192736Y-96684497D01*
X147200778Y-96688522D01*
X147224425Y-96701434D01*
X147232160Y-96706024D01*
X147372883Y-96796460D01*
X147380270Y-96801588D01*
X147401864Y-96817753D01*
X147408867Y-96823397D01*
X147535292Y-96932945D01*
X147541874Y-96939074D01*
X147560927Y-96958127D01*
X147567057Y-96964710D01*
X147676607Y-97091139D01*
X147682246Y-97098137D01*
X147698406Y-97119722D01*
X147703533Y-97127106D01*
X147793981Y-97267847D01*
X147798567Y-97275576D01*
X147809206Y-97295059D01*
X147811478Y-97299220D01*
X147815500Y-97307255D01*
X147885004Y-97459446D01*
X147888442Y-97467745D01*
X147897869Y-97493022D01*
X147900708Y-97501553D01*
X147947832Y-97662044D01*
X147950055Y-97670753D01*
X147955787Y-97697097D01*
X147957383Y-97705942D01*
X147966556Y-97769739D01*
X147981193Y-97871550D01*
X147982154Y-97880490D01*
X147985382Y-97925616D01*
X147985682Y-97932311D01*
X147985960Y-97947548D01*
X147987721Y-98044250D01*
X147988437Y-98048671D01*
X147988437Y-98048676D01*
X147990381Y-98060685D01*
X147992000Y-98080816D01*
X147992000Y-104421589D01*
X147990819Y-104438797D01*
X147986411Y-104470771D01*
X147986496Y-104475640D01*
X147989806Y-104665180D01*
X147989790Y-104670347D01*
X147989262Y-104692767D01*
X147989899Y-104697602D01*
X147989912Y-104697853D01*
X147990394Y-104702231D01*
X147990468Y-104703063D01*
X147990546Y-104707535D01*
X147991257Y-104711951D01*
X147991258Y-104711958D01*
X147993871Y-104728176D01*
X147994397Y-104731769D01*
X148037270Y-105057426D01*
X148037623Y-105060371D01*
X148040180Y-105084098D01*
X148041363Y-105088514D01*
X148041531Y-105089788D01*
X148045319Y-105103310D01*
X148045695Y-105104683D01*
X148135387Y-105439419D01*
X148136120Y-105442290D01*
X148140594Y-105460709D01*
X148141742Y-105465435D01*
X148143489Y-105469653D01*
X148143823Y-105470899D01*
X148144231Y-105471853D01*
X148149362Y-105483855D01*
X148149914Y-105485166D01*
X148282506Y-105805270D01*
X148283608Y-105808023D01*
X148290449Y-105825705D01*
X148290453Y-105825714D01*
X148292209Y-105830252D01*
X148294494Y-105834210D01*
X148294987Y-105835400D01*
X148295515Y-105836292D01*
X148295517Y-105836295D01*
X148302180Y-105847538D01*
X148302903Y-105848774D01*
X148476114Y-106148786D01*
X148477567Y-106151372D01*
X148478618Y-106153295D01*
X148489008Y-106172311D01*
X148491789Y-106175935D01*
X148492432Y-106177049D01*
X148493071Y-106177863D01*
X148493074Y-106177867D01*
X148501169Y-106188172D01*
X148502024Y-106189274D01*
X148712965Y-106464177D01*
X148714675Y-106466460D01*
X148728770Y-106485754D01*
X148732000Y-106488984D01*
X148732785Y-106490007D01*
X148733532Y-106490737D01*
X148733536Y-106490742D01*
X148742944Y-106499938D01*
X148743960Y-106500944D01*
X148988886Y-106745870D01*
X148990960Y-106747993D01*
X149007393Y-106765219D01*
X149011012Y-106767996D01*
X149011928Y-106768912D01*
X149012770Y-106769543D01*
X149023291Y-106777429D01*
X149024368Y-106778245D01*
X149299315Y-106989220D01*
X149301522Y-106990955D01*
X149320112Y-107005929D01*
X149324061Y-107008209D01*
X149325088Y-107008997D01*
X149336309Y-107015307D01*
X149337470Y-107015960D01*
X149338710Y-107016667D01*
X149638678Y-107189853D01*
X149641230Y-107191367D01*
X149657407Y-107201222D01*
X149657410Y-107201224D01*
X149661572Y-107203759D01*
X149665791Y-107205507D01*
X149666909Y-107206152D01*
X149667878Y-107206541D01*
X149667879Y-107206541D01*
X149680020Y-107211410D01*
X149681341Y-107211948D01*
X150001408Y-107344524D01*
X150004138Y-107345693D01*
X150021476Y-107353358D01*
X150021480Y-107353360D01*
X150025935Y-107355329D01*
X150030348Y-107356511D01*
X150031537Y-107357004D01*
X150032554Y-107357264D01*
X150032565Y-107357268D01*
X150045217Y-107360504D01*
X150046548Y-107360852D01*
X150381245Y-107450533D01*
X150384100Y-107451334D01*
X150406962Y-107458041D01*
X150411490Y-107458637D01*
X150412736Y-107458971D01*
X150426909Y-107460674D01*
X150428094Y-107460823D01*
X150740609Y-107501966D01*
X150761974Y-107504779D01*
X150767085Y-107505559D01*
X150784394Y-107508565D01*
X150784398Y-107508565D01*
X150789187Y-107509397D01*
X150794055Y-107509482D01*
X150794288Y-107509504D01*
X150798746Y-107509677D01*
X150799535Y-107509724D01*
X150803983Y-107510310D01*
X150810781Y-107510233D01*
X150824894Y-107510073D01*
X150828522Y-107510084D01*
X151021476Y-107513453D01*
X151021478Y-107513453D01*
X151025951Y-107513531D01*
X151062235Y-107508980D01*
X151077916Y-107508000D01*
X155315104Y-107508000D01*
X155338388Y-107510170D01*
X155345717Y-107511548D01*
X155350573Y-107511701D01*
X155350577Y-107511701D01*
X155382088Y-107512691D01*
X155420019Y-107513883D01*
X155430157Y-107514612D01*
X155435474Y-107515211D01*
X155449382Y-107517576D01*
X155513730Y-107532262D01*
X155540361Y-107541580D01*
X155561904Y-107551954D01*
X155592705Y-107566787D01*
X155616597Y-107581799D01*
X155662025Y-107618028D01*
X155681973Y-107637977D01*
X155718198Y-107683401D01*
X155733210Y-107707292D01*
X155758418Y-107759637D01*
X155767736Y-107786266D01*
X155772688Y-107807960D01*
X155768348Y-107878824D01*
X155726384Y-107936091D01*
X155660121Y-107961581D01*
X155649848Y-107962000D01*
X155568115Y-107962000D01*
X155552876Y-107966475D01*
X155551671Y-107967865D01*
X155550000Y-107975548D01*
X155550000Y-108749000D01*
X155529998Y-108817121D01*
X155476342Y-108863614D01*
X155424000Y-108875000D01*
X154005115Y-108875000D01*
X153990186Y-108879384D01*
X153988129Y-108890785D01*
X153991740Y-108941269D01*
X153994126Y-108954491D01*
X154030819Y-109079458D01*
X154038233Y-109095692D01*
X154107426Y-109203360D01*
X154119112Y-109216847D01*
X154215840Y-109300662D01*
X154230848Y-109310307D01*
X154347277Y-109363478D01*
X154364388Y-109368502D01*
X154397552Y-109373270D01*
X154462133Y-109402763D01*
X154500518Y-109462488D01*
X154504340Y-109515918D01*
X154486500Y-109640000D01*
X154486500Y-109860000D01*
X154491727Y-109933079D01*
X154493630Y-109939559D01*
X154498164Y-109955001D01*
X154498164Y-110025998D01*
X154459781Y-110085724D01*
X154395200Y-110115217D01*
X154377268Y-110116500D01*
X154064594Y-110116500D01*
X153996473Y-110096498D01*
X153975499Y-110079595D01*
X153774224Y-109878320D01*
X153743940Y-109824024D01*
X153743022Y-109824357D01*
X153740966Y-109818693D01*
X153682687Y-109658136D01*
X153585731Y-109510253D01*
X153457355Y-109388642D01*
X153304445Y-109299825D01*
X153135204Y-109248567D01*
X152958711Y-109237617D01*
X152951496Y-109238857D01*
X152951493Y-109238857D01*
X152791648Y-109266324D01*
X152784432Y-109267564D01*
X152621717Y-109336800D01*
X152479294Y-109441611D01*
X152364803Y-109576376D01*
X152284385Y-109733865D01*
X152242355Y-109905630D01*
X152240966Y-110082458D01*
X152280293Y-110254862D01*
X152283517Y-110261429D01*
X152283518Y-110261431D01*
X152301327Y-110297703D01*
X152358227Y-110413594D01*
X152362877Y-110419245D01*
X152362879Y-110419248D01*
X152424731Y-110494413D01*
X152470588Y-110550141D01*
X152476415Y-110554572D01*
X152476416Y-110554573D01*
X152513660Y-110582894D01*
X152611347Y-110657177D01*
X152618035Y-110660148D01*
X152618039Y-110660150D01*
X152745473Y-110716754D01*
X152772954Y-110728960D01*
X152808702Y-110735682D01*
X152874513Y-110770417D01*
X153030501Y-110926405D01*
X153064527Y-110988717D01*
X153059462Y-111059532D01*
X153016915Y-111116368D01*
X152950395Y-111141179D01*
X152941406Y-111141500D01*
X151889226Y-111141500D01*
X151821105Y-111121498D01*
X151774612Y-111067842D01*
X151764490Y-111012001D01*
X151763406Y-111011993D01*
X151763469Y-111003915D01*
X151763500Y-111000000D01*
X151743022Y-110824357D01*
X151732360Y-110794982D01*
X151685184Y-110665015D01*
X151682687Y-110658136D01*
X151585731Y-110510253D01*
X151457355Y-110388642D01*
X151304445Y-110299825D01*
X151135204Y-110248567D01*
X150958711Y-110237617D01*
X150951496Y-110238857D01*
X150951493Y-110238857D01*
X150820123Y-110261431D01*
X150784432Y-110267564D01*
X150621717Y-110336800D01*
X150479294Y-110441611D01*
X150364803Y-110576376D01*
X150361475Y-110582894D01*
X150288408Y-110725987D01*
X150284385Y-110733865D01*
X150242355Y-110905630D01*
X150242298Y-110912949D01*
X150242297Y-110912953D01*
X150241484Y-111016490D01*
X150220947Y-111084451D01*
X150166928Y-111130521D01*
X150115488Y-111141500D01*
X147355702Y-111141500D01*
X147287581Y-111121498D01*
X147241088Y-111067842D01*
X147237263Y-111058491D01*
X147185184Y-110915015D01*
X147182687Y-110908136D01*
X147129128Y-110826445D01*
X147108500Y-110757360D01*
X147108500Y-108457071D01*
X153989578Y-108457071D01*
X153991584Y-108471027D01*
X154005115Y-108475000D01*
X155131885Y-108475000D01*
X155147124Y-108470525D01*
X155148329Y-108469135D01*
X155150000Y-108461452D01*
X155150000Y-107980115D01*
X155145525Y-107964876D01*
X155144135Y-107963671D01*
X155136452Y-107962000D01*
X154502257Y-107962000D01*
X154497750Y-107962161D01*
X154433731Y-107966740D01*
X154420509Y-107969126D01*
X154295542Y-108005819D01*
X154279308Y-108013233D01*
X154171640Y-108082426D01*
X154158153Y-108094112D01*
X154074338Y-108190840D01*
X154064693Y-108205848D01*
X154011523Y-108322275D01*
X154006498Y-108339388D01*
X153989578Y-108457071D01*
X147108500Y-108457071D01*
X147108500Y-102546238D01*
X147109578Y-102529792D01*
X147112422Y-102508189D01*
X147112422Y-102508188D01*
X147113500Y-102500000D01*
X147101280Y-102407177D01*
X147093674Y-102349402D01*
X147092596Y-102341214D01*
X147054352Y-102248887D01*
X147031307Y-102193250D01*
X147023672Y-102183300D01*
X146998482Y-102121187D01*
X146993870Y-102081631D01*
X146993022Y-102074357D01*
X146932687Y-101908136D01*
X146835731Y-101760253D01*
X146707355Y-101638642D01*
X146554445Y-101549825D01*
X146385204Y-101498567D01*
X146208711Y-101487617D01*
X146201496Y-101488857D01*
X146201493Y-101488857D01*
X146041648Y-101516324D01*
X146034432Y-101517564D01*
X145871717Y-101586800D01*
X145729294Y-101691611D01*
X145724401Y-101697370D01*
X145724269Y-101697457D01*
X145719202Y-101702182D01*
X145718394Y-101701315D01*
X145665057Y-101736338D01*
X145594064Y-101737036D01*
X145565372Y-101724916D01*
X145563303Y-101723722D01*
X145556750Y-101718693D01*
X145491367Y-101691611D01*
X145408786Y-101657404D01*
X145250000Y-101636500D01*
X145241812Y-101637578D01*
X145241811Y-101637578D01*
X145220208Y-101640422D01*
X145203762Y-101641500D01*
X143855702Y-101641500D01*
X143787581Y-101621498D01*
X143741088Y-101567842D01*
X143737263Y-101558491D01*
X143685184Y-101415015D01*
X143682687Y-101408136D01*
X143585731Y-101260253D01*
X143457355Y-101138642D01*
X143304445Y-101049825D01*
X143135204Y-100998567D01*
X142958711Y-100987617D01*
X142951496Y-100988857D01*
X142951493Y-100988857D01*
X142791648Y-101016324D01*
X142784432Y-101017564D01*
X142621717Y-101086800D01*
X142479294Y-101191611D01*
X142364803Y-101326376D01*
X142284385Y-101483865D01*
X142282646Y-101490970D01*
X142282645Y-101490974D01*
X142268764Y-101547703D01*
X142242355Y-101655630D01*
X142242298Y-101662949D01*
X142242297Y-101662953D01*
X142241811Y-101724916D01*
X142240966Y-101832458D01*
X142280293Y-102004862D01*
X142358227Y-102163594D01*
X142362877Y-102169245D01*
X142362879Y-102169248D01*
X142382630Y-102193250D01*
X142470588Y-102300141D01*
X142476415Y-102304572D01*
X142476416Y-102304573D01*
X142535369Y-102349402D01*
X142611347Y-102407177D01*
X142618035Y-102410148D01*
X142618039Y-102410150D01*
X142685097Y-102439936D01*
X142772954Y-102478960D01*
X142852249Y-102493871D01*
X142918057Y-102528606D01*
X143037029Y-102647578D01*
X143047896Y-102659969D01*
X143066190Y-102683810D01*
X143193250Y-102781307D01*
X143200880Y-102784467D01*
X143200881Y-102784468D01*
X143231486Y-102797144D01*
X143254539Y-102806693D01*
X143341214Y-102842596D01*
X143500000Y-102863500D01*
X143508188Y-102862422D01*
X143508189Y-102862422D01*
X143529792Y-102859578D01*
X143546238Y-102858500D01*
X144945761Y-102858500D01*
X145013882Y-102878502D01*
X145034856Y-102895405D01*
X145104595Y-102965144D01*
X145138621Y-103027456D01*
X145141500Y-103054239D01*
X145141500Y-105244495D01*
X145121498Y-105312616D01*
X145067842Y-105359109D01*
X144997568Y-105369213D01*
X144977401Y-105364597D01*
X144871484Y-105330998D01*
X144859497Y-105328450D01*
X144716339Y-105312393D01*
X144709315Y-105312000D01*
X144517967Y-105312000D01*
X144449846Y-105291998D01*
X144403353Y-105238342D01*
X144393249Y-105168068D01*
X144398832Y-105144978D01*
X144420440Y-105082225D01*
X144420441Y-105082222D01*
X144422663Y-105075768D01*
X144443480Y-104895854D01*
X144443500Y-104890000D01*
X144423940Y-104709944D01*
X144421764Y-104703477D01*
X144368349Y-104544759D01*
X144368347Y-104544754D01*
X144366171Y-104538289D01*
X144272890Y-104383044D01*
X144148449Y-104251450D01*
X143998652Y-104149648D01*
X143830489Y-104082388D01*
X143823762Y-104081274D01*
X143823757Y-104081273D01*
X143658544Y-104053922D01*
X143658540Y-104053922D01*
X143651806Y-104052807D01*
X143644989Y-104053164D01*
X143644985Y-104053164D01*
X143496905Y-104060925D01*
X143470940Y-104062286D01*
X143464367Y-104064097D01*
X143464364Y-104064097D01*
X143302910Y-104108569D01*
X143296328Y-104110382D01*
X143136117Y-104194852D01*
X142997782Y-104311754D01*
X142993639Y-104317173D01*
X142993637Y-104317175D01*
X142913806Y-104421589D01*
X142887777Y-104455634D01*
X142884894Y-104461817D01*
X142884892Y-104461820D01*
X142814115Y-104613603D01*
X142811235Y-104619780D01*
X142771726Y-104796533D01*
X142771093Y-104977647D01*
X142772536Y-104984319D01*
X142772536Y-104984323D01*
X142798559Y-105104683D01*
X142809367Y-105154672D01*
X142884762Y-105319348D01*
X142888870Y-105324800D01*
X142888871Y-105324801D01*
X142926758Y-105375080D01*
X142951780Y-105441521D01*
X142936908Y-105510943D01*
X142905766Y-105548551D01*
X142845981Y-105597310D01*
X142837277Y-105605954D01*
X142719114Y-105748788D01*
X142712254Y-105758959D01*
X142624082Y-105922031D01*
X142619332Y-105933330D01*
X142583620Y-106048693D01*
X142583414Y-106062795D01*
X142590170Y-106066000D01*
X144233000Y-106066000D01*
X144301121Y-106086002D01*
X144347614Y-106139658D01*
X144359000Y-106192000D01*
X144359000Y-107309885D01*
X144363475Y-107325124D01*
X144364865Y-107326329D01*
X144372548Y-107328000D01*
X144702912Y-107328000D01*
X144709060Y-107327699D01*
X144845626Y-107314309D01*
X144857661Y-107311926D01*
X144979082Y-107275267D01*
X145050077Y-107274726D01*
X145110093Y-107312654D01*
X145140077Y-107377008D01*
X145141500Y-107395889D01*
X145141500Y-111249711D01*
X145120327Y-111319621D01*
X145119542Y-111320797D01*
X145114803Y-111326376D01*
X145034385Y-111483865D01*
X144992355Y-111655630D01*
X144990966Y-111832458D01*
X145030293Y-112004862D01*
X145108227Y-112163594D01*
X145112877Y-112169245D01*
X145112879Y-112169248D01*
X145174731Y-112244413D01*
X145220588Y-112300141D01*
X145361347Y-112407177D01*
X145368035Y-112410148D01*
X145368039Y-112410150D01*
X145435097Y-112439936D01*
X145522954Y-112478960D01*
X145530148Y-112480313D01*
X145530155Y-112480315D01*
X145551377Y-112484306D01*
X145614627Y-112516554D01*
X145650402Y-112577878D01*
X145653011Y-112624581D01*
X145636500Y-112750000D01*
X145637578Y-112758188D01*
X145637578Y-112758189D01*
X145640422Y-112779792D01*
X145641500Y-112796238D01*
X145641500Y-116940226D01*
X145621498Y-117008347D01*
X145567842Y-117054840D01*
X145497568Y-117064944D01*
X145432988Y-117035450D01*
X145417303Y-117019178D01*
X145382620Y-116976041D01*
X145374042Y-116967281D01*
X145232030Y-116848119D01*
X145221916Y-116841193D01*
X145059458Y-116751882D01*
X145048194Y-116747054D01*
X144871484Y-116690998D01*
X144859497Y-116688450D01*
X144716339Y-116672393D01*
X144709315Y-116672000D01*
X144377115Y-116672000D01*
X144361876Y-116676475D01*
X144360671Y-116677865D01*
X144359000Y-116685548D01*
X144359000Y-117808000D01*
X144338998Y-117876121D01*
X144285342Y-117922614D01*
X144233000Y-117934000D01*
X142596948Y-117934000D01*
X142583417Y-117937973D01*
X142582297Y-117945768D01*
X142614021Y-118053557D01*
X142618620Y-118064941D01*
X142704504Y-118229222D01*
X142711218Y-118239483D01*
X142827380Y-118383959D01*
X142835958Y-118392718D01*
X142907056Y-118452377D01*
X142946383Y-118511487D01*
X142947509Y-118582475D01*
X142926162Y-118625428D01*
X142892172Y-118669885D01*
X142887777Y-118675634D01*
X142884894Y-118681817D01*
X142884892Y-118681820D01*
X142814115Y-118833603D01*
X142811235Y-118839780D01*
X142771726Y-119016533D01*
X142771093Y-119197647D01*
X142772536Y-119204319D01*
X142772536Y-119204323D01*
X142795054Y-119308470D01*
X142809367Y-119374672D01*
X142884762Y-119539348D01*
X142993760Y-119683993D01*
X142998939Y-119688432D01*
X142998940Y-119688433D01*
X143077918Y-119756125D01*
X143131275Y-119801858D01*
X143137290Y-119805083D01*
X143137294Y-119805086D01*
X143284877Y-119884219D01*
X143290892Y-119887444D01*
X143378028Y-119912101D01*
X143458596Y-119934900D01*
X143458601Y-119934901D01*
X143465164Y-119936758D01*
X143471973Y-119937163D01*
X143471976Y-119937163D01*
X143608982Y-119945302D01*
X143645961Y-119947499D01*
X143725507Y-119934900D01*
X143818112Y-119920233D01*
X143818116Y-119920232D01*
X143824846Y-119919166D01*
X143831192Y-119916679D01*
X143831196Y-119916678D01*
X143987119Y-119855573D01*
X143987123Y-119855571D01*
X143993474Y-119853082D01*
X144143977Y-119752328D01*
X144205251Y-119688433D01*
X144264608Y-119626537D01*
X144264611Y-119626533D01*
X144269335Y-119621607D01*
X144363697Y-119467016D01*
X144365918Y-119460566D01*
X144420440Y-119302225D01*
X144420441Y-119302222D01*
X144422663Y-119295768D01*
X144443480Y-119115854D01*
X144443500Y-119110000D01*
X144423940Y-118929944D01*
X144398445Y-118854188D01*
X144395675Y-118783247D01*
X144431698Y-118722069D01*
X144495078Y-118690077D01*
X144517864Y-118688000D01*
X144702912Y-118688000D01*
X144709060Y-118687699D01*
X144845626Y-118674309D01*
X144857661Y-118671926D01*
X145035124Y-118618346D01*
X145046466Y-118613671D01*
X145210144Y-118526643D01*
X145220360Y-118519856D01*
X145364019Y-118402690D01*
X145372724Y-118394045D01*
X145418416Y-118338813D01*
X145477249Y-118299075D01*
X145548228Y-118297454D01*
X145608815Y-118334463D01*
X145639775Y-118398353D01*
X145641500Y-118419129D01*
X145641500Y-121249711D01*
X145620327Y-121319621D01*
X145619542Y-121320797D01*
X145614803Y-121326376D01*
X145534385Y-121483865D01*
X145532646Y-121490970D01*
X145532645Y-121490974D01*
X145518764Y-121547703D01*
X145492355Y-121655630D01*
X145492298Y-121662949D01*
X145492297Y-121662953D01*
X145491661Y-121744044D01*
X145490966Y-121832458D01*
X145525504Y-121983865D01*
X145526328Y-121987478D01*
X145521977Y-122058341D01*
X145480005Y-122115602D01*
X145413739Y-122141082D01*
X145403484Y-122141500D01*
X144105702Y-122141500D01*
X144037581Y-122121498D01*
X143991088Y-122067842D01*
X143987263Y-122058491D01*
X143935184Y-121915015D01*
X143932687Y-121908136D01*
X143835731Y-121760253D01*
X143707355Y-121638642D01*
X143554445Y-121549825D01*
X143385204Y-121498567D01*
X143208711Y-121487617D01*
X143201496Y-121488857D01*
X143201493Y-121488857D01*
X143041648Y-121516324D01*
X143034432Y-121517564D01*
X142871717Y-121586800D01*
X142729294Y-121691611D01*
X142614803Y-121826376D01*
X142534385Y-121983865D01*
X142492355Y-122155630D01*
X142490966Y-122332458D01*
X142530293Y-122504862D01*
X142608227Y-122663594D01*
X142612877Y-122669245D01*
X142612879Y-122669248D01*
X142648858Y-122712971D01*
X142720588Y-122800141D01*
X142861347Y-122907177D01*
X142868035Y-122910148D01*
X142868039Y-122910150D01*
X142935097Y-122939936D01*
X143022954Y-122978960D01*
X143102249Y-122993871D01*
X143168057Y-123028606D01*
X143287029Y-123147578D01*
X143297896Y-123159969D01*
X143316190Y-123183810D01*
X143443250Y-123281307D01*
X143450880Y-123284467D01*
X143450881Y-123284468D01*
X143481486Y-123297144D01*
X143504539Y-123306693D01*
X143591214Y-123342596D01*
X143750000Y-123363500D01*
X143758188Y-123362422D01*
X143758189Y-123362422D01*
X143779792Y-123359578D01*
X143796238Y-123358500D01*
X146453762Y-123358500D01*
X146470208Y-123359578D01*
X146491811Y-123362422D01*
X146491812Y-123362422D01*
X146500000Y-123363500D01*
X146508188Y-123362422D01*
X146650598Y-123343674D01*
X146658786Y-123342596D01*
X146745461Y-123306693D01*
X146745463Y-123306692D01*
X146799119Y-123284468D01*
X146799120Y-123284467D01*
X146806750Y-123281307D01*
X146933810Y-123183810D01*
X146952104Y-123159969D01*
X146962971Y-123147578D01*
X147397578Y-122712971D01*
X147409969Y-122702104D01*
X147427260Y-122688836D01*
X147433810Y-122683810D01*
X147531307Y-122556750D01*
X147563528Y-122478960D01*
X147592596Y-122408786D01*
X147613500Y-122250000D01*
X147609578Y-122220208D01*
X147608500Y-122203762D01*
X147608500Y-115540785D01*
X153988129Y-115540785D01*
X153991740Y-115591269D01*
X153994126Y-115604491D01*
X154030819Y-115729458D01*
X154038233Y-115745692D01*
X154107426Y-115853360D01*
X154119112Y-115866847D01*
X154215840Y-115950662D01*
X154230848Y-115960307D01*
X154347275Y-116013477D01*
X154364388Y-116018502D01*
X154495554Y-116037361D01*
X154504495Y-116038000D01*
X155131885Y-116038000D01*
X155147124Y-116033525D01*
X155148329Y-116032135D01*
X155150000Y-116024452D01*
X155150000Y-115543115D01*
X155145525Y-115527876D01*
X155144135Y-115526671D01*
X155136452Y-115525000D01*
X154005115Y-115525000D01*
X153990186Y-115529384D01*
X153988129Y-115540785D01*
X147608500Y-115540785D01*
X147608500Y-113304239D01*
X147628502Y-113236118D01*
X147645405Y-113215144D01*
X147965144Y-112895405D01*
X148027456Y-112861379D01*
X148054239Y-112858500D01*
X150115732Y-112858500D01*
X150183853Y-112878502D01*
X150230346Y-112932158D01*
X150241728Y-112985489D01*
X150240966Y-113082458D01*
X150280293Y-113254862D01*
X150358227Y-113413594D01*
X150362877Y-113419245D01*
X150362879Y-113419248D01*
X150381281Y-113441611D01*
X150470588Y-113550141D01*
X150476415Y-113554572D01*
X150476416Y-113554573D01*
X150513660Y-113582894D01*
X150611347Y-113657177D01*
X150618035Y-113660148D01*
X150618039Y-113660150D01*
X150685097Y-113689936D01*
X150772954Y-113728960D01*
X150780149Y-113730313D01*
X150836843Y-113740974D01*
X150946741Y-113761640D01*
X150954049Y-113761302D01*
X150954052Y-113761302D01*
X151116070Y-113753803D01*
X151116074Y-113753802D01*
X151123385Y-113753464D01*
X151130423Y-113751452D01*
X151130426Y-113751452D01*
X151286371Y-113706883D01*
X151286375Y-113706881D01*
X151293409Y-113704871D01*
X151447695Y-113618467D01*
X151453090Y-113613515D01*
X151572574Y-113503837D01*
X151572576Y-113503835D01*
X151577966Y-113498887D01*
X151652662Y-113388768D01*
X151707454Y-113343622D01*
X151756935Y-113333500D01*
X152298765Y-113333500D01*
X152366886Y-113353502D01*
X152413379Y-113407158D01*
X152423483Y-113477432D01*
X152394790Y-113541079D01*
X152369542Y-113570797D01*
X152369539Y-113570801D01*
X152364803Y-113576376D01*
X152284385Y-113733865D01*
X152282646Y-113740970D01*
X152282645Y-113740974D01*
X152263801Y-113817987D01*
X152242355Y-113905630D01*
X152240966Y-114082458D01*
X152280293Y-114254862D01*
X152358227Y-114413594D01*
X152362877Y-114419245D01*
X152362879Y-114419248D01*
X152379593Y-114439559D01*
X152470588Y-114550141D01*
X152476415Y-114554572D01*
X152476416Y-114554573D01*
X152513117Y-114582481D01*
X152611347Y-114657177D01*
X152618035Y-114660148D01*
X152618039Y-114660150D01*
X152685097Y-114689936D01*
X152772954Y-114728960D01*
X152946741Y-114761640D01*
X152954049Y-114761302D01*
X152954052Y-114761302D01*
X153116070Y-114753803D01*
X153116074Y-114753802D01*
X153123385Y-114753464D01*
X153130423Y-114751452D01*
X153130426Y-114751452D01*
X153286371Y-114706883D01*
X153286375Y-114706881D01*
X153293409Y-114704871D01*
X153447695Y-114618467D01*
X153453090Y-114613515D01*
X153572574Y-114503837D01*
X153572576Y-114503835D01*
X153577966Y-114498887D01*
X153582073Y-114492833D01*
X153582076Y-114492829D01*
X153673123Y-114358604D01*
X153677233Y-114352545D01*
X153740172Y-114187292D01*
X153741133Y-114180042D01*
X153741181Y-114179852D01*
X153774235Y-114121669D01*
X153975499Y-113920405D01*
X154037811Y-113886379D01*
X154064594Y-113883500D01*
X154377967Y-113883500D01*
X154446088Y-113903502D01*
X154492581Y-113957158D01*
X154502684Y-114027432D01*
X154487140Y-114135541D01*
X154487139Y-114135556D01*
X154486500Y-114140000D01*
X154486500Y-114360000D01*
X154491727Y-114433079D01*
X154500803Y-114463990D01*
X154504581Y-114517719D01*
X154504544Y-114517972D01*
X154474895Y-114582481D01*
X154415368Y-114620635D01*
X154295542Y-114655819D01*
X154279308Y-114663233D01*
X154171640Y-114732426D01*
X154158153Y-114744112D01*
X154074338Y-114840840D01*
X154064693Y-114855848D01*
X154011523Y-114972275D01*
X154006498Y-114989388D01*
X153989578Y-115107071D01*
X153991584Y-115121027D01*
X154005115Y-115125000D01*
X155424000Y-115125000D01*
X155492121Y-115145002D01*
X155538614Y-115198658D01*
X155550000Y-115251000D01*
X155550000Y-116019885D01*
X155554475Y-116035124D01*
X155555865Y-116036329D01*
X155563548Y-116038000D01*
X155649848Y-116038000D01*
X155717969Y-116058002D01*
X155764462Y-116111658D01*
X155774566Y-116181932D01*
X155772689Y-116192036D01*
X155767738Y-116213729D01*
X155758421Y-116240359D01*
X155733209Y-116292712D01*
X155718200Y-116316598D01*
X155681975Y-116362023D01*
X155662029Y-116381970D01*
X155616593Y-116418203D01*
X155592711Y-116433209D01*
X155540363Y-116458418D01*
X155513732Y-116467737D01*
X155449372Y-116482426D01*
X155435443Y-116484792D01*
X155430140Y-116485389D01*
X155420005Y-116486118D01*
X155400597Y-116486728D01*
X155353468Y-116488208D01*
X155353463Y-116488209D01*
X155348993Y-116488349D01*
X155340779Y-116489790D01*
X155338983Y-116490105D01*
X155317212Y-116492000D01*
X151078411Y-116492000D01*
X151061203Y-116490819D01*
X151057696Y-116490336D01*
X151029229Y-116486411D01*
X151024360Y-116486496D01*
X150834820Y-116489806D01*
X150829653Y-116489790D01*
X150829363Y-116489783D01*
X150807233Y-116489262D01*
X150802398Y-116489899D01*
X150802147Y-116489912D01*
X150797769Y-116490394D01*
X150796937Y-116490468D01*
X150792465Y-116490546D01*
X150788049Y-116491257D01*
X150788042Y-116491258D01*
X150771824Y-116493871D01*
X150768231Y-116494397D01*
X150442574Y-116537270D01*
X150439629Y-116537623D01*
X150435205Y-116538100D01*
X150415902Y-116540180D01*
X150411486Y-116541363D01*
X150410212Y-116541531D01*
X150396690Y-116545319D01*
X150395317Y-116545695D01*
X150060581Y-116635388D01*
X150057713Y-116636120D01*
X150034565Y-116641742D01*
X150030347Y-116643489D01*
X150029101Y-116643823D01*
X150021039Y-116647270D01*
X150016145Y-116649362D01*
X150014834Y-116649914D01*
X149694730Y-116782506D01*
X149691977Y-116783608D01*
X149674295Y-116790449D01*
X149674286Y-116790453D01*
X149669748Y-116792209D01*
X149665790Y-116794494D01*
X149664600Y-116794987D01*
X149663706Y-116795517D01*
X149652494Y-116802160D01*
X149651267Y-116802878D01*
X149351206Y-116976118D01*
X149348621Y-116977570D01*
X149331968Y-116986669D01*
X149331958Y-116986675D01*
X149327689Y-116989008D01*
X149324068Y-116991787D01*
X149322950Y-116992432D01*
X149322125Y-116993080D01*
X149311807Y-117001185D01*
X149310680Y-117002059D01*
X149241895Y-117054840D01*
X149035823Y-117212965D01*
X149033540Y-117214675D01*
X149014246Y-117228770D01*
X149011016Y-117232000D01*
X149009993Y-117232785D01*
X149009263Y-117233532D01*
X149009258Y-117233536D01*
X149000062Y-117242944D01*
X148999056Y-117243960D01*
X148754169Y-117488847D01*
X148752046Y-117490922D01*
X148734781Y-117507392D01*
X148732001Y-117511015D01*
X148731088Y-117511928D01*
X148730462Y-117512763D01*
X148730456Y-117512770D01*
X148722577Y-117523285D01*
X148721777Y-117524340D01*
X148574205Y-117716659D01*
X148510875Y-117799192D01*
X148509046Y-117801520D01*
X148494071Y-117820112D01*
X148491788Y-117824066D01*
X148491004Y-117825088D01*
X148484075Y-117837411D01*
X148483367Y-117838652D01*
X148310153Y-118138668D01*
X148308644Y-118141212D01*
X148296241Y-118161572D01*
X148294492Y-118165795D01*
X148293848Y-118166910D01*
X148293461Y-118167875D01*
X148288611Y-118179971D01*
X148288072Y-118181293D01*
X148155475Y-118501409D01*
X148154307Y-118504138D01*
X148144671Y-118525934D01*
X148143489Y-118530347D01*
X148142996Y-118531536D01*
X148142736Y-118532551D01*
X148142736Y-118532552D01*
X148139508Y-118545168D01*
X148139148Y-118546542D01*
X148049463Y-118881259D01*
X148048679Y-118884054D01*
X148041959Y-118906962D01*
X148041363Y-118911490D01*
X148041029Y-118912736D01*
X148039326Y-118926909D01*
X148039177Y-118928094D01*
X148014954Y-119112085D01*
X147995221Y-119261974D01*
X147994441Y-119267085D01*
X147990603Y-119289187D01*
X147990518Y-119294055D01*
X147990496Y-119294288D01*
X147990323Y-119298746D01*
X147990276Y-119299535D01*
X147989690Y-119303983D01*
X147989741Y-119308470D01*
X147989927Y-119324894D01*
X147989916Y-119328522D01*
X147987498Y-119467016D01*
X147986469Y-119525951D01*
X147988833Y-119544796D01*
X147991020Y-119562234D01*
X147992000Y-119577915D01*
X147992000Y-125917379D01*
X147990126Y-125939027D01*
X147987781Y-125952473D01*
X147987692Y-125957332D01*
X147987692Y-125957337D01*
X147985682Y-126067689D01*
X147985382Y-126074380D01*
X147982152Y-126119546D01*
X147981195Y-126128450D01*
X147973595Y-126181307D01*
X147957385Y-126294045D01*
X147955789Y-126302891D01*
X147950056Y-126329244D01*
X147947840Y-126337928D01*
X147919443Y-126434640D01*
X147900702Y-126498465D01*
X147897862Y-126506998D01*
X147888450Y-126532233D01*
X147885008Y-126540543D01*
X147815501Y-126692742D01*
X147811477Y-126700780D01*
X147802092Y-126717969D01*
X147798571Y-126724417D01*
X147793981Y-126732152D01*
X147703535Y-126872891D01*
X147698411Y-126880271D01*
X147690221Y-126891212D01*
X147682255Y-126901853D01*
X147676614Y-126908853D01*
X147567063Y-127035284D01*
X147560933Y-127041867D01*
X147541868Y-127060932D01*
X147535285Y-127067062D01*
X147408859Y-127176610D01*
X147401865Y-127182246D01*
X147380260Y-127198420D01*
X147372902Y-127203528D01*
X147261071Y-127275397D01*
X147232156Y-127293979D01*
X147224428Y-127298565D01*
X147200769Y-127311483D01*
X147192735Y-127315505D01*
X147040549Y-127385006D01*
X147032238Y-127388448D01*
X147006989Y-127397865D01*
X146998457Y-127400705D01*
X146938391Y-127418342D01*
X146837953Y-127447833D01*
X146829247Y-127450055D01*
X146802894Y-127455788D01*
X146794047Y-127457385D01*
X146766824Y-127461299D01*
X146628451Y-127481193D01*
X146619510Y-127482154D01*
X146574383Y-127485382D01*
X146567688Y-127485682D01*
X146460233Y-127487639D01*
X146460228Y-127487639D01*
X146455751Y-127487721D01*
X146440717Y-127490154D01*
X146439309Y-127490382D01*
X146419179Y-127492000D01*
X145103592Y-127492000D01*
X145035471Y-127471998D01*
X144988978Y-127418342D01*
X144978874Y-127348068D01*
X145008368Y-127283488D01*
X145044439Y-127254748D01*
X145210151Y-127166638D01*
X145220360Y-127159856D01*
X145364019Y-127042690D01*
X145372723Y-127034046D01*
X145490886Y-126891212D01*
X145497746Y-126881041D01*
X145585918Y-126717969D01*
X145590668Y-126706670D01*
X145626380Y-126591307D01*
X145626586Y-126577205D01*
X145619830Y-126574000D01*
X142596948Y-126574000D01*
X142583417Y-126577973D01*
X142582297Y-126585768D01*
X142614021Y-126693557D01*
X142618620Y-126704941D01*
X142704504Y-126869222D01*
X142711218Y-126879483D01*
X142827380Y-127023959D01*
X142835958Y-127032719D01*
X142977970Y-127151881D01*
X142988084Y-127158807D01*
X143150537Y-127248115D01*
X143155373Y-127250188D01*
X143210106Y-127295408D01*
X143231703Y-127363040D01*
X143213307Y-127431612D01*
X143160759Y-127479352D01*
X143105738Y-127492000D01*
X140673592Y-127492000D01*
X140605471Y-127471998D01*
X140558978Y-127418342D01*
X140548874Y-127348068D01*
X140578368Y-127283488D01*
X140614439Y-127254748D01*
X140780151Y-127166638D01*
X140790360Y-127159856D01*
X140934019Y-127042690D01*
X140942723Y-127034046D01*
X141060886Y-126891212D01*
X141067746Y-126881041D01*
X141155918Y-126717969D01*
X141160668Y-126706670D01*
X141196380Y-126591307D01*
X141196586Y-126577205D01*
X141189830Y-126574000D01*
X138666948Y-126574000D01*
X138653417Y-126577973D01*
X138652297Y-126585768D01*
X138684021Y-126693557D01*
X138688620Y-126704941D01*
X138774504Y-126869222D01*
X138781218Y-126879483D01*
X138897380Y-127023959D01*
X138905958Y-127032719D01*
X139047970Y-127151881D01*
X139058084Y-127158807D01*
X139220537Y-127248115D01*
X139225373Y-127250188D01*
X139280106Y-127295408D01*
X139301703Y-127363040D01*
X139283307Y-127431612D01*
X139230759Y-127479352D01*
X139175738Y-127492000D01*
X138583528Y-127492000D01*
X138561203Y-127490006D01*
X138557582Y-127489354D01*
X138550326Y-127488048D01*
X138485799Y-127486520D01*
X138469168Y-127486126D01*
X138447576Y-127483741D01*
X138370800Y-127468469D01*
X138347164Y-127461299D01*
X138281884Y-127434259D01*
X138260101Y-127422616D01*
X138201354Y-127383363D01*
X138182263Y-127367694D01*
X138132306Y-127317737D01*
X138116636Y-127298644D01*
X138087726Y-127255377D01*
X138077384Y-127239899D01*
X138065741Y-127218118D01*
X138042035Y-127160886D01*
X138038699Y-127152834D01*
X138031530Y-127129197D01*
X138016260Y-127052425D01*
X138013874Y-127030828D01*
X138012136Y-126957424D01*
X138012136Y-126957422D01*
X138012030Y-126952952D01*
X138011291Y-126948540D01*
X138011290Y-126948528D01*
X138009731Y-126939218D01*
X138008000Y-126918407D01*
X138008000Y-126062795D01*
X138653414Y-126062795D01*
X138660170Y-126066000D01*
X139652885Y-126066000D01*
X139668124Y-126061525D01*
X139669329Y-126060135D01*
X139671000Y-126052452D01*
X139671000Y-125330115D01*
X139669659Y-125325548D01*
X140179000Y-125325548D01*
X140179000Y-126047885D01*
X140183475Y-126063124D01*
X140184865Y-126064329D01*
X140192548Y-126066000D01*
X141183052Y-126066000D01*
X141193967Y-126062795D01*
X142583414Y-126062795D01*
X142590170Y-126066000D01*
X145613052Y-126066000D01*
X145626583Y-126062027D01*
X145627703Y-126054232D01*
X145595979Y-125946443D01*
X145591380Y-125935059D01*
X145505496Y-125770778D01*
X145498782Y-125760517D01*
X145382620Y-125616041D01*
X145374042Y-125607281D01*
X145232030Y-125488119D01*
X145221916Y-125481193D01*
X145059458Y-125391882D01*
X145048194Y-125387054D01*
X144871484Y-125330998D01*
X144859497Y-125328450D01*
X144716339Y-125312393D01*
X144709315Y-125312000D01*
X144517967Y-125312000D01*
X144449846Y-125291998D01*
X144403353Y-125238342D01*
X144393249Y-125168068D01*
X144398832Y-125144978D01*
X144420440Y-125082225D01*
X144420441Y-125082222D01*
X144422663Y-125075768D01*
X144443480Y-124895854D01*
X144443500Y-124890000D01*
X144423940Y-124709944D01*
X144421764Y-124703477D01*
X144368349Y-124544759D01*
X144368347Y-124544754D01*
X144366171Y-124538289D01*
X144272890Y-124383044D01*
X144148449Y-124251450D01*
X143998652Y-124149648D01*
X143830489Y-124082388D01*
X143823762Y-124081274D01*
X143823757Y-124081273D01*
X143658544Y-124053922D01*
X143658540Y-124053922D01*
X143651806Y-124052807D01*
X143644989Y-124053164D01*
X143644985Y-124053164D01*
X143496905Y-124060925D01*
X143470940Y-124062286D01*
X143464367Y-124064097D01*
X143464364Y-124064097D01*
X143302910Y-124108569D01*
X143296328Y-124110382D01*
X143136117Y-124194852D01*
X142997782Y-124311754D01*
X142993639Y-124317173D01*
X142993637Y-124317175D01*
X142891923Y-124450211D01*
X142887777Y-124455634D01*
X142884894Y-124461817D01*
X142884892Y-124461820D01*
X142814115Y-124613603D01*
X142811235Y-124619780D01*
X142771726Y-124796533D01*
X142771093Y-124977647D01*
X142809367Y-125154672D01*
X142884762Y-125319348D01*
X142888870Y-125324800D01*
X142888871Y-125324801D01*
X142926758Y-125375080D01*
X142951780Y-125441521D01*
X142936908Y-125510943D01*
X142905766Y-125548551D01*
X142845981Y-125597310D01*
X142837277Y-125605954D01*
X142719114Y-125748788D01*
X142712254Y-125758959D01*
X142624082Y-125922031D01*
X142619332Y-125933330D01*
X142583620Y-126048693D01*
X142583414Y-126062795D01*
X141193967Y-126062795D01*
X141196583Y-126062027D01*
X141197703Y-126054232D01*
X141165979Y-125946443D01*
X141161380Y-125935059D01*
X141075496Y-125770778D01*
X141068782Y-125760517D01*
X140952620Y-125616041D01*
X140944042Y-125607281D01*
X140802030Y-125488119D01*
X140791916Y-125481193D01*
X140629458Y-125391882D01*
X140618194Y-125387054D01*
X140441484Y-125330998D01*
X140429497Y-125328450D01*
X140286339Y-125312393D01*
X140279315Y-125312000D01*
X140197115Y-125312000D01*
X140181876Y-125316475D01*
X140180671Y-125317865D01*
X140179000Y-125325548D01*
X139669659Y-125325548D01*
X139666525Y-125314876D01*
X139665135Y-125313671D01*
X139657452Y-125312000D01*
X139577088Y-125312000D01*
X139570940Y-125312301D01*
X139434374Y-125325691D01*
X139422339Y-125328074D01*
X139244876Y-125381654D01*
X139233534Y-125386329D01*
X139069856Y-125473357D01*
X139059640Y-125480144D01*
X138915981Y-125597310D01*
X138907277Y-125605954D01*
X138789114Y-125748788D01*
X138782254Y-125758959D01*
X138694082Y-125922031D01*
X138689332Y-125933330D01*
X138653620Y-126048693D01*
X138653414Y-126062795D01*
X138008000Y-126062795D01*
X138008000Y-117945768D01*
X138652297Y-117945768D01*
X138684021Y-118053557D01*
X138688620Y-118064941D01*
X138774504Y-118229222D01*
X138781218Y-118239483D01*
X138897380Y-118383959D01*
X138905958Y-118392719D01*
X139047970Y-118511881D01*
X139058084Y-118518807D01*
X139220542Y-118608118D01*
X139231806Y-118612946D01*
X139408516Y-118669002D01*
X139420503Y-118671550D01*
X139563661Y-118687607D01*
X139570685Y-118688000D01*
X139652885Y-118688000D01*
X139668124Y-118683525D01*
X139669329Y-118682135D01*
X139671000Y-118674452D01*
X139671000Y-117952115D01*
X139669659Y-117947548D01*
X140179000Y-117947548D01*
X140179000Y-118669885D01*
X140183475Y-118685124D01*
X140184865Y-118686329D01*
X140192548Y-118688000D01*
X140272912Y-118688000D01*
X140279060Y-118687699D01*
X140415626Y-118674309D01*
X140427661Y-118671926D01*
X140605124Y-118618346D01*
X140616466Y-118613671D01*
X140780144Y-118526643D01*
X140790360Y-118519856D01*
X140934019Y-118402690D01*
X140942723Y-118394046D01*
X141060886Y-118251212D01*
X141067746Y-118241041D01*
X141155918Y-118077969D01*
X141160668Y-118066670D01*
X141196380Y-117951307D01*
X141196586Y-117937205D01*
X141189830Y-117934000D01*
X140197115Y-117934000D01*
X140181876Y-117938475D01*
X140180671Y-117939865D01*
X140179000Y-117947548D01*
X139669659Y-117947548D01*
X139666525Y-117936876D01*
X139665135Y-117935671D01*
X139657452Y-117934000D01*
X138666948Y-117934000D01*
X138653417Y-117937973D01*
X138652297Y-117945768D01*
X138008000Y-117945768D01*
X138008000Y-117422795D01*
X138653414Y-117422795D01*
X138660170Y-117426000D01*
X139652885Y-117426000D01*
X139668124Y-117421525D01*
X139669329Y-117420135D01*
X139671000Y-117412452D01*
X139671000Y-116690115D01*
X139669659Y-116685548D01*
X140179000Y-116685548D01*
X140179000Y-117407885D01*
X140183475Y-117423124D01*
X140184865Y-117424329D01*
X140192548Y-117426000D01*
X141183052Y-117426000D01*
X141193967Y-117422795D01*
X142583414Y-117422795D01*
X142590170Y-117426000D01*
X143832885Y-117426000D01*
X143848124Y-117421525D01*
X143849329Y-117420135D01*
X143851000Y-117412452D01*
X143851000Y-116690115D01*
X143846525Y-116674876D01*
X143845135Y-116673671D01*
X143837452Y-116672000D01*
X143507088Y-116672000D01*
X143500940Y-116672301D01*
X143364374Y-116685691D01*
X143352339Y-116688074D01*
X143174876Y-116741654D01*
X143163534Y-116746329D01*
X142999856Y-116833357D01*
X142989640Y-116840144D01*
X142845981Y-116957310D01*
X142837277Y-116965954D01*
X142719114Y-117108788D01*
X142712254Y-117118959D01*
X142624082Y-117282031D01*
X142619332Y-117293330D01*
X142583620Y-117408693D01*
X142583414Y-117422795D01*
X141193967Y-117422795D01*
X141196583Y-117422027D01*
X141197703Y-117414232D01*
X141165979Y-117306443D01*
X141161380Y-117295059D01*
X141075496Y-117130778D01*
X141068782Y-117120517D01*
X140952620Y-116976041D01*
X140944042Y-116967281D01*
X140802030Y-116848119D01*
X140791916Y-116841193D01*
X140629458Y-116751882D01*
X140618194Y-116747054D01*
X140441484Y-116690998D01*
X140429497Y-116688450D01*
X140286339Y-116672393D01*
X140279315Y-116672000D01*
X140197115Y-116672000D01*
X140181876Y-116676475D01*
X140180671Y-116677865D01*
X140179000Y-116685548D01*
X139669659Y-116685548D01*
X139666525Y-116674876D01*
X139665135Y-116673671D01*
X139657452Y-116672000D01*
X139577088Y-116672000D01*
X139570940Y-116672301D01*
X139434374Y-116685691D01*
X139422339Y-116688074D01*
X139244876Y-116741654D01*
X139233534Y-116746329D01*
X139069856Y-116833357D01*
X139059640Y-116840144D01*
X138915981Y-116957310D01*
X138907277Y-116965954D01*
X138789114Y-117108788D01*
X138782254Y-117118959D01*
X138694082Y-117282031D01*
X138689332Y-117293330D01*
X138653620Y-117408693D01*
X138653414Y-117422795D01*
X138008000Y-117422795D01*
X138008000Y-106585768D01*
X138652297Y-106585768D01*
X138684021Y-106693557D01*
X138688620Y-106704941D01*
X138774504Y-106869222D01*
X138781218Y-106879483D01*
X138897380Y-107023959D01*
X138905958Y-107032719D01*
X139047970Y-107151881D01*
X139058084Y-107158807D01*
X139220542Y-107248118D01*
X139231806Y-107252946D01*
X139408516Y-107309002D01*
X139420503Y-107311550D01*
X139563661Y-107327607D01*
X139570685Y-107328000D01*
X139652885Y-107328000D01*
X139668124Y-107323525D01*
X139669329Y-107322135D01*
X139671000Y-107314452D01*
X139671000Y-106592115D01*
X139669659Y-106587548D01*
X140179000Y-106587548D01*
X140179000Y-107309885D01*
X140183475Y-107325124D01*
X140184865Y-107326329D01*
X140192548Y-107328000D01*
X140272912Y-107328000D01*
X140279060Y-107327699D01*
X140415626Y-107314309D01*
X140427661Y-107311926D01*
X140605124Y-107258346D01*
X140616466Y-107253671D01*
X140780144Y-107166643D01*
X140790360Y-107159856D01*
X140934019Y-107042690D01*
X140942723Y-107034046D01*
X141060886Y-106891212D01*
X141067746Y-106881041D01*
X141155918Y-106717969D01*
X141160668Y-106706670D01*
X141196380Y-106591307D01*
X141196461Y-106585768D01*
X142582297Y-106585768D01*
X142614021Y-106693557D01*
X142618620Y-106704941D01*
X142704504Y-106869222D01*
X142711218Y-106879483D01*
X142827380Y-107023959D01*
X142835958Y-107032719D01*
X142977970Y-107151881D01*
X142988084Y-107158807D01*
X143150542Y-107248118D01*
X143161806Y-107252946D01*
X143338516Y-107309002D01*
X143350503Y-107311550D01*
X143493661Y-107327607D01*
X143500685Y-107328000D01*
X143832885Y-107328000D01*
X143848124Y-107323525D01*
X143849329Y-107322135D01*
X143851000Y-107314452D01*
X143851000Y-106592115D01*
X143846525Y-106576876D01*
X143845135Y-106575671D01*
X143837452Y-106574000D01*
X142596948Y-106574000D01*
X142583417Y-106577973D01*
X142582297Y-106585768D01*
X141196461Y-106585768D01*
X141196586Y-106577205D01*
X141189830Y-106574000D01*
X140197115Y-106574000D01*
X140181876Y-106578475D01*
X140180671Y-106579865D01*
X140179000Y-106587548D01*
X139669659Y-106587548D01*
X139666525Y-106576876D01*
X139665135Y-106575671D01*
X139657452Y-106574000D01*
X138666948Y-106574000D01*
X138653417Y-106577973D01*
X138652297Y-106585768D01*
X138008000Y-106585768D01*
X138008000Y-106062795D01*
X138653414Y-106062795D01*
X138660170Y-106066000D01*
X139652885Y-106066000D01*
X139668124Y-106061525D01*
X139669329Y-106060135D01*
X139671000Y-106052452D01*
X139671000Y-105330115D01*
X139669659Y-105325548D01*
X140179000Y-105325548D01*
X140179000Y-106047885D01*
X140183475Y-106063124D01*
X140184865Y-106064329D01*
X140192548Y-106066000D01*
X141183052Y-106066000D01*
X141196583Y-106062027D01*
X141197703Y-106054232D01*
X141165979Y-105946443D01*
X141161380Y-105935059D01*
X141075496Y-105770778D01*
X141068782Y-105760517D01*
X140952620Y-105616041D01*
X140944042Y-105607281D01*
X140802030Y-105488119D01*
X140791916Y-105481193D01*
X140629458Y-105391882D01*
X140618194Y-105387054D01*
X140441484Y-105330998D01*
X140429497Y-105328450D01*
X140286339Y-105312393D01*
X140279315Y-105312000D01*
X140197115Y-105312000D01*
X140181876Y-105316475D01*
X140180671Y-105317865D01*
X140179000Y-105325548D01*
X139669659Y-105325548D01*
X139666525Y-105314876D01*
X139665135Y-105313671D01*
X139657452Y-105312000D01*
X139577088Y-105312000D01*
X139570940Y-105312301D01*
X139434374Y-105325691D01*
X139422339Y-105328074D01*
X139244876Y-105381654D01*
X139233534Y-105386329D01*
X139069856Y-105473357D01*
X139059640Y-105480144D01*
X138915981Y-105597310D01*
X138907277Y-105605954D01*
X138789114Y-105748788D01*
X138782254Y-105758959D01*
X138694082Y-105922031D01*
X138689332Y-105933330D01*
X138653620Y-106048693D01*
X138653414Y-106062795D01*
X138008000Y-106062795D01*
X138008000Y-97945768D01*
X138652297Y-97945768D01*
X138684021Y-98053557D01*
X138688620Y-98064941D01*
X138774504Y-98229222D01*
X138781218Y-98239483D01*
X138897380Y-98383959D01*
X138905958Y-98392719D01*
X139047970Y-98511881D01*
X139058084Y-98518807D01*
X139220542Y-98608118D01*
X139231806Y-98612946D01*
X139408516Y-98669002D01*
X139420503Y-98671550D01*
X139563661Y-98687607D01*
X139570685Y-98688000D01*
X139652885Y-98688000D01*
X139668124Y-98683525D01*
X139669329Y-98682135D01*
X139671000Y-98674452D01*
X139671000Y-97952115D01*
X139669659Y-97947548D01*
X140179000Y-97947548D01*
X140179000Y-98669885D01*
X140183475Y-98685124D01*
X140184865Y-98686329D01*
X140192548Y-98688000D01*
X140272912Y-98688000D01*
X140279060Y-98687699D01*
X140415626Y-98674309D01*
X140427661Y-98671926D01*
X140605124Y-98618346D01*
X140616466Y-98613671D01*
X140780144Y-98526643D01*
X140790360Y-98519856D01*
X140934019Y-98402690D01*
X140942723Y-98394046D01*
X141060886Y-98251212D01*
X141067746Y-98241041D01*
X141155918Y-98077969D01*
X141160668Y-98066670D01*
X141196380Y-97951307D01*
X141196461Y-97945768D01*
X142582297Y-97945768D01*
X142614021Y-98053557D01*
X142618620Y-98064941D01*
X142704504Y-98229222D01*
X142711218Y-98239483D01*
X142827380Y-98383959D01*
X142835958Y-98392718D01*
X142907056Y-98452377D01*
X142946383Y-98511487D01*
X142947509Y-98582475D01*
X142926162Y-98625428D01*
X142892172Y-98669885D01*
X142887777Y-98675634D01*
X142884894Y-98681817D01*
X142884892Y-98681820D01*
X142814115Y-98833603D01*
X142811235Y-98839780D01*
X142771726Y-99016533D01*
X142771093Y-99197647D01*
X142809367Y-99374672D01*
X142884762Y-99539348D01*
X142993760Y-99683993D01*
X142998939Y-99688432D01*
X142998940Y-99688433D01*
X143077918Y-99756125D01*
X143131275Y-99801858D01*
X143137290Y-99805083D01*
X143137294Y-99805086D01*
X143284877Y-99884219D01*
X143290892Y-99887444D01*
X143378028Y-99912101D01*
X143458596Y-99934900D01*
X143458601Y-99934901D01*
X143465164Y-99936758D01*
X143471973Y-99937163D01*
X143471976Y-99937163D01*
X143608982Y-99945302D01*
X143645961Y-99947499D01*
X143725507Y-99934900D01*
X143818112Y-99920233D01*
X143818116Y-99920232D01*
X143824846Y-99919166D01*
X143831192Y-99916679D01*
X143831196Y-99916678D01*
X143987119Y-99855573D01*
X143987123Y-99855571D01*
X143993474Y-99853082D01*
X144143977Y-99752328D01*
X144205251Y-99688433D01*
X144264608Y-99626537D01*
X144264611Y-99626533D01*
X144269335Y-99621607D01*
X144363697Y-99467016D01*
X144365918Y-99460566D01*
X144420440Y-99302225D01*
X144420441Y-99302222D01*
X144422663Y-99295768D01*
X144443480Y-99115854D01*
X144443500Y-99110000D01*
X144423940Y-98929944D01*
X144398445Y-98854188D01*
X144395675Y-98783247D01*
X144431698Y-98722069D01*
X144495078Y-98690077D01*
X144517864Y-98688000D01*
X144702912Y-98688000D01*
X144709060Y-98687699D01*
X144845626Y-98674309D01*
X144857661Y-98671926D01*
X145035124Y-98618346D01*
X145046466Y-98613671D01*
X145210144Y-98526643D01*
X145220360Y-98519856D01*
X145364019Y-98402690D01*
X145372723Y-98394046D01*
X145490886Y-98251212D01*
X145497746Y-98241041D01*
X145585918Y-98077969D01*
X145590668Y-98066670D01*
X145626380Y-97951307D01*
X145626586Y-97937205D01*
X145619830Y-97934000D01*
X142596948Y-97934000D01*
X142583417Y-97937973D01*
X142582297Y-97945768D01*
X141196461Y-97945768D01*
X141196586Y-97937205D01*
X141189830Y-97934000D01*
X140197115Y-97934000D01*
X140181876Y-97938475D01*
X140180671Y-97939865D01*
X140179000Y-97947548D01*
X139669659Y-97947548D01*
X139666525Y-97936876D01*
X139665135Y-97935671D01*
X139657452Y-97934000D01*
X138666948Y-97934000D01*
X138653417Y-97937973D01*
X138652297Y-97945768D01*
X138008000Y-97945768D01*
X138008000Y-97083528D01*
X138009994Y-97061203D01*
X138011088Y-97055124D01*
X138011952Y-97050326D01*
X138013874Y-96969169D01*
X138016260Y-96947571D01*
X138019170Y-96932945D01*
X138031531Y-96870800D01*
X138038700Y-96847165D01*
X138044418Y-96833362D01*
X138065743Y-96781879D01*
X138077386Y-96760098D01*
X138091749Y-96738603D01*
X138116637Y-96701355D01*
X138132306Y-96682263D01*
X138182264Y-96632305D01*
X138201355Y-96616636D01*
X138260104Y-96577382D01*
X138281884Y-96565741D01*
X138347160Y-96538702D01*
X138370797Y-96531532D01*
X138393992Y-96526918D01*
X138447579Y-96516260D01*
X138469175Y-96513874D01*
X138542577Y-96512136D01*
X138542579Y-96512136D01*
X138547049Y-96512030D01*
X138551461Y-96511291D01*
X138551473Y-96511290D01*
X138560783Y-96509731D01*
X138581594Y-96508000D01*
X139176408Y-96508000D01*
X139244529Y-96528002D01*
G37*
%TD.AperFunction*%
%TD*%
M02*
