%TF.GenerationSoftware,KiCad,Pcbnew,5.99.0-unknown-5f1e9bc8a7~129~ubuntu20.04.1*%
%TF.CreationDate,2021-06-14T18:11:24+08:00*%
%TF.ProjectId,M5Pi-TYPE-C,4d355069-2d54-4595-9045-2d432e6b6963,rev?*%
%TF.SameCoordinates,Original*%
%TF.FileFunction,Copper,L1,Top*%
%TF.FilePolarity,Positive*%
%FSLAX46Y46*%
G04 Gerber Fmt 4.6, Leading zero omitted, Abs format (unit mm)*
G04 Created by KiCad (PCBNEW 5.99.0-unknown-5f1e9bc8a7~129~ubuntu20.04.1) date 2021-06-14 18:11:24*
%MOMM*%
%LPD*%
G01*
G04 APERTURE LIST*
G04 Aperture macros list*
%AMRoundRect*
0 Rectangle with rounded corners*
0 $1 Rounding radius*
0 $2 $3 $4 $5 $6 $7 $8 $9 X,Y pos of 4 corners*
0 Add a 4 corners polygon primitive as box body*
4,1,4,$2,$3,$4,$5,$6,$7,$8,$9,$2,$3,0*
0 Add four circle primitives for the rounded corners*
1,1,$1+$1,$2,$3*
1,1,$1+$1,$4,$5*
1,1,$1+$1,$6,$7*
1,1,$1+$1,$8,$9*
0 Add four rect primitives between the rounded corners*
20,1,$1+$1,$2,$3,$4,$5,0*
20,1,$1+$1,$4,$5,$6,$7,0*
20,1,$1+$1,$6,$7,$8,$9,0*
20,1,$1+$1,$8,$9,$2,$3,0*%
G04 Aperture macros list end*
%TA.AperFunction,SMDPad,CuDef*%
%ADD10RoundRect,0.135000X0.135000X0.185000X-0.135000X0.185000X-0.135000X-0.185000X0.135000X-0.185000X0*%
%TD*%
%TA.AperFunction,SMDPad,CuDef*%
%ADD11RoundRect,0.135000X-0.135000X-0.185000X0.135000X-0.185000X0.135000X0.185000X-0.135000X0.185000X0*%
%TD*%
%TA.AperFunction,SMDPad,CuDef*%
%ADD12R,1.150000X0.300000*%
%TD*%
%TA.AperFunction,ComponentPad*%
%ADD13O,1.600000X1.000000*%
%TD*%
%TA.AperFunction,ComponentPad*%
%ADD14O,2.100000X1.000000*%
%TD*%
%TA.AperFunction,SMDPad,CuDef*%
%ADD15R,1.200000X0.220000*%
%TD*%
%TA.AperFunction,SMDPad,CuDef*%
%ADD16R,1.700000X0.400000*%
%TD*%
%TA.AperFunction,ViaPad*%
%ADD17C,0.500000*%
%TD*%
%TA.AperFunction,Conductor*%
%ADD18C,0.150000*%
%TD*%
%TA.AperFunction,Conductor*%
%ADD19C,0.250000*%
%TD*%
%TA.AperFunction,Conductor*%
%ADD20C,0.200000*%
%TD*%
G04 APERTURE END LIST*
D10*
%TO.P,R4,1*%
%TO.N,GND*%
X143510000Y-111000000D03*
%TO.P,R4,2*%
%TO.N,Net-(UART1-PadA5)*%
X142490000Y-111000000D03*
%TD*%
D11*
%TO.P,R2,1*%
%TO.N,GND*%
X149180000Y-113000000D03*
%TO.P,R2,2*%
%TO.N,Net-(M5Pi-USB1-PadB5)*%
X150200000Y-113000000D03*
%TD*%
D12*
%TO.P,UART1,A1,GND*%
%TO.N,GND*%
X144670000Y-98650000D03*
%TO.P,UART1,A4,VBUS*%
%TO.N,Net-(UART1-PadA4)*%
X144670000Y-99450000D03*
%TO.P,UART1,A5,CC1*%
%TO.N,Net-(UART1-PadA5)*%
X144670000Y-100750000D03*
%TO.P,UART1,A6,D+*%
%TO.N,/UART_USB_D+*%
X144670000Y-101750000D03*
%TO.P,UART1,A7,D-*%
%TO.N,/UART_USB_D-*%
X144670000Y-102250000D03*
%TO.P,UART1,A8,SBU1*%
%TO.N,GND*%
X144670000Y-103250000D03*
%TO.P,UART1,A9,VBUS*%
%TO.N,Net-(UART1-PadA4)*%
X144670000Y-104550000D03*
%TO.P,UART1,A12,GND*%
%TO.N,GND*%
X144670000Y-105350000D03*
%TO.P,UART1,B1,GND*%
X144670000Y-105050000D03*
%TO.P,UART1,B4,VBUS*%
%TO.N,Net-(UART1-PadA4)*%
X144670000Y-104250000D03*
%TO.P,UART1,B5,CC2*%
%TO.N,Net-(UART1-PadB5)*%
X144670000Y-103750000D03*
%TO.P,UART1,B6,D+*%
%TO.N,/UART_USB_D+*%
X144670000Y-102750000D03*
%TO.P,UART1,B7,D-*%
%TO.N,/UART_USB_D-*%
X144670000Y-101250000D03*
%TO.P,UART1,B8,SBU2*%
%TO.N,GND*%
X144670000Y-100250000D03*
%TO.P,UART1,B9,VBUS*%
%TO.N,Net-(UART1-PadA4)*%
X144670000Y-99750000D03*
%TO.P,UART1,B12,GND*%
%TO.N,GND*%
X144670000Y-98950000D03*
D13*
%TO.P,UART1,S1,SHIELD*%
X139925000Y-97680000D03*
X139925000Y-106320000D03*
D14*
X144105000Y-106320000D03*
X144105000Y-97680000D03*
%TD*%
D10*
%TO.P,R8,1*%
%TO.N,/VBUS*%
X150200000Y-114000000D03*
%TO.P,R8,2*%
%TO.N,Net-(OTG1-PadA4)*%
X149180000Y-114000000D03*
%TD*%
%TO.P,R7,2*%
%TO.N,Net-(OTG1-PadA5)*%
X142490000Y-114000000D03*
%TO.P,R7,1*%
%TO.N,GND*%
X143510000Y-114000000D03*
%TD*%
%TO.P,R6,1*%
%TO.N,GND*%
X143510000Y-113000000D03*
%TO.P,R6,2*%
%TO.N,Net-(OTG1-PadB5)*%
X142490000Y-113000000D03*
%TD*%
%TO.P,R5,1*%
%TO.N,/VBUS*%
X150200000Y-110000000D03*
%TO.P,R5,2*%
%TO.N,Net-(UART1-PadA4)*%
X149180000Y-110000000D03*
%TD*%
%TO.P,R3,1*%
%TO.N,GND*%
X143510000Y-110000000D03*
%TO.P,R3,2*%
%TO.N,Net-(UART1-PadB5)*%
X142490000Y-110000000D03*
%TD*%
D11*
%TO.P,R1,1*%
%TO.N,GND*%
X149180000Y-111000000D03*
%TO.P,R1,2*%
%TO.N,Net-(M5Pi-USB1-PadA5)*%
X150200000Y-111000000D03*
%TD*%
D12*
%TO.P,OTG1,A1,GND*%
%TO.N,GND*%
X144670000Y-118650000D03*
%TO.P,OTG1,A4,VBUS*%
%TO.N,Net-(OTG1-PadA4)*%
X144670000Y-119450000D03*
%TO.P,OTG1,A5,CC1*%
%TO.N,Net-(OTG1-PadA5)*%
X144670000Y-120750000D03*
%TO.P,OTG1,A6,D+*%
%TO.N,/OTG_USB_D+*%
X144670000Y-121750000D03*
%TO.P,OTG1,A7,D-*%
%TO.N,/OTG_USB_D-*%
X144670000Y-122250000D03*
%TO.P,OTG1,A8,SBU1*%
%TO.N,GND*%
X144670000Y-123250000D03*
%TO.P,OTG1,A9,VBUS*%
%TO.N,Net-(OTG1-PadA4)*%
X144670000Y-124550000D03*
%TO.P,OTG1,A12,GND*%
%TO.N,GND*%
X144670000Y-125350000D03*
%TO.P,OTG1,B1,GND*%
X144670000Y-125050000D03*
%TO.P,OTG1,B4,VBUS*%
%TO.N,Net-(OTG1-PadA4)*%
X144670000Y-124250000D03*
%TO.P,OTG1,B5,CC2*%
%TO.N,Net-(OTG1-PadB5)*%
X144670000Y-123750000D03*
%TO.P,OTG1,B6,D+*%
%TO.N,/OTG_USB_D+*%
X144670000Y-122750000D03*
%TO.P,OTG1,B7,D-*%
%TO.N,/OTG_USB_D-*%
X144670000Y-121250000D03*
%TO.P,OTG1,B8,SBU2*%
%TO.N,GND*%
X144670000Y-120250000D03*
%TO.P,OTG1,B9,VBUS*%
%TO.N,Net-(OTG1-PadA4)*%
X144670000Y-119750000D03*
%TO.P,OTG1,B12,GND*%
%TO.N,GND*%
X144670000Y-118950000D03*
D13*
%TO.P,OTG1,S1,SHIELD*%
X139925000Y-117680000D03*
X139925000Y-126320000D03*
D14*
X144105000Y-126320000D03*
X144105000Y-117680000D03*
%TD*%
D15*
%TO.P,M5Pi-USB1,A1,GND*%
%TO.N,GND*%
X155600000Y-109250000D03*
%TO.P,M5Pi-USB1,A2,TX1+*%
%TO.N,N/C*%
X155600000Y-109750000D03*
%TO.P,M5Pi-USB1,A3,TX1-*%
X155600000Y-110250000D03*
%TO.P,M5Pi-USB1,A4,VBUS*%
%TO.N,/VBUS*%
X155600000Y-110750000D03*
%TO.P,M5Pi-USB1,A5,CC1*%
%TO.N,Net-(M5Pi-USB1-PadA5)*%
X155600000Y-111250000D03*
%TO.P,M5Pi-USB1,A6,D+*%
%TO.N,/UART_USB_D+*%
X155600000Y-111750000D03*
%TO.P,M5Pi-USB1,A7,D-*%
%TO.N,/UART_USB_D-*%
X155600000Y-112250000D03*
%TO.P,M5Pi-USB1,A8,SBU1*%
%TO.N,GND*%
X155600000Y-112750000D03*
%TO.P,M5Pi-USB1,A9,VBUS*%
%TO.N,/VBUS*%
X155600000Y-113250000D03*
%TO.P,M5Pi-USB1,A10,RX2-*%
%TO.N,N/C*%
X155600000Y-113750000D03*
%TO.P,M5Pi-USB1,A11,RX2+*%
X155600000Y-114250000D03*
%TO.P,M5Pi-USB1,A12,GND*%
%TO.N,GND*%
X155600000Y-114750000D03*
D16*
%TO.P,M5Pi-USB1,S1,SHIELD*%
X155350000Y-115325000D03*
X155350000Y-108675000D03*
%TD*%
D17*
%TO.N,GND*%
X151950000Y-110700000D03*
X151950000Y-113350000D03*
X142500000Y-99800000D03*
X142500000Y-103400000D03*
X146200000Y-125300000D03*
X143300000Y-120100000D03*
X142400000Y-123100000D03*
X153750000Y-114750000D03*
X153750000Y-109250000D03*
%TO.N,/UART_USB_D-*%
X145750000Y-111750000D03*
%TO.N,/UART_USB_D+*%
X146500000Y-111250000D03*
%TO.N,/VBUS*%
X153000000Y-110000000D03*
X153000000Y-114000000D03*
%TO.N,Net-(M5Pi-USB1-PadB5)*%
X151000000Y-113000000D03*
%TO.N,Net-(M5Pi-USB1-PadA5)*%
X151000000Y-111000000D03*
%TO.N,/UART_USB_D-*%
X143000000Y-101750000D03*
%TO.N,/UART_USB_D+*%
X146250000Y-102250000D03*
%TO.N,/OTG_USB_D+*%
X143250000Y-122250000D03*
%TO.N,/OTG_USB_D-*%
X146250000Y-121750000D03*
%TD*%
D18*
%TO.N,GND*%
X155600000Y-112750000D02*
X152850000Y-112750000D01*
X152250000Y-113350000D02*
X151950000Y-113350000D01*
X152850000Y-112750000D02*
X152250000Y-113350000D01*
D19*
%TO.N,/VBUS*%
X153000000Y-110000000D02*
X153750000Y-110750000D01*
X153750000Y-110750000D02*
X155600000Y-110750000D01*
X153000000Y-110000000D02*
X150200000Y-110000000D01*
X153000000Y-114000000D02*
X153750000Y-113250000D01*
X153750000Y-113250000D02*
X155600000Y-113250000D01*
X153000000Y-114000000D02*
X150200000Y-114000000D01*
D20*
%TO.N,Net-(M5Pi-USB1-PadA5)*%
X151000000Y-111000000D02*
X151250000Y-111250000D01*
X151250000Y-111250000D02*
X155600000Y-111250000D01*
D19*
X151000000Y-111000000D02*
X150200000Y-111000000D01*
%TO.N,Net-(M5Pi-USB1-PadB5)*%
X151000000Y-113000000D02*
X150200000Y-113000000D01*
D20*
%TO.N,GND*%
X142950000Y-100250000D02*
X142500000Y-99800000D01*
X144670000Y-100250000D02*
X142950000Y-100250000D01*
X144670000Y-105350000D02*
X144670000Y-105755000D01*
X144670000Y-105755000D02*
X144105000Y-106320000D01*
X142650000Y-103250000D02*
X142500000Y-103400000D01*
X144670000Y-103250000D02*
X142650000Y-103250000D01*
X144670000Y-118650000D02*
X144670000Y-118245000D01*
X144670000Y-118245000D02*
X144105000Y-117680000D01*
X146150000Y-125350000D02*
X146200000Y-125300000D01*
X144670000Y-125350000D02*
X146150000Y-125350000D01*
X143450000Y-120250000D02*
X143300000Y-120100000D01*
X144670000Y-120250000D02*
X143450000Y-120250000D01*
X142550000Y-123250000D02*
X142400000Y-123100000D01*
X144670000Y-123250000D02*
X142550000Y-123250000D01*
X155600000Y-114750000D02*
X153750000Y-114750000D01*
X155600000Y-109250000D02*
X153750000Y-109250000D01*
%TO.N,/UART_USB_D-*%
X145750000Y-111750000D02*
X146250000Y-112250000D01*
X146250000Y-112250000D02*
X155600000Y-112250000D01*
%TO.N,/UART_USB_D+*%
X146500000Y-111250000D02*
X147000000Y-111750000D01*
X147000000Y-111750000D02*
X155600000Y-111750000D01*
%TO.N,/UART_USB_D-*%
X143500000Y-102250000D02*
X143000000Y-101750000D01*
X144670000Y-102250000D02*
X143500000Y-102250000D01*
X143000000Y-101750000D02*
X143500000Y-101250000D01*
X143500000Y-101250000D02*
X144670000Y-101250000D01*
%TO.N,/UART_USB_D+*%
X145750000Y-101750000D02*
X146250000Y-102250000D01*
X144670000Y-101750000D02*
X145750000Y-101750000D01*
X146250000Y-102250000D02*
X145750000Y-102750000D01*
X145750000Y-102750000D02*
X144670000Y-102750000D01*
%TO.N,/OTG_USB_D+*%
X143750000Y-121750000D02*
X143250000Y-122250000D01*
X144670000Y-121750000D02*
X143750000Y-121750000D01*
X143250000Y-122250000D02*
X143750000Y-122750000D01*
X143750000Y-122750000D02*
X144670000Y-122750000D01*
%TO.N,/OTG_USB_D-*%
X145750000Y-121250000D02*
X146250000Y-121750000D01*
X144670000Y-121250000D02*
X145750000Y-121250000D01*
X146250000Y-121750000D02*
X145750000Y-122250000D01*
X145750000Y-122250000D02*
X144670000Y-122250000D01*
D19*
%TO.N,Net-(UART1-PadA5)*%
X141500000Y-101250000D02*
X142000000Y-100750000D01*
X141500000Y-110500000D02*
X141500000Y-101250000D01*
X142490000Y-111000000D02*
X142000000Y-111000000D01*
X142000000Y-111000000D02*
X141500000Y-110500000D01*
X142000000Y-100750000D02*
X144670000Y-100750000D01*
%TO.N,Net-(UART1-PadB5)*%
X142490000Y-104760000D02*
X143500000Y-103750000D01*
X142490000Y-110000000D02*
X142490000Y-104760000D01*
X143500000Y-103750000D02*
X144670000Y-103750000D01*
%TO.N,Net-(OTG1-PadB5)*%
X141500000Y-123250000D02*
X142000000Y-123750000D01*
X141500000Y-113500000D02*
X141500000Y-123250000D01*
X142490000Y-113000000D02*
X142000000Y-113000000D01*
X142000000Y-113000000D02*
X141500000Y-113500000D01*
X142000000Y-123750000D02*
X144670000Y-123750000D01*
%TO.N,Net-(OTG1-PadA5)*%
X142490000Y-120240000D02*
X143000000Y-120750000D01*
X142490000Y-114000000D02*
X142490000Y-120240000D01*
X143000000Y-120750000D02*
X144670000Y-120750000D01*
%TO.N,GND*%
X143510000Y-110000000D02*
X143510000Y-113000000D01*
X143510000Y-113000000D02*
X143510000Y-114000000D01*
%TO.N,Net-(UART1-PadA4)*%
X147000000Y-100250000D02*
X146500000Y-99750000D01*
X147000000Y-105000000D02*
X147000000Y-100250000D01*
X146500000Y-99750000D02*
X144670000Y-99750000D01*
%TO.N,Net-(OTG1-PadA4)*%
X147000000Y-123750000D02*
X146500000Y-124250000D01*
X147000000Y-119000000D02*
X147000000Y-123750000D01*
X146500000Y-124250000D02*
X144670000Y-124250000D01*
%TO.N,Net-(UART1-PadA4)*%
X147000000Y-105000000D02*
X146550000Y-104550000D01*
X146550000Y-104550000D02*
X144670000Y-104550000D01*
%TO.N,Net-(OTG1-PadA4)*%
X149180000Y-114000000D02*
X148000000Y-114000000D01*
X148000000Y-114000000D02*
X147000000Y-115000000D01*
X147000000Y-115000000D02*
X147000000Y-119000000D01*
X147000000Y-119000000D02*
X146550000Y-119450000D01*
X146550000Y-119450000D02*
X144670000Y-119450000D01*
%TO.N,Net-(UART1-PadA4)*%
X147000000Y-109000000D02*
X147000000Y-105000000D01*
X148000000Y-110000000D02*
X147000000Y-109000000D01*
X149180000Y-110000000D02*
X148000000Y-110000000D01*
%TD*%
%TA.AperFunction,Conductor*%
%TO.N,GND*%
G36*
X139244529Y-96528002D02*
G01*
X139291022Y-96581658D01*
X139301126Y-96651932D01*
X139271632Y-96716512D01*
X139235561Y-96745252D01*
X139069849Y-96833362D01*
X139059640Y-96840144D01*
X138915981Y-96957310D01*
X138907277Y-96965954D01*
X138789114Y-97108788D01*
X138782254Y-97118959D01*
X138694082Y-97282031D01*
X138689332Y-97293330D01*
X138653620Y-97408693D01*
X138653414Y-97422795D01*
X138660170Y-97426000D01*
X141183052Y-97426000D01*
X141196583Y-97422027D01*
X141197703Y-97414232D01*
X141165979Y-97306443D01*
X141161380Y-97295059D01*
X141075496Y-97130778D01*
X141068782Y-97120517D01*
X140952620Y-96976041D01*
X140944042Y-96967281D01*
X140802030Y-96848119D01*
X140791916Y-96841193D01*
X140629463Y-96751885D01*
X140624627Y-96749812D01*
X140569894Y-96704592D01*
X140548297Y-96636960D01*
X140566693Y-96568388D01*
X140619241Y-96520648D01*
X140674262Y-96508000D01*
X143106408Y-96508000D01*
X143174529Y-96528002D01*
X143221022Y-96581658D01*
X143231126Y-96651932D01*
X143201632Y-96716512D01*
X143165561Y-96745252D01*
X142999849Y-96833362D01*
X142989640Y-96840144D01*
X142845981Y-96957310D01*
X142837277Y-96965954D01*
X142719114Y-97108788D01*
X142712254Y-97118959D01*
X142624082Y-97282031D01*
X142619332Y-97293330D01*
X142583620Y-97408693D01*
X142583414Y-97422795D01*
X142590170Y-97426000D01*
X145613052Y-97426000D01*
X145626583Y-97422027D01*
X145627703Y-97414232D01*
X145595979Y-97306443D01*
X145591380Y-97295059D01*
X145505496Y-97130778D01*
X145498782Y-97120517D01*
X145382620Y-96976041D01*
X145374042Y-96967281D01*
X145232030Y-96848119D01*
X145221916Y-96841193D01*
X145059463Y-96751885D01*
X145054627Y-96749812D01*
X144999894Y-96704592D01*
X144978297Y-96636960D01*
X144996693Y-96568388D01*
X145049241Y-96520648D01*
X145104262Y-96508000D01*
X146417379Y-96508000D01*
X146439027Y-96509874D01*
X146447679Y-96511383D01*
X146447680Y-96511383D01*
X146452473Y-96512219D01*
X146457332Y-96512308D01*
X146457337Y-96512308D01*
X146567689Y-96514318D01*
X146574380Y-96514618D01*
X146590883Y-96515798D01*
X146619546Y-96517848D01*
X146628453Y-96518806D01*
X146794048Y-96542615D01*
X146802876Y-96544208D01*
X146829239Y-96549942D01*
X146837945Y-96552165D01*
X146998462Y-96599297D01*
X147006996Y-96602137D01*
X147032236Y-96611551D01*
X147040547Y-96614994D01*
X147192736Y-96684497D01*
X147200778Y-96688522D01*
X147224425Y-96701434D01*
X147232160Y-96706024D01*
X147372883Y-96796460D01*
X147380270Y-96801588D01*
X147401864Y-96817753D01*
X147408867Y-96823397D01*
X147535292Y-96932945D01*
X147541874Y-96939074D01*
X147560927Y-96958127D01*
X147567057Y-96964710D01*
X147676607Y-97091139D01*
X147682246Y-97098137D01*
X147698406Y-97119722D01*
X147703533Y-97127106D01*
X147793981Y-97267847D01*
X147798567Y-97275576D01*
X147809206Y-97295059D01*
X147811478Y-97299220D01*
X147815500Y-97307255D01*
X147885004Y-97459446D01*
X147888442Y-97467745D01*
X147897869Y-97493022D01*
X147900708Y-97501553D01*
X147947832Y-97662044D01*
X147950055Y-97670753D01*
X147955787Y-97697097D01*
X147957383Y-97705942D01*
X147966556Y-97769739D01*
X147981193Y-97871550D01*
X147982154Y-97880490D01*
X147985382Y-97925616D01*
X147985682Y-97932311D01*
X147987594Y-98037257D01*
X147987721Y-98044250D01*
X147988437Y-98048671D01*
X147988437Y-98048676D01*
X147990381Y-98060685D01*
X147992000Y-98080816D01*
X147992000Y-104421589D01*
X147990819Y-104438797D01*
X147986411Y-104470771D01*
X147986496Y-104475640D01*
X147989806Y-104665180D01*
X147989790Y-104670347D01*
X147989262Y-104692767D01*
X147989899Y-104697602D01*
X147989912Y-104697853D01*
X147990394Y-104702231D01*
X147990468Y-104703063D01*
X147990546Y-104707535D01*
X147991257Y-104711951D01*
X147991258Y-104711958D01*
X147993871Y-104728176D01*
X147994397Y-104731769D01*
X148037270Y-105057426D01*
X148037623Y-105060371D01*
X148040180Y-105084098D01*
X148041363Y-105088514D01*
X148041531Y-105089788D01*
X148045319Y-105103310D01*
X148045695Y-105104683D01*
X148135387Y-105439419D01*
X148136120Y-105442290D01*
X148140594Y-105460709D01*
X148141742Y-105465435D01*
X148143489Y-105469653D01*
X148143823Y-105470899D01*
X148144231Y-105471853D01*
X148149362Y-105483855D01*
X148149914Y-105485166D01*
X148282506Y-105805270D01*
X148283608Y-105808023D01*
X148290449Y-105825705D01*
X148290453Y-105825714D01*
X148292209Y-105830252D01*
X148294494Y-105834210D01*
X148294987Y-105835400D01*
X148295515Y-105836292D01*
X148295517Y-105836295D01*
X148302180Y-105847538D01*
X148302903Y-105848774D01*
X148476114Y-106148786D01*
X148477567Y-106151372D01*
X148478618Y-106153295D01*
X148489008Y-106172311D01*
X148491789Y-106175935D01*
X148492432Y-106177049D01*
X148493071Y-106177863D01*
X148493074Y-106177867D01*
X148501169Y-106188172D01*
X148502024Y-106189274D01*
X148712965Y-106464177D01*
X148714675Y-106466460D01*
X148728770Y-106485754D01*
X148732000Y-106488984D01*
X148732785Y-106490007D01*
X148733532Y-106490737D01*
X148733536Y-106490742D01*
X148742944Y-106499938D01*
X148743960Y-106500944D01*
X148988886Y-106745870D01*
X148990960Y-106747993D01*
X149007393Y-106765219D01*
X149011012Y-106767996D01*
X149011928Y-106768912D01*
X149012770Y-106769543D01*
X149023291Y-106777429D01*
X149024368Y-106778245D01*
X149299315Y-106989220D01*
X149301522Y-106990955D01*
X149320112Y-107005929D01*
X149324061Y-107008209D01*
X149325088Y-107008997D01*
X149336309Y-107015307D01*
X149337470Y-107015960D01*
X149338710Y-107016667D01*
X149638678Y-107189853D01*
X149641230Y-107191367D01*
X149657407Y-107201222D01*
X149657410Y-107201224D01*
X149661572Y-107203759D01*
X149665791Y-107205507D01*
X149666909Y-107206152D01*
X149667878Y-107206541D01*
X149667879Y-107206541D01*
X149680020Y-107211410D01*
X149681341Y-107211948D01*
X150001408Y-107344524D01*
X150004138Y-107345693D01*
X150021476Y-107353358D01*
X150021480Y-107353360D01*
X150025935Y-107355329D01*
X150030348Y-107356511D01*
X150031537Y-107357004D01*
X150032554Y-107357264D01*
X150032565Y-107357268D01*
X150045217Y-107360504D01*
X150046548Y-107360852D01*
X150381245Y-107450533D01*
X150384100Y-107451334D01*
X150406962Y-107458041D01*
X150411490Y-107458637D01*
X150412736Y-107458971D01*
X150426909Y-107460674D01*
X150428094Y-107460823D01*
X150740609Y-107501966D01*
X150761974Y-107504779D01*
X150767085Y-107505559D01*
X150784394Y-107508565D01*
X150784398Y-107508565D01*
X150789187Y-107509397D01*
X150794055Y-107509482D01*
X150794288Y-107509504D01*
X150798746Y-107509677D01*
X150799535Y-107509724D01*
X150803983Y-107510310D01*
X150810781Y-107510233D01*
X150824894Y-107510073D01*
X150828522Y-107510084D01*
X151021476Y-107513453D01*
X151021478Y-107513453D01*
X151025951Y-107513531D01*
X151062235Y-107508980D01*
X151077916Y-107508000D01*
X155315104Y-107508000D01*
X155338388Y-107510170D01*
X155345717Y-107511548D01*
X155350573Y-107511701D01*
X155350577Y-107511701D01*
X155382088Y-107512691D01*
X155420019Y-107513883D01*
X155430157Y-107514612D01*
X155435474Y-107515211D01*
X155449382Y-107517576D01*
X155513730Y-107532262D01*
X155540361Y-107541580D01*
X155561904Y-107551954D01*
X155592705Y-107566787D01*
X155616597Y-107581799D01*
X155662025Y-107618028D01*
X155681973Y-107637977D01*
X155718198Y-107683401D01*
X155733210Y-107707292D01*
X155758418Y-107759637D01*
X155767736Y-107786266D01*
X155772688Y-107807960D01*
X155768348Y-107878824D01*
X155726384Y-107936091D01*
X155660121Y-107961581D01*
X155649848Y-107962000D01*
X155568115Y-107962000D01*
X155552876Y-107966475D01*
X155551671Y-107967865D01*
X155550000Y-107975548D01*
X155550000Y-108749000D01*
X155529998Y-108817121D01*
X155476342Y-108863614D01*
X155424000Y-108875000D01*
X154005115Y-108875000D01*
X153990186Y-108879384D01*
X153988129Y-108890785D01*
X153991740Y-108941269D01*
X153994126Y-108954491D01*
X154030819Y-109079458D01*
X154038233Y-109095692D01*
X154107426Y-109203360D01*
X154119112Y-109216847D01*
X154215840Y-109300662D01*
X154230848Y-109310307D01*
X154347277Y-109363478D01*
X154364388Y-109368502D01*
X154397552Y-109373270D01*
X154462133Y-109402763D01*
X154500518Y-109462488D01*
X154504340Y-109515918D01*
X154486500Y-109640000D01*
X154486500Y-109860000D01*
X154491727Y-109933079D01*
X154493630Y-109939559D01*
X154498164Y-109955001D01*
X154498164Y-110025998D01*
X154459781Y-110085724D01*
X154395200Y-110115217D01*
X154377268Y-110116500D01*
X154064594Y-110116500D01*
X153996473Y-110096498D01*
X153975499Y-110079595D01*
X153774224Y-109878320D01*
X153743940Y-109824024D01*
X153743022Y-109824357D01*
X153740966Y-109818693D01*
X153682687Y-109658136D01*
X153585731Y-109510253D01*
X153457355Y-109388642D01*
X153304445Y-109299825D01*
X153135204Y-109248567D01*
X152958711Y-109237617D01*
X152951496Y-109238857D01*
X152951493Y-109238857D01*
X152791648Y-109266324D01*
X152784432Y-109267564D01*
X152621717Y-109336800D01*
X152615827Y-109341135D01*
X152615821Y-109341138D01*
X152614672Y-109341984D01*
X152613752Y-109342319D01*
X152609463Y-109344765D01*
X152609044Y-109344031D01*
X152547951Y-109366248D01*
X152539993Y-109366500D01*
X150847575Y-109366500D01*
X150779454Y-109346498D01*
X150767260Y-109337585D01*
X150688592Y-109272505D01*
X150688587Y-109272502D01*
X150682484Y-109267453D01*
X150535398Y-109198240D01*
X150462412Y-109184317D01*
X150401063Y-109172614D01*
X150401059Y-109172614D01*
X150395221Y-109171500D01*
X150025421Y-109171500D01*
X149903725Y-109186874D01*
X149870199Y-109200148D01*
X149759955Y-109243796D01*
X149759953Y-109243797D01*
X149752583Y-109246715D01*
X149747409Y-109250474D01*
X149678746Y-109265617D01*
X149633728Y-109253922D01*
X149515398Y-109198240D01*
X149442412Y-109184317D01*
X149381063Y-109172614D01*
X149381059Y-109172614D01*
X149375221Y-109171500D01*
X149005421Y-109171500D01*
X148883725Y-109186874D01*
X148850199Y-109200148D01*
X148739957Y-109243795D01*
X148739954Y-109243797D01*
X148732583Y-109246715D01*
X148601071Y-109342264D01*
X148599027Y-109339450D01*
X148549784Y-109364391D01*
X148526827Y-109366500D01*
X148314596Y-109366500D01*
X148246475Y-109346498D01*
X148225501Y-109329596D01*
X147670405Y-108774501D01*
X147636380Y-108712188D01*
X147633500Y-108685405D01*
X147633500Y-108457071D01*
X153989578Y-108457071D01*
X153991584Y-108471027D01*
X154005115Y-108475000D01*
X155131885Y-108475000D01*
X155147124Y-108470525D01*
X155148329Y-108469135D01*
X155150000Y-108461452D01*
X155150000Y-107980115D01*
X155145525Y-107964876D01*
X155144135Y-107963671D01*
X155136452Y-107962000D01*
X154502257Y-107962000D01*
X154497750Y-107962161D01*
X154433731Y-107966740D01*
X154420509Y-107969126D01*
X154295542Y-108005819D01*
X154279308Y-108013233D01*
X154171640Y-108082426D01*
X154158153Y-108094112D01*
X154074338Y-108190840D01*
X154064693Y-108205848D01*
X154011523Y-108322275D01*
X154006498Y-108339388D01*
X153989578Y-108457071D01*
X147633500Y-108457071D01*
X147633500Y-105078383D01*
X147634014Y-105067479D01*
X147635666Y-105060088D01*
X147633562Y-104993134D01*
X147633500Y-104989176D01*
X147633500Y-100328396D01*
X147634014Y-100317482D01*
X147635667Y-100310089D01*
X147635057Y-100290663D01*
X147633648Y-100245855D01*
X147633562Y-100243115D01*
X147633500Y-100239158D01*
X147633500Y-100210422D01*
X147632961Y-100206151D01*
X147632028Y-100194313D01*
X147631908Y-100190478D01*
X147630639Y-100150117D01*
X147624987Y-100130661D01*
X147620978Y-100111302D01*
X147619434Y-100099079D01*
X147619434Y-100099078D01*
X147618440Y-100091212D01*
X147608157Y-100065239D01*
X147602168Y-100050111D01*
X147598323Y-100038882D01*
X147588199Y-100004035D01*
X147588198Y-100004034D01*
X147585987Y-99996422D01*
X147575674Y-99978983D01*
X147566978Y-99961231D01*
X147562442Y-99949775D01*
X147559522Y-99942400D01*
X147533533Y-99906629D01*
X147527016Y-99896708D01*
X147507548Y-99863790D01*
X147504514Y-99858659D01*
X147504145Y-99858241D01*
X147490062Y-99844158D01*
X147477228Y-99829133D01*
X147465446Y-99812917D01*
X147431664Y-99784970D01*
X147422885Y-99776981D01*
X147003391Y-99357487D01*
X146996031Y-99349399D01*
X146991973Y-99343005D01*
X146943121Y-99297130D01*
X146940280Y-99294376D01*
X146919966Y-99274062D01*
X146916555Y-99271417D01*
X146907533Y-99263711D01*
X146881077Y-99238867D01*
X146875301Y-99233443D01*
X146868357Y-99229626D01*
X146868355Y-99229624D01*
X146857547Y-99223682D01*
X146841023Y-99212828D01*
X146831286Y-99205275D01*
X146831285Y-99205275D01*
X146825023Y-99200417D01*
X146784447Y-99182858D01*
X146773790Y-99177637D01*
X146735048Y-99156338D01*
X146727365Y-99154366D01*
X146727364Y-99154365D01*
X146715432Y-99151301D01*
X146696728Y-99144897D01*
X146685415Y-99140001D01*
X146685408Y-99139999D01*
X146678136Y-99136852D01*
X146670312Y-99135613D01*
X146670309Y-99135612D01*
X146634465Y-99129935D01*
X146622844Y-99127528D01*
X146585782Y-99118013D01*
X146585781Y-99118013D01*
X146580025Y-99116535D01*
X146579469Y-99116500D01*
X146559548Y-99116500D01*
X146539838Y-99114949D01*
X146527886Y-99113056D01*
X146527885Y-99113056D01*
X146520056Y-99111816D01*
X146512164Y-99112562D01*
X146476418Y-99115941D01*
X146464560Y-99116500D01*
X145814195Y-99116500D01*
X145778698Y-99111396D01*
X145761274Y-99106280D01*
X145701547Y-99067897D01*
X145690773Y-99053505D01*
X145637949Y-98971309D01*
X145637947Y-98971306D01*
X145633077Y-98963729D01*
X145626267Y-98957828D01*
X145529431Y-98873918D01*
X145529428Y-98873916D01*
X145522619Y-98868016D01*
X145460791Y-98839780D01*
X145397864Y-98811042D01*
X145397863Y-98811042D01*
X145389670Y-98807300D01*
X145380755Y-98806018D01*
X145380754Y-98806018D01*
X145338896Y-98800000D01*
X145249448Y-98787139D01*
X145249441Y-98787138D01*
X145245000Y-98786500D01*
X144646000Y-98786500D01*
X144577879Y-98766498D01*
X144531386Y-98712842D01*
X144520000Y-98660500D01*
X144520000Y-98378000D01*
X144540002Y-98309879D01*
X144593658Y-98263386D01*
X144646000Y-98252000D01*
X144694000Y-98252000D01*
X144762121Y-98272002D01*
X144808614Y-98325658D01*
X144820000Y-98378000D01*
X144820000Y-98481885D01*
X144824475Y-98497124D01*
X144825865Y-98498329D01*
X144833548Y-98500000D01*
X145739885Y-98500000D01*
X145754814Y-98495616D01*
X145756871Y-98484215D01*
X145753260Y-98433731D01*
X145750874Y-98420509D01*
X145714181Y-98295542D01*
X145706767Y-98279308D01*
X145637574Y-98171640D01*
X145624914Y-98157030D01*
X145595421Y-98092450D01*
X145599773Y-98037257D01*
X145626380Y-97951307D01*
X145626586Y-97937205D01*
X145619830Y-97934000D01*
X144377115Y-97934000D01*
X144361876Y-97938475D01*
X144360671Y-97939865D01*
X144359000Y-97947548D01*
X144359000Y-98378921D01*
X144338998Y-98447042D01*
X144285342Y-98493535D01*
X144215068Y-98503639D01*
X144151949Y-98475151D01*
X144148449Y-98471450D01*
X143998652Y-98369648D01*
X143930206Y-98342272D01*
X143874387Y-98298405D01*
X143851000Y-98225284D01*
X143851000Y-97952115D01*
X143846525Y-97936876D01*
X143845135Y-97935671D01*
X143837452Y-97934000D01*
X142596948Y-97934000D01*
X142583417Y-97937973D01*
X142582297Y-97945768D01*
X142614021Y-98053557D01*
X142618620Y-98064941D01*
X142704504Y-98229222D01*
X142711218Y-98239483D01*
X142827380Y-98383959D01*
X142835958Y-98392718D01*
X142907056Y-98452377D01*
X142946383Y-98511487D01*
X142947509Y-98582475D01*
X142926162Y-98625428D01*
X142892172Y-98669885D01*
X142887777Y-98675634D01*
X142884894Y-98681817D01*
X142884892Y-98681820D01*
X142814115Y-98833603D01*
X142811235Y-98839780D01*
X142809749Y-98846428D01*
X142809748Y-98846431D01*
X142803604Y-98873918D01*
X142771726Y-99016533D01*
X142771093Y-99197647D01*
X142772536Y-99204319D01*
X142772536Y-99204323D01*
X142792006Y-99294376D01*
X142809367Y-99374672D01*
X142884762Y-99539348D01*
X142993760Y-99683993D01*
X142998939Y-99688432D01*
X142998940Y-99688433D01*
X143111573Y-99784971D01*
X143131275Y-99801858D01*
X143275996Y-99879457D01*
X143326578Y-99929274D01*
X143342197Y-99998532D01*
X143317893Y-100065239D01*
X143261383Y-100108217D01*
X143216453Y-100116500D01*
X142078396Y-100116500D01*
X142067482Y-100115986D01*
X142060089Y-100114333D01*
X142052164Y-100114582D01*
X142052163Y-100114582D01*
X141993116Y-100116438D01*
X141989158Y-100116500D01*
X141960422Y-100116500D01*
X141956151Y-100117039D01*
X141944322Y-100117971D01*
X141900117Y-100119361D01*
X141892501Y-100121574D01*
X141892499Y-100121574D01*
X141880661Y-100125013D01*
X141861302Y-100129022D01*
X141849079Y-100130566D01*
X141849078Y-100130566D01*
X141841212Y-100131560D01*
X141833836Y-100134480D01*
X141833837Y-100134480D01*
X141800111Y-100147832D01*
X141788882Y-100151677D01*
X141754035Y-100161801D01*
X141754034Y-100161802D01*
X141746422Y-100164013D01*
X141739599Y-100168048D01*
X141728983Y-100174326D01*
X141711231Y-100183022D01*
X141692400Y-100190478D01*
X141670821Y-100206156D01*
X141656629Y-100216467D01*
X141646711Y-100222982D01*
X141608659Y-100245486D01*
X141608241Y-100245855D01*
X141594158Y-100259938D01*
X141579133Y-100272772D01*
X141562917Y-100284554D01*
X141548350Y-100302163D01*
X141534971Y-100318335D01*
X141526981Y-100327115D01*
X141107487Y-100746609D01*
X141099399Y-100753969D01*
X141093005Y-100758027D01*
X141087580Y-100763804D01*
X141047131Y-100806878D01*
X141044376Y-100809720D01*
X141024062Y-100830034D01*
X141021417Y-100833445D01*
X141013713Y-100842465D01*
X140983443Y-100874699D01*
X140979626Y-100881643D01*
X140979624Y-100881645D01*
X140973682Y-100892453D01*
X140962828Y-100908977D01*
X140950417Y-100924977D01*
X140947270Y-100932248D01*
X140947270Y-100932249D01*
X140932859Y-100965551D01*
X140927638Y-100976207D01*
X140906338Y-101014952D01*
X140904366Y-101022635D01*
X140904365Y-101022636D01*
X140901301Y-101034568D01*
X140894897Y-101053272D01*
X140890001Y-101064585D01*
X140889999Y-101064592D01*
X140886852Y-101071864D01*
X140885613Y-101079688D01*
X140885612Y-101079691D01*
X140879935Y-101115535D01*
X140877528Y-101127156D01*
X140868951Y-101160565D01*
X140866535Y-101169975D01*
X140866500Y-101170531D01*
X140866500Y-101190452D01*
X140864949Y-101210162D01*
X140864099Y-101215532D01*
X140861816Y-101229944D01*
X140862562Y-101237836D01*
X140865941Y-101273582D01*
X140866500Y-101285440D01*
X140866500Y-105309142D01*
X140846498Y-105377263D01*
X140792842Y-105423756D01*
X140722568Y-105433860D01*
X140679799Y-105419557D01*
X140629458Y-105391882D01*
X140618194Y-105387054D01*
X140441484Y-105330998D01*
X140429497Y-105328450D01*
X140286339Y-105312393D01*
X140279315Y-105312000D01*
X140197115Y-105312000D01*
X140181876Y-105316475D01*
X140180671Y-105317865D01*
X140179000Y-105325548D01*
X140179000Y-107309885D01*
X140183475Y-107325124D01*
X140184865Y-107326329D01*
X140192548Y-107328000D01*
X140272912Y-107328000D01*
X140279060Y-107327699D01*
X140415626Y-107314309D01*
X140427661Y-107311926D01*
X140605124Y-107258346D01*
X140616458Y-107253675D01*
X140681347Y-107219173D01*
X140750885Y-107204854D01*
X140817125Y-107230402D01*
X140859038Y-107287707D01*
X140866500Y-107330425D01*
X140866500Y-110421616D01*
X140865986Y-110432520D01*
X140864334Y-110439911D01*
X140864583Y-110447837D01*
X140864583Y-110447838D01*
X140866438Y-110506866D01*
X140866500Y-110510823D01*
X140866500Y-110539578D01*
X140866996Y-110543503D01*
X140866996Y-110543504D01*
X140867039Y-110543843D01*
X140867972Y-110555687D01*
X140869361Y-110599883D01*
X140871573Y-110607495D01*
X140875012Y-110619333D01*
X140879022Y-110638695D01*
X140881560Y-110658788D01*
X140884476Y-110666153D01*
X140884477Y-110666157D01*
X140897837Y-110699901D01*
X140901681Y-110711128D01*
X140914014Y-110753578D01*
X140918052Y-110760406D01*
X140924323Y-110771011D01*
X140933019Y-110788762D01*
X140936829Y-110798384D01*
X140940478Y-110807600D01*
X140954120Y-110826376D01*
X140966465Y-110843367D01*
X140972983Y-110853290D01*
X140995486Y-110891341D01*
X140995855Y-110891759D01*
X141009938Y-110905842D01*
X141022772Y-110920867D01*
X141034554Y-110937083D01*
X141055608Y-110954500D01*
X141068335Y-110965029D01*
X141077115Y-110973019D01*
X141496609Y-111392513D01*
X141503969Y-111400601D01*
X141508027Y-111406995D01*
X141513804Y-111412420D01*
X141556878Y-111452869D01*
X141559720Y-111455624D01*
X141580034Y-111475938D01*
X141583445Y-111478583D01*
X141592465Y-111486287D01*
X141624699Y-111516557D01*
X141631643Y-111520374D01*
X141631645Y-111520376D01*
X141642453Y-111526318D01*
X141658977Y-111537172D01*
X141674977Y-111549583D01*
X141682248Y-111552730D01*
X141682249Y-111552730D01*
X141715551Y-111567141D01*
X141726207Y-111572362D01*
X141764952Y-111593662D01*
X141772635Y-111595634D01*
X141772636Y-111595635D01*
X141784568Y-111598699D01*
X141803272Y-111605103D01*
X141814583Y-111609998D01*
X141814590Y-111610000D01*
X141821864Y-111613148D01*
X141838925Y-111615850D01*
X141899532Y-111643215D01*
X142007516Y-111732547D01*
X142154602Y-111801760D01*
X142219396Y-111814120D01*
X142288937Y-111827386D01*
X142288941Y-111827386D01*
X142294779Y-111828500D01*
X142664579Y-111828500D01*
X142786275Y-111813126D01*
X142937417Y-111753285D01*
X142942939Y-111749273D01*
X143011792Y-111734088D01*
X143056811Y-111745784D01*
X143167584Y-111797910D01*
X143182541Y-111802770D01*
X143238206Y-111813389D01*
X143251245Y-111812118D01*
X143256000Y-111797196D01*
X143256000Y-111322658D01*
X143258232Y-111299048D01*
X143264241Y-111267548D01*
X143764000Y-111267548D01*
X143764000Y-111799852D01*
X143768075Y-111813729D01*
X143781426Y-111815766D01*
X143798286Y-111813636D01*
X143813519Y-111809725D01*
X143949807Y-111755764D01*
X143963589Y-111748188D01*
X144082173Y-111662032D01*
X144093640Y-111651264D01*
X144187070Y-111538325D01*
X144195499Y-111525043D01*
X144257909Y-111392417D01*
X144262771Y-111377452D01*
X144282926Y-111271794D01*
X144281656Y-111258755D01*
X144266731Y-111254000D01*
X143782115Y-111254000D01*
X143766876Y-111258475D01*
X143765671Y-111259865D01*
X143764000Y-111267548D01*
X143264241Y-111267548D01*
X143267386Y-111251063D01*
X143267386Y-111251059D01*
X143268500Y-111245221D01*
X143268500Y-110775421D01*
X143256994Y-110684343D01*
X143256000Y-110668551D01*
X143256000Y-110322658D01*
X143258232Y-110299048D01*
X143264241Y-110267548D01*
X143764000Y-110267548D01*
X143764000Y-110727885D01*
X143768475Y-110743124D01*
X143769865Y-110744329D01*
X143777548Y-110746000D01*
X144266168Y-110746000D01*
X144280046Y-110741925D01*
X144282082Y-110728576D01*
X144273635Y-110661708D01*
X144269726Y-110646484D01*
X144229770Y-110545567D01*
X144223291Y-110474867D01*
X144232914Y-110445534D01*
X144257909Y-110392418D01*
X144262771Y-110377452D01*
X144282926Y-110271794D01*
X144281656Y-110258755D01*
X144266731Y-110254000D01*
X143782115Y-110254000D01*
X143766876Y-110258475D01*
X143765671Y-110259865D01*
X143764000Y-110267548D01*
X143264241Y-110267548D01*
X143267386Y-110251063D01*
X143267386Y-110251059D01*
X143268500Y-110245221D01*
X143268500Y-109775421D01*
X143256994Y-109684343D01*
X143256000Y-109668551D01*
X143256000Y-109202804D01*
X143764000Y-109202804D01*
X143764000Y-109727885D01*
X143768475Y-109743124D01*
X143769865Y-109744329D01*
X143777548Y-109746000D01*
X144266168Y-109746000D01*
X144280046Y-109741925D01*
X144282082Y-109728576D01*
X144273635Y-109661708D01*
X144269726Y-109646484D01*
X144215764Y-109510193D01*
X144208188Y-109496411D01*
X144122032Y-109377827D01*
X144111264Y-109366360D01*
X143998325Y-109272930D01*
X143985043Y-109264501D01*
X143852412Y-109202089D01*
X143837459Y-109197230D01*
X143781794Y-109186611D01*
X143768755Y-109187882D01*
X143764000Y-109202804D01*
X143256000Y-109202804D01*
X143256000Y-109200148D01*
X143251925Y-109186271D01*
X143230501Y-109183003D01*
X143166175Y-109152959D01*
X143128304Y-109092906D01*
X143123500Y-109058444D01*
X143123500Y-107412952D01*
X143143502Y-107344831D01*
X143197158Y-107298338D01*
X143267432Y-107288234D01*
X143287599Y-107292850D01*
X143338516Y-107309002D01*
X143350503Y-107311550D01*
X143493661Y-107327607D01*
X143500685Y-107328000D01*
X143832885Y-107328000D01*
X143848124Y-107323525D01*
X143849329Y-107322135D01*
X143851000Y-107314452D01*
X143851000Y-106587548D01*
X144359000Y-106587548D01*
X144359000Y-107309885D01*
X144363475Y-107325124D01*
X144364865Y-107326329D01*
X144372548Y-107328000D01*
X144702912Y-107328000D01*
X144709060Y-107327699D01*
X144845626Y-107314309D01*
X144857661Y-107311926D01*
X145035124Y-107258346D01*
X145046466Y-107253671D01*
X145210144Y-107166643D01*
X145220360Y-107159856D01*
X145364019Y-107042690D01*
X145372723Y-107034046D01*
X145490886Y-106891212D01*
X145497746Y-106881041D01*
X145585918Y-106717969D01*
X145590668Y-106706670D01*
X145626380Y-106591307D01*
X145626586Y-106577205D01*
X145619830Y-106574000D01*
X144377115Y-106574000D01*
X144361876Y-106578475D01*
X144360671Y-106579865D01*
X144359000Y-106587548D01*
X143851000Y-106587548D01*
X143851000Y-105774868D01*
X143871002Y-105706747D01*
X143931026Y-105657555D01*
X143987119Y-105635573D01*
X143987123Y-105635571D01*
X143993474Y-105633082D01*
X144143977Y-105532328D01*
X144148700Y-105527403D01*
X144152007Y-105524628D01*
X144217047Y-105496162D01*
X144287152Y-105507378D01*
X144340064Y-105554715D01*
X144359000Y-105621148D01*
X144359000Y-106047885D01*
X144363475Y-106063124D01*
X144364865Y-106064329D01*
X144372548Y-106066000D01*
X145613052Y-106066000D01*
X145626583Y-106062027D01*
X145627703Y-106054234D01*
X145598701Y-105955694D01*
X145598656Y-105884698D01*
X145624350Y-105837607D01*
X145670661Y-105784160D01*
X145680307Y-105769152D01*
X145733477Y-105652725D01*
X145738502Y-105635612D01*
X145755422Y-105517929D01*
X145753416Y-105503973D01*
X145739885Y-105500000D01*
X144838115Y-105500000D01*
X144822876Y-105504475D01*
X144821671Y-105505865D01*
X144820000Y-105513548D01*
X144820000Y-105622000D01*
X144799998Y-105690121D01*
X144746342Y-105736614D01*
X144694000Y-105748000D01*
X144646000Y-105748000D01*
X144577879Y-105727998D01*
X144531386Y-105674342D01*
X144520000Y-105622000D01*
X144520000Y-105339500D01*
X144540002Y-105271379D01*
X144593658Y-105224886D01*
X144646000Y-105213500D01*
X145245000Y-105213500D01*
X145318079Y-105208273D01*
X145328871Y-105205104D01*
X145364369Y-105200000D01*
X145739885Y-105200000D01*
X145778696Y-105188604D01*
X145814194Y-105183500D01*
X146235406Y-105183500D01*
X146303527Y-105203502D01*
X146324501Y-105220405D01*
X146329595Y-105225499D01*
X146363621Y-105287811D01*
X146366500Y-105314594D01*
X146366500Y-108921616D01*
X146365986Y-108932520D01*
X146364334Y-108939911D01*
X146364583Y-108947837D01*
X146364583Y-108947838D01*
X146366438Y-109006866D01*
X146366500Y-109010823D01*
X146366500Y-109039578D01*
X146366996Y-109043503D01*
X146366996Y-109043504D01*
X146367039Y-109043843D01*
X146367972Y-109055687D01*
X146369361Y-109099883D01*
X146371573Y-109107495D01*
X146375012Y-109119333D01*
X146379022Y-109138695D01*
X146381560Y-109158788D01*
X146384476Y-109166153D01*
X146384477Y-109166157D01*
X146397837Y-109199901D01*
X146401681Y-109211128D01*
X146414014Y-109253578D01*
X146418052Y-109260406D01*
X146424323Y-109271011D01*
X146433019Y-109288762D01*
X146437558Y-109300226D01*
X146440478Y-109307600D01*
X146459613Y-109333936D01*
X146466465Y-109343367D01*
X146472983Y-109353290D01*
X146495486Y-109391341D01*
X146495855Y-109391759D01*
X146509938Y-109405842D01*
X146522772Y-109420867D01*
X146534554Y-109437083D01*
X146568335Y-109465029D01*
X146577115Y-109473019D01*
X147496609Y-110392513D01*
X147503969Y-110400601D01*
X147508027Y-110406995D01*
X147551521Y-110447838D01*
X147556878Y-110452869D01*
X147559720Y-110455624D01*
X147580034Y-110475938D01*
X147583445Y-110478583D01*
X147592465Y-110486287D01*
X147624699Y-110516557D01*
X147631643Y-110520374D01*
X147631645Y-110520376D01*
X147642453Y-110526318D01*
X147658977Y-110537172D01*
X147668711Y-110544723D01*
X147668713Y-110544724D01*
X147674977Y-110549583D01*
X147715561Y-110567146D01*
X147726190Y-110572353D01*
X147764952Y-110593662D01*
X147784578Y-110598701D01*
X147803271Y-110605102D01*
X147821865Y-110613148D01*
X147860916Y-110619333D01*
X147865531Y-110620064D01*
X147877154Y-110622471D01*
X147919975Y-110633465D01*
X147920531Y-110633500D01*
X147940447Y-110633500D01*
X147960157Y-110635051D01*
X147979945Y-110638185D01*
X147987837Y-110637439D01*
X148023593Y-110634059D01*
X148035451Y-110633500D01*
X148283527Y-110633500D01*
X148351648Y-110653502D01*
X148398141Y-110707158D01*
X148407212Y-110740884D01*
X148423269Y-110746000D01*
X148697942Y-110746000D01*
X148751589Y-110757992D01*
X148844602Y-110801760D01*
X148917588Y-110815683D01*
X148978937Y-110827386D01*
X148978941Y-110827386D01*
X148984779Y-110828500D01*
X149295500Y-110828500D01*
X149363621Y-110848502D01*
X149410114Y-110902158D01*
X149421500Y-110954500D01*
X149421500Y-111015500D01*
X149401498Y-111083621D01*
X149347842Y-111130114D01*
X149295500Y-111141500D01*
X147355702Y-111141500D01*
X147287581Y-111121498D01*
X147241088Y-111067842D01*
X147237263Y-111058491D01*
X147185184Y-110915015D01*
X147182687Y-110908136D01*
X147085731Y-110760253D01*
X146957355Y-110638642D01*
X146804445Y-110549825D01*
X146635204Y-110498567D01*
X146458711Y-110487617D01*
X146451496Y-110488857D01*
X146451493Y-110488857D01*
X146291648Y-110516324D01*
X146284432Y-110517564D01*
X146121717Y-110586800D01*
X145979294Y-110691611D01*
X145864803Y-110826376D01*
X145861474Y-110832896D01*
X145861473Y-110832897D01*
X145817104Y-110919789D01*
X145768311Y-110971362D01*
X145713088Y-110987889D01*
X145708711Y-110987617D01*
X145701496Y-110988857D01*
X145701493Y-110988857D01*
X145541648Y-111016324D01*
X145534432Y-111017564D01*
X145371717Y-111086800D01*
X145229294Y-111191611D01*
X145114803Y-111326376D01*
X145111475Y-111332894D01*
X145038433Y-111475938D01*
X145034385Y-111483865D01*
X145032646Y-111490970D01*
X145032645Y-111490974D01*
X145022488Y-111532484D01*
X144992355Y-111655630D01*
X144990966Y-111832458D01*
X145030293Y-112004862D01*
X145108227Y-112163594D01*
X145112877Y-112169245D01*
X145112879Y-112169248D01*
X145140492Y-112202804D01*
X145220588Y-112300141D01*
X145361347Y-112407177D01*
X145368035Y-112410148D01*
X145368039Y-112410150D01*
X145435097Y-112439936D01*
X145522954Y-112478960D01*
X145602249Y-112493871D01*
X145668057Y-112528606D01*
X145787029Y-112647578D01*
X145797896Y-112659969D01*
X145816190Y-112683810D01*
X145943250Y-112781307D01*
X145950880Y-112784467D01*
X145950881Y-112784468D01*
X145981486Y-112797144D01*
X146004539Y-112806693D01*
X146091214Y-112842596D01*
X146250000Y-112863500D01*
X146258188Y-112862422D01*
X146258189Y-112862422D01*
X146279792Y-112859578D01*
X146296238Y-112858500D01*
X149295500Y-112858500D01*
X149363621Y-112878502D01*
X149410114Y-112932158D01*
X149421500Y-112984500D01*
X149421500Y-113045500D01*
X149401498Y-113113621D01*
X149347842Y-113160114D01*
X149295500Y-113171500D01*
X149005421Y-113171500D01*
X148883725Y-113186874D01*
X148736530Y-113245152D01*
X148690148Y-113254000D01*
X148423832Y-113254000D01*
X148409954Y-113258075D01*
X148409737Y-113259500D01*
X148379691Y-113323826D01*
X148319638Y-113361696D01*
X148285178Y-113366500D01*
X148078401Y-113366500D01*
X148067481Y-113365985D01*
X148060089Y-113364333D01*
X148052166Y-113364582D01*
X147993116Y-113366438D01*
X147989158Y-113366500D01*
X147960422Y-113366500D01*
X147956151Y-113367039D01*
X147944322Y-113367971D01*
X147900117Y-113369361D01*
X147892501Y-113371574D01*
X147892499Y-113371574D01*
X147880661Y-113375013D01*
X147861302Y-113379022D01*
X147849079Y-113380566D01*
X147849078Y-113380566D01*
X147841212Y-113381560D01*
X147833836Y-113384480D01*
X147833837Y-113384480D01*
X147800111Y-113397832D01*
X147788882Y-113401677D01*
X147754035Y-113411801D01*
X147754034Y-113411802D01*
X147746422Y-113414013D01*
X147739599Y-113418048D01*
X147728983Y-113424326D01*
X147711231Y-113433022D01*
X147692400Y-113440478D01*
X147669981Y-113456766D01*
X147656629Y-113466467D01*
X147646711Y-113472982D01*
X147608659Y-113495486D01*
X147608241Y-113495854D01*
X147594158Y-113509937D01*
X147579125Y-113522778D01*
X147562917Y-113534554D01*
X147557868Y-113540657D01*
X147557867Y-113540658D01*
X147534975Y-113568330D01*
X147526986Y-113577109D01*
X146607482Y-114496614D01*
X146599398Y-114503970D01*
X146593005Y-114508027D01*
X146587580Y-114513804D01*
X146547131Y-114556878D01*
X146544376Y-114559720D01*
X146524062Y-114580034D01*
X146521417Y-114583445D01*
X146513713Y-114592465D01*
X146483443Y-114624699D01*
X146479626Y-114631643D01*
X146479624Y-114631645D01*
X146473682Y-114642453D01*
X146462828Y-114658977D01*
X146450417Y-114674977D01*
X146447270Y-114682248D01*
X146447270Y-114682249D01*
X146432859Y-114715551D01*
X146427638Y-114726207D01*
X146406338Y-114764952D01*
X146404366Y-114772635D01*
X146404365Y-114772636D01*
X146401301Y-114784568D01*
X146394897Y-114803272D01*
X146390001Y-114814585D01*
X146389999Y-114814592D01*
X146386852Y-114821864D01*
X146385613Y-114829688D01*
X146385612Y-114829691D01*
X146379935Y-114865535D01*
X146377528Y-114877156D01*
X146368013Y-114914218D01*
X146366535Y-114919975D01*
X146366500Y-114920531D01*
X146366500Y-114940452D01*
X146364949Y-114960162D01*
X146361816Y-114979944D01*
X146362562Y-114987836D01*
X146365941Y-115023582D01*
X146366500Y-115035440D01*
X146366500Y-118685406D01*
X146346498Y-118753527D01*
X146329595Y-118774501D01*
X146324501Y-118779595D01*
X146262189Y-118813621D01*
X146235406Y-118816500D01*
X145816244Y-118816500D01*
X145783887Y-118806999D01*
X145783559Y-118808507D01*
X145744452Y-118800000D01*
X145347910Y-118800000D01*
X145329980Y-118798718D01*
X145312465Y-118796200D01*
X145249447Y-118787139D01*
X145249442Y-118787139D01*
X145245000Y-118786500D01*
X144646000Y-118786500D01*
X144577879Y-118766498D01*
X144531386Y-118712842D01*
X144520000Y-118660500D01*
X144520000Y-118378000D01*
X144540002Y-118309879D01*
X144593658Y-118263386D01*
X144646000Y-118252000D01*
X144694000Y-118252000D01*
X144762121Y-118272002D01*
X144808614Y-118325658D01*
X144820000Y-118378000D01*
X144820000Y-118481885D01*
X144824475Y-118497124D01*
X144825865Y-118498329D01*
X144833548Y-118500000D01*
X145739885Y-118500000D01*
X145754814Y-118495616D01*
X145756871Y-118484215D01*
X145753260Y-118433731D01*
X145750874Y-118420509D01*
X145714181Y-118295542D01*
X145706767Y-118279308D01*
X145637574Y-118171640D01*
X145624914Y-118157030D01*
X145595421Y-118092450D01*
X145599773Y-118037257D01*
X145626380Y-117951307D01*
X145626586Y-117937205D01*
X145619830Y-117934000D01*
X144377115Y-117934000D01*
X144361876Y-117938475D01*
X144360671Y-117939865D01*
X144359000Y-117947548D01*
X144359000Y-118378921D01*
X144338998Y-118447042D01*
X144285342Y-118493535D01*
X144215068Y-118503639D01*
X144151949Y-118475151D01*
X144148449Y-118471450D01*
X143998652Y-118369648D01*
X143930206Y-118342272D01*
X143874387Y-118298405D01*
X143851000Y-118225284D01*
X143851000Y-116690115D01*
X143849659Y-116685548D01*
X144359000Y-116685548D01*
X144359000Y-117407885D01*
X144363475Y-117423124D01*
X144364865Y-117424329D01*
X144372548Y-117426000D01*
X145613052Y-117426000D01*
X145626583Y-117422027D01*
X145627703Y-117414232D01*
X145595979Y-117306443D01*
X145591380Y-117295059D01*
X145505496Y-117130778D01*
X145498782Y-117120517D01*
X145382620Y-116976041D01*
X145374042Y-116967281D01*
X145232030Y-116848119D01*
X145221916Y-116841193D01*
X145059458Y-116751882D01*
X145048194Y-116747054D01*
X144871484Y-116690998D01*
X144859497Y-116688450D01*
X144716339Y-116672393D01*
X144709315Y-116672000D01*
X144377115Y-116672000D01*
X144361876Y-116676475D01*
X144360671Y-116677865D01*
X144359000Y-116685548D01*
X143849659Y-116685548D01*
X143846525Y-116674876D01*
X143845135Y-116673671D01*
X143837452Y-116672000D01*
X143507088Y-116672000D01*
X143500940Y-116672301D01*
X143364374Y-116685691D01*
X143352342Y-116688073D01*
X143285919Y-116708128D01*
X143214924Y-116708669D01*
X143154907Y-116670742D01*
X143124923Y-116606388D01*
X143123500Y-116587506D01*
X143123500Y-114938884D01*
X143143502Y-114870763D01*
X143197158Y-114824270D01*
X143237285Y-114813477D01*
X143251246Y-114812117D01*
X143256000Y-114797196D01*
X143256000Y-114322658D01*
X143258232Y-114299048D01*
X143264241Y-114267548D01*
X143764000Y-114267548D01*
X143764000Y-114799852D01*
X143768075Y-114813729D01*
X143781426Y-114815766D01*
X143798286Y-114813636D01*
X143813519Y-114809725D01*
X143949807Y-114755764D01*
X143963589Y-114748188D01*
X144082173Y-114662032D01*
X144093640Y-114651264D01*
X144187070Y-114538325D01*
X144195499Y-114525043D01*
X144257909Y-114392417D01*
X144262771Y-114377452D01*
X144282926Y-114271794D01*
X144281656Y-114258755D01*
X144266731Y-114254000D01*
X143782115Y-114254000D01*
X143766876Y-114258475D01*
X143765671Y-114259865D01*
X143764000Y-114267548D01*
X143264241Y-114267548D01*
X143267386Y-114251063D01*
X143267386Y-114251059D01*
X143268500Y-114245221D01*
X143268500Y-113775421D01*
X143256994Y-113684343D01*
X143256000Y-113668551D01*
X143256000Y-113322658D01*
X143258232Y-113299048D01*
X143264241Y-113267548D01*
X143764000Y-113267548D01*
X143764000Y-113727885D01*
X143768475Y-113743124D01*
X143769865Y-113744329D01*
X143777548Y-113746000D01*
X144266168Y-113746000D01*
X144280046Y-113741925D01*
X144282082Y-113728576D01*
X144273635Y-113661708D01*
X144269726Y-113646484D01*
X144229770Y-113545567D01*
X144223291Y-113474867D01*
X144232914Y-113445534D01*
X144257909Y-113392418D01*
X144262771Y-113377452D01*
X144282926Y-113271794D01*
X144281656Y-113258755D01*
X144266731Y-113254000D01*
X143782115Y-113254000D01*
X143766876Y-113258475D01*
X143765671Y-113259865D01*
X143764000Y-113267548D01*
X143264241Y-113267548D01*
X143267386Y-113251063D01*
X143267386Y-113251059D01*
X143268500Y-113245221D01*
X143268500Y-112775421D01*
X143256994Y-112684343D01*
X143256000Y-112668551D01*
X143256000Y-112202804D01*
X143764000Y-112202804D01*
X143764000Y-112727885D01*
X143768475Y-112743124D01*
X143769865Y-112744329D01*
X143777548Y-112746000D01*
X144266168Y-112746000D01*
X144280046Y-112741925D01*
X144282082Y-112728576D01*
X144273635Y-112661708D01*
X144269726Y-112646484D01*
X144215764Y-112510193D01*
X144208188Y-112496411D01*
X144122032Y-112377827D01*
X144111264Y-112366360D01*
X143998325Y-112272930D01*
X143985043Y-112264501D01*
X143852412Y-112202089D01*
X143837459Y-112197230D01*
X143781794Y-112186611D01*
X143768755Y-112187882D01*
X143764000Y-112202804D01*
X143256000Y-112202804D01*
X143256000Y-112200148D01*
X143251925Y-112186271D01*
X143238574Y-112184234D01*
X143221714Y-112186364D01*
X143206481Y-112190275D01*
X143070191Y-112244236D01*
X143058633Y-112250590D01*
X142989302Y-112265879D01*
X142944286Y-112254184D01*
X142835097Y-112202804D01*
X142825398Y-112198240D01*
X142751975Y-112184234D01*
X142691063Y-112172614D01*
X142691059Y-112172614D01*
X142685221Y-112171500D01*
X142315421Y-112171500D01*
X142193725Y-112186874D01*
X142167569Y-112197230D01*
X142049957Y-112243795D01*
X142049954Y-112243797D01*
X142042583Y-112246715D01*
X141911071Y-112342264D01*
X141906023Y-112348366D01*
X141903841Y-112350415D01*
X141848973Y-112380580D01*
X141841212Y-112381560D01*
X141833835Y-112384481D01*
X141833834Y-112384481D01*
X141800111Y-112397832D01*
X141788882Y-112401677D01*
X141754035Y-112411801D01*
X141754034Y-112411802D01*
X141746422Y-112414013D01*
X141739599Y-112418048D01*
X141728983Y-112424326D01*
X141711231Y-112433022D01*
X141692400Y-112440478D01*
X141669981Y-112456766D01*
X141656629Y-112466467D01*
X141646711Y-112472982D01*
X141608659Y-112495486D01*
X141608241Y-112495855D01*
X141594158Y-112509938D01*
X141579133Y-112522772D01*
X141562917Y-112534554D01*
X141534971Y-112568335D01*
X141526981Y-112577115D01*
X141107487Y-112996609D01*
X141099399Y-113003969D01*
X141093005Y-113008027D01*
X141087580Y-113013804D01*
X141047131Y-113056878D01*
X141044376Y-113059720D01*
X141024062Y-113080034D01*
X141021417Y-113083445D01*
X141013713Y-113092465D01*
X140983443Y-113124699D01*
X140979626Y-113131643D01*
X140979624Y-113131645D01*
X140973682Y-113142453D01*
X140962828Y-113158977D01*
X140950417Y-113174977D01*
X140947270Y-113182248D01*
X140947270Y-113182249D01*
X140932859Y-113215551D01*
X140927638Y-113226207D01*
X140906338Y-113264952D01*
X140904366Y-113272635D01*
X140904365Y-113272636D01*
X140901301Y-113284568D01*
X140894897Y-113303272D01*
X140890001Y-113314585D01*
X140889999Y-113314592D01*
X140886852Y-113321864D01*
X140885613Y-113329688D01*
X140885612Y-113329691D01*
X140879935Y-113365535D01*
X140877528Y-113377156D01*
X140873610Y-113392418D01*
X140866535Y-113419975D01*
X140866500Y-113420531D01*
X140866500Y-113440452D01*
X140864949Y-113460162D01*
X140861816Y-113479944D01*
X140862562Y-113487836D01*
X140865941Y-113523582D01*
X140866500Y-113535440D01*
X140866500Y-116669142D01*
X140846498Y-116737263D01*
X140792842Y-116783756D01*
X140722568Y-116793860D01*
X140679799Y-116779557D01*
X140629458Y-116751882D01*
X140618194Y-116747054D01*
X140441484Y-116690998D01*
X140429497Y-116688450D01*
X140286339Y-116672393D01*
X140279315Y-116672000D01*
X140197115Y-116672000D01*
X140181876Y-116676475D01*
X140180671Y-116677865D01*
X140179000Y-116685548D01*
X140179000Y-118669885D01*
X140183475Y-118685124D01*
X140184865Y-118686329D01*
X140192548Y-118688000D01*
X140272912Y-118688000D01*
X140279060Y-118687699D01*
X140415626Y-118674309D01*
X140427661Y-118671926D01*
X140605124Y-118618346D01*
X140616458Y-118613675D01*
X140681347Y-118579173D01*
X140750885Y-118564854D01*
X140817125Y-118590402D01*
X140859038Y-118647707D01*
X140866500Y-118690425D01*
X140866500Y-123171616D01*
X140865986Y-123182520D01*
X140864334Y-123189911D01*
X140864583Y-123197837D01*
X140864583Y-123197838D01*
X140866438Y-123256866D01*
X140866500Y-123260823D01*
X140866500Y-123289578D01*
X140866996Y-123293503D01*
X140866996Y-123293504D01*
X140867039Y-123293843D01*
X140867972Y-123305687D01*
X140869361Y-123349883D01*
X140875012Y-123369333D01*
X140879022Y-123388695D01*
X140881560Y-123408788D01*
X140884476Y-123416153D01*
X140884477Y-123416157D01*
X140897837Y-123449901D01*
X140901681Y-123461128D01*
X140914014Y-123503578D01*
X140918052Y-123510406D01*
X140924323Y-123521011D01*
X140933019Y-123538762D01*
X140937558Y-123550226D01*
X140940478Y-123557600D01*
X140945139Y-123564015D01*
X140966465Y-123593367D01*
X140972983Y-123603290D01*
X140995486Y-123641341D01*
X140995855Y-123641759D01*
X141009938Y-123655842D01*
X141022772Y-123670867D01*
X141034554Y-123687083D01*
X141067758Y-123714552D01*
X141068335Y-123715029D01*
X141077115Y-123723019D01*
X141496609Y-124142513D01*
X141503969Y-124150601D01*
X141508027Y-124156995D01*
X141513804Y-124162420D01*
X141556878Y-124202869D01*
X141559720Y-124205624D01*
X141580034Y-124225938D01*
X141583445Y-124228583D01*
X141592465Y-124236287D01*
X141624699Y-124266557D01*
X141631643Y-124270374D01*
X141631645Y-124270376D01*
X141642453Y-124276318D01*
X141658977Y-124287172D01*
X141674977Y-124299583D01*
X141682248Y-124302730D01*
X141682249Y-124302730D01*
X141715551Y-124317141D01*
X141726207Y-124322362D01*
X141764952Y-124343662D01*
X141772635Y-124345634D01*
X141772636Y-124345635D01*
X141784568Y-124348699D01*
X141803272Y-124355103D01*
X141814583Y-124359998D01*
X141814590Y-124360000D01*
X141821864Y-124363148D01*
X141849663Y-124367551D01*
X141865538Y-124370065D01*
X141877163Y-124372473D01*
X141914218Y-124381987D01*
X141914220Y-124381987D01*
X141919975Y-124383465D01*
X141920531Y-124383500D01*
X141940446Y-124383500D01*
X141960156Y-124385051D01*
X141979944Y-124388185D01*
X141987835Y-124387439D01*
X142023590Y-124384059D01*
X142035448Y-124383500D01*
X142723633Y-124383500D01*
X142791754Y-124403502D01*
X142838247Y-124457158D01*
X142848351Y-124527432D01*
X142837828Y-124562749D01*
X142814117Y-124613599D01*
X142811235Y-124619780D01*
X142809749Y-124626428D01*
X142809748Y-124626431D01*
X142798424Y-124677091D01*
X142771726Y-124796533D01*
X142771702Y-124803356D01*
X142771702Y-124803357D01*
X142771642Y-124820630D01*
X142771093Y-124977647D01*
X142772536Y-124984319D01*
X142772536Y-124984323D01*
X142793496Y-125081267D01*
X142809367Y-125154672D01*
X142884762Y-125319348D01*
X142888870Y-125324800D01*
X142888871Y-125324801D01*
X142926758Y-125375080D01*
X142951780Y-125441521D01*
X142936908Y-125510943D01*
X142905766Y-125548551D01*
X142845981Y-125597310D01*
X142837277Y-125605954D01*
X142719114Y-125748788D01*
X142712254Y-125758959D01*
X142624082Y-125922031D01*
X142619332Y-125933330D01*
X142583620Y-126048693D01*
X142583414Y-126062795D01*
X142590170Y-126066000D01*
X143832885Y-126066000D01*
X143848124Y-126061525D01*
X143849329Y-126060135D01*
X143851000Y-126052452D01*
X143851000Y-125774868D01*
X143871002Y-125706747D01*
X143931026Y-125657555D01*
X143987119Y-125635573D01*
X143987123Y-125635571D01*
X143993474Y-125633082D01*
X144143977Y-125532328D01*
X144148700Y-125527403D01*
X144152007Y-125524628D01*
X144217047Y-125496162D01*
X144287152Y-125507378D01*
X144340064Y-125554715D01*
X144359000Y-125621148D01*
X144359000Y-126047885D01*
X144363475Y-126063124D01*
X144364865Y-126064329D01*
X144372548Y-126066000D01*
X145613052Y-126066000D01*
X145626583Y-126062027D01*
X145627703Y-126054234D01*
X145598701Y-125955694D01*
X145598656Y-125884698D01*
X145624350Y-125837607D01*
X145670661Y-125784160D01*
X145680307Y-125769152D01*
X145733477Y-125652725D01*
X145738502Y-125635612D01*
X145755422Y-125517929D01*
X145753416Y-125503973D01*
X145739885Y-125500000D01*
X144838115Y-125500000D01*
X144822876Y-125504475D01*
X144821671Y-125505865D01*
X144820000Y-125513548D01*
X144820000Y-125622000D01*
X144799998Y-125690121D01*
X144746342Y-125736614D01*
X144694000Y-125748000D01*
X144646000Y-125748000D01*
X144577879Y-125727998D01*
X144531386Y-125674342D01*
X144520000Y-125622000D01*
X144520000Y-125339500D01*
X144540002Y-125271379D01*
X144593658Y-125224886D01*
X144646000Y-125213500D01*
X145245000Y-125213500D01*
X145268844Y-125211795D01*
X145311342Y-125208755D01*
X145311343Y-125208755D01*
X145318079Y-125208273D01*
X145458316Y-125167096D01*
X145488033Y-125147998D01*
X145573691Y-125092949D01*
X145573694Y-125092947D01*
X145581271Y-125088077D01*
X145676984Y-124977619D01*
X145684278Y-124961648D01*
X145730773Y-124907994D01*
X145763389Y-124893099D01*
X145778693Y-124888605D01*
X145814194Y-124883500D01*
X146421616Y-124883500D01*
X146432520Y-124884014D01*
X146439911Y-124885666D01*
X146447837Y-124885417D01*
X146447838Y-124885417D01*
X146506866Y-124883562D01*
X146510823Y-124883500D01*
X146539578Y-124883500D01*
X146543845Y-124882961D01*
X146555687Y-124882028D01*
X146587335Y-124881033D01*
X146591960Y-124880888D01*
X146599883Y-124880639D01*
X146619334Y-124874988D01*
X146638695Y-124870978D01*
X146641420Y-124870634D01*
X146650930Y-124869433D01*
X146650933Y-124869432D01*
X146658788Y-124868440D01*
X146666153Y-124865524D01*
X146666157Y-124865523D01*
X146699901Y-124852163D01*
X146711130Y-124848318D01*
X146753578Y-124835986D01*
X146760406Y-124831948D01*
X146771011Y-124825677D01*
X146788762Y-124816981D01*
X146800226Y-124812442D01*
X146800229Y-124812440D01*
X146807600Y-124809522D01*
X146843368Y-124783535D01*
X146853291Y-124777016D01*
X146891341Y-124754514D01*
X146891759Y-124754145D01*
X146905842Y-124740062D01*
X146920867Y-124727228D01*
X146937083Y-124715446D01*
X146965030Y-124681664D01*
X146973019Y-124672885D01*
X147392513Y-124253391D01*
X147400601Y-124246031D01*
X147406995Y-124241973D01*
X147452870Y-124193121D01*
X147455624Y-124190280D01*
X147475938Y-124169966D01*
X147478583Y-124166555D01*
X147486289Y-124157533D01*
X147511133Y-124131077D01*
X147516557Y-124125301D01*
X147520376Y-124118355D01*
X147526318Y-124107547D01*
X147537172Y-124091023D01*
X147544725Y-124081286D01*
X147544725Y-124081285D01*
X147549583Y-124075023D01*
X147567142Y-124034447D01*
X147572363Y-124023790D01*
X147593662Y-123985048D01*
X147595635Y-123977364D01*
X147598699Y-123965432D01*
X147605103Y-123946728D01*
X147609998Y-123935417D01*
X147610000Y-123935410D01*
X147613148Y-123928136D01*
X147620065Y-123884462D01*
X147622473Y-123872837D01*
X147631987Y-123835782D01*
X147631987Y-123835780D01*
X147633465Y-123830025D01*
X147633500Y-123829469D01*
X147633500Y-123809554D01*
X147635051Y-123789843D01*
X147636945Y-123777885D01*
X147638185Y-123770056D01*
X147634059Y-123726410D01*
X147633500Y-123714552D01*
X147633500Y-119059548D01*
X147635051Y-119039838D01*
X147636944Y-119027886D01*
X147636944Y-119027885D01*
X147638184Y-119020056D01*
X147634059Y-118976417D01*
X147633500Y-118964560D01*
X147633500Y-115540785D01*
X153988129Y-115540785D01*
X153991740Y-115591269D01*
X153994126Y-115604491D01*
X154030819Y-115729458D01*
X154038233Y-115745692D01*
X154107426Y-115853360D01*
X154119112Y-115866847D01*
X154215840Y-115950662D01*
X154230848Y-115960307D01*
X154347275Y-116013477D01*
X154364388Y-116018502D01*
X154495554Y-116037361D01*
X154504495Y-116038000D01*
X155131885Y-116038000D01*
X155147124Y-116033525D01*
X155148329Y-116032135D01*
X155150000Y-116024452D01*
X155150000Y-115543115D01*
X155145525Y-115527876D01*
X155144135Y-115526671D01*
X155136452Y-115525000D01*
X154005115Y-115525000D01*
X153990186Y-115529384D01*
X153988129Y-115540785D01*
X147633500Y-115540785D01*
X147633500Y-115314594D01*
X147653502Y-115246473D01*
X147670405Y-115225499D01*
X148225499Y-114670405D01*
X148287811Y-114636379D01*
X148314594Y-114633500D01*
X148532425Y-114633500D01*
X148600546Y-114653502D01*
X148612740Y-114662415D01*
X148691408Y-114727495D01*
X148691413Y-114727498D01*
X148697516Y-114732547D01*
X148844602Y-114801760D01*
X148917588Y-114815683D01*
X148978937Y-114827386D01*
X148978941Y-114827386D01*
X148984779Y-114828500D01*
X149354579Y-114828500D01*
X149476275Y-114813126D01*
X149578542Y-114772636D01*
X149620045Y-114756204D01*
X149620047Y-114756203D01*
X149627417Y-114753285D01*
X149632591Y-114749526D01*
X149701254Y-114734383D01*
X149746272Y-114746078D01*
X149864602Y-114801760D01*
X149937588Y-114815683D01*
X149998937Y-114827386D01*
X149998941Y-114827386D01*
X150004779Y-114828500D01*
X150374579Y-114828500D01*
X150496275Y-114813126D01*
X150598542Y-114772636D01*
X150640043Y-114756205D01*
X150640046Y-114756203D01*
X150647417Y-114753285D01*
X150778929Y-114657736D01*
X150780973Y-114660550D01*
X150830216Y-114635609D01*
X150853173Y-114633500D01*
X152538508Y-114633500D01*
X152602647Y-114651046D01*
X152605514Y-114652742D01*
X152611347Y-114657177D01*
X152618042Y-114660151D01*
X152618044Y-114660152D01*
X152666272Y-114681574D01*
X152772954Y-114728960D01*
X152780149Y-114730313D01*
X152927411Y-114758005D01*
X152946741Y-114761640D01*
X152954049Y-114761302D01*
X152954052Y-114761302D01*
X153116070Y-114753803D01*
X153116074Y-114753802D01*
X153123385Y-114753464D01*
X153130423Y-114751452D01*
X153130426Y-114751452D01*
X153286371Y-114706883D01*
X153286375Y-114706881D01*
X153293409Y-114704871D01*
X153447695Y-114618467D01*
X153486159Y-114583160D01*
X153572574Y-114503837D01*
X153572576Y-114503835D01*
X153577966Y-114498887D01*
X153582073Y-114492833D01*
X153582076Y-114492829D01*
X153673123Y-114358604D01*
X153677233Y-114352545D01*
X153740172Y-114187292D01*
X153741133Y-114180042D01*
X153741181Y-114179852D01*
X153774235Y-114121669D01*
X153975499Y-113920405D01*
X154037811Y-113886379D01*
X154064594Y-113883500D01*
X154377967Y-113883500D01*
X154446088Y-113903502D01*
X154492581Y-113957158D01*
X154502684Y-114027432D01*
X154487140Y-114135541D01*
X154487139Y-114135556D01*
X154486500Y-114140000D01*
X154486500Y-114360000D01*
X154491727Y-114433079D01*
X154500803Y-114463990D01*
X154504581Y-114517719D01*
X154504544Y-114517972D01*
X154474895Y-114582481D01*
X154415368Y-114620635D01*
X154295542Y-114655819D01*
X154279308Y-114663233D01*
X154171640Y-114732426D01*
X154158153Y-114744112D01*
X154074338Y-114840840D01*
X154064693Y-114855848D01*
X154011523Y-114972275D01*
X154006498Y-114989388D01*
X153989578Y-115107071D01*
X153991584Y-115121027D01*
X154005115Y-115125000D01*
X155424000Y-115125000D01*
X155492121Y-115145002D01*
X155538614Y-115198658D01*
X155550000Y-115251000D01*
X155550000Y-116019885D01*
X155554475Y-116035124D01*
X155555865Y-116036329D01*
X155563548Y-116038000D01*
X155649848Y-116038000D01*
X155717969Y-116058002D01*
X155764462Y-116111658D01*
X155774566Y-116181932D01*
X155772689Y-116192036D01*
X155767738Y-116213729D01*
X155758421Y-116240359D01*
X155733209Y-116292712D01*
X155718200Y-116316598D01*
X155681975Y-116362023D01*
X155662029Y-116381970D01*
X155616593Y-116418203D01*
X155592711Y-116433209D01*
X155540363Y-116458418D01*
X155513732Y-116467737D01*
X155449372Y-116482426D01*
X155435443Y-116484792D01*
X155430140Y-116485389D01*
X155420005Y-116486118D01*
X155400597Y-116486728D01*
X155353468Y-116488208D01*
X155353463Y-116488209D01*
X155348993Y-116488349D01*
X155340779Y-116489790D01*
X155338983Y-116490105D01*
X155317212Y-116492000D01*
X151078411Y-116492000D01*
X151061203Y-116490819D01*
X151057696Y-116490336D01*
X151029229Y-116486411D01*
X151024360Y-116486496D01*
X150834820Y-116489806D01*
X150829653Y-116489790D01*
X150829363Y-116489783D01*
X150807233Y-116489262D01*
X150802398Y-116489899D01*
X150802147Y-116489912D01*
X150797769Y-116490394D01*
X150796937Y-116490468D01*
X150792465Y-116490546D01*
X150788049Y-116491257D01*
X150788042Y-116491258D01*
X150771824Y-116493871D01*
X150768231Y-116494397D01*
X150442574Y-116537270D01*
X150439629Y-116537623D01*
X150435205Y-116538100D01*
X150415902Y-116540180D01*
X150411486Y-116541363D01*
X150410212Y-116541531D01*
X150396690Y-116545319D01*
X150395317Y-116545695D01*
X150060581Y-116635388D01*
X150057713Y-116636120D01*
X150034565Y-116641742D01*
X150030347Y-116643489D01*
X150029101Y-116643823D01*
X150021039Y-116647270D01*
X150016145Y-116649362D01*
X150014834Y-116649914D01*
X149694730Y-116782506D01*
X149691977Y-116783608D01*
X149674295Y-116790449D01*
X149674286Y-116790453D01*
X149669748Y-116792209D01*
X149665790Y-116794494D01*
X149664600Y-116794987D01*
X149663706Y-116795517D01*
X149652494Y-116802160D01*
X149651267Y-116802878D01*
X149351206Y-116976118D01*
X149348621Y-116977570D01*
X149331968Y-116986669D01*
X149331958Y-116986675D01*
X149327689Y-116989008D01*
X149324068Y-116991787D01*
X149322950Y-116992432D01*
X149322125Y-116993080D01*
X149311807Y-117001185D01*
X149310680Y-117002059D01*
X149219158Y-117072287D01*
X149035823Y-117212965D01*
X149033540Y-117214675D01*
X149014246Y-117228770D01*
X149011016Y-117232000D01*
X149009993Y-117232785D01*
X149009263Y-117233532D01*
X149009258Y-117233536D01*
X149000062Y-117242944D01*
X148999056Y-117243960D01*
X148754169Y-117488847D01*
X148752046Y-117490922D01*
X148734781Y-117507392D01*
X148732001Y-117511015D01*
X148731088Y-117511928D01*
X148730462Y-117512763D01*
X148730456Y-117512770D01*
X148722577Y-117523285D01*
X148721777Y-117524340D01*
X148574205Y-117716659D01*
X148510875Y-117799192D01*
X148509046Y-117801520D01*
X148494071Y-117820112D01*
X148491788Y-117824066D01*
X148491004Y-117825088D01*
X148484075Y-117837411D01*
X148483367Y-117838652D01*
X148310153Y-118138668D01*
X148308644Y-118141212D01*
X148296241Y-118161572D01*
X148294492Y-118165795D01*
X148293848Y-118166910D01*
X148293461Y-118167875D01*
X148288611Y-118179971D01*
X148288072Y-118181293D01*
X148155475Y-118501409D01*
X148154307Y-118504138D01*
X148144671Y-118525934D01*
X148143489Y-118530347D01*
X148142996Y-118531536D01*
X148142736Y-118532551D01*
X148142736Y-118532552D01*
X148139508Y-118545168D01*
X148139148Y-118546542D01*
X148049463Y-118881259D01*
X148048679Y-118884054D01*
X148041959Y-118906962D01*
X148041363Y-118911490D01*
X148041029Y-118912736D01*
X148039326Y-118926909D01*
X148039177Y-118928094D01*
X148014954Y-119112085D01*
X147995221Y-119261974D01*
X147994441Y-119267085D01*
X147990603Y-119289187D01*
X147990518Y-119294055D01*
X147990496Y-119294288D01*
X147990323Y-119298746D01*
X147990276Y-119299535D01*
X147989690Y-119303983D01*
X147989741Y-119308470D01*
X147989927Y-119324894D01*
X147989916Y-119328522D01*
X147986469Y-119525951D01*
X147987027Y-119530396D01*
X147991020Y-119562234D01*
X147992000Y-119577915D01*
X147992000Y-125917379D01*
X147990126Y-125939027D01*
X147987781Y-125952473D01*
X147987692Y-125957332D01*
X147987692Y-125957337D01*
X147985682Y-126067689D01*
X147985382Y-126074380D01*
X147982152Y-126119546D01*
X147981195Y-126128450D01*
X147973595Y-126181307D01*
X147957385Y-126294045D01*
X147955789Y-126302891D01*
X147950056Y-126329244D01*
X147947840Y-126337928D01*
X147919443Y-126434640D01*
X147900702Y-126498465D01*
X147897862Y-126506998D01*
X147888450Y-126532233D01*
X147885008Y-126540543D01*
X147815501Y-126692742D01*
X147811477Y-126700780D01*
X147802092Y-126717969D01*
X147798571Y-126724417D01*
X147793981Y-126732152D01*
X147703535Y-126872891D01*
X147698411Y-126880271D01*
X147690221Y-126891212D01*
X147682255Y-126901853D01*
X147676614Y-126908853D01*
X147567063Y-127035284D01*
X147560933Y-127041867D01*
X147541868Y-127060932D01*
X147535285Y-127067062D01*
X147408859Y-127176610D01*
X147401865Y-127182246D01*
X147380260Y-127198420D01*
X147372902Y-127203528D01*
X147261071Y-127275397D01*
X147232156Y-127293979D01*
X147224428Y-127298565D01*
X147200769Y-127311483D01*
X147192735Y-127315505D01*
X147040549Y-127385006D01*
X147032238Y-127388448D01*
X147006989Y-127397865D01*
X146998457Y-127400705D01*
X146938391Y-127418342D01*
X146837953Y-127447833D01*
X146829247Y-127450055D01*
X146802894Y-127455788D01*
X146794047Y-127457385D01*
X146766824Y-127461299D01*
X146628451Y-127481193D01*
X146619510Y-127482154D01*
X146574383Y-127485382D01*
X146567688Y-127485682D01*
X146460233Y-127487639D01*
X146460228Y-127487639D01*
X146455751Y-127487721D01*
X146440717Y-127490154D01*
X146439309Y-127490382D01*
X146419179Y-127492000D01*
X145103592Y-127492000D01*
X145035471Y-127471998D01*
X144988978Y-127418342D01*
X144978874Y-127348068D01*
X145008368Y-127283488D01*
X145044439Y-127254748D01*
X145210151Y-127166638D01*
X145220360Y-127159856D01*
X145364019Y-127042690D01*
X145372723Y-127034046D01*
X145490886Y-126891212D01*
X145497746Y-126881041D01*
X145585918Y-126717969D01*
X145590668Y-126706670D01*
X145626380Y-126591307D01*
X145626586Y-126577205D01*
X145619830Y-126574000D01*
X142596948Y-126574000D01*
X142583417Y-126577973D01*
X142582297Y-126585768D01*
X142614021Y-126693557D01*
X142618620Y-126704941D01*
X142704504Y-126869222D01*
X142711218Y-126879483D01*
X142827380Y-127023959D01*
X142835958Y-127032719D01*
X142977970Y-127151881D01*
X142988084Y-127158807D01*
X143150537Y-127248115D01*
X143155373Y-127250188D01*
X143210106Y-127295408D01*
X143231703Y-127363040D01*
X143213307Y-127431612D01*
X143160759Y-127479352D01*
X143105738Y-127492000D01*
X140673592Y-127492000D01*
X140605471Y-127471998D01*
X140558978Y-127418342D01*
X140548874Y-127348068D01*
X140578368Y-127283488D01*
X140614439Y-127254748D01*
X140780151Y-127166638D01*
X140790360Y-127159856D01*
X140934019Y-127042690D01*
X140942723Y-127034046D01*
X141060886Y-126891212D01*
X141067746Y-126881041D01*
X141155918Y-126717969D01*
X141160668Y-126706670D01*
X141196380Y-126591307D01*
X141196586Y-126577205D01*
X141189830Y-126574000D01*
X138666948Y-126574000D01*
X138653417Y-126577973D01*
X138652297Y-126585768D01*
X138684021Y-126693557D01*
X138688620Y-126704941D01*
X138774504Y-126869222D01*
X138781218Y-126879483D01*
X138897380Y-127023959D01*
X138905958Y-127032719D01*
X139047970Y-127151881D01*
X139058084Y-127158807D01*
X139220537Y-127248115D01*
X139225373Y-127250188D01*
X139280106Y-127295408D01*
X139301703Y-127363040D01*
X139283307Y-127431612D01*
X139230759Y-127479352D01*
X139175738Y-127492000D01*
X138583528Y-127492000D01*
X138561203Y-127490006D01*
X138557582Y-127489354D01*
X138550326Y-127488048D01*
X138485799Y-127486520D01*
X138469168Y-127486126D01*
X138447576Y-127483741D01*
X138370800Y-127468469D01*
X138347164Y-127461299D01*
X138281884Y-127434259D01*
X138260101Y-127422616D01*
X138201354Y-127383363D01*
X138182263Y-127367694D01*
X138132306Y-127317737D01*
X138116636Y-127298644D01*
X138087726Y-127255377D01*
X138077384Y-127239899D01*
X138065741Y-127218118D01*
X138042035Y-127160886D01*
X138038699Y-127152834D01*
X138031530Y-127129197D01*
X138016260Y-127052425D01*
X138013874Y-127030828D01*
X138012136Y-126957424D01*
X138012136Y-126957422D01*
X138012030Y-126952952D01*
X138011291Y-126948540D01*
X138011290Y-126948528D01*
X138009731Y-126939218D01*
X138008000Y-126918407D01*
X138008000Y-126062795D01*
X138653414Y-126062795D01*
X138660170Y-126066000D01*
X139652885Y-126066000D01*
X139668124Y-126061525D01*
X139669329Y-126060135D01*
X139671000Y-126052452D01*
X139671000Y-125330115D01*
X139669659Y-125325548D01*
X140179000Y-125325548D01*
X140179000Y-126047885D01*
X140183475Y-126063124D01*
X140184865Y-126064329D01*
X140192548Y-126066000D01*
X141183052Y-126066000D01*
X141196583Y-126062027D01*
X141197703Y-126054232D01*
X141165979Y-125946443D01*
X141161380Y-125935059D01*
X141075496Y-125770778D01*
X141068782Y-125760517D01*
X140952620Y-125616041D01*
X140944042Y-125607281D01*
X140802030Y-125488119D01*
X140791916Y-125481193D01*
X140629458Y-125391882D01*
X140618194Y-125387054D01*
X140441484Y-125330998D01*
X140429497Y-125328450D01*
X140286339Y-125312393D01*
X140279315Y-125312000D01*
X140197115Y-125312000D01*
X140181876Y-125316475D01*
X140180671Y-125317865D01*
X140179000Y-125325548D01*
X139669659Y-125325548D01*
X139666525Y-125314876D01*
X139665135Y-125313671D01*
X139657452Y-125312000D01*
X139577088Y-125312000D01*
X139570940Y-125312301D01*
X139434374Y-125325691D01*
X139422339Y-125328074D01*
X139244876Y-125381654D01*
X139233534Y-125386329D01*
X139069856Y-125473357D01*
X139059640Y-125480144D01*
X138915981Y-125597310D01*
X138907277Y-125605954D01*
X138789114Y-125748788D01*
X138782254Y-125758959D01*
X138694082Y-125922031D01*
X138689332Y-125933330D01*
X138653620Y-126048693D01*
X138653414Y-126062795D01*
X138008000Y-126062795D01*
X138008000Y-117945768D01*
X138652297Y-117945768D01*
X138684021Y-118053557D01*
X138688620Y-118064941D01*
X138774504Y-118229222D01*
X138781218Y-118239483D01*
X138897380Y-118383959D01*
X138905958Y-118392719D01*
X139047970Y-118511881D01*
X139058084Y-118518807D01*
X139220542Y-118608118D01*
X139231806Y-118612946D01*
X139408516Y-118669002D01*
X139420503Y-118671550D01*
X139563661Y-118687607D01*
X139570685Y-118688000D01*
X139652885Y-118688000D01*
X139668124Y-118683525D01*
X139669329Y-118682135D01*
X139671000Y-118674452D01*
X139671000Y-117952115D01*
X139666525Y-117936876D01*
X139665135Y-117935671D01*
X139657452Y-117934000D01*
X138666948Y-117934000D01*
X138653417Y-117937973D01*
X138652297Y-117945768D01*
X138008000Y-117945768D01*
X138008000Y-117422795D01*
X138653414Y-117422795D01*
X138660170Y-117426000D01*
X139652885Y-117426000D01*
X139668124Y-117421525D01*
X139669329Y-117420135D01*
X139671000Y-117412452D01*
X139671000Y-116690115D01*
X139666525Y-116674876D01*
X139665135Y-116673671D01*
X139657452Y-116672000D01*
X139577088Y-116672000D01*
X139570940Y-116672301D01*
X139434374Y-116685691D01*
X139422339Y-116688074D01*
X139244876Y-116741654D01*
X139233534Y-116746329D01*
X139069856Y-116833357D01*
X139059640Y-116840144D01*
X138915981Y-116957310D01*
X138907277Y-116965954D01*
X138789114Y-117108788D01*
X138782254Y-117118959D01*
X138694082Y-117282031D01*
X138689332Y-117293330D01*
X138653620Y-117408693D01*
X138653414Y-117422795D01*
X138008000Y-117422795D01*
X138008000Y-106585768D01*
X138652297Y-106585768D01*
X138684021Y-106693557D01*
X138688620Y-106704941D01*
X138774504Y-106869222D01*
X138781218Y-106879483D01*
X138897380Y-107023959D01*
X138905958Y-107032719D01*
X139047970Y-107151881D01*
X139058084Y-107158807D01*
X139220542Y-107248118D01*
X139231806Y-107252946D01*
X139408516Y-107309002D01*
X139420503Y-107311550D01*
X139563661Y-107327607D01*
X139570685Y-107328000D01*
X139652885Y-107328000D01*
X139668124Y-107323525D01*
X139669329Y-107322135D01*
X139671000Y-107314452D01*
X139671000Y-106592115D01*
X139666525Y-106576876D01*
X139665135Y-106575671D01*
X139657452Y-106574000D01*
X138666948Y-106574000D01*
X138653417Y-106577973D01*
X138652297Y-106585768D01*
X138008000Y-106585768D01*
X138008000Y-106062795D01*
X138653414Y-106062795D01*
X138660170Y-106066000D01*
X139652885Y-106066000D01*
X139668124Y-106061525D01*
X139669329Y-106060135D01*
X139671000Y-106052452D01*
X139671000Y-105330115D01*
X139666525Y-105314876D01*
X139665135Y-105313671D01*
X139657452Y-105312000D01*
X139577088Y-105312000D01*
X139570940Y-105312301D01*
X139434374Y-105325691D01*
X139422339Y-105328074D01*
X139244876Y-105381654D01*
X139233534Y-105386329D01*
X139069856Y-105473357D01*
X139059640Y-105480144D01*
X138915981Y-105597310D01*
X138907277Y-105605954D01*
X138789114Y-105748788D01*
X138782254Y-105758959D01*
X138694082Y-105922031D01*
X138689332Y-105933330D01*
X138653620Y-106048693D01*
X138653414Y-106062795D01*
X138008000Y-106062795D01*
X138008000Y-97945768D01*
X138652297Y-97945768D01*
X138684021Y-98053557D01*
X138688620Y-98064941D01*
X138774504Y-98229222D01*
X138781218Y-98239483D01*
X138897380Y-98383959D01*
X138905958Y-98392719D01*
X139047970Y-98511881D01*
X139058084Y-98518807D01*
X139220542Y-98608118D01*
X139231806Y-98612946D01*
X139408516Y-98669002D01*
X139420503Y-98671550D01*
X139563661Y-98687607D01*
X139570685Y-98688000D01*
X139652885Y-98688000D01*
X139668124Y-98683525D01*
X139669329Y-98682135D01*
X139671000Y-98674452D01*
X139671000Y-97952115D01*
X139669659Y-97947548D01*
X140179000Y-97947548D01*
X140179000Y-98669885D01*
X140183475Y-98685124D01*
X140184865Y-98686329D01*
X140192548Y-98688000D01*
X140272912Y-98688000D01*
X140279060Y-98687699D01*
X140415626Y-98674309D01*
X140427661Y-98671926D01*
X140605124Y-98618346D01*
X140616466Y-98613671D01*
X140780144Y-98526643D01*
X140790360Y-98519856D01*
X140934019Y-98402690D01*
X140942723Y-98394046D01*
X141060886Y-98251212D01*
X141067746Y-98241041D01*
X141155918Y-98077969D01*
X141160668Y-98066670D01*
X141196380Y-97951307D01*
X141196586Y-97937205D01*
X141189830Y-97934000D01*
X140197115Y-97934000D01*
X140181876Y-97938475D01*
X140180671Y-97939865D01*
X140179000Y-97947548D01*
X139669659Y-97947548D01*
X139666525Y-97936876D01*
X139665135Y-97935671D01*
X139657452Y-97934000D01*
X138666948Y-97934000D01*
X138653417Y-97937973D01*
X138652297Y-97945768D01*
X138008000Y-97945768D01*
X138008000Y-97083528D01*
X138009994Y-97061203D01*
X138011088Y-97055124D01*
X138011952Y-97050326D01*
X138013874Y-96969169D01*
X138016260Y-96947571D01*
X138019170Y-96932945D01*
X138031531Y-96870800D01*
X138038700Y-96847165D01*
X138044418Y-96833362D01*
X138065743Y-96781879D01*
X138077386Y-96760098D01*
X138091749Y-96738603D01*
X138116637Y-96701355D01*
X138132306Y-96682263D01*
X138182264Y-96632305D01*
X138201355Y-96616636D01*
X138260104Y-96577382D01*
X138281884Y-96565741D01*
X138347160Y-96538702D01*
X138370797Y-96531532D01*
X138393992Y-96526918D01*
X138447579Y-96516260D01*
X138469175Y-96513874D01*
X138542577Y-96512136D01*
X138542579Y-96512136D01*
X138547049Y-96512030D01*
X138551461Y-96511291D01*
X138551473Y-96511290D01*
X138560783Y-96509731D01*
X138581594Y-96508000D01*
X139176408Y-96508000D01*
X139244529Y-96528002D01*
G37*
%TD.AperFunction*%
%TA.AperFunction,Conductor*%
G36*
X142342012Y-120988370D02*
G01*
X142348595Y-120994499D01*
X142496609Y-121142513D01*
X142503969Y-121150601D01*
X142508027Y-121156995D01*
X142513804Y-121162420D01*
X142556878Y-121202869D01*
X142559720Y-121205624D01*
X142580034Y-121225938D01*
X142583445Y-121228583D01*
X142592465Y-121236287D01*
X142624699Y-121266557D01*
X142631643Y-121270374D01*
X142631645Y-121270376D01*
X142642453Y-121276318D01*
X142658977Y-121287172D01*
X142674977Y-121299583D01*
X142682248Y-121302730D01*
X142682249Y-121302730D01*
X142715551Y-121317141D01*
X142726207Y-121322362D01*
X142764952Y-121343662D01*
X142772635Y-121345634D01*
X142772636Y-121345635D01*
X142784568Y-121348699D01*
X142803272Y-121355103D01*
X142814584Y-121359998D01*
X142814587Y-121359999D01*
X142821864Y-121363148D01*
X142829691Y-121364388D01*
X142831420Y-121364890D01*
X142891254Y-121403105D01*
X142920929Y-121467603D01*
X142911024Y-121537905D01*
X142870945Y-121587368D01*
X142729294Y-121691611D01*
X142614803Y-121826376D01*
X142534385Y-121983865D01*
X142492355Y-122155630D01*
X142490966Y-122332458D01*
X142530293Y-122504862D01*
X142608227Y-122663594D01*
X142612877Y-122669245D01*
X142612879Y-122669248D01*
X142624862Y-122683810D01*
X142720588Y-122800141D01*
X142726415Y-122804572D01*
X142726416Y-122804573D01*
X142839026Y-122890204D01*
X142881143Y-122947359D01*
X142885674Y-123018211D01*
X142851180Y-123080265D01*
X142788613Y-123113819D01*
X142762759Y-123116500D01*
X142314594Y-123116500D01*
X142246473Y-123096498D01*
X142225499Y-123079595D01*
X142170405Y-123024501D01*
X142136379Y-122962189D01*
X142133500Y-122935406D01*
X142133500Y-121083594D01*
X142153502Y-121015473D01*
X142207158Y-120968980D01*
X142277432Y-120958876D01*
X142342012Y-120988370D01*
G37*
%TD.AperFunction*%
%TA.AperFunction,Conductor*%
G36*
X153009527Y-112878502D02*
G01*
X153056020Y-112932158D01*
X153066124Y-113002432D01*
X153036630Y-113067012D01*
X153030501Y-113073595D01*
X152875648Y-113228448D01*
X152807891Y-113263533D01*
X152784432Y-113267564D01*
X152621717Y-113336800D01*
X152615827Y-113341135D01*
X152615821Y-113341138D01*
X152614672Y-113341984D01*
X152613752Y-113342319D01*
X152609463Y-113344765D01*
X152609044Y-113344031D01*
X152547951Y-113366248D01*
X152539993Y-113366500D01*
X151854736Y-113366500D01*
X151786615Y-113346498D01*
X151740122Y-113292842D01*
X151730018Y-113222568D01*
X151736988Y-113195651D01*
X151737567Y-113194132D01*
X151737567Y-113194131D01*
X151740172Y-113187292D01*
X151763406Y-113011993D01*
X151763438Y-113008027D01*
X151763469Y-113003915D01*
X151763500Y-113000000D01*
X151763046Y-112996108D01*
X151762836Y-112992225D01*
X151764586Y-112992130D01*
X151775371Y-112929115D01*
X151823281Y-112876720D01*
X151888546Y-112858500D01*
X152941406Y-112858500D01*
X153009527Y-112878502D01*
G37*
%TD.AperFunction*%
%TA.AperFunction,Conductor*%
G36*
X142342012Y-102146207D02*
G01*
X142357567Y-102164137D01*
X142358227Y-102163594D01*
X142470588Y-102300141D01*
X142611347Y-102407177D01*
X142618035Y-102410148D01*
X142618039Y-102410150D01*
X142685097Y-102439936D01*
X142772954Y-102478960D01*
X142852249Y-102493871D01*
X142918057Y-102528606D01*
X143037029Y-102647578D01*
X143047896Y-102659969D01*
X143066190Y-102683810D01*
X143193250Y-102781307D01*
X143200880Y-102784467D01*
X143200881Y-102784468D01*
X143231486Y-102797144D01*
X143254539Y-102806693D01*
X143341214Y-102842596D01*
X143349402Y-102843674D01*
X143478121Y-102860620D01*
X143543048Y-102889342D01*
X143582140Y-102948607D01*
X143585675Y-102963183D01*
X143586245Y-102966347D01*
X143586452Y-102969231D01*
X143578973Y-103038730D01*
X143534419Y-103094006D01*
X143468236Y-103114726D01*
X143468332Y-103116251D01*
X143464374Y-103116500D01*
X143460422Y-103116500D01*
X143456151Y-103117039D01*
X143444322Y-103117971D01*
X143400117Y-103119361D01*
X143392501Y-103121574D01*
X143392499Y-103121574D01*
X143380661Y-103125013D01*
X143361302Y-103129022D01*
X143349079Y-103130566D01*
X143349078Y-103130566D01*
X143341212Y-103131560D01*
X143333836Y-103134480D01*
X143333837Y-103134480D01*
X143300111Y-103147832D01*
X143288882Y-103151677D01*
X143254035Y-103161801D01*
X143254034Y-103161802D01*
X143246422Y-103164013D01*
X143239599Y-103168048D01*
X143228983Y-103174326D01*
X143211231Y-103183022D01*
X143192400Y-103190478D01*
X143180441Y-103199167D01*
X143156629Y-103216467D01*
X143146711Y-103222982D01*
X143108659Y-103245486D01*
X143108241Y-103245855D01*
X143094158Y-103259938D01*
X143079133Y-103272772D01*
X143062917Y-103284554D01*
X143034971Y-103318335D01*
X143026981Y-103327115D01*
X142348595Y-104005501D01*
X142286283Y-104039527D01*
X142215468Y-104034462D01*
X142158632Y-103991915D01*
X142133821Y-103925395D01*
X142133500Y-103916406D01*
X142133500Y-102241431D01*
X142153502Y-102173310D01*
X142207158Y-102126817D01*
X142277432Y-102116713D01*
X142342012Y-102146207D01*
G37*
%TD.AperFunction*%
%TD*%
M02*
