M48
; DRILL file {KiCad 5.99.0-unknown-5f1e9bc8a7~129~ubuntu20.04.1} date Mon Jun 14 18:11:29 2021
; FORMAT={-:-/ absolute / inch / decimal}
; #@! TF.CreationDate,2021-06-14T18:11:29+08:00
; #@! TF.GenerationSoftware,Kicad,Pcbnew,5.99.0-unknown-5f1e9bc8a7~129~ubuntu20.04.1
; #@! TF.FileFunction,Plated,1,2,PTH
FMAT,2
INCH
; #@! TA.AperFunction,Plated,PTH,ViaDrill
T1C0.0118
; #@! TA.AperFunction,Plated,PTH,ComponentDrill
T2C0.0236
%
G90
G05
T1
X5.6063Y-4.8465
X5.6102Y-3.9291
X5.6102Y-4.0709
X5.6299Y-4.0059
X5.6398Y-4.813
X5.6417Y-4.7283
X5.7382Y-4.3996
X5.7559Y-4.9331
X5.7579Y-4.0256
X5.7579Y-4.7933
X5.7677Y-4.3799
X5.9449Y-4.3701
X5.9449Y-4.4488
X5.9823Y-4.3583
X5.9823Y-4.4626
X6.0236Y-4.3307
X6.0236Y-4.4882
X6.0531Y-4.3012
X6.0531Y-4.5177
T2
G00X5.5207Y-3.8457
M15
G01X5.497Y-3.8457
M16
G05
G00X5.5207Y-4.1858
M15
G01X5.497Y-4.1858
M16
G05
G00X5.5207Y-4.6331
M15
G01X5.497Y-4.6331
M16
G05
G00X5.5207Y-4.9732
M15
G01X5.497Y-4.9732
M16
G05
G00X5.6951Y-3.8457
M15
G01X5.6518Y-3.8457
M16
G05
G00X5.6951Y-4.1858
M15
G01X5.6518Y-4.1858
M16
G05
G00X5.6951Y-4.6331
M15
G01X5.6518Y-4.6331
M16
G05
G00X5.6951Y-4.9732
M15
G01X5.6518Y-4.9732
M16
G05
T0
M30
